<?xml version="1.0" encoding="UTF-8"?>
<svg version="1.1" xmlns="http://www.w3.org/2000/svg" width="1200" height="1200">
<path d="M0 0 C396 0 792 0 1200 0 C1200 396 1200 792 1200 1200 C804 1200 408 1200 0 1200 C0 804 0 408 0 0 Z " fill="#D2D3D7" transform="translate(0,0)"/>
<path d="M0 0 C3.90080293 1.71989947 7.76081132 3.51737382 11.60971069 5.35028076 C14.92841267 6.92988025 18.25566633 8.49130651 21.58203125 10.0546875 C22.27468582 10.38066925 22.96734039 10.706651 23.6809845 11.04251099 C31.15293278 14.55335159 38.66727754 17.96909889 46.1875 21.375 C48.96231312 22.63265029 51.73701296 23.89055043 54.51171875 25.1484375 C55.20635223 25.46325073 55.90098572 25.77806396 56.6166687 26.10241699 C64.5864093 29.71606822 72.54303961 33.35831857 80.5 37 C92.5068731 42.49406563 104.52151752 47.97066151 116.54501343 53.42825317 C124.23016595 56.91671427 131.91123711 60.41365592 139.58203125 63.93359375 C142.49207347 65.26847794 145.40222028 66.60313369 148.3125 67.9375 C149.03531158 68.26894012 149.75812317 68.60038025 150.50283813 68.94186401 C162.44659458 74.41452801 174.44427406 79.75828412 186.46157837 85.06710815 C197.70116766 90.03715918 208.85190326 95.17046973 219.95980835 100.42752075 C230.57107378 105.44550415 241.26009854 110.26409716 252 115 C264.06383552 120.31970923 276.04202986 125.78659389 287.95898438 131.42724609 C299.31867289 136.7990789 310.77331542 141.93210986 322.27087402 147.00119019 C334.6143549 152.44710785 346.86063483 158.0761336 359.046875 163.86523438 C366.30131801 167.30517237 373.59307221 170.61647924 380.97393799 173.77638245 C385.89678314 175.89678314 385.89678314 175.89678314 387 177 C387.09517928 179.76942593 387.12552958 182.51373766 387.11352539 185.28344727 C387.11370619 186.60690485 387.11370619 186.60690485 387.11389065 187.95709896 C387.11314137 190.82689328 387.10551245 193.69662348 387.09765625 196.56640625 C387.09618688 198.33264128 387.09516614 200.09887675 387.09460449 201.8651123 C387.08935106 208.43091482 387.07538998 214.99670803 387.0625 221.5625 C387.041875 236.226875 387.02125 250.89125 387 266 C428.58 266 470.16 266 513 266 C513 327.05 513 388.1 513 451 C471.42 451 429.84 451 387 451 C387 479.38 387 507.76 387 537 C371.2585034 544.8707483 371.2585034 544.8707483 365.64453125 547.40234375 C365.02756882 547.68163223 364.41060638 547.96092072 363.77494812 548.24867249 C362.46525157 548.84121184 361.15501058 549.43254924 359.84423828 550.02270508 C356.99203109 551.30691805 354.14266137 552.59737651 351.2930603 553.88735962 C349.79305307 554.56634894 348.29290967 555.24503751 346.79263306 555.9234314 C339.41436429 559.26077264 332.04979309 562.62780193 324.68685913 565.99880981 C311.95309525 571.82859521 299.20971938 577.63683474 286.45800781 583.42724609 C275.7977951 588.26839859 265.14650785 593.1287871 254.5 598 C242.49296356 603.49371039 230.47848374 608.97066094 218.45498657 614.42825317 C210.76983405 617.91671427 203.08876289 621.41365592 195.41796875 624.93359375 C192.50792653 626.26847794 189.59777972 627.60313369 186.6875 628.9375 C185.96468842 629.26894012 185.24187683 629.60038025 184.49716187 629.94186401 C172.55340542 635.41452801 160.55572594 640.75828412 148.53842163 646.06710815 C137.29883234 651.03715918 126.14809674 656.17046973 115.04019165 661.42752075 C104.42892392 666.44550524 93.73987702 671.26403645 83 676 C69.90891982 681.7730076 56.9185997 687.72902176 43.97949219 693.83447266 C42.68948545 694.44310237 41.39944708 695.05166505 40.109375 695.66015625 C39.49132996 695.95168579 38.87328491 696.24321533 38.23651123 696.5435791 C32.16103947 699.40423365 26.05671553 702.19871018 19.91088867 704.9050293 C15.77553527 706.72733611 11.70332657 708.62866998 7.66015625 710.6484375 C6.76586914 711.0830127 5.87158203 711.51758789 4.95019531 711.96533203 C3.24887916 712.79394417 1.55823192 713.64501344 -0.11816406 714.52294922 C-0.88741211 714.89178223 -1.65666016 715.26061523 -2.44921875 715.640625 C-3.11268311 715.97610352 -3.77614746 716.31158203 -4.4597168 716.65722656 C-11.23681305 717.57169491 -18.69239847 712.91241815 -24.6875 710.078125 C-25.49484589 709.70152237 -26.30219177 709.32491974 -27.13400269 708.93690491 C-28.86112542 708.13073221 -30.58724812 707.32241413 -32.31243896 706.51211548 C-36.91454447 704.35090369 -41.52427348 702.206043 -46.1328125 700.05859375 C-47.05981964 699.6260881 -47.98682678 699.19358246 -48.94192505 698.74797058 C-57.22954504 694.88410641 -65.54530772 691.08463873 -73.875 687.3125 C-76.54954218 686.10039944 -79.22398263 684.88807445 -81.8984375 683.67578125 C-82.55861877 683.37662811 -83.21880005 683.07747498 -83.89898682 682.76925659 C-91.77475153 679.19867876 -99.6369924 675.5985588 -107.5 672 C-118.82615819 666.81746061 -130.1589411 661.64984956 -141.5 656.5 C-153.57802788 651.01550097 -165.64570697 645.50874221 -177.70800781 639.98974609 C-188.97919518 634.83314045 -200.25853634 629.69479787 -211.54501343 624.57174683 C-219.23016595 621.08328573 -226.91123711 617.58634408 -234.58203125 614.06640625 C-237.49207347 612.73152206 -240.40222028 611.39686631 -243.3125 610.0625 C-244.03531158 609.73105988 -244.75812317 609.39961975 -245.50283813 609.05813599 C-257.44659458 603.58547199 -269.44427406 598.24171588 -281.46157837 592.93289185 C-292.70116766 587.96284082 -303.85190326 582.82953027 -314.95980835 577.57247925 C-325.57108217 572.55449188 -336.26020185 567.73615307 -347 563 C-359.02316508 557.69699902 -370.9826412 552.27814886 -382.875 546.6875 C-383.55385254 546.3685376 -384.23270508 546.0495752 -384.93212891 545.72094727 C-390.98619657 542.87332617 -397.01527847 539.99236076 -403 537 C-403 508.62 -403 480.24 -403 451 C-445.24 451 -487.48 451 -531 451 C-531 389.95 -531 328.9 -531 266 C-488.76 266 -446.52 266 -403 266 C-403 236.63 -403 207.26 -403 177 C-387.2585034 169.1292517 -387.2585034 169.1292517 -381.64453125 166.59765625 C-381.02756882 166.31836777 -380.41060638 166.03907928 -379.77494812 165.75132751 C-378.46525157 165.15878816 -377.15501058 164.56745076 -375.84423828 163.97729492 C-372.99203109 162.69308195 -370.14266137 161.40262349 -367.2930603 160.11264038 C-365.79305307 159.43365106 -364.29290967 158.75496249 -362.79263306 158.0765686 C-355.41436429 154.73922736 -348.04979309 151.37219807 -340.68685913 148.00119019 C-327.95309525 142.17140479 -315.20971938 136.36316526 -302.45800781 130.57275391 C-291.7977951 125.73160141 -281.14650785 120.8712129 -270.5 116 C-258.49391963 110.50672705 -246.47973765 105.03168862 -234.45800781 99.57275391 C-223.7977951 94.73160141 -213.14650785 89.8712129 -202.5 85 C-190.49391963 79.50672705 -178.47973765 74.03168862 -166.45800781 68.57275391 C-155.7977951 63.73160141 -145.14650785 58.8712129 -134.5 54 C-122.49296356 48.50628961 -110.47848374 43.02933906 -98.45498657 37.57174683 C-90.76983409 34.08328575 -83.08875976 30.58635084 -75.41796875 27.06640625 C-58.45095954 19.28319333 -41.44545281 11.59796364 -24.37182617 4.05102539 C-23.6385611 3.72661972 -22.90529602 3.40221405 -22.14981079 3.06797791 C-20.78309854 2.46357563 -19.41599831 1.86004956 -18.0484314 1.25758362 C-15.5757883 0.16444544 -13.15237893 -0.91273752 -10.80444336 -2.25732422 C-7.12381553 -3.7722031 -3.4695209 -1.44563371 0 0 Z " fill="#D2D3D7" transform="translate(608,243)"/>
<path d="M0 0 C0.68143066 0.30181686 1.36286133 0.60363373 2.06494141 0.91459656 C4.33278917 1.92098419 6.59815387 2.93281809 8.86328125 3.9453125 C9.65054596 4.296008 10.43781067 4.64670349 11.24893188 5.00802612 C25.92853769 11.54956258 40.51646586 18.28330347 55.0871582 25.06323242 C67.0548813 30.6314889 79.05047212 36.13337773 91.07373047 41.58056641 C92.41114021 42.18650711 93.74854256 42.79246413 95.0859375 43.3984375 C95.74660217 43.69773163 96.40726685 43.99702576 97.08795166 44.3053894 C101.97596569 46.52158098 106.85660382 48.75355159 111.734375 50.9921875 C127.3241906 58.14481846 142.94772313 65.20628892 158.63735962 72.13742065 C169.87999852 77.10882019 181.03318061 82.24459664 192.14465332 87.50186157 C202.56809944 92.42941726 213.06380605 97.16917222 223.61328125 101.8203125 C236.70365081 107.59179443 249.70936772 113.52559598 262.67578125 119.5703125 C276.99096975 126.24353174 291.35485722 132.7845776 305.82421875 139.1171875 C320.39888816 145.52661606 334.73096606 152.32939875 349.17578125 159.0703125 C349.17578125 182.8303125 349.17578125 206.5903125 349.17578125 231.0703125 C112.23578125 231.0703125 -124.70421875 231.0703125 -368.82421875 231.0703125 C-368.82421875 207.3103125 -368.82421875 183.5503125 -368.82421875 159.0703125 C-329.03607061 140.53884624 -329.03607061 140.53884624 -309.82421875 132.0703125 C-295.10168012 125.57841808 -280.4919521 118.86091365 -265.90380859 112.07299805 C-253.93897487 106.50647301 -241.9464774 101.00586523 -229.92626953 95.56005859 C-228.58885979 94.95411789 -227.25145744 94.34816087 -225.9140625 93.7421875 C-224.92306549 93.29324631 -224.92306549 93.29324631 -223.91204834 92.8352356 C-219.02403431 90.61904402 -214.14339618 88.38707341 -209.265625 86.1484375 C-193.6758094 78.99580654 -178.05227687 71.93433608 -162.36264038 65.00320435 C-151.12000148 60.03180481 -139.96681939 54.89602836 -128.85534668 49.63876343 C-117.69448245 44.36260241 -106.44439915 39.31367069 -95.14871216 34.33361816 C-83.50810652 29.19734638 -71.93945083 23.92002074 -60.40460205 18.55053711 C-52.88170914 15.04873739 -45.35375178 11.55780878 -37.82421875 8.0703125 C-36.72364136 7.56032715 -36.72364136 7.56032715 -35.60083008 7.04003906 C-31.07973455 4.94744416 -26.54895804 2.87766899 -22.01171875 0.8203125 C-20.91529053 0.31274414 -19.8188623 -0.19482422 -18.68920898 -0.71777344 C-17.69606689 -1.16411133 -16.7029248 -1.61044922 -15.6796875 -2.0703125 C-14.83043701 -2.45735352 -13.98118652 -2.84439453 -13.10620117 -3.24316406 C-8.39322484 -4.66104033 -4.28716085 -1.915786 0 0 Z " fill="#D2D3D7" transform="translate(609.82421875,277.9296875)"/>
<path d="M0 0 C236.94 0 473.88 0 718 0 C718 22.77 718 45.54 718 69 C678.21185186 87.53146626 678.21185186 87.53146626 659 96 C644.27746137 102.49189442 629.66773335 109.20939885 615.07958984 115.99731445 C603.11475612 121.56383949 591.12225865 127.06444727 579.10205078 132.51025391 C577.76464104 133.11619461 576.42723869 133.72215163 575.08984375 134.328125 C574.42917908 134.62741913 573.7685144 134.92671326 573.08782959 135.2350769 C568.19981558 137.45126847 563.31917573 139.68323539 558.44140625 141.921875 C543.79165546 148.64332229 529.11853649 155.299062 514.375 161.8125 C499.530599 168.37163501 484.79485991 175.15015978 470.08105469 181.99658203 C458.12379074 187.55968807 446.13890784 193.05698572 434.1262207 198.49926758 C432.7950768 199.10235901 431.46394074 199.70546774 430.1328125 200.30859375 C429.47441879 200.60685562 428.81602509 200.90511749 428.13768005 201.2124176 C423.1040868 203.49461814 418.07810483 205.79315322 413.0546875 208.09765625 C399.58601558 214.27574692 386.11565784 220.44637908 372.5625 226.4375 C371.53833984 226.8922168 370.51417969 227.34693359 369.45898438 227.81542969 C368.52505859 228.22567383 367.59113281 228.63591797 366.62890625 229.05859375 C365.82525635 229.41236084 365.02160645 229.76612793 364.19360352 230.13061523 C363.10776978 230.56096069 363.10776978 230.56096069 362 231 C361.07658813 231.39541992 361.07658813 231.39541992 360.13452148 231.79882812 C356.77664635 232.1152972 354.17040863 230.58462183 351.21875 229.16015625 C350.54625214 228.8474881 349.87375427 228.53481995 349.18087769 228.212677 C347.71918743 227.53164497 346.25995309 226.84532278 344.80291748 226.15438843 C341.65597988 224.66232248 338.4974744 223.19556258 335.33920288 221.72767639 C333.68891569 220.9606171 332.03920424 220.19231802 330.39004517 219.4228363 C322.82713052 215.89961041 315.20681763 212.51473846 307.57052612 209.15426636 C293.78908495 203.08581946 280.09181602 196.84907107 266.4375 190.5 C265.57555023 190.09924255 264.71360046 189.69848511 263.82553101 189.2855835 C260.37717219 187.68204314 256.92891375 186.07828715 253.48078918 184.47424316 C245.06210634 180.5598718 236.63004499 176.67512182 228.1875 172.8125 C227.47578644 172.48682037 226.76407288 172.16114075 226.03079224 171.82559204 C214.44190803 166.52767095 202.80066054 161.35285487 191.14569092 156.20233154 C177.0473918 149.96619787 163.05769155 143.50683134 149.08105469 137.00341797 C137.11576507 131.436578 125.12275589 125.93577801 113.10205078 120.48974609 C111.76464104 119.88380539 110.42723869 119.27784837 109.08984375 118.671875 C108.42917908 118.37258087 107.7685144 118.07328674 107.08782959 117.7649231 C102.19981557 115.54873153 97.31917636 113.31676324 92.44140625 111.078125 C74.67756161 102.92465326 74.67756161 102.92465326 56.84375 94.92578125 C56.07593704 94.58549393 55.30812408 94.2452066 54.51704407 93.89460754 C50.89940315 92.29284336 47.27985935 90.69559732 43.65698242 89.10571289 C28.98710252 82.63440367 14.54376295 75.78708938 0 69 C0 46.23 0 23.46 0 0 Z " fill="#D2D3D7" transform="translate(241,694)"/>
<path d="M0 0 C3.90080293 1.71989947 7.76081132 3.51737382 11.60971069 5.35028076 C14.92841267 6.92988025 18.25566633 8.49130651 21.58203125 10.0546875 C22.27468582 10.38066925 22.96734039 10.706651 23.6809845 11.04251099 C31.15293278 14.55335159 38.66727754 17.96909889 46.1875 21.375 C48.96231312 22.63265029 51.73701296 23.89055043 54.51171875 25.1484375 C55.20635223 25.46325073 55.90098572 25.77806396 56.6166687 26.10241699 C64.5864093 29.71606822 72.54303961 33.35831857 80.5 37 C92.5068731 42.49406563 104.52151752 47.97066151 116.54501343 53.42825317 C124.23016595 56.91671427 131.91123711 60.41365592 139.58203125 63.93359375 C142.49207347 65.26847794 145.40222028 66.60313369 148.3125 67.9375 C149.03531158 68.26894012 149.75812317 68.60038025 150.50283813 68.94186401 C162.44659458 74.41452801 174.44427406 79.75828412 186.46157837 85.06710815 C197.70116766 90.03715918 208.85190326 95.17046973 219.95980835 100.42752075 C230.57107378 105.44550415 241.26009854 110.26409716 252 115 C264.06383552 120.31970923 276.04202986 125.78659389 287.95898438 131.42724609 C299.31867289 136.7990789 310.77331542 141.93210986 322.27087402 147.00119019 C334.6143549 152.44710785 346.86063483 158.0761336 359.046875 163.86523438 C366.30131801 167.30517237 373.59307221 170.61647924 380.97393799 173.77638245 C385.89678314 175.89678314 385.89678314 175.89678314 387 177 C387.09517928 179.76942593 387.12552958 182.51373766 387.11352539 185.28344727 C387.11370619 186.60690485 387.11370619 186.60690485 387.11389065 187.95709896 C387.11314137 190.82689328 387.10551245 193.69662348 387.09765625 196.56640625 C387.09618688 198.33264128 387.09516614 200.09887675 387.09460449 201.8651123 C387.08935106 208.43091482 387.07538998 214.99670803 387.0625 221.5625 C387.041875 236.226875 387.02125 250.89125 387 266 C428.58 266 470.16 266 513 266 C513 327.05 513 388.1 513 451 C471.42 451 429.84 451 387 451 C387 479.38 387 507.76 387 537 C371.2585034 544.8707483 371.2585034 544.8707483 365.64453125 547.40234375 C365.02756882 547.68163223 364.41060638 547.96092072 363.77494812 548.24867249 C362.46525157 548.84121184 361.15501058 549.43254924 359.84423828 550.02270508 C356.99203109 551.30691805 354.14266137 552.59737651 351.2930603 553.88735962 C349.79305307 554.56634894 348.29290967 555.24503751 346.79263306 555.9234314 C339.41436429 559.26077264 332.04979309 562.62780193 324.68685913 565.99880981 C311.95309525 571.82859521 299.20971938 577.63683474 286.45800781 583.42724609 C275.7977951 588.26839859 265.14650785 593.1287871 254.5 598 C242.49296356 603.49371039 230.47848374 608.97066094 218.45498657 614.42825317 C210.76983405 617.91671427 203.08876289 621.41365592 195.41796875 624.93359375 C192.50792653 626.26847794 189.59777972 627.60313369 186.6875 628.9375 C185.96468842 629.26894012 185.24187683 629.60038025 184.49716187 629.94186401 C172.55340542 635.41452801 160.55572594 640.75828412 148.53842163 646.06710815 C137.29883234 651.03715918 126.14809674 656.17046973 115.04019165 661.42752075 C104.42892392 666.44550524 93.73987702 671.26403645 83 676 C69.90891982 681.7730076 56.9185997 687.72902176 43.97949219 693.83447266 C42.68948545 694.44310237 41.39944708 695.05166505 40.109375 695.66015625 C39.49132996 695.95168579 38.87328491 696.24321533 38.23651123 696.5435791 C32.16103947 699.40423365 26.05671553 702.19871018 19.91088867 704.9050293 C15.77553527 706.72733611 11.70332657 708.62866998 7.66015625 710.6484375 C6.76586914 711.0830127 5.87158203 711.51758789 4.95019531 711.96533203 C3.24887916 712.79394417 1.55823192 713.64501344 -0.11816406 714.52294922 C-0.88741211 714.89178223 -1.65666016 715.26061523 -2.44921875 715.640625 C-3.11268311 715.97610352 -3.77614746 716.31158203 -4.4597168 716.65722656 C-11.23681305 717.57169491 -18.69239847 712.91241815 -24.6875 710.078125 C-25.49484589 709.70152237 -26.30219177 709.32491974 -27.13400269 708.93690491 C-28.86112542 708.13073221 -30.58724812 707.32241413 -32.31243896 706.51211548 C-36.91454447 704.35090369 -41.52427348 702.206043 -46.1328125 700.05859375 C-47.05981964 699.6260881 -47.98682678 699.19358246 -48.94192505 698.74797058 C-57.22954504 694.88410641 -65.54530772 691.08463873 -73.875 687.3125 C-76.54954218 686.10039944 -79.22398263 684.88807445 -81.8984375 683.67578125 C-82.55861877 683.37662811 -83.21880005 683.07747498 -83.89898682 682.76925659 C-91.77475153 679.19867876 -99.6369924 675.5985588 -107.5 672 C-118.82615819 666.81746061 -130.1589411 661.64984956 -141.5 656.5 C-153.57802788 651.01550097 -165.64570697 645.50874221 -177.70800781 639.98974609 C-188.97919518 634.83314045 -200.25853634 629.69479787 -211.54501343 624.57174683 C-219.23016595 621.08328573 -226.91123711 617.58634408 -234.58203125 614.06640625 C-237.49207347 612.73152206 -240.40222028 611.39686631 -243.3125 610.0625 C-244.03531158 609.73105988 -244.75812317 609.39961975 -245.50283813 609.05813599 C-257.44659458 603.58547199 -269.44427406 598.24171588 -281.46157837 592.93289185 C-292.70116766 587.96284082 -303.85190326 582.82953027 -314.95980835 577.57247925 C-325.57108217 572.55449188 -336.26020185 567.73615307 -347 563 C-359.02316508 557.69699902 -370.9826412 552.27814886 -382.875 546.6875 C-383.55385254 546.3685376 -384.23270508 546.0495752 -384.93212891 545.72094727 C-390.98619657 542.87332617 -397.01527847 539.99236076 -403 537 C-403 508.62 -403 480.24 -403 451 C-445.24 451 -487.48 451 -531 451 C-531 389.95 -531 328.9 -531 266 C-488.76 266 -446.52 266 -403 266 C-403 236.63 -403 207.26 -403 177 C-387.2585034 169.1292517 -387.2585034 169.1292517 -381.64453125 166.59765625 C-381.02756882 166.31836777 -380.41060638 166.03907928 -379.77494812 165.75132751 C-378.46525157 165.15878816 -377.15501058 164.56745076 -375.84423828 163.97729492 C-372.99203109 162.69308195 -370.14266137 161.40262349 -367.2930603 160.11264038 C-365.79305307 159.43365106 -364.29290967 158.75496249 -362.79263306 158.0765686 C-355.41436429 154.73922736 -348.04979309 151.37219807 -340.68685913 148.00119019 C-327.95309525 142.17140479 -315.20971938 136.36316526 -302.45800781 130.57275391 C-291.7977951 125.73160141 -281.14650785 120.8712129 -270.5 116 C-258.49391963 110.50672705 -246.47973765 105.03168862 -234.45800781 99.57275391 C-223.7977951 94.73160141 -213.14650785 89.8712129 -202.5 85 C-190.49391963 79.50672705 -178.47973765 74.03168862 -166.45800781 68.57275391 C-155.7977951 63.73160141 -145.14650785 58.8712129 -134.5 54 C-122.49296356 48.50628961 -110.47848374 43.02933906 -98.45498657 37.57174683 C-90.76983409 34.08328575 -83.08875976 30.58635084 -75.41796875 27.06640625 C-58.45095954 19.28319333 -41.44545281 11.59796364 -24.37182617 4.05102539 C-23.6385611 3.72661972 -22.90529602 3.40221405 -22.14981079 3.06797791 C-20.78309854 2.46357563 -19.41599831 1.86004956 -18.0484314 1.25758362 C-15.5757883 0.16444544 -13.15237893 -0.91273752 -10.80444336 -2.25732422 C-7.12381553 -3.7722031 -3.4695209 -1.44563371 0 0 Z M-15.78125 33.83984375 C-16.45374786 34.1525119 -17.12624573 34.46518005 -17.81912231 34.787323 C-19.28081257 35.46835503 -20.74004691 36.15467722 -22.19708252 36.84561157 C-25.34402012 38.33767752 -28.5025256 39.80443742 -31.66079712 41.27232361 C-33.31108431 42.0393829 -34.96079576 42.80768198 -36.60995483 43.5771637 C-44.17286948 47.10038959 -51.79318237 50.48526154 -59.42947388 53.84573364 C-73.21091505 59.91418054 -86.90818398 66.15092893 -100.5625 72.5 C-101.42444977 72.90075745 -102.28639954 73.30151489 -103.17446899 73.7144165 C-106.62282781 75.31795686 -110.07108625 76.92171285 -113.51921082 78.52575684 C-121.93789366 82.4401282 -130.36995501 86.32487818 -138.8125 90.1875 C-139.52421356 90.51317963 -140.23592712 90.83885925 -140.96920776 91.17440796 C-152.55809197 96.47232905 -164.19933946 101.64714513 -175.85430908 106.79766846 C-189.9526082 113.03380213 -203.94230845 119.49316866 -217.91894531 125.99658203 C-229.88423493 131.563422 -241.87724411 137.06422199 -253.89794922 142.51025391 C-255.23535896 143.11619461 -256.57276131 143.72215163 -257.91015625 144.328125 C-258.57082092 144.62741913 -259.2314856 144.92671326 -259.91217041 145.2350769 C-264.80018443 147.45126847 -269.68082364 149.68323676 -274.55859375 151.921875 C-298.66374804 162.9814815 -298.66374804 162.9814815 -310.15625 168.07421875 C-311.30796944 168.58464973 -311.30796944 168.58464973 -312.48295593 169.10539246 C-316.10059685 170.70715664 -319.72014065 172.30440268 -323.34301758 173.89428711 C-338.01289748 180.36559633 -352.45623705 187.21291062 -367 194 C-367 217.76 -367 241.52 -367 266 C-130.06 266 106.88 266 351 266 C351 242.24 351 218.48 351 194 C321.59216768 180.29591615 321.59216768 180.29591615 292 167 C277.27746137 160.50810558 262.66773335 153.79060115 248.07958984 147.00268555 C236.11475612 141.43616051 224.12225865 135.93555273 212.10205078 130.48974609 C210.76464104 129.88380539 209.42723869 129.27784837 208.08984375 128.671875 C207.42917908 128.37258087 206.7685144 128.07328674 206.08782959 127.7649231 C201.19981558 125.54873153 196.31917573 123.31676461 191.44140625 121.078125 C176.79165278 114.35667648 162.11845925 107.7011158 147.375 101.1875 C134.33319979 95.42417558 121.36657668 89.51184466 108.4375 83.5 C107.57555023 83.09924255 106.71360046 82.69848511 105.82553101 82.2855835 C102.37717219 80.68204314 98.92891375 79.07828715 95.48078918 77.47424316 C73.62500501 67.3121243 51.67676622 57.36333062 29.63549805 47.61035156 C20.17057396 43.42091951 10.73019475 39.18509288 1.34057617 34.82861328 C0.15105347 34.28116455 0.15105347 34.28116455 -1.0625 33.72265625 C-1.73410156 33.41078369 -2.40570312 33.09891113 -3.09765625 32.77758789 C-3.72542969 32.52098389 -4.35320312 32.26437988 -5 32 C-5.60134766 31.74089844 -6.20269531 31.48179687 -6.82226562 31.21484375 C-10.20661966 30.88096129 -12.80628334 32.40412975 -15.78125 33.83984375 Z M-518 279 C-518 331.14 -518 383.28 -518 437 C-182.06 437 153.88 437 500 437 C500 384.86 500 332.72 500 279 C164.06 279 -171.88 279 -518 279 Z M-367 451 C-367 473.77 -367 496.54 -367 520 C-337.59216768 533.70408385 -337.59216768 533.70408385 -308 547 C-293.27746137 553.49189442 -278.66773335 560.20939885 -264.07958984 566.99731445 C-252.11475612 572.56383949 -240.12225865 578.06444727 -228.10205078 583.51025391 C-226.76464104 584.11619461 -225.42723869 584.72215163 -224.08984375 585.328125 C-223.42917908 585.62741913 -222.7685144 585.92671326 -222.08782959 586.2350769 C-217.19981556 588.45126848 -212.31917743 590.68323909 -207.44140625 592.921875 C-191.85159065 600.07450596 -176.22805812 607.13597642 -160.53842163 614.06710815 C-149.29578273 619.03850769 -138.14260064 624.17428414 -127.03112793 629.43154907 C-115.8702637 634.70771009 -104.6201804 639.75664181 -93.32449341 644.73669434 C-81.68388777 649.87296612 -70.11523208 655.15029176 -58.5803833 660.51977539 C-51.05749039 664.02157511 -43.52953303 667.51250372 -36 671 C-35.26628174 671.33999023 -34.53256348 671.67998047 -33.77661133 672.03027344 C-29.2555158 674.12286834 -24.72473929 676.19264351 -20.1875 678.25 C-18.54285767 679.01135254 -18.54285767 679.01135254 -16.86499023 679.78808594 C-15.87184814 680.23442383 -14.87870605 680.68076172 -13.85546875 681.140625 C-13.00621826 681.52766602 -12.15696777 681.91470703 -11.28198242 682.31347656 C-6.56900609 683.73135283 -2.4629421 680.9860985 1.82421875 679.0703125 C2.50564941 678.76849564 3.18708008 678.46667877 3.88916016 678.15571594 C6.15700792 677.14932831 8.42237262 676.13749441 10.6875 675.125 C11.86839706 674.59895676 11.86839706 674.59895676 13.07315063 674.06228638 C27.75275644 667.52074992 42.34068461 660.78700903 56.91137695 654.00708008 C68.87910005 648.4388236 80.87469087 642.93693477 92.89794922 637.48974609 C94.23535896 636.88380539 95.57276131 636.27784837 96.91015625 635.671875 C97.57082092 635.37258087 98.2314856 635.07328674 98.91217041 634.7649231 C103.80018444 632.54873152 108.68082257 630.31676091 113.55859375 628.078125 C129.14840935 620.92549404 144.77194188 613.86402358 160.46157837 606.93289185 C171.70421727 601.96149231 182.85739936 596.82571586 193.96887207 591.56845093 C204.39231819 586.64089524 214.8880248 581.90114028 225.4375 577.25 C238.52786956 571.47851807 251.53358647 565.54471652 264.5 559.5 C278.8151885 552.82678076 293.17907597 546.2857349 307.6484375 539.953125 C322.22310691 533.54369644 336.55518481 526.74091375 351 520 C351 497.23 351 474.46 351 451 C114.06 451 -122.88 451 -367 451 Z " fill="#506370" transform="translate(608,243)"/>
<path d="M0 0 C335.94 0 671.88 0 1018 0 C1018 52.14 1018 104.28 1018 158 C682.06 158 346.12 158 0 158 C0 105.86 0 53.72 0 0 Z M20 20 C20 58.28 20 96.56 20 136 C342.41 136 664.82 136 997 136 C997 97.72 997 59.44 997 20 C674.59 20 352.18 20 20 20 Z " fill="#D2D3D7" transform="translate(90,522)"/>
<path d="M0 0 C0.72262527 0.33353485 1.44525055 0.6670697 2.18977356 1.01071167 C3.74597746 1.72934801 5.30153548 2.44938434 6.85650635 3.17068481 C11.03421787 5.10841917 15.216745 7.03571973 19.3984375 8.96484375 C20.24950073 9.35783157 21.10056396 9.7508194 21.97741699 10.15571594 C30.00561575 13.86112313 38.0527943 17.52394284 46.10546875 21.17578125 C48.81655487 22.40592273 51.52747505 23.6364293 54.23828125 24.8671875 C54.91100571 25.17260971 55.58373016 25.47803192 56.27684021 25.79270935 C64.18480409 29.38478564 72.08248658 32.99932567 79.98046875 36.61328125 C91.30671771 41.79562313 102.6394092 46.9634314 113.98046875 52.11328125 C126.05849663 57.59778028 138.12617572 63.10453904 150.18847656 68.62353516 C161.45966393 73.7801408 172.73900509 78.91848338 184.02548218 84.04153442 C191.7106347 87.52999552 199.39170586 91.02693717 207.0625 94.546875 C209.97254222 95.88175919 212.88268903 97.21641494 215.79296875 98.55078125 C216.51578033 98.88222137 217.23859192 99.2136615 217.98330688 99.55514526 C229.92706333 105.02780926 241.92474281 110.37156537 253.94204712 115.6803894 C265.18163641 120.65044043 276.33237201 125.78375098 287.4402771 131.040802 C298.05155775 136.05879259 308.74076449 140.87690459 319.48046875 145.61328125 C331.60538261 150.96227155 343.66887025 156.42479528 355.66796875 162.05078125 C356.36817139 162.37828369 357.06837402 162.70578613 357.78979492 163.04321289 C359.74403075 163.95825289 361.69661051 164.87670982 363.6484375 165.796875 C364.75469482 166.31822021 365.86095215 166.83956543 367.00073242 167.37670898 C369.48046875 168.61328125 369.48046875 168.61328125 370.48046875 169.61328125 C370.57551126 172.13869127 370.60604033 174.63665251 370.59399414 177.16235352 C370.59414017 177.95253876 370.59428619 178.742724 370.59443665 179.55685425 C370.59373732 182.18115947 370.58594402 184.80539461 370.578125 187.4296875 C370.57626089 189.2442979 370.57483695 191.05890881 370.57383728 192.8735199 C370.57001154 197.65918355 370.56018079 202.44481705 370.5491333 207.23046875 C370.53892038 212.11002189 370.53433992 216.98957989 370.52929688 221.86914062 C370.51855856 231.45053624 370.50096132 241.03190153 370.48046875 250.61328125 C364.21046875 250.61328125 357.94046875 250.61328125 351.48046875 250.61328125 C351.48046875 225.86328125 351.48046875 201.11328125 351.48046875 175.61328125 C347.02546875 174.12828125 347.02546875 174.12828125 342.48046875 172.61328125 C339.7361767 171.42922454 337.03514131 170.22193801 334.3359375 168.9453125 C333.58114105 168.59364014 332.8263446 168.24196777 332.04867554 167.87963867 C330.42941213 167.12497922 328.8110871 166.36830352 327.19363403 165.60977173 C322.83880926 163.56830127 318.47632643 161.54336105 314.11328125 159.51953125 C312.77750786 158.89967094 312.77750786 158.89967094 311.41474915 158.26728821 C302.66853561 154.21885747 293.86213765 150.31202894 285.04296875 146.42578125 C273.12121763 141.16784792 261.28819237 135.75383929 249.51049805 130.18118286 C239.08740621 125.25381223 228.59191943 120.51460728 218.04296875 115.86328125 C204.89387011 110.06400177 191.82254344 104.11384125 178.79296875 98.05078125 C177.92840057 97.64850311 177.0638324 97.24622498 176.17306519 96.83175659 C175.31149811 96.43086823 174.44993103 96.02997986 173.56225586 95.61694336 C161.59666045 90.05015623 149.60345743 84.54916472 137.58251953 79.10302734 C136.24510979 78.49708664 134.90770744 77.89112962 133.5703125 77.28515625 C132.90964783 76.98586212 132.24898315 76.68656799 131.56829834 76.37820435 C126.68028433 74.16201278 121.79964448 71.93004586 116.921875 69.69140625 C102.27212466 62.96995917 87.59902132 56.31418268 72.85546875 49.80078125 C59.58312849 43.93641594 46.39050568 37.9128293 33.23046875 31.80078125 C31.48448074 30.99140252 29.73846868 30.18207568 27.99243164 29.37280273 C21.16802045 26.20659822 14.34525724 23.03881139 7.56039429 19.78852844 C5.83771238 18.96418307 4.11179283 18.14661397 2.38574219 17.3293457 C0.40228051 16.38912725 -1.5755439 15.43686753 -3.54589844 14.46948242 C-4.39700195 14.06834229 -5.24810547 13.66720215 -6.125 13.25390625 C-6.83809326 12.90875977 -7.55118652 12.56361328 -8.28588867 12.20800781 C-14.19882032 10.63363886 -19.5958394 13.81022328 -24.80859375 16.3046875 C-26.01326797 16.86953102 -26.01326797 16.86953102 -27.24227905 17.44578552 C-28.97383313 18.2582368 -30.70390012 19.07386352 -32.43261719 19.89233398 C-37.07121171 22.08760689 -41.72137628 24.25809749 -46.37109375 26.4296875 C-47.31535217 26.87124176 -48.2596106 27.31279602 -49.23248291 27.76773071 C-57.94448724 31.83225109 -66.72060887 35.74146306 -75.51953125 39.61328125 C-90.24316207 46.10261488 -104.85186039 52.82270919 -119.43994141 59.6105957 C-131.40477513 65.17712074 -143.3972726 70.67772852 -155.41748047 76.12353516 C-156.75489021 76.72947586 -158.09229256 77.33543288 -159.4296875 77.94140625 C-160.42068451 78.39034744 -160.42068451 78.39034744 -161.43170166 78.84835815 C-166.31971567 81.06454972 -171.20035552 83.29651664 -176.078125 85.53515625 C-190.72787579 92.25660354 -205.40099476 98.91234325 -220.14453125 105.42578125 C-234.98893225 111.98491626 -249.72467134 118.76344103 -264.43847656 125.60986328 C-276.39722685 131.17366083 -288.38377975 136.67123141 -300.39770508 142.11474609 C-301.72998579 142.71841274 -303.06226118 143.32209113 -304.39453125 143.92578125 C-305.05333786 144.22424957 -305.71214447 144.5227179 -306.39091492 144.83023071 C-311.39758748 147.10019371 -316.39733484 149.38504014 -321.39453125 151.67578125 C-322.13881882 152.01696487 -322.88310638 152.3581485 -323.64994812 152.70967102 C-324.7662133 153.22137093 -324.7662133 153.22137093 -325.9050293 153.7434082 C-338.27614928 159.41394487 -350.65813045 165.05919511 -363.08203125 170.61328125 C-364.78625244 171.37934692 -364.78625244 171.37934692 -366.52490234 172.16088867 C-367.55566895 172.61955322 -368.58643555 173.07821777 -369.6484375 173.55078125 C-370.5463501 173.95167969 -371.4442627 174.35257813 -372.36938477 174.765625 C-374.51953125 175.61328125 -374.51953125 175.61328125 -376.51953125 175.61328125 C-376.51953125 200.36328125 -376.51953125 225.11328125 -376.51953125 250.61328125 C-382.78953125 250.61328125 -389.05953125 250.61328125 -395.51953125 250.61328125 C-395.51953125 223.88328125 -395.51953125 197.15328125 -395.51953125 169.61328125 C-377.08493055 160.3959809 -377.08493055 160.3959809 -370.69140625 157.45703125 C-369.94651443 157.11243362 -369.20162262 156.767836 -368.43415833 156.41279602 C-366.04728753 155.31002856 -363.65854566 154.21139614 -361.26953125 153.11328125 C-360.43348358 152.72788177 -359.59743591 152.3424823 -358.73605347 151.94540405 C-345.81928236 145.99219511 -332.84601698 140.1756128 -319.83410645 134.43383789 C-308.6673693 129.5033865 -297.59178143 124.40705139 -286.55862427 119.18521118 C-275.19291271 113.81047535 -263.73184138 108.67557231 -252.22851562 103.60302734 C-241.59184225 98.90917511 -231.0280115 94.08726031 -220.51953125 89.11328125 C-208.50132852 83.42470523 -196.39446215 77.96776378 -184.22851562 72.60302734 C-173.59184225 67.90917511 -163.0280115 63.08726031 -152.51953125 58.11328125 C-140.50132852 52.42470523 -128.39446215 46.96776378 -116.22851562 41.60302734 C-104.93467107 36.61917237 -93.73085456 31.47400777 -82.57363892 26.19207764 C-70.17027917 20.32558956 -57.65569929 14.72823509 -45.09326172 9.21142578 C-38.75246543 6.42167875 -32.43681314 3.62457971 -26.234375 0.53515625 C-25.35048096 0.09606934 -24.46658691 -0.34301758 -23.5559082 -0.79541016 C-22.01782108 -1.57122772 -20.48789108 -2.36358767 -18.96948242 -3.17724609 C-11.87351926 -6.76780521 -6.70565122 -3.1249958 0 0 Z " fill="#D0D2D6" transform="translate(612.51953125,258.38671875)"/>
<path d="M0 0 C6.27 0 12.54 0 19 0 C19 23.76 19 47.52 19 72 C21.97 72.99 24.94 73.98 28 75 C30.74429205 76.18405671 33.44532744 77.39134324 36.14453125 78.66796875 C36.8993277 79.01964111 37.65412415 79.37131348 38.43179321 79.73364258 C40.05105662 80.48830203 41.66938165 81.24497773 43.28683472 82.00350952 C47.64165949 84.04497998 52.00414232 86.0699202 56.3671875 88.09375 C57.25770309 88.5069902 58.14821869 88.92023041 59.0657196 89.34599304 C67.81193314 93.39442378 76.6183311 97.30125231 85.4375 101.1875 C97.35925112 106.44543333 109.19227638 111.85944196 120.9699707 117.43209839 C131.39306254 122.35946902 141.88854932 127.09867397 152.4375 131.75 C165.58659864 137.54927948 178.65792531 143.49944 191.6875 149.5625 C192.55206818 149.96477814 193.41663635 150.36705627 194.30740356 150.78152466 C195.16897064 151.18241302 196.03053772 151.58330139 196.91821289 151.99633789 C208.8838083 157.56312502 220.87701132 163.06411653 232.89794922 168.51025391 C234.23535896 169.11619461 235.57276131 169.72215163 236.91015625 170.328125 C237.57082092 170.62741913 238.2314856 170.92671326 238.91217041 171.2350769 C243.80018442 173.45126847 248.68082427 175.68323539 253.55859375 177.921875 C268.20834409 184.64332208 282.88144743 191.29909857 297.625 197.8125 C310.89734026 203.67686531 324.08996307 209.70045195 337.25 215.8125 C338.99598801 216.62187873 340.74200007 217.43120557 342.48803711 218.24047852 C349.3124483 221.40668303 356.13521151 224.57446986 362.92007446 227.82475281 C364.64275637 228.64909818 366.36867592 229.46666728 368.09472656 230.28393555 C370.07818824 231.224154 372.05601265 232.17641372 374.02636719 233.14379883 C374.8774707 233.54493896 375.72857422 233.9460791 376.60546875 234.359375 C377.31856201 234.70452148 378.03165527 235.04966797 378.76635742 235.40527344 C384.67928907 236.97964239 390.07630815 233.80305797 395.2890625 231.30859375 C396.09217865 230.9320314 396.8952948 230.55546906 397.7227478 230.16749573 C399.45430188 229.35504445 401.18436887 228.53941773 402.91308594 227.72094727 C407.55168046 225.52567436 412.20184503 223.35518376 416.8515625 221.18359375 C417.79582092 220.74203949 418.74007935 220.30048523 419.71295166 219.84555054 C428.42495599 215.78103016 437.20107762 211.87181819 446 208 C460.72363082 201.51066637 475.33232914 194.79057206 489.92041016 188.00268555 C501.88524388 182.43616051 513.87774135 176.93555273 525.89794922 171.48974609 C527.23535896 170.88380539 528.57276131 170.27784837 529.91015625 169.671875 C530.57082092 169.37258087 531.2314856 169.07328674 531.91217041 168.7649231 C536.80018442 166.54873153 541.68082427 164.31676461 546.55859375 162.078125 C561.20834722 155.35667648 575.88154075 148.7011158 590.625 142.1875 C603.66680021 136.42417558 616.63342332 130.51184466 629.5625 124.5 C630.42444977 124.09924255 631.28639954 123.69848511 632.17446899 123.2855835 C635.62282781 121.68204314 639.07108625 120.07828715 642.51921082 118.47424316 C650.93789198 114.55987258 659.36986546 110.67492324 667.8125 106.8125 C668.87159576 106.3279686 668.87159576 106.3279686 669.9520874 105.83364868 C682.66631865 100.02288889 695.43501499 94.33713295 708.21948242 88.68286133 C718.23341495 84.25077852 728.20517762 79.7387901 738.1237793 75.09643555 C739.01363525 74.68304932 739.90349121 74.26966309 740.8203125 73.84375 C741.58617676 73.48474609 742.35204102 73.12574219 743.14111328 72.75585938 C745 72 745 72 747 72 C747 48.24 747 24.48 747 0 C753.27 0 759.54 0 766 0 C766 25.74 766 51.48 766 78 C747.5653993 87.21730035 747.5653993 87.21730035 741.171875 90.15625 C740.42698318 90.50084763 739.68209137 90.84544525 738.91462708 91.20048523 C736.52775628 92.30325269 734.13901441 93.40188511 731.75 94.5 C730.91395233 94.88539948 730.07790466 95.27079895 729.21652222 95.6678772 C716.29975111 101.62108614 703.32648573 107.43766845 690.3145752 113.17944336 C679.14783805 118.10989475 668.07225018 123.20622986 657.03909302 128.42807007 C645.67338146 133.8028059 634.21231013 138.93770894 622.70898438 144.01025391 C612.072311 148.70410614 601.50848025 153.52602094 591 158.5 C578.98179727 164.18857602 566.8749309 169.64551747 554.70898438 175.01025391 C544.072311 179.70410614 533.50848025 184.52602094 523 189.5 C510.98179727 195.18857602 498.8749309 200.64551747 486.70898438 206.01025391 C475.41513982 210.99410888 464.21132331 216.13927348 453.05410767 221.42120361 C440.65074792 227.28769169 428.13616804 232.88504616 415.57373047 238.40185547 C409.23293418 241.1916025 402.91728189 243.98870154 396.71484375 247.078125 C395.83094971 247.51721191 394.94705566 247.95629883 394.03637695 248.40869141 C392.49828983 249.18450897 390.96835983 249.97686892 389.44995117 250.79052734 C386.38142901 252.34320031 384.64826608 253.1681586 381.25268555 252.28735352 C377.60491958 250.84363439 374.03500634 249.26978181 370.48046875 247.61328125 C369.75784348 247.2797464 369.0352182 246.94621155 368.29069519 246.60256958 C366.73449129 245.88393324 365.17893327 245.16389691 363.6239624 244.44259644 C359.44625088 242.50486208 355.26372375 240.57756152 351.08203125 238.6484375 C350.23096802 238.25544968 349.37990479 237.86246185 348.50305176 237.45756531 C340.474853 233.75215812 332.42767445 230.08933841 324.375 226.4375 C321.66391388 225.20735852 318.9529937 223.97685195 316.2421875 222.74609375 C315.56946304 222.44067154 314.89673859 222.13524933 314.20362854 221.8205719 C306.29566466 218.22849561 298.39798217 214.61395558 290.5 211 C278.49301173 205.50618485 266.47848337 200.02933889 254.45498657 194.57174683 C246.76983405 191.08328573 239.08876289 187.58634408 231.41796875 184.06640625 C228.50792653 182.73152206 225.59777972 181.39686631 222.6875 180.0625 C221.96468842 179.73105988 221.24187683 179.39961975 220.49716187 179.05813599 C208.55340542 173.58547199 196.55572594 168.24171588 184.53842163 162.93289185 C173.29883234 157.96284082 162.14809674 152.82953027 151.04019165 147.57247925 C140.42892622 142.55449585 129.73990146 137.73590284 119 133 C106.93616448 127.68029077 94.95797014 122.21340611 83.04101562 116.57275391 C72.42945179 111.55469847 61.73996328 106.73649089 51 102 C38.87508614 96.6510097 26.8115985 91.18848597 14.8125 85.5625 C13.76219604 85.07124634 13.76219604 85.07124634 12.69067383 84.57006836 C10.736438 83.65502836 8.78385824 82.73657143 6.83203125 81.81640625 C5.72577393 81.29506104 4.6195166 80.77371582 3.47973633 80.23657227 C1 79 1 79 0 78 C-0.09498646 75.56603981 -0.12558417 73.16057048 -0.11352539 70.72631836 C-0.11367142 69.96539383 -0.11381744 69.2044693 -0.1139679 68.42048645 C-0.11326862 65.89357702 -0.10547555 63.36674038 -0.09765625 60.83984375 C-0.09579212 59.0924941 -0.0943682 57.34514393 -0.09336853 55.59779358 C-0.08954293 50.98968066 -0.07971229 46.38159905 -0.06866455 41.77349854 C-0.05845134 37.07491479 -0.0538711 32.37632601 -0.04882812 27.67773438 C-0.03809005 18.45180692 -0.02049292 9.22591096 0 0 Z " fill="#D1D2D6" transform="translate(217,694)"/>
<path d="M0 0 C322.41 0 644.82 0 977 0 C977 38.28 977 76.56 977 116 C654.59 116 332.18 116 0 116 C0 77.72 0 39.44 0 0 Z M6 6 C6 40.32 6 74.64 6 110 C324.78 110 643.56 110 972 110 C972 75.68 972 41.36 972 6 C653.22 6 334.44 6 6 6 Z " fill="#5D6E7A" transform="translate(110,542)"/>
<path d="M0 0 C1.12103119 -0.0232988 2.24206238 -0.0465976 3.39706421 -0.07060242 C5.76890002 -0.10600987 8.14108378 -0.12246302 10.51318359 -0.12133789 C14.12021693 -0.13659935 17.71204681 -0.26343755 21.31640625 -0.39648438 C39.16370245 -0.70282233 39.16370245 -0.70282233 44.40649414 4.12597656 C46.89926144 7.01303043 48.81288397 10.13571513 50.59692383 13.49832153 C51.81392508 15.70171111 53.33140022 17.51334315 55.00390625 19.38671875 C55.46474609 19.928125 55.92558594 20.46953125 56.40039062 21.02734375 C56.83287109 21.53007813 57.26535156 22.0328125 57.7109375 22.55078125 C58.18595703 23.10765625 58.66097656 23.66453125 59.15039062 24.23828125 C60.27231257 25.55285646 61.3974582 26.86467963 62.5234375 28.17578125 C59.99665598 32.82552076 57.37618523 36.77928144 53.8984375 40.80078125 C50.3442629 44.96810872 46.90532192 49.19392389 43.5859375 53.55078125 C39.70525466 58.64360679 35.76614906 63.68486659 31.78955078 68.703125 C29.21510639 71.96925198 26.69883016 75.26999996 24.23046875 78.6171875 C23.68503418 79.35541748 23.13959961 80.09364746 22.57763672 80.85424805 C21.5149194 82.29811209 20.45777031 83.74609412 19.40673828 85.19848633 C18.15928869 86.89319428 16.84704447 88.53986252 15.5234375 90.17578125 C14.8634375 90.17578125 14.2034375 90.17578125 13.5234375 90.17578125 C11.67479556 87.87796515 9.93333623 85.5659872 8.2109375 83.17578125 C3.9140253 77.32272899 -0.49150981 71.5981374 -5.1015625 65.98828125 C-14.92945601 53.99767136 -24.19888319 41.59384342 -33.4765625 29.17578125 C-29.37026446 23.59031837 -25.07407473 18.25601105 -20.53320312 13.02148438 C-20.08009766 12.49361328 -19.62699219 11.96574219 -19.16015625 11.421875 C-18.729272 10.92813385 -18.29838776 10.4343927 -17.85444641 9.9256897 C-16.4390452 8.23671379 -16.4390452 8.23671379 -15.5242157 6.36886597 C-11.904313 -0.24093878 -7.01291076 0.05071747 0 0 Z " fill="#506371" transform="translate(585.4765625,732.82421875)"/>
<path d="M0 0 C4.27059561 -0.11765973 8.54076597 -0.18773631 12.8125 -0.25 C14.00810547 -0.28351562 15.20371094 -0.31703125 16.43554688 -0.3515625 C25.56365832 -0.45105145 33.02030223 0.96887962 40.875 5.75 C47.86024354 13.14614022 49.48091112 20.11718714 49.26953125 30.12890625 C48.68212474 38.56542578 45.82430124 44.00537344 39.48828125 49.52734375 C31.28081804 54.38482198 23.28993208 54.38141007 13.9375 54.1875 C12.69033203 54.17396484 11.44316406 54.16042969 10.15820312 54.14648438 C7.10501033 54.1113902 4.0527401 54.06222267 1 54 C1 53.01 1 52.02 1 51 C2.32 50.34 3.64 49.68 5 49 C5.33 34.15 5.66 19.3 6 4 C4.02 4 2.04 4 0 4 C0 2.68 0 1.36 0 0 Z " fill="#546673" transform="translate(456,561)"/>
<path d="M0 0 C5.94392032 3.18867111 10.6227044 8.65038568 13 15 C13 19.91527733 11.17247752 21.7834415 8.1875 25.375 C7.17684511 26.6248074 6.16643555 27.87481322 5.15625 29.125 C4.63417969 29.764375 4.11210938 30.40375 3.57421875 31.0625 C1.07539535 34.13797495 -1.36764735 37.25658281 -3.8125 40.375 C-4.27172852 40.95701172 -4.73095703 41.53902344 -5.20410156 42.13867188 C-7.72405555 45.33855526 -10.17118799 48.57823976 -12.5625 51.875 C-13.7690625 53.421875 -13.7690625 53.421875 -15 55 C-15.66 55 -16.32 55 -17 55 C-18.72784981 52.99484097 -20.34033362 50.98103487 -21.9375 48.875 C-22.93080976 47.58710087 -23.92430464 46.2993445 -24.91796875 45.01171875 C-25.42763184 44.3470459 -25.93729492 43.68237305 -26.46240234 42.99755859 C-28.86644264 39.87436746 -31.30938261 36.78212791 -33.75 33.6875 C-37.85098589 28.47202113 -41.93532424 23.2438479 -46 18 C-45.3551433 16.65598287 -44.68015093 15.32650554 -44 14 C-43.44054687 12.86046875 -42.88109375 11.7209375 -42.3046875 10.546875 C-33.60804594 -4.05613302 -15.05716361 -3.881393 0 0 Z " fill="#526572" transform="translate(730,751)"/>
<path d="M0 0 C5.94392032 3.18867111 10.6227044 8.65038568 13 15 C13 19.91527733 11.17247752 21.7834415 8.1875 25.375 C7.17684511 26.6248074 6.16643555 27.87481322 5.15625 29.125 C4.63417969 29.764375 4.11210937 30.40375 3.57421875 31.0625 C1.07539535 34.13797495 -1.36764735 37.25658281 -3.8125 40.375 C-4.27172852 40.95701172 -4.73095703 41.53902344 -5.20410156 42.13867188 C-7.72405555 45.33855526 -10.17118799 48.57823976 -12.5625 51.875 C-13.7690625 53.421875 -13.7690625 53.421875 -15 55 C-15.66 55 -16.32 55 -17 55 C-18.72784981 52.99484097 -20.34033362 50.98103487 -21.9375 48.875 C-22.93080976 47.58710087 -23.92430464 46.2993445 -24.91796875 45.01171875 C-25.42763184 44.3470459 -25.93729492 43.68237305 -26.46240234 42.99755859 C-28.86644264 39.87436746 -31.30938261 36.78212791 -33.75 33.6875 C-37.85098589 28.47202113 -41.93532424 23.2438479 -46 18 C-45.3551433 16.65598287 -44.68015093 15.32650554 -44 14 C-43.44054687 12.86046875 -42.88109375 11.7209375 -42.3046875 10.546875 C-33.60804594 -4.05613302 -15.05716361 -3.881393 0 0 Z " fill="#526572" transform="translate(502,751)"/>
<path d="M0 0 C0 1.65 0 3.3 0 5 C-4.455 5.495 -4.455 5.495 -9 6 C-8.34 6.99 -7.68 7.98 -7 9 C-6.40977423 13.52250916 -6.47270541 17.69563971 -8.1875 21.9375 C-11.22818355 25.39758817 -14.51756662 27.14920421 -19 28 C-21.04120715 28.04331474 -23.08372763 28.04012329 -25.125 28 C-29.21839428 27.79182142 -29.21839428 27.79182142 -33 29 C-32.67 30.65 -32.34 32.3 -32 34 C-31.29915283 34.01458252 -30.59830566 34.02916504 -29.8762207 34.04418945 C-26.68776991 34.11885487 -23.50034487 34.21545475 -20.3125 34.3125 C-19.20970703 34.33505859 -18.10691406 34.35761719 -16.97070312 34.38085938 C-15.3706543 34.4340332 -15.3706543 34.4340332 -13.73828125 34.48828125 C-12.26935425 34.52755737 -12.26935425 34.52755737 -10.77075195 34.56762695 C-7.2660484 35.11453241 -4.52841114 36.47158886 -2 39 C-1.42312377 43.49206901 -1.56058209 47.06623693 -3.5 51.1875 C-9.20443448 57.60498878 -14.92760988 61.42424746 -23.63671875 62.25 C-30.01330544 62.52837759 -33.90988187 61.92363272 -39 58 C-41.22303708 55.27498681 -41.91171109 53.51869736 -42.5 50.0625 C-41.80385649 45.79862101 -39.95466281 44.10239595 -37 41 C-37.495 40.46375 -37.99 39.9275 -38.5 39.375 C-40.47945017 36.24087057 -40.58503961 34.65649759 -40 31 C-38.51559883 28.73216487 -36.88409265 26.97829728 -35 25 C-35.639375 24.21625 -36.27875 23.4325 -36.9375 22.625 C-40.20311141 18.46876729 -40.53052178 15.1951095 -40 10 C-38.46458497 6.02598463 -36.08004226 3.72129633 -32.29296875 1.71875 C-26.41221226 -0.12462171 -19.71091985 0.52236174 -13.71875 1.578125 C-9.27356794 2.26789463 -4.92172409 -0.18929708 0 0 Z " fill="#536573" transform="translate(655,574)"/>
<path d="M0 0 C14.8125 0 14.8125 0 20 5 C25.57349758 12.2796703 25.68811166 20.16424738 25 29 C23.84674622 34.80299671 22.01689982 39.65688029 17.5625 43.6875 C13 46 13 46 0 46 C0 30.82 0 15.64 0 0 Z " fill="#D1D2D6" transform="translate(471,565)"/>
<path d="M0 0 C0.33 2.31 0.66 4.62 1 7 C1.78375 6.030625 2.5675 5.06125 3.375 4.0625 C4.91288705 2.16037654 5.79259913 1.10370043 8 0 C13.08942479 -0.49992739 17.51742937 -0.81692667 22.0625 1.6875 C25.68720818 6.0137646 26.24794323 9.8419897 26.1953125 15.39453125 C26.18886719 16.59658203 26.18242188 17.79863281 26.17578125 19.03710938 C26.15902344 20.28298828 26.14226563 21.52886719 26.125 22.8125 C26.11597656 24.07771484 26.10695313 25.34292969 26.09765625 26.64648438 C26.07412394 29.76451564 26.04124545 32.88216097 26 36 C28.97 36.495 28.97 36.495 32 37 C32 37.99 32 38.98 32 40 C25.4 40 18.8 40 12 40 C13 36 13 36 15.0625 34.75 C15.701875 34.5025 16.34125 34.255 17 34 C17.05797565 30.06256167 17.09358789 26.12523281 17.125 22.1875 C17.14175781 21.06794922 17.15851562 19.94839844 17.17578125 18.79492188 C17.18222656 17.72177734 17.18867187 16.64863281 17.1953125 15.54296875 C17.20578613 14.55321045 17.21625977 13.56345215 17.22705078 12.54370117 C17.18267404 9.7556048 17.18267404 9.7556048 15 7 C12.94085315 6.44739056 12.94085315 6.44739056 10.625 6.5 C9.85414063 6.4690625 9.08328125 6.438125 8.2890625 6.40625 C5.84988958 6.87581876 5.84988958 6.87581876 3.7578125 8.76171875 C1.04288113 13.76322566 1.32207882 18.70673387 1.25 24.3125 C1.22035156 25.43462891 1.19070313 26.55675781 1.16015625 27.71289062 C1.08962583 30.47533207 1.03684507 33.23693774 1 36 C2.65 36.33 4.3 36.66 6 37 C6 37.99 6 38.98 6 40 C-0.6 40 -7.2 40 -14 40 C-13.67 38.68 -13.34 37.36 -13 36 C-11.02 35.505 -11.02 35.505 -9 35 C-8.67 25.43 -8.34 15.86 -8 6 C-9.65 6 -11.3 6 -13 6 C-12.67 4.68 -12.34 3.36 -12 2 C-7.8803623 0.70756464 -4.33168317 -0.26252625 0 0 Z " fill="#516471" transform="translate(671,575)"/>
<path d="M0 0 C3.93436187 1.93266899 6.98032544 4.06694954 9 8 C9.58421841 10.98951401 9.97526665 13.95161457 10 17 C9 18 9 18 6.59155273 18.11352539 C5.54942627 18.10828857 4.5072998 18.10305176 3.43359375 18.09765625 C2.30888672 18.09443359 1.18417969 18.09121094 0.02539062 18.08789062 C-1.15861328 18.07951172 -2.34261719 18.07113281 -3.5625 18.0625 C-4.75037109 18.05798828 -5.93824219 18.05347656 -7.16210938 18.04882812 C-10.10812226 18.03699675 -13.05403681 18.02051287 -16 18 C-15.77065591 19.91924787 -15.51565657 21.8354406 -15.25 23.75 C-15.11078125 24.81734375 -14.9715625 25.8846875 -14.828125 26.984375 C-13.87813544 30.44377096 -12.80221212 31.80878181 -10 34 C-3.55704852 35.07231068 2.90084526 34.21787445 9 32 C8.63597678 34.58125556 8.30350381 35.73178733 6.3203125 37.484375 C0.2302713 40.99535961 -5.00591051 42.26038245 -12 41 C-17.34213992 39.02277334 -21.3627949 35.46632662 -24.15625 30.51171875 C-26.26704937 24.22818173 -26.17791483 16.94298599 -23.72265625 10.80859375 C-22.01787212 8.02913844 -20.43579387 6.25618072 -17.9375 4.1875 C-16.89916016 3.31158203 -16.89916016 3.31158203 -15.83984375 2.41796875 C-11.1720892 -1.17947265 -5.65866947 -0.53997761 0 0 Z " fill="#526572" transform="translate(536,575)"/>
<path d="M0 0 C1.0209375 0.0009668 1.0209375 0.0009668 2.0625 0.00195312 C7.09338846 0.04669423 7.09338846 0.04669423 9.375 1.1875 C9.375 4.4875 9.375 7.7875 9.375 11.1875 C8.385 11.1875 7.395 11.1875 6.375 11.1875 C6.08625 10.218125 5.7975 9.24875 5.5 8.25 C4.73285318 5.08085797 4.73285318 5.08085797 2.375 4.1875 C-1.00322416 4.04374578 -3.39890955 4.11213652 -6.625 5.1875 C-7.07175446 9.55239916 -7.07175446 9.55239916 -4.953125 13.20703125 C-2.4625591 15.32568378 -0.05029618 16.6744067 2.875 18.125 C10.18721619 22.02029273 10.18721619 22.02029273 12.375 26.1875 C13.0390339 30.08869917 12.55325721 31.83784163 10.75 35.375 C7.24609878 39.52435671 4.05991594 41.02324719 -1.3515625 41.55078125 C-2.63804687 41.53402344 -3.92453125 41.51726563 -5.25 41.5 C-6.54164063 41.49613281 -7.83328125 41.49226562 -9.1640625 41.48828125 C-12.625 41.1875 -12.625 41.1875 -16.625 39.1875 C-16.625 35.8875 -16.625 32.5875 -16.625 29.1875 C-15.305 29.1875 -13.985 29.1875 -12.625 29.1875 C-12.33625 30.156875 -12.0475 31.12625 -11.75 32.125 C-10.98285318 35.29414203 -10.98285318 35.29414203 -8.625 36.1875 C-3.0854157 36.67195696 -3.0854157 36.67195696 1.875 34.6875 C2.37 34.1925 2.865 33.6975 3.375 33.1875 C3.49713894 30.84601769 3.49713894 30.84601769 2.375 28.1875 C-0.10926722 26.20720107 -2.85331547 24.72845488 -5.625 23.1875 C-9.79303199 20.62255724 -13.02200676 18.39233524 -15.625 14.1875 C-16.30407735 10.19792054 -15.80386254 8.51967329 -13.875 4.9375 C-9.82512861 -0.0123428 -6.15898038 -0.11208872 0 0 Z " fill="#526572" transform="translate(569.625,574.8125)"/>
<path d="M0 0 C1.0209375 0.0009668 1.0209375 0.0009668 2.0625 0.00195312 C7.09338846 0.04669423 7.09338846 0.04669423 9.375 1.1875 C9.375 4.8175 9.375 8.4475 9.375 12.1875 C8.385 12.1875 7.395 12.1875 6.375 12.1875 C6.045 9.8775 5.715 7.5675 5.375 5.1875 C3.93965159 4.9648254 2.50154475 4.75988094 1.0625 4.5625 C0.26199219 4.44648437 -0.53851562 4.33046875 -1.36328125 4.2109375 C-3.91223215 3.97216593 -3.91223215 3.97216593 -6.625 6.1875 C-7.54328794 9.05621868 -7.54328794 9.05621868 -6.625 12.1875 C-4.21437056 14.30536566 -1.4467163 15.68577302 1.375 17.1875 C2.8407988 18.07106513 4.29954181 18.96647124 5.75 19.875 C6.39710938 20.27074219 7.04421875 20.66648437 7.7109375 21.07421875 C9.375 22.1875 9.375 22.1875 11.375 24.1875 C11.94401895 27.57166533 11.90318445 30.79965021 11.375 34.1875 C8.83332644 37.57639808 6.29468457 39.65076701 2.375 41.1875 C-0.90234375 41.41796875 -0.90234375 41.41796875 -4.5625 41.375 C-6.37041016 41.36533203 -6.37041016 41.36533203 -8.21484375 41.35546875 C-11.625 41.1875 -11.625 41.1875 -16.625 40.1875 C-16.625 36.5575 -16.625 32.9275 -16.625 29.1875 C-15.635 29.1875 -14.645 29.1875 -13.625 29.1875 C-13.17125 30.156875 -12.7175 31.12625 -12.25 32.125 C-10.96713779 35.25829582 -10.96713779 35.25829582 -8.625 36.1875 C-4.38528942 36.42303948 -1.26321698 36.51595886 2.375 34.1875 C3.21439269 31.4482041 3.21439269 31.4482041 2.375 28.1875 C-0.71567938 25.73261752 -4.13433101 24.00672457 -7.625 22.1875 C-11.61277386 19.93578286 -13.76979174 18.48377176 -15.625 14.1875 C-16.14634272 10.01675823 -16.11110949 7.9687474 -13.875 4.375 C-9.54073209 0.16112842 -5.89713329 -0.10732331 0 0 Z " fill="#526472" transform="translate(725.625,574.8125)"/>
<path d="M0 0 C2.6640625 1.38671875 2.6640625 1.38671875 5 4 C5.76273774 7.40946413 5.79054293 10.76614418 5.8125 14.25 C5.83763672 15.18585938 5.86277344 16.12171875 5.88867188 17.0859375 C5.9474757 19.39104732 5.98380267 21.69426174 6 24 C7.32 24.33 8.64 24.66 10 25 C9.67 25.99 9.34 26.98 9 28 C2.375 29.25 2.375 29.25 -1 27 C-1.99 27.66 -2.98 28.32 -4 29 C-7.87338754 29.42255137 -10.11598609 29.56667558 -13.4375 27.4375 C-15.60396028 24.05782196 -15.56288002 21.94016013 -15 18 C-12.35865265 14.24115955 -9.38976933 13.07504555 -5 12 C-2.125 11.875 -2.125 11.875 0 12 C-0.66 10.02 -1.32 8.04 -2 6 C-5.63 6 -9.26 6 -13 6 C-13 5.01 -13 4.02 -13 3 C-8.47405537 0.35066656 -5.24696826 -0.66779596 0 0 Z " fill="#546673" transform="translate(595,438)"/>
<path d="M0 0 C0 11.88 0 23.76 0 36 C1.65 36.33 3.3 36.66 5 37 C5 37.99 5 38.98 5 40 C-1.27 40 -7.54 40 -14 40 C-14 39.01 -14 38.02 -14 37 C-12.68 36.34 -11.36 35.68 -10 35 C-9.67 25.76 -9.34 16.52 -9 7 C-10.98 7 -12.96 7 -15 7 C-14.765625 5.109375 -14.765625 5.109375 -14 3 C-12.109375 1.953125 -12.109375 1.953125 -9.75 1.25 C-8.98171875 1.00765625 -8.2134375 0.7653125 -7.421875 0.515625 C-5 0 -5 0 0 0 Z " fill="#556774" transform="translate(602,575)"/>
<path d="M0 0 C5.53846154 3.07692308 5.53846154 3.07692308 7 6 C7 8.31 7 10.62 7 13 C1.06 13 -4.88 13 -11 13 C-10.54625 14.44375 -10.0925 15.8875 -9.625 17.375 C-9.36976563 18.18710937 -9.11453125 18.99921875 -8.8515625 19.8359375 C-8.10145717 22.16459185 -8.10145717 22.16459185 -6 24 C-1.46057302 24.22325051 2.57117061 24.10720735 7 23 C6 26 6 26 4 27.6875 C-0.10617156 29.48395006 -3.58399721 29.69316446 -8 29 C-11.74526566 27.19672394 -13.54125416 25.67282723 -15.875 22.25 C-17.46264818 17.66346081 -17.95197079 13.65153446 -16.30859375 9.07421875 C-12.84636227 2.30910536 -7.74524684 -1.10646383 0 0 Z " fill="#566875" transform="translate(695,438)"/>
<path d="M0 0 C2.55662724 1.80848978 3.35118656 3.1810609 5 6 C5 7.98 5 9.96 5 12 C-0.94 12 -6.88 12 -13 12 C-12.731875 13.44375 -12.46375 14.8875 -12.1875 16.375 C-12.03667969 17.18710937 -11.88585937 17.99921875 -11.73046875 18.8359375 C-11.12455058 21.35820641 -11.12455058 21.35820641 -8 23 C-3.82699392 23.23183367 -0.05979772 22.98419339 4 22 C3.02703346 24.65354511 2.34207577 25.79877896 -0.125 27.25 C-3.85698441 28.22356115 -7.21869011 28.84346799 -11 28 C-14.32160898 25.9216036 -17.23225962 23.53548076 -19 20 C-19.58237004 15.14200183 -20.13493128 10.15526038 -17.80078125 5.72265625 C-12.72354384 -0.326546 -7.71148905 -2.34637834 0 0 Z " fill="#526472" transform="translate(570,439)"/>
<path d="M0 0 C0.9384375 -0.00515625 1.876875 -0.0103125 2.84375 -0.015625 C5.5 0.25 5.5 0.25 9.5 2.25 C9.5 5.22 9.5 8.19 9.5 11.25 C8.51 11.25 7.52 11.25 6.5 11.25 C6.0359375 10.0434375 6.0359375 10.0434375 5.5625 8.8125 C4.73664655 6.35919595 4.73664655 6.35919595 3.5 5.25 C-1.27088348 4.55999619 -4.50196305 4.50678099 -8.4375 7.4375 C-12.45196457 12.91176986 -13.23206238 17.56993079 -12.5 24.25 C-11.59242637 27.93701787 -10.22559423 30.58842879 -7.375 33.1875 C-2.33835622 35.04886835 2.48182216 34.90899685 7.5625 33.25 C8.201875 32.92 8.84125 32.59 9.5 32.25 C9.5 33.24 9.5 34.23 9.5 35.25 C5.88205622 38.67237925 3.09637942 39.57741391 -1.875 39.8125 C-7.52794873 39.5817674 -11.34180477 38.0853236 -15.5 34.25 C-19.7267029 29.07228894 -20.07628981 24.72841949 -19.8125 18.1171875 C-19.08678541 11.45875615 -16.46372453 7.71478625 -11.31640625 3.51171875 C-7.44781205 0.8245017 -4.75246664 -0.02611245 0 0 Z " fill="#546674" transform="translate(513.5,427.75)"/>
<path d="M0 0 C6.6 0 13.2 0 20 0 C18.25 7 18.25 7 17.66381836 9.34033203 C16.72816965 13.07667431 15.79823759 16.81429454 14.87890625 20.5546875 C14.70004883 21.27914062 14.52119141 22.00359375 14.33691406 22.75 C13.99191851 24.14797082 13.64876748 25.54639834 13.30761719 26.9453125 C12.11243241 31.77513519 12.11243241 31.77513519 11 34 C10.34 34 9.68 34 9 34 C7.8677538 30.21045974 6.7455611 26.4180104 5.625 22.625 C5.30789063 21.56410156 4.99078125 20.50320313 4.6640625 19.41015625 C2.76909445 12.97516056 1.21196264 6.59846325 0 0 Z " fill="#D0D1D5" transform="translate(590,766)"/>
<path d="M0 0 C2.50610352 -0.35644531 2.50610352 -0.35644531 5.62890625 -0.328125 C6.74587891 -0.32296875 7.86285156 -0.3178125 9.01367188 -0.3125 C10.18478516 -0.291875 11.35589844 -0.27125 12.5625 -0.25 C14.3249707 -0.24226562 14.3249707 -0.24226562 16.12304688 -0.234375 C24.84625547 -0.15374453 24.84625547 -0.15374453 26 1 C26.4375 3.75 26.4375 3.75 26 7 C20.86979859 12.13020141 17.21223108 13.17015604 10.125 13.3125 C8.91070313 13.34988281 7.69640625 13.38726563 6.4453125 13.42578125 C2.40413586 12.92636146 0.79410731 11.91467854 -2 9 C-2.58763244 4.8865729 -2.33043558 3.49565336 0 0 Z " fill="#D1D2D6" transform="translate(621,616)"/>
<path d="M0 0 C4.62 0 9.24 0 14 0 C14 0.66 14 1.32 14 2 C12.68 2 11.36 2 10 2 C10.433125 3.19238281 10.86625 4.38476562 11.3125 5.61328125 C11.87524861 7.1795982 12.43773498 8.74600939 13 10.3125 C13.28617188 11.09818359 13.57234375 11.88386719 13.8671875 12.69335938 C14.13789062 13.45068359 14.40859375 14.20800781 14.6875 14.98828125 C15.06455078 16.03302612 15.06455078 16.03302612 15.44921875 17.09887695 C16 19 16 19 16 22 C16.66 22 17.32 22 18 22 C18.11214844 21.15179688 18.22429688 20.30359375 18.33984375 19.4296875 C19.04452684 15.76867123 20.18511152 12.58613003 21.5625 9.125 C22.01753906 7.97257812 22.47257813 6.82015625 22.94140625 5.6328125 C23.29074219 4.76398438 23.64007812 3.89515625 24 3 C22.68 2.67 21.36 2.34 20 2 C20 1.34 20 0.68 20 0 C23.96 0 27.92 0 32 0 C32 0.66 32 1.32 32 2 C31.38793701 2.22292725 30.77587402 2.44585449 30.14526367 2.67553711 C27.2785627 4.44540769 26.83436287 6.05514902 25.67578125 9.19140625 C25.28712891 10.21814453 24.89847656 11.24488281 24.49804688 12.30273438 C24.10681641 13.37845703 23.71558594 14.45417969 23.3125 15.5625 C22.51883737 17.68951585 21.72336323 19.81585696 20.92578125 21.94140625 C20.57942627 22.88701416 20.23307129 23.83262207 19.8762207 24.80688477 C19 27 19 27 18 28 C16.33382885 28.04063832 14.66611905 28.042721 13 28 C12.74831055 27.31897217 12.49662109 26.63794434 12.23730469 25.9362793 C11.08779694 22.84836011 9.91917019 19.76802521 8.75 16.6875 C8.15638672 15.0797168 8.15638672 15.0797168 7.55078125 13.43945312 C7.15761719 12.41142578 6.76445313 11.38339844 6.359375 10.32421875 C6.00327148 9.37635498 5.64716797 8.42849121 5.28027344 7.4519043 C3.87050588 4.75200049 2.46014984 3.71607447 0 2 C0 1.34 0 0.68 0 0 Z " fill="#546674" transform="translate(645,439)"/>
<path d="M0 0 C5.28 0 10.56 0 16 0 C17.16564859 3.93055684 18.32592834 7.86210455 19.47290039 11.7980957 C19.8646611 13.13657089 20.25949931 14.47414931 20.6574707 15.81079102 C21.22895553 17.73215011 21.78847319 19.65705593 22.34765625 21.58203125 C22.68804932 22.73936768 23.02844238 23.8967041 23.37915039 25.08911133 C24 28 24 28 23 31 C16.66252888 23.2619279 10.33171036 15.51805191 4.1875 7.625 C3.37667969 6.58601562 2.56585937 5.54703125 1.73046875 4.4765625 C0 2 0 2 0 0 Z " fill="#CDCFD3" transform="translate(566,766)"/>
<path d="M0 0 C5.28 0 10.56 0 16 0 C14.12626469 3.74747062 12.12802305 6.58292082 9.5625 9.875 C9.13018066 10.43147217 8.69786133 10.98794434 8.25244141 11.5612793 C6.83916808 13.37751489 5.42023899 15.18920709 4 17 C3.49033691 17.65081543 2.98067383 18.30163086 2.45556641 18.97216797 C-0.6894707 22.98683685 -3.84202803 26.99549942 -7 31 C-8.28090028 27.15729915 -7.4844352 25.44707968 -6.34765625 21.58203125 C-5.98349609 20.32841797 -5.61933594 19.07480469 -5.24414062 17.78320312 C-4.8504452 16.45958044 -4.45656258 15.13601342 -4.0625 13.8125 C-3.67173989 12.47744339 -3.28175645 11.14215919 -2.89257812 9.80664062 C-1.9360389 6.53551267 -0.9689997 3.26745849 0 0 Z " fill="#CECFD4" transform="translate(618,766)"/>
<path d="M0 0 C4.08848002 0.65707715 5.02495573 1.32467269 7.5 4.5625 C8.03125 7.65625 8.03125 7.65625 8 11.0625 C8.0103125 12.1865625 8.020625 13.310625 8.03125 14.46875 C7.39835336 18.15444217 6.44572301 19.32781358 3.5 21.5625 C0.5625 22.1875 0.5625 22.1875 -2.5 21.5625 C-5.76037727 18.86914487 -7.18691538 17.26949179 -7.94921875 13.11328125 C-8.12986555 8.94594639 -7.8176805 6.197861 -5.9375 2.4375 C-3.5 0.5625 -3.5 0.5625 0 0 Z " fill="#CFD1D5" transform="translate(631.5,577.4375)"/>
<path d="M0 0 C4.89269842 -0.83568717 9.13215478 -1.07844538 14 0 C19.23485807 3.72184196 23.98513728 9.95541185 26 16 C20.68837891 16.83035268 15.21488119 17.66935996 10 16 C5.39090524 12.44419079 2.55755145 7.12739883 0 2 C0 1.34 0 0.68 0 0 Z " fill="#CECFD4" transform="translate(608,742)"/>
<path d="M0 0 C0.89460937 0.13921875 1.78921875 0.2784375 2.7109375 0.421875 C0.39854591 6.56206045 -2.12960348 12.19257197 -7.2890625 16.421875 C-12.52048409 17.76724814 -17.99278906 17.05819911 -23.2890625 16.421875 C-18.31477671 5.52078061 -12.61380659 -1.12959462 0 0 Z " fill="#CECFD3" transform="translate(589.2890625,741.578125)"/>
<path d="M0 0 C0.33 0 0.66 0 1 0 C1 2.64 1 5.28 1 8 C3.64 8 6.28 8 9 8 C9 8.99 9 9.98 9 11 C6.36 11 3.72 11 1 11 C1.33 17.27 1.66 23.54 2 30 C6.71058562 31.3721042 6.71058562 31.3721042 10 30 C8.63016497 33.16115776 8.0109362 33.9927092 5 36 C2.0625 36.4375 2.0625 36.4375 -1 36 C-3.52883792 33.81166988 -4.85085372 32.07172421 -5.31811523 28.71411133 C-5.39368886 26.02781236 -5.34868811 23.37295535 -5.25 20.6875 C-5.23195313 19.75615234 -5.21390625 18.82480469 -5.1953125 17.86523438 C-5.14834888 15.57575803 -5.08269475 13.28841816 -5 11 C-5.99 11 -6.98 11 -8 11 C-8 10.34 -8 9.68 -8 9 C-7.01 8.67 -6.02 8.34 -5 8 C-3.58721572 6.13943559 -3.58721572 6.13943559 -2.375 3.9375 C-1.60601505 2.61158352 -0.82004308 1.29496012 0 0 Z " fill="#536572" transform="translate(616,431)"/>
<path d="M0 0 C0 1.65 0 3.3 0 5 C-0.63808594 5.26554687 -1.27617188 5.53109375 -1.93359375 5.8046875 C-2.75988281 6.15789062 -3.58617187 6.51109375 -4.4375 6.875 C-5.67306641 7.39707031 -5.67306641 7.39707031 -6.93359375 7.9296875 C-9.15746715 8.8244937 -9.15746715 8.8244937 -10 11 C-10.07116382 13.37402501 -10.08409085 15.75000677 -10.0625 18.125 C-10.05347656 19.40632813 -10.04445313 20.68765625 -10.03515625 22.0078125 C-10.02355469 22.99523437 -10.01195312 23.98265625 -10 25 C-8.35 25.33 -6.7 25.66 -5 26 C-5 26.66 -5 27.32 -5 28 C-10.28 28 -15.56 28 -21 28 C-21 27.34 -21 26.68 -21 26 C-19.68 25.67 -18.36 25.34 -17 25 C-17 18.4 -17 11.8 -17 5 C-18.32 5 -19.64 5 -21 5 C-20.67 4.01 -20.34 3.02 -20 2 C-17.36 1.67 -14.72 1.34 -12 1 C-11.34 2.32 -10.68 3.64 -10 5 C-9.236875 4.360625 -8.47375 3.72125 -7.6875 3.0625 C-5.04946864 1.03796431 -3.35396044 0 0 0 Z " fill="#516371" transform="translate(549,438)"/>
<path d="M0 0 C0.33 7.92 0.66 15.84 1 24 C1.99 24.33 2.98 24.66 4 25 C4 25.66 4 26.32 4 27 C-0.29 27 -4.58 27 -9 27 C-9 26.34 -9 25.68 -9 25 C-8.01 24.34 -7.02 23.68 -6 23 C-5.49378487 20.97723319 -5.49378487 20.97723319 -5.48828125 18.6484375 C-5.43510742 17.37226563 -5.43510742 17.37226563 -5.38085938 16.0703125 C-5.35830078 15.18085938 -5.33574219 14.29140625 -5.3125 13.375 C-5.27833984 12.4778125 -5.24417969 11.580625 -5.20898438 10.65625 C-5.12637598 8.43762462 -5.05727281 6.2194006 -5 4 C-6.32 4 -7.64 4 -9 4 C-9 3.01 -9 2.02 -9 1 C-6 0 -6 0 0 0 Z " fill="#4F626F" transform="translate(639,439)"/>
<path d="M0 0 C3.96 0 7.92 0 12 0 C11.32930848 4.58894201 10.23877704 8.92547207 8.9375 13.375 C8.57527344 14.62023437 8.21304688 15.86546875 7.83984375 17.1484375 C7.42412109 18.55996094 7.42412109 18.55996094 7 20 C6.34 20 5.68 20 5 20 C4.16169027 17.23058394 3.32917966 14.45964931 2.5 11.6875 C2.26152344 10.90181641 2.02304687 10.11613281 1.77734375 9.30664062 C1.55175781 8.54931641 1.32617188 7.79199219 1.09375 7.01171875 C0.88427734 6.31522217 0.67480469 5.61872559 0.45898438 4.90112305 C0 3 0 3 0 0 Z " fill="#CED0D4" transform="translate(708,771)"/>
<path d="M0 0 C3.96 0 7.92 0 12 0 C11.32930848 4.58894201 10.23877704 8.92547207 8.9375 13.375 C8.57527344 14.62023437 8.21304687 15.86546875 7.83984375 17.1484375 C7.42412109 18.55996094 7.42412109 18.55996094 7 20 C6.34 20 5.68 20 5 20 C4.16169027 17.23058394 3.32917966 14.45964931 2.5 11.6875 C2.26152344 10.90181641 2.02304687 10.11613281 1.77734375 9.30664062 C1.55175781 8.54931641 1.32617188 7.79199219 1.09375 7.01171875 C0.88427734 6.31522217 0.67480469 5.61872559 0.45898438 4.90112305 C0 3 0 3 0 0 Z " fill="#CED0D4" transform="translate(480,771)"/>
<path d="M0 0 C4.04381805 0.84246209 5.53235541 2.35899981 8 5.625 C8 7.275 8 8.925 8 10.625 C-0.415 11.12 -0.415 11.12 -9 11.625 C-7.93173094 5.21538567 -6.74894964 1.40603118 0 0 Z " fill="#CED0D4" transform="translate(529,578.375)"/>
<path d="M0 0 C-1.50663783 3.01327566 -4.03166411 3.61056618 -7 5 C-7 6.98 -7 8.96 -7 11 C-4.69 11.66 -2.38 12.32 0 13 C-1.0625 14.5 -1.0625 14.5 -3 16 C-6.89504791 16.49573337 -9.09493717 16.58016848 -12.4375 14.4375 C-14.60396028 11.05782196 -14.56288002 8.94016013 -14 5 C-10.74456394 0.36726407 -5.49039947 -2.1116921 0 0 Z " fill="#546673" transform="translate(594,451)"/>
<path d="M0 0 C0.66 0 1.32 0 2 0 C3.7265625 2.37109375 3.7265625 2.37109375 5.625 5.4375 C6.57246094 6.95150391 6.57246094 6.95150391 7.5390625 8.49609375 C9 11 9 11 9 12 C3.72 12 -1.56 12 -7 12 C-2.25 3.375 -2.25 3.375 0 0 Z " fill="#CDCED3" transform="translate(599,746)"/>
<path d="M0 0 C3.3 0 6.6 0 10 0 C6.19040748 7.45355058 0.91468366 14.08531634 -5 20 C-3.76388336 13.16500212 -2.08277943 6.62702546 0 0 Z " fill="#CACCD1" transform="translate(725,771)"/>
<path d="M0 0 C3.3 0 6.6 0 10 0 C10.69969682 2.24623699 11.38435043 4.49716414 12.0625 6.75 C12.44535156 8.00296875 12.82820312 9.2559375 13.22265625 10.546875 C13.96515749 13.84522223 13.94299411 14.93306589 13 18 C10.82543857 15.38145079 8.66173829 12.75414116 6.5 10.125 C5.87996094 9.37863281 5.25992188 8.63226562 4.62109375 7.86328125 C4.03457031 7.14785156 3.44804688 6.43242188 2.84375 5.6953125 C2.02680664 4.7055542 2.02680664 4.7055542 1.19335938 3.69580078 C0 2 0 2 0 0 Z " fill="#CBCDD1" transform="translate(693,771)"/>
<path d="M0 0 C3.3 0 6.6 0 10 0 C6.19040748 7.45355058 0.91468366 14.08531634 -5 20 C-3.76388336 13.16500212 -2.08277943 6.62702546 0 0 Z " fill="#CACCD1" transform="translate(497,771)"/>
<path d="M0 0 C3.3 0 6.6 0 10 0 C10.69969682 2.24623699 11.38435043 4.49716414 12.0625 6.75 C12.44535156 8.00296875 12.82820313 9.2559375 13.22265625 10.546875 C13.96515749 13.84522223 13.94299411 14.93306589 13 18 C10.82543857 15.38145079 8.66173829 12.75414116 6.5 10.125 C5.87996094 9.37863281 5.25992187 8.63226562 4.62109375 7.86328125 C4.03457031 7.14785156 3.44804687 6.43242188 2.84375 5.6953125 C2.02680664 4.7055542 2.02680664 4.7055542 1.19335938 3.69580078 C0 2 0 2 0 0 Z " fill="#CBCDD1" transform="translate(465,771)"/>
<path d="M0 0 C3.1352987 -0.5118855 5.8793173 -0.66166374 9 0 C11.88055516 2.2856579 14.05403234 4.88394889 16 8 C16 8.66 16 9.32 16 10 C12.54659024 10.49139427 9.43483292 10.68492204 6 10 C3.32466667 7.71133594 1.55562726 5.14919665 0 2 C0 1.34 0 0.68 0 0 Z " fill="#CBCDD2" transform="translate(719,756)"/>
<path d="M0 0 C-0.2990625 0.59296875 -0.598125 1.1859375 -0.90625 1.796875 C-1.80130596 3.59977343 -2.65649846 5.42241332 -3.5 7.25 C-6 10 -6 10 -8.484375 10.3828125 C-11.01528132 10.37566305 -13.48316131 10.25936887 -16 10 C-11.96154108 1.66954663 -9.3440774 -1.09930322 0 0 Z " fill="#CBCDD2" transform="translate(709,756)"/>
<path d="M0 0 C3.1352987 -0.5118855 5.8793173 -0.66166374 9 0 C11.88055516 2.2856579 14.05403234 4.88394889 16 8 C16 8.66 16 9.32 16 10 C12.54659024 10.49139427 9.43483292 10.68492204 6 10 C3.32466667 7.71133594 1.55562726 5.14919665 0 2 C0 1.34 0 0.68 0 0 Z " fill="#CBCDD2" transform="translate(491,756)"/>
<path d="M0 0 C-0.2990625 0.59296875 -0.598125 1.1859375 -0.90625 1.796875 C-1.80130596 3.59977343 -2.65649846 5.42241332 -3.5 7.25 C-6 10 -6 10 -8.484375 10.3828125 C-11.01528132 10.37566305 -13.48316131 10.25936887 -16 10 C-11.96154108 1.66954663 -9.3440774 -1.09930322 0 0 Z " fill="#CBCDD2" transform="translate(481,756)"/>
<path d="M0 0 C1.175625 0.0825 2.35125 0.165 3.5625 0.25 C5.5625 3.25 5.5625 3.25 5.375 6.3125 C4.5625 9.25 4.5625 9.25 1.5625 11.25 C-1 11.0625 -1 11.0625 -3.4375 10.25 C-5.4375 7.25 -5.4375 7.25 -5.125 4.125 C-4.21183628 0.30631537 -4.21183628 0.30631537 0 0 Z " fill="#546674" transform="translate(597.4375,557.75)"/>
<path d="M0 0 C0.05399736 1.45792884 0.09279177 2.91642712 0.125 4.375 C0.14820313 5.18710937 0.17140625 5.99921875 0.1953125 6.8359375 C0 9 0 9 -2 11 C-5.0625 11.1875 -5.0625 11.1875 -8 11 C-9 10 -9 10 -9.3125 7.125 C-9 4 -9 4 -7.1875 2.1875 C-4.77075564 0.87555306 -2.77801836 0 0 0 Z " fill="#C7CACF" transform="translate(595,452)"/>
<path d="M0 0 C2.375 0.875 2.375 0.875 4.375 2.875 C4.375 4.525 4.375 6.175 4.375 7.875 C0.415 7.875 -3.545 7.875 -7.625 7.875 C-6.48958438 3.33333751 -5.20719957 -0.24796188 0 0 Z " fill="#C1C4CA" transform="translate(564.625,441.125)"/>
<path d="M0 0 C2.875 0.75 2.875 0.75 3.875 1.75 C3.875 3.4 3.875 5.05 3.875 6.75 C0.245 7.08 -3.385 7.41 -7.125 7.75 C-6.125 2.75 -6.125 2.75 -4.9375 0.875 C-3.125 -0.25 -3.125 -0.25 0 0 Z " fill="#CACCD1" transform="translate(692.125,441.25)"/>
<path d="M0 0 C0 1.65 0 3.3 0 5 C-1.6210103 5.69685498 -3.24696066 6.38222861 -4.875 7.0625 C-5.77992188 7.44535156 -6.68484375 7.82820313 -7.6171875 8.22265625 C-10 9 -10 9 -12 8 C-12 6.35 -12 4.7 -12 3 C-11.34 3.66 -10.68 4.32 -10 5 C-9.236875 4.360625 -8.47375 3.72125 -7.6875 3.0625 C-5.04946864 1.03796431 -3.35396044 0 0 0 Z " fill="#5D6E7A" transform="translate(549,438)"/>
<path d="M0 0 C1.2065625 0.0309375 1.2065625 0.0309375 2.4375 0.0625 C3.0625 2.4375 3.0625 2.4375 3.4375 5.0625 C2.7775 5.7225 2.1175 6.3825 1.4375 7.0625 C-1.1875 6.6875 -1.1875 6.6875 -3.5625 6.0625 C-3.605221 4.39638095 -3.60313832 2.72867115 -3.5625 1.0625 C-2.5625 0.0625 -2.5625 0.0625 0 0 Z " fill="#526572" transform="translate(636.5625,426.9375)"/>
<path d="M0 0 C3 1 3 1 4.6875 4.0625 C5.120625 5.031875 5.55375 6.00125 6 7 C2.7 7 -0.6 7 -4 7 C-2.68 4.69 -1.36 2.38 0 0 Z " fill="#C7CACE" transform="translate(713,759)"/>
<path d="M0 0 C3 1 3 1 4.6875 4.0625 C5.120625 5.031875 5.55375 6.00125 6 7 C2.7 7 -0.6 7 -4 7 C-2.68 4.69 -1.36 2.38 0 0 Z " fill="#C7CACE" transform="translate(485,759)"/>
</svg>
