<?xml version="1.0" encoding="UTF-8"?>
<svg version="1.1" xmlns="http://www.w3.org/2000/svg" width="1200" height="1200">
<path d="M0 0 C396 0 792 0 1200 0 C1200 396 1200 792 1200 1200 C804 1200 408 1200 0 1200 C0 804 0 408 0 0 Z " fill="#9A2C80" transform="translate(0,0)"/>
<path d="M0 0 C316.8 0 633.6 0 960 0 C960 7.26 960 14.52 960 22 C643.2 22 326.4 22 0 22 C0 14.74 0 7.48 0 0 Z " fill="#FFB19B" transform="translate(120,578)"/>
<path d="M0 0 C2.84040069 2.17386494 5.46425206 4.47916823 8 7 C10.82482708 5.70987334 12.8825812 4.32286866 15.125 2.1875 C24.67676566 -6.16009007 35.84074784 -8.598592 48.24609375 -8.37109375 C62.01333878 -7.0101278 73.52289758 -0.6158161 82.4375 9.9375 C90.60320314 20.84180296 93.13765205 32.52098335 92 46 C90.41884844 54.25607284 87.25698925 60.87535171 82.48828125 67.7578125 C80.85036764 70.01360555 80.85036764 70.01360555 80 73 C80.33 73.66 80.66 74.32 81 75 C81.56986966 78.56168535 81.66760622 80.98122519 79.6484375 84.0625 C76.14339725 88.13884637 72.34770413 91.83803336 68 95 C67.01 95 66.02 95 65 95 C64.95875 95.680625 64.9175 96.36125 64.875 97.0625 C63.24818514 102.52394987 59.5699462 106.06407054 54.75 108.9375 C52 110 52 110 50 110 C49.63841797 111.33611328 49.63841797 111.33611328 49.26953125 112.69921875 C47.88852379 116.28983816 46.40878388 118.12780481 43.6875 120.8125 C42.92824219 121.58207031 42.16898438 122.35164062 41.38671875 123.14453125 C38.83430529 125.1288134 37.1781041 125.65687726 34 126 C33.80148437 126.85078125 33.60296875 127.7015625 33.3984375 128.578125 C31.60089598 132.97657856 29.01413215 135.50270378 25.625 138.75 C25.0475 139.32621094 24.47 139.90242187 23.875 140.49609375 C17.27940243 146.95616534 17.27940243 146.95616534 11.75 147.0625 C5.63859116 145.33093416 1.68687854 141.31945799 -2 136.25 C-3 134 -3 134 -3 131 C-3.71542969 131.09667969 -4.43085937 131.19335938 -5.16796875 131.29296875 C-9.14670702 130.88137514 -10.53835725 129.12774116 -13.3125 126.3125 C-14.19550781 125.44238281 -15.07851563 124.57226562 -15.98828125 123.67578125 C-18.18706668 120.75118315 -18.48088212 119.55852772 -18 116 C-18.73992188 115.90203125 -19.47984375 115.8040625 -20.2421875 115.703125 C-25.75326949 114.29803328 -29.78316499 109.71117423 -33 105.1875 C-34 103 -34 103 -34 101 C-34.72832031 100.9175 -35.45664062 100.835 -36.20703125 100.75 C-39.63165272 99.83038137 -41.1623263 98.46943982 -43.6875 96 C-44.45449219 95.278125 -45.22148438 94.55625 -46.01171875 93.8125 C-47.99482385 91.00732187 -48.310443 89.89150686 -48.8203125 86.63671875 C-49.86657487 81.01051411 -53.00580072 78.46212916 -57.1875 74.8125 C-66.65926762 65.98252416 -73.0794155 55.70895514 -74.3359375 42.45703125 C-74.49129757 27.96193702 -70.53238539 16.40762735 -60.78125 5.5234375 C-43.4122674 -11.33800989 -20.15182578 -11.934838 0 0 Z " fill="#FBAC9A" transform="translate(591,660)"/>
<path d="M0 0 C2.48978365 1.88619973 4.71328121 3.86241505 7 6 C5.59319212 9.20638837 3.92422543 11.29181592 1.41015625 13.71484375 C0.70826172 14.40126953 0.00636719 15.08769531 -0.71679688 15.79492188 C-2.19329071 17.21947221 -3.66985284 18.64395177 -5.14648438 20.06835938 C-11.47506885 25.99408335 -11.47506885 25.99408335 -14.43359375 33.90234375 C-14.47187757 42.20950031 -14.47187757 42.20950031 -10 49 C-6.55767994 51.77128552 -3.38205104 53.24204173 1.0625 53.4375 C7.82781648 52.68579817 11.71259738 49.66306267 16.3984375 44.89453125 C17.11817245 44.16842903 17.11817245 44.16842903 17.85244751 43.42765808 C19.36722348 41.89623333 20.87116699 40.35466411 22.375 38.8125 C23.40685086 37.76558444 24.43939667 36.71935336 25.47265625 35.67382812 C27.9898519 33.12374701 30.49744903 30.56446386 33 28 C35.84015307 29.2917878 37.89698388 30.64783083 40.09692383 32.85400391 C40.67465042 33.42865387 41.25237701 34.00330383 41.84761047 34.59536743 C42.46121933 35.2161618 43.07482819 35.83695618 43.70703125 36.4765625 C44.35065109 37.12064056 44.99427094 37.76471863 45.65739441 38.42831421 C47.01884298 39.79278138 48.37786275 41.15967568 49.73461914 42.52880859 C51.78944015 44.60173694 53.85199987 46.66669979 55.91601562 48.73046875 C57.24265725 50.06203215 58.56884344 51.39404949 59.89453125 52.7265625 C60.50206741 53.33521149 61.10960358 53.94386047 61.73554993 54.57095337 C65.452423 58.32821095 68.98441132 62.20114727 72.42558289 66.21273804 C73.96569474 68.02045045 73.96569474 68.02045045 75.70271301 69.58486938 C77 71 77 71 77 73.375 C75.65810685 76.89746952 73.9381923 78.66280158 71 81 C68.6484375 81.43969727 68.6484375 81.43969727 66 81 C63.4921875 78.96459961 63.4921875 78.96459961 60.875 76.15234375 C59.91151557 75.14512753 58.94797212 74.13796778 57.984375 73.13085938 C56.48582008 71.53261412 54.99263348 69.92956562 53.50195312 68.32397461 C52.0555215 66.77514285 50.59136573 65.2447778 49.125 63.71484375 C48.26132812 62.78792725 47.39765625 61.86101074 46.5078125 60.90600586 C44.14837739 58.67670137 44.14837739 58.67670137 41.1796875 59.20532227 C40.46039062 59.46756592 39.74109375 59.72980957 39 60 C39.48410174 64.27458118 41.90579424 66.16535628 44.9453125 69.02734375 C45.94961766 69.99372623 46.95351166 70.96053616 47.95703125 71.92773438 C49.54280205 73.43891832 51.13290963 74.94491543 52.73095703 76.44311523 C54.27392813 77.89556093 55.79776398 79.36604586 57.3203125 80.83984375 C58.24086426 81.70988037 59.16141602 82.57991699 60.10986328 83.47631836 C62 86 62 86 61.87182617 88.70776367 C60.94425057 91.14657838 60.02773826 92.53942058 58.1875 94.375 C57.68605469 94.89835938 57.18460938 95.42171875 56.66796875 95.9609375 C55 97 55 97 53.20996094 96.87402344 C50.02236159 95.61335114 48.31519763 93.54253813 45.97265625 91.0546875 C45.00627377 90.05038234 44.03946384 89.04648834 43.07226562 88.04296875 C41.56108168 86.45719795 40.05508457 84.86709037 38.55688477 83.26904297 C37.10443907 81.72607187 35.63395414 80.20223602 34.16015625 78.6796875 C33.29011963 77.75913574 32.42008301 76.83858398 31.52368164 75.89013672 C29.14655126 73.67870582 29.14655126 73.67870582 26.17749023 74.20751953 C25.45891846 74.46903809 24.74034668 74.73055664 24 75 C24.51428961 79.06516975 25.48832702 80.9759905 28.421875 83.8125 C29.11796875 84.49570312 29.8140625 85.17890625 30.53125 85.8828125 C31.2634375 86.58148437 31.995625 87.28015625 32.75 88 C33.82507813 89.04800781 33.82507813 89.04800781 34.921875 90.1171875 C38.72575188 93.82963706 38.72575188 93.82963706 42.59570312 97.47265625 C44.44134825 99.20942159 45.8859113 100.77652288 47.04296875 103.04296875 C46.97612631 106.08733796 45.4373096 107.22583779 43.3125 109.3125 C42.60738281 110.03050781 41.90226563 110.74851562 41.17578125 111.48828125 C39 113 39 113 36.9765625 112.9453125 C34.58390234 111.80099677 32.98209652 110.39086817 31.0625 108.5625 C28.67979447 106.37023376 27.26290498 105.09347732 24.1875 104 C22 103 22 103 20.625 99.75 C20.398125 99.13253906 20.17125 98.51507812 19.9375 97.87890625 C17.80068967 93.59638221 13.70385878 90.58086095 9.25 89.0625 C6.25541678 87.64839126 6.03469841 85.86503146 4.9375 82.87890625 C3.1984073 79.39347463 0.18585509 77.14500177 -3 75 C-3.886875 74.71125 -4.77375 74.4225 -5.6875 74.125 C-8.46788616 72.77237971 -8.64531778 71.99992226 -9.875 69.25 C-11.98155249 64.65083362 -14.50827489 61.44922806 -19 59 C-22.2451187 58.08366253 -24.75802675 58.05860227 -28 59 C-31.05405814 60.99107324 -33.49798098 63.36243142 -36 66 C-36.825 66.804375 -37.65 67.60875 -38.5 68.4375 C-38.995 68.953125 -39.49 69.46875 -40 70 C-50.21582577 65.69356291 -56.28814586 55.6366255 -60.7578125 46.06640625 C-64.63339977 36.49931189 -63.64791351 26.5343194 -60 17 C-55.00568779 6.21100503 -47.40029109 -0.42238908 -36.578125 -5.08984375 C-23.8174684 -9.59474221 -11.29444391 -6.75469985 0 0 Z " fill="#9B2D80" transform="translate(587,666)"/>
<path d="M0 0 C10.54334775 6.66551379 17.78432161 15.43223914 20.64453125 27.671875 C21.9800925 39.67708664 20.69078001 50.43509351 13.39453125 60.359375 C12.48273522 61.46756713 11.56690049 62.57246752 10.64453125 63.671875 C5.25559984 59.19694086 0.34848493 54.42611965 -4.51953125 49.39453125 C-6.0682583 47.81371592 -7.61776007 46.23365928 -9.16796875 44.65429688 C-11.58922019 42.18342558 -14.00551455 39.70845053 -16.40917969 37.22045898 C-18.74484334 34.80638715 -21.09891733 32.41165052 -23.45703125 30.01953125 C-24.17484772 29.26761002 -24.89266418 28.51568878 -25.63223267 27.74098206 C-26.30998749 27.05954636 -26.98774231 26.37811066 -27.68603516 25.67602539 C-28.2755899 25.07013077 -28.86514465 24.46423615 -29.4725647 23.83998108 C-31.34913928 22.42366709 -31.34913928 22.42366709 -33.90788269 22.83457947 C-37.49413977 24.06140335 -39.6827137 26.525403 -42.2421875 29.203125 C-42.78527054 29.7542395 -43.32835358 30.305354 -43.88789368 30.87316895 C-45.61597395 32.63018141 -47.32983453 34.40029749 -49.04296875 36.171875 C-50.76935471 37.94076622 -52.49855178 39.70682065 -54.23017883 41.47058105 C-55.30558698 42.56769123 -56.3774759 43.66826425 -57.44548035 44.77258301 C-62.04243938 49.49282554 -62.04243938 49.49282554 -66.10546875 50.046875 C-69.58299665 49.64562178 -71.63078806 48.76696642 -74.203125 46.3515625 C-76.09752721 43.59023047 -76.24185212 41.26222979 -75.97265625 37.97265625 C-74.75625099 33.43808221 -71.66161269 30.86030793 -68.35546875 27.671875 C-67.17830832 26.47789799 -66.00408674 25.28101987 -64.83203125 24.08203125 C-47.4037928 6.32945414 -26.4009045 -13.14506574 0 0 Z " fill="#9B2D80" transform="translate(654.35546875,663.328125)"/>
<path d="M0 0 C7.26 0 14.52 0 22 0 C22 23.76 22 47.52 22 72 C23.98 72 25.96 72 28 72 C28 73.32 28 74.64 28 76 C22.06 76 16.12 76 10 76 C10 74.68 10 73.36 10 72 C8.9275 72.639375 7.855 73.27875 6.75 73.9375 C1.11961606 77.29407504 -4.54410881 77.6892756 -11 77 C-16.92821126 75.20201565 -20.51590325 72.02119825 -24 67 C-27.33122636 60.31417025 -26.90020759 51.64872826 -25.5 44.41796875 C-23.1555366 37.45118262 -18.06775634 33.6934169 -12 30 C-3.75896263 27.25298754 1.79118626 29.7164745 10 33 C10 23.43 10 13.86 10 4 C6.7 4 3.4 4 0 4 C0 2.68 0 1.36 0 0 Z " fill="#FAAA99" transform="translate(225,434)"/>
<path d="M0 0 C6.19596788 3.5054842 9.86469256 7.87042119 12.1171875 14.6796875 C13.93903459 22.55567262 12.78586307 29.93635404 8.625 36.875 C3.8736166 42.34414558 -0.84315724 45.47060043 -8.1328125 46.12109375 C-14.76639906 46.395415 -20.01564102 46.00113014 -25.375 41.875 C-30.80317983 36.82303066 -33.90723857 32.25890363 -34.7109375 24.7265625 C-34.80696709 16.79451835 -34.28708948 11.11632473 -28.796875 5.1640625 C-20.50168661 -2.49590876 -10.4036649 -4.80646218 0 0 Z " fill="#FBAC9A" transform="translate(944.375,465.125)"/>
<path d="M0 0 C5.30419496 4.36122697 8.66999026 8.67790198 9.3515625 15.5390625 C9.49947808 22.3566259 9.58943011 28.1030791 6 34 C5.484375 34.86625 4.96875 35.7325 4.4375 36.625 C-0.80198474 41.73013898 -6.68437855 44.29504285 -14 44.625 C-20.84635947 44.30779416 -26.49384789 42.07716409 -31.66015625 37.54296875 C-37.43492349 31.16210349 -37.44880484 23.8113748 -37.3046875 15.63671875 C-36.81698861 9.81559484 -35.40015506 6.27248724 -31.1640625 2.26171875 C-21.57703739 -5.43361367 -10.58028279 -6.42374312 0 0 Z " fill="#FBAD9A" transform="translate(712,467)"/>
<path d="M0 0 C6.6 0 13.2 0 20 0 C20.33 11.22 20.66 22.44 21 34 C23.31 32.68 25.62 31.36 28 30 C32.58132752 27.70933624 38.03052022 28.70915606 42.75 30.125 C47.0536603 32.60788094 49.7483568 35.49671359 52 40 C52.08639869 42.40838678 52.11567764 44.78733881 52.09765625 47.1953125 C52.0962413 47.90275604 52.09482635 48.61019958 52.09336853 49.33908081 C52.087766 51.60109669 52.07521318 53.86301398 52.0625 56.125 C52.05748532 57.65755065 52.05292236 59.19010286 52.04882812 60.72265625 C52.03779577 64.48180888 52.02052952 68.24088772 52 72 C54.31 72 56.62 72 59 72 C59 73.32 59 74.64 59 76 C50.42 76 41.84 76 33 76 C33 74.68 33 73.36 33 72 C35.31 72 37.62 72 40 72 C39.90657935 67.05174384 39.8005124 62.10398366 39.68261719 57.15625 C39.64428896 55.47240671 39.60944288 53.78848045 39.578125 52.10449219 C39.53255713 49.68654694 39.47455077 47.26917472 39.4140625 44.8515625 C39.40251129 44.0963028 39.39096008 43.34104309 39.37905884 42.56289673 C39.39669934 38.32174802 39.39669934 38.32174802 37 35 C32.48451985 34.22333741 28.36770166 34.35590302 24.5 36.9375 C22.70018609 38.41393092 22.70018609 38.41393092 21 40 C20.84028023 42.37338639 20.7407567 44.72118272 20.68359375 47.09765625 C20.66281265 47.80651474 20.64203156 48.51537323 20.62062073 49.24571228 C20.55505402 51.51787305 20.4962077 53.79015264 20.4375 56.0625 C20.39432151 57.59962183 20.35070745 59.1367315 20.30664062 60.67382812 C20.19936551 64.4490959 20.09811863 68.2244836 20 72 C22.31 72 24.62 72 27 72 C27 73.32 27 74.64 27 76 C18.42 76 9.84 76 1 76 C1 74.68 1 73.36 1 72 C3.31 72 5.62 72 8 72 C8 49.56 8 27.12 8 4 C5.36 4 2.72 4 0 4 C0 2.68 0 1.36 0 0 Z " fill="#FBAB99" transform="translate(507,434)"/>
<path d="M0 0 C19.47 0 38.94 0 59 0 C59 6.6 59 13.2 59 20 C57.68 20 56.36 20 55 20 C54.85304687 19.16855469 54.70609375 18.33710938 54.5546875 17.48046875 C54.33039063 16.39378906 54.10609375 15.30710937 53.875 14.1875 C53.66617188 13.10855469 53.45734375 12.02960938 53.2421875 10.91796875 C52.22020869 7.87596958 52.22020869 7.87596958 49.6875 6.15625 C44.2030484 4.43654907 38.8406995 4.42628374 33.125 4.3125 C27.123125 4.1578125 27.123125 4.1578125 21 4 C21 13.24 21 22.48 21 32 C23.578125 31.896875 26.15625 31.79375 28.8125 31.6875 C29.62050049 31.66260498 30.42850098 31.63770996 31.26098633 31.61206055 C35.36351134 31.41144257 35.36351134 31.41144257 38.96875 29.625 C40.32685243 27.48495981 40.66327331 25.49177752 41 23 C42.32 23 43.64 23 45 23 C45 30.59 45 38.18 45 46 C43.68 46 42.36 46 41 46 C40.9175 44.906875 40.835 43.81375 40.75 42.6875 C40.33564215 38.55968595 40.33564215 38.55968595 36 36 C31.05 35.67 26.1 35.34 21 35 C21 45.23 21 55.46 21 66 C26.506875 65.8453125 26.506875 65.8453125 32.125 65.6875 C33.2711377 65.66260498 34.41727539 65.63770996 35.59814453 65.61206055 C42.04890016 65.37961617 46.50063144 64.63418252 51.76953125 60.66796875 C53.47760627 58.35257817 54.00014394 56.09465547 54.6875 53.3125 C55.06455078 51.82169922 55.06455078 51.82169922 55.44921875 50.30078125 C55.63097656 49.54152344 55.81273437 48.78226562 56 48 C56.99 48 57.98 48 59 48 C59 54.93 59 61.86 59 69 C39.53 69 20.06 69 0 69 C0 67.68 0 66.36 0 65 C2.97 65 5.94 65 9 65 C9 44.87 9 24.74 9 4 C6.03 4 3.06 4 0 4 C0 2.68 0 1.36 0 0 Z " fill="#F9AA99" transform="translate(123,441)"/>
<path d="M0 0 C0.99 0 1.98 0 3 0 C5.31 5.94 7.62 11.88 10 18 C20.395 18.99 20.395 18.99 31 20 C28.79939943 24.40120114 26.21928671 26.42428498 22.375 29.25 C21.76398437 29.70890625 21.15296875 30.1678125 20.5234375 30.640625 C19.0209208 31.76751252 17.51115591 32.88472437 16 34 C17.3100138 40.99731325 17.3100138 40.99731325 19.125 47.875 C20 51 20 51 20 55 C15.31417092 54.28967872 11.68074299 51.33266318 7.86523438 48.70703125 C5.32951715 47.05600417 3.53732201 45.99916952 0.47265625 46.00390625 C-2.73335552 47.29542758 -5.30890819 49.06159266 -8.125 51.0625 C-13.67486819 55 -13.67486819 55 -17 55 C-16.48552111 49.44362804 -15.36097395 44.50210719 -13.62109375 39.19921875 C-12.86410753 36.89969428 -12.86410753 36.89969428 -13 34 C-15.05153133 31.99204208 -15.05153133 31.99204208 -17.6875 30.0625 C-18.55761719 29.39347656 -19.42773438 28.72445312 -20.32421875 28.03515625 C-22.1561339 26.64183101 -23.99229129 25.25407069 -25.83203125 23.87109375 C-26.54746094 23.25363281 -27.26289062 22.63617187 -28 22 C-28 21.34 -28 20.68 -28 20 C-21.07 19.34 -14.14 18.68 -7 18 C-4.69 12.06 -2.38 6.12 0 0 Z " fill="#FDAE9A" transform="translate(958,638)"/>
<path d="M0 0 C0.99 0 1.98 0 3 0 C5.31 5.94 7.62 11.88 10 18 C20.395 18.99 20.395 18.99 31 20 C28.79939943 24.40120114 26.21928671 26.42428498 22.375 29.25 C21.76398437 29.70890625 21.15296875 30.1678125 20.5234375 30.640625 C19.0209208 31.76751252 17.51115591 32.88472437 16 34 C17.3100138 40.99731325 17.3100138 40.99731325 19.125 47.875 C20 51 20 51 20 55 C15.31417092 54.28967872 11.68074299 51.33266318 7.86523438 48.70703125 C5.32951715 47.05600417 3.53732201 45.99916952 0.47265625 46.00390625 C-2.73335552 47.29542758 -5.30890819 49.06159266 -8.125 51.0625 C-13.67486819 55 -13.67486819 55 -17 55 C-16.48552111 49.44362804 -15.36097395 44.50210719 -13.62109375 39.19921875 C-12.86410753 36.89969428 -12.86410753 36.89969428 -13 34 C-15.05153133 31.99204208 -15.05153133 31.99204208 -17.6875 30.0625 C-18.55761719 29.39347656 -19.42773438 28.72445312 -20.32421875 28.03515625 C-22.1561339 26.64183101 -23.99229129 25.25407069 -25.83203125 23.87109375 C-26.54746094 23.25363281 -27.26289062 22.63617187 -28 22 C-28 21.34 -28 20.68 -28 20 C-21.07 19.34 -14.14 18.68 -7 18 C-4.69 12.06 -2.38 6.12 0 0 Z " fill="#FDAE9A" transform="translate(868,638)"/>
<path d="M0 0 C0.99 0 1.98 0 3 0 C5.31 5.94 7.62 11.88 10 18 C20.395 18.99 20.395 18.99 31 20 C28.79939943 24.40120114 26.21928671 26.42428498 22.375 29.25 C21.76398437 29.70890625 21.15296875 30.1678125 20.5234375 30.640625 C19.0209208 31.76751252 17.51115591 32.88472437 16 34 C17.3100138 40.99731325 17.3100138 40.99731325 19.125 47.875 C20 51 20 51 20 55 C15.31417092 54.28967872 11.68074299 51.33266318 7.86523438 48.70703125 C5.32951715 47.05600417 3.53732201 45.99916952 0.47265625 46.00390625 C-2.73335552 47.29542758 -5.30890819 49.06159266 -8.125 51.0625 C-13.67486819 55 -13.67486819 55 -17 55 C-16.48552111 49.44362804 -15.36097395 44.50210719 -13.62109375 39.19921875 C-12.86410753 36.89969428 -12.86410753 36.89969428 -13 34 C-15.05153133 31.99204208 -15.05153133 31.99204208 -17.6875 30.0625 C-18.55761719 29.39347656 -19.42773438 28.72445312 -20.32421875 28.03515625 C-22.1561339 26.64183101 -23.99229129 25.25407069 -25.83203125 23.87109375 C-26.54746094 23.25363281 -27.26289062 22.63617187 -28 22 C-28 21.34 -28 20.68 -28 20 C-21.07 19.34 -14.14 18.68 -7 18 C-4.69 12.06 -2.38 6.12 0 0 Z " fill="#FDAE9A" transform="translate(778,638)"/>
<path d="M0 0 C0.99 0 1.98 0 3 0 C5.31 5.94 7.62 11.88 10 18 C20.395 18.99 20.395 18.99 31 20 C28.79939943 24.40120114 26.21928671 26.42428498 22.375 29.25 C21.76398438 29.70890625 21.15296875 30.1678125 20.5234375 30.640625 C19.0209208 31.76751252 17.51115591 32.88472437 16 34 C17.3100138 40.99731325 17.3100138 40.99731325 19.125 47.875 C20 51 20 51 20 55 C15.31417092 54.28967872 11.68074299 51.33266318 7.86523438 48.70703125 C5.32951715 47.05600417 3.53732201 45.99916952 0.47265625 46.00390625 C-2.73335552 47.29542758 -5.30890819 49.06159266 -8.125 51.0625 C-13.67486819 55 -13.67486819 55 -17 55 C-16.48552111 49.44362804 -15.36097395 44.50210719 -13.62109375 39.19921875 C-12.86410753 36.89969428 -12.86410753 36.89969428 -13 34 C-15.05153133 31.99204208 -15.05153133 31.99204208 -17.6875 30.0625 C-18.55761719 29.39347656 -19.42773438 28.72445312 -20.32421875 28.03515625 C-22.1561339 26.64183101 -23.99229129 25.25407069 -25.83203125 23.87109375 C-26.54746094 23.25363281 -27.26289063 22.63617187 -28 22 C-28 21.34 -28 20.68 -28 20 C-21.07 19.34 -14.14 18.68 -7 18 C-4.69 12.06 -2.38 6.12 0 0 Z " fill="#FDAE9A" transform="translate(418,638)"/>
<path d="M0 0 C0.99 0 1.98 0 3 0 C5.31 5.94 7.62 11.88 10 18 C20.395 18.99 20.395 18.99 31 20 C28.79939943 24.40120114 26.21928671 26.42428498 22.375 29.25 C21.76398438 29.70890625 21.15296875 30.1678125 20.5234375 30.640625 C19.0209208 31.76751252 17.51115591 32.88472437 16 34 C17.3100138 40.99731325 17.3100138 40.99731325 19.125 47.875 C20 51 20 51 20 55 C15.31417092 54.28967872 11.68074299 51.33266318 7.86523438 48.70703125 C5.32951715 47.05600417 3.53732201 45.99916952 0.47265625 46.00390625 C-2.73335552 47.29542758 -5.30890819 49.06159266 -8.125 51.0625 C-13.67486819 55 -13.67486819 55 -17 55 C-16.48552111 49.44362804 -15.36097395 44.50210719 -13.62109375 39.19921875 C-12.86410753 36.89969428 -12.86410753 36.89969428 -13 34 C-15.05153133 31.99204208 -15.05153133 31.99204208 -17.6875 30.0625 C-18.55761719 29.39347656 -19.42773438 28.72445312 -20.32421875 28.03515625 C-22.1561339 26.64183101 -23.99229129 25.25407069 -25.83203125 23.87109375 C-26.54746094 23.25363281 -27.26289063 22.63617187 -28 22 C-28 21.34 -28 20.68 -28 20 C-21.07 19.34 -14.14 18.68 -7 18 C-4.69 12.06 -2.38 6.12 0 0 Z " fill="#FDAE9A" transform="translate(328,638)"/>
<path d="M0 0 C0.99 0 1.98 0 3 0 C5.31 5.94 7.62 11.88 10 18 C20.395 18.99 20.395 18.99 31 20 C28.79939943 24.40120114 26.21928671 26.42428498 22.375 29.25 C21.76398438 29.70890625 21.15296875 30.1678125 20.5234375 30.640625 C19.0209208 31.76751252 17.51115591 32.88472437 16 34 C17.3100138 40.99731325 17.3100138 40.99731325 19.125 47.875 C20 51 20 51 20 55 C15.31417092 54.28967872 11.68074299 51.33266318 7.86523438 48.70703125 C5.32951715 47.05600417 3.53732201 45.99916952 0.47265625 46.00390625 C-2.73335552 47.29542758 -5.30890819 49.06159266 -8.125 51.0625 C-13.67486819 55 -13.67486819 55 -17 55 C-16.48552111 49.44362804 -15.36097395 44.50210719 -13.62109375 39.19921875 C-12.86410753 36.89969428 -12.86410753 36.89969428 -13 34 C-15.05153133 31.99204208 -15.05153133 31.99204208 -17.6875 30.0625 C-18.55761719 29.39347656 -19.42773438 28.72445312 -20.32421875 28.03515625 C-22.1561339 26.64183101 -23.99229129 25.25407069 -25.83203125 23.87109375 C-26.54746094 23.25363281 -27.26289063 22.63617187 -28 22 C-28 21.34 -28 20.68 -28 20 C-21.07 19.34 -14.14 18.68 -7 18 C-4.69 12.06 -2.38 6.12 0 0 Z " fill="#FDAE9A" transform="translate(238,638)"/>
<path d="M0 0 C0.70382812 0.00128906 1.40765625 0.00257813 2.1328125 0.00390625 C7.45265727 0.10242189 11.3978306 0.9489153 16.125 3.3125 C16.455 2.3225 16.785 1.3325 17.125 0.3125 C18.445 0.3125 19.765 0.3125 21.125 0.3125 C21.125 5.9225 21.125 11.5325 21.125 17.3125 C19.475 17.3125 17.825 17.3125 16.125 17.3125 C15.774375 16.075 15.42375 14.8375 15.0625 13.5625 C13.82683086 10.22205472 12.73157445 8.64174107 9.625 6.875 C4.24019201 4.47106786 -0.02462925 3.58604668 -5.875 4.3125 C-9.19298615 5.60897237 -12.22504669 7.01259338 -13.875 10.3125 C-14.15178279 14.46424192 -13.99595361 17.67657953 -11.875 21.3125 C-10.22730591 22.0247685 -8.55492231 22.67997865 -6.875 23.3125 C18.54569526 35.30599505 18.54569526 35.30599505 22.8125 41.625 C24.75837743 47.09198896 25.46512134 52.11048875 23.171875 57.58984375 C19.61701572 63.63085461 15.21963546 67.47503951 8.48828125 69.76953125 C-0.44970324 71.82305165 -7.76019687 70.14662899 -15.875 66.3125 C-16.865 65.9825 -17.855 65.6525 -18.875 65.3125 C-19.205 66.6325 -19.535 67.9525 -19.875 69.3125 C-21.195 69.3125 -22.515 69.3125 -23.875 69.3125 C-23.875 63.3725 -23.875 57.4325 -23.875 51.3125 C-22.225 51.3125 -20.575 51.3125 -18.875 51.3125 C-18.64425781 51.84359375 -18.41351562 52.3746875 -18.17578125 52.921875 C-15.54094457 58.62895208 -13.02718991 61.84636516 -7.1875 64.5625 C-0.31291859 66.119009 6.56223544 65.96553248 13.125 63.3125 C14.34166102 59.66251694 14.88001773 56.09451543 14.125 52.3125 C11.41860228 48.36118283 9.08032927 46.46035002 4.6953125 44.59375 C3.65246094 44.13613281 2.60960937 43.67851562 1.53515625 43.20703125 C0.45105469 42.74683594 -0.63304687 42.28664063 -1.75 41.8125 C-19.22916778 34.33937078 -19.22916778 34.33937078 -23.1796875 25.55859375 C-24.88253271 20.05782972 -24.78380766 15.16506947 -22.25 10 C-15.65477638 2.5369838 -9.89499403 -0.07496208 0 0 Z " fill="#FBAC9A" transform="translate(637.875,440.6875)"/>
<path d="M0 0 C3.91952701 1.81513151 7.12208004 3.8265355 9.8671875 7.23046875 C11.0359356 10.73671305 10.99233017 13.87825535 10.96484375 17.5234375 C10.9634288 18.22946609 10.96201385 18.93549469 10.96055603 19.66291809 C10.95496514 21.91464501 10.94241438 24.16627196 10.9296875 26.41796875 C10.92467132 27.9459621 10.92010862 29.47395702 10.91601562 31.00195312 C10.9049987 34.7448301 10.88774037 38.48763248 10.8671875 42.23046875 C13.1771875 42.23046875 15.4871875 42.23046875 17.8671875 42.23046875 C17.8671875 43.55046875 17.8671875 44.87046875 17.8671875 46.23046875 C8.9571875 46.23046875 0.0471875 46.23046875 -9.1328125 46.23046875 C-9.1328125 44.91046875 -9.1328125 43.59046875 -9.1328125 42.23046875 C-6.4928125 42.23046875 -3.8528125 42.23046875 -1.1328125 42.23046875 C-1.22636513 37.44293195 -1.33246234 32.65589981 -1.45019531 27.86889648 C-1.48847868 26.24039326 -1.52333274 24.61180566 -1.5546875 22.9831543 C-1.60035252 20.64210861 -1.65834327 18.30164345 -1.71875 15.9609375 C-1.73030121 15.23271286 -1.74185242 14.50448822 -1.75375366 13.75419617 C-1.86159762 10.06085501 -2.03165526 8.38220461 -4.1328125 5.23046875 C-7.78790326 4.4190386 -11.6014949 4.52808754 -15.0234375 6.09765625 C-16.8684669 7.32469037 -18.56341332 8.66106957 -20.1328125 10.23046875 C-20.29253227 12.60385514 -20.3920558 14.95165147 -20.44921875 17.328125 C-20.46999985 18.03698349 -20.49078094 18.74584198 -20.51219177 19.47618103 C-20.57775848 21.7483418 -20.6366048 24.02062139 -20.6953125 26.29296875 C-20.73849099 27.83009058 -20.78210505 29.36720025 -20.82617188 30.90429688 C-20.93344699 34.67956465 -21.03469387 38.45495235 -21.1328125 42.23046875 C-18.4928125 42.23046875 -15.8528125 42.23046875 -13.1328125 42.23046875 C-13.1328125 43.55046875 -13.1328125 44.87046875 -13.1328125 46.23046875 C-22.0428125 46.23046875 -30.9528125 46.23046875 -40.1328125 46.23046875 C-40.1328125 44.91046875 -40.1328125 43.59046875 -40.1328125 42.23046875 C-37.8228125 42.23046875 -35.5128125 42.23046875 -33.1328125 42.23046875 C-33.1328125 29.69046875 -33.1328125 17.15046875 -33.1328125 4.23046875 C-35.4428125 4.23046875 -37.7528125 4.23046875 -40.1328125 4.23046875 C-40.1328125 2.91046875 -40.1328125 1.59046875 -40.1328125 0.23046875 C-33.8628125 0.23046875 -27.5928125 0.23046875 -21.1328125 0.23046875 C-20.8028125 1.55046875 -20.4728125 2.87046875 -20.1328125 4.23046875 C-19.50375 3.86953125 -18.8746875 3.50859375 -18.2265625 3.13671875 C-11.91481555 -0.28531273 -7.12752552 -2.57165298 0 0 Z " fill="#FBAC9A" transform="translate(1007.1328125,463.76953125)"/>
<path d="M0 0 C20.46 0 40.92 0 62 0 C62 7.26 62 14.52 62 22 C60.68 22 59.36 22 58 22 C57.81824219 21.18015625 57.63648438 20.3603125 57.44921875 19.515625 C57.19785156 18.43796875 56.94648438 17.3603125 56.6875 16.25 C56.44386719 15.18265625 56.20023437 14.1153125 55.94921875 13.015625 C55.01022269 10.03247701 54.13722164 8.25859472 52 6 C47.21460555 4.40486852 42.0268246 4.41890205 37 4 C37 24.13 37 44.26 37 65 C39.97 65 42.94 65 46 65 C46 66.32 46 67.64 46 69 C36.1 69 26.2 69 16 69 C16 68.01 16 67.02 16 66 C18.97 66 21.94 66 25 66 C25 45.54 25 25.08 25 4 C12.89442719 3.95650161 12.89442719 3.95650161 7 8 C4.91083072 12.49171395 4.50466398 17.12158155 4 22 C2.68 22 1.36 22 0 22 C0 14.74 0 7.48 0 0 Z " fill="#FAAA99" transform="translate(328,441)"/>
<path d="M0 0 C6.03610828 5.99945175 6.11166238 10.11662378 7 19 C-3.56 19 -14.12 19 -25 19 C-24.20715658 31.34299019 -24.20715658 31.34299019 -19 37 C-15.08226724 38.95886638 -10.28038334 38.36223272 -6 38 C-2.54653852 36.65253476 -2.54653852 36.65253476 0 35 C0.66 35 1.32 35 2 35 C2 34.34 2 33.68 2 33 C2.99 33.33 3.98 33.66 5 34 C3.14604785 38.71915093 -0.0870024 41.06683044 -4.5625 43.25 C-12.95332761 45.08072602 -20.24741135 44.84753021 -27.8046875 40.55859375 C-32.8123006 37.00336666 -36.10937348 32.86008673 -38 27 C-38.69653541 19.93514083 -39.03357503 12.13804896 -35 6 C-25.73938059 -4.53794622 -12.25888697 -7.70855435 0 0 Z " fill="#F8A999" transform="translate(440,467)"/>
<path d="M0 0 C5.94 0 11.88 0 18 0 C18.03738281 2.62453125 18.07476562 5.2490625 18.11328125 7.953125 C18.15950835 10.49829385 18.21073762 13.04331632 18.26245117 15.58837891 C18.29568069 17.35554083 18.32371882 19.12280839 18.34643555 20.89013672 C18.38001831 23.43242351 18.43233451 25.97374408 18.48828125 28.515625 C18.49467117 29.30430969 18.5010611 30.09299438 18.50764465 30.90557861 C18.59545946 34.1905808 18.77611417 36.59720241 20.38793945 39.49707031 C22.57481335 41.53590049 23.91717858 41.53596135 26.875 41.5 C28.13957031 41.51546875 28.13957031 41.51546875 29.4296875 41.53125 C32.96047054 40.80148329 34.48702551 39.58942163 37 37 C37.51714967 34.19617187 37.72228209 31.97592053 37.70703125 29.171875 C37.72215256 28.42286926 37.73727386 27.67386353 37.75285339 26.90216064 C37.79572559 24.51780077 37.804567 22.13470686 37.8125 19.75 C37.83564499 18.13017469 37.86101034 16.51037948 37.88867188 14.890625 C37.95151837 10.92697148 37.98385743 6.96410776 38 3 C35.36 3 32.72 3 30 3 C30 2.01 30 1.02 30 0 C36.27 0 42.54 0 49 0 C49 14.19 49 28.38 49 43 C50.98 43 52.96 43 55 43 C55 43.99 55 44.98 55 46 C49.39 46 43.78 46 38 46 C38 44.68 38 43.36 38 42 C36.88625 42.639375 35.7725 43.27875 34.625 43.9375 C28.95781827 47.1908821 24.58982216 47.79930457 18 47 C13.45732672 45.15037733 9.39697808 42.37096003 7 38 C5.79013693 34.35828579 5.88618228 30.86098293 5.90234375 27.046875 C5.9037587 26.38665344 5.90517365 25.72643188 5.90663147 25.04620361 C5.91220755 22.94742206 5.92475553 20.84874905 5.9375 18.75 C5.9425181 17.32291821 5.94708046 15.89583475 5.95117188 14.46875 C5.96216912 10.97913168 5.9794172 7.48957644 6 4 C4.02 4 2.04 4 0 4 C0 2.68 0 1.36 0 0 Z " fill="#FCAE9A" transform="translate(261,464)"/>
<path d="M0 0 C5.94 0 11.88 0 18 0 C18.01417969 2.69671875 18.02835938 5.3934375 18.04296875 8.171875 C18.07359169 10.78658538 18.1126796 13.40104182 18.15258789 16.015625 C18.17577003 17.83128871 18.19016414 19.64708693 18.19555664 21.46289062 C18.20484503 24.07507161 18.24582937 26.6851365 18.29296875 29.296875 C18.2890361 30.10743347 18.28510345 30.91799194 18.28105164 31.75311279 C18.38211418 35.66576946 18.63317649 37.59324242 21.29418945 40.54394531 C24.37999729 42.20448469 26.48368837 42.19565311 29.9375 41.75 C32.98143048 40.64311619 34.7115639 39.31411248 37 37 C37.51714967 34.19617187 37.72228209 31.97592053 37.70703125 29.171875 C37.72215256 28.42286926 37.73727386 27.67386353 37.75285339 26.90216064 C37.79572559 24.51780077 37.804567 22.13470686 37.8125 19.75 C37.83564499 18.13017469 37.86101034 16.51037948 37.88867188 14.890625 C37.95151837 10.92697148 37.98385743 6.96410776 38 3 C35.36 3 32.72 3 30 3 C30 2.01 30 1.02 30 0 C36.27 0 42.54 0 49 0 C49 14.19 49 28.38 49 43 C50.98 43 52.96 43 55 43 C55 43.99 55 44.98 55 46 C49.39 46 43.78 46 38 46 C38 44.68 38 43.36 38 42 C36.88625 42.639375 35.7725 43.27875 34.625 43.9375 C28.95781827 47.1908821 24.58982216 47.79930457 18 47 C13.45732672 45.15037733 9.39697808 42.37096003 7 38 C5.79013693 34.35828579 5.88618228 30.86098293 5.90234375 27.046875 C5.9037587 26.38665344 5.90517365 25.72643188 5.90663147 25.04620361 C5.91220755 22.94742206 5.92475553 20.84874905 5.9375 18.75 C5.9425181 17.32291821 5.94708046 15.89583475 5.95117188 14.46875 C5.96216912 10.97913168 5.9794172 7.48957644 6 4 C4.02 4 2.04 4 0 4 C0 2.68 0 1.36 0 0 Z " fill="#FCAE9A" transform="translate(766,464)"/>
<path d="M0 0 C6.6 0 13.2 0 20 0 C20 23.76 20 47.52 20 72 C22.31 72 24.62 72 27 72 C27 73.32 27 74.64 27 76 C18.42 76 9.84 76 1 76 C1 75.01 1 74.02 1 73 C3.31 73 5.62 73 8 73 C8 50.23 8 27.46 8 4 C5.36 4 2.72 4 0 4 C0 2.68 0 1.36 0 0 Z " fill="#F9AA99" transform="translate(731,434)"/>
<path d="M0 0 C0.99 0 1.98 0 3 0 C3.33 -0.66 3.66 -1.32 4 -2 C5.32 -2 6.64 -2 8 -2 C8 2.29 8 6.58 8 11 C6.35 11 4.7 11 3 11 C2.608125 10.05125 2.21625 9.1025 1.8125 8.125 C0.29370533 4.94791475 0.29370533 4.94791475 -2.1875 3.625 C-5.97033103 2.78437088 -9.11697276 2.74948211 -13 3 C-13.99 3.66 -14.98 4.32 -16 5 C-16.2502157 8.08365871 -16.2502157 8.08365871 -16 11 C-15.24976563 11.37511719 -14.49953125 11.75023437 -13.7265625 12.13671875 C-11.58958105 13.20520948 -9.4542585 14.27702231 -7.3203125 15.3515625 C-5.26509796 16.37191607 -3.1990706 17.37116241 -1.1171875 18.3359375 C7.74451754 22.48903509 7.74451754 22.48903509 10 27 C10.67273579 31.33716719 10.50603187 34.83612669 8.75 38.875 C5.25321394 43.12109736 1.32172411 45.662 -4.2265625 46.2265625 C-10.35176488 46.43516072 -15.34196643 45.29601362 -21 43 C-21.33 43.66 -21.66 44.32 -22 45 C-23.32 45 -24.64 45 -26 45 C-26 40.71 -26 36.42 -26 32 C-24.35 32 -22.7 32 -21 32 C-20.773125 32.94875 -20.54625 33.8975 -20.3125 34.875 C-19.31793578 38.17129561 -19.31793578 38.17129561 -16.5 39.3125 C-15.675 39.539375 -14.85 39.76625 -14 40 C-13.34 40.33 -12.68 40.66 -12 41 C-10.35744209 41.12114921 -8.70947522 41.17540767 -7.0625 41.1875 C-6.18722656 41.20167969 -5.31195312 41.21585937 -4.41015625 41.23046875 C-1.73755665 41.16663349 -1.73755665 41.16663349 1 39 C1.58350505 36.54290625 1.58350505 36.54290625 1 34 C-1.85666158 31.2887156 -5.14027337 30.03482877 -8.73803711 28.60229492 C-16.53453288 25.49278198 -22.06135967 22.87728067 -26 15 C-26.38484113 10.9976523 -26.22498846 8.49888745 -24.5625 4.8125 C-17.97106157 -2.42200559 -8.85899566 -4.04982659 0 0 Z " fill="#FAAA99" transform="translate(1062,465)"/>
<path d="M0 0 C0 5.28 0 10.56 0 16 C4.95 16 9.9 16 15 16 C15 17.32 15 18.64 15 20 C10.05 20 5.1 20 0 20 C0.11987541 24.78736493 0.24251653 29.57448988 0.37231445 34.36157227 C0.41562749 35.99011004 0.45730518 37.61869216 0.49731445 39.24731445 C0.55510503 41.58818935 0.61877398 43.92884176 0.68359375 46.26953125 C0.70030624 46.99775589 0.71701874 47.72598053 0.73423767 48.47627258 C0.82467238 51.56166939 1.01723993 54.05171978 2 57 C7.44893869 58.19876651 10.22169095 57.91360308 15 55 C15.495 56.98 15.495 56.98 16 59 C9.94540657 62.58790722 5.06527082 64.18346245 -2 63 C-7.13308791 60.38679161 -10.1797908 57.46062759 -12 52 C-12.0845387 49.5589224 -12.11605786 47.14740787 -12.09765625 44.70703125 C-12.0962413 44.00100266 -12.09482635 43.29497406 -12.09336853 42.56755066 C-12.08777764 40.31582374 -12.07522688 38.06419679 -12.0625 35.8125 C-12.05748382 34.28450665 -12.05292112 32.75651173 -12.04882812 31.22851562 C-12.0378112 27.48563865 -12.02055287 23.74283627 -12 20 C-13.65 20 -15.3 20 -17 20 C-17 18.68 -17 17.36 -17 16 C-15.35 16 -13.7 16 -12 16 C-12 11.38 -12 6.76 -12 2 C-3.375 0 -3.375 0 0 0 Z " fill="#FBAC9A" transform="translate(849,448)"/>
<path d="M0 0 C5.24966989 2.57779489 5.24966989 2.57779489 6.8046875 4.1328125 C7.1435199 8.70833659 7.12983479 13.29636328 7.1796875 17.8828125 C7.21707031 19.171875 7.25445312 20.4609375 7.29296875 21.7890625 C7.30457031 23.03171875 7.31617188 24.274375 7.328125 25.5546875 C7.34794434 26.69518555 7.36776367 27.83568359 7.38818359 29.01074219 C6.6281397 33.07745402 4.92439077 34.51628718 1.8046875 37.1328125 C-1.50823705 39.37705171 -4.23702965 39.53671891 -8.1953125 39.1328125 C-11.24489285 38.11628572 -12.67936532 36.94958882 -14.39453125 34.234375 C-18.19834479 26.19965306 -18.72779546 16.84834845 -16.4296875 8.27734375 C-13.28737298 0.63353899 -8.60644548 -3.39969911 0 0 Z " fill="#9C2E80" transform="translate(228.1953125,467.8671875)"/>
<path d="M0 0 C1.796875 1.9140625 1.796875 1.9140625 3 4 C2.67272727 10.32727273 2.67272727 10.32727273 0 13 C-3.10347254 13.33015665 -5.15781176 13.50531294 -7.875 11.875 C-9.51151479 9.14747535 -9.32502803 7.12026907 -9 4 C-8.34 3.01 -7.68 2.02 -7 1 C-14.3008748 0.42163385 -14.3008748 0.42163385 -21.0625 2.6875 C-25.34211965 7.79543313 -25.39273417 12.92093427 -25.4375 19.3125 C-25.47037109 20.12912109 -25.50324219 20.94574219 -25.53710938 21.78710938 C-25.59149166 27.99163338 -24.02890132 32.23281429 -20 37 C-17.32344199 38.33827901 -15.17565948 38.20578556 -12.1875 38.25 C-11.14980469 38.27578125 -10.11210937 38.3015625 -9.04296875 38.328125 C-5.62418276 37.95947542 -3.84853911 36.84810063 -1 35 C1.3125 35.3125 1.3125 35.3125 3 36 C-0.09246746 40.767554 -3.53708038 42.81240878 -9 44 C-18.01094087 45.08981881 -24.10780866 42.89084034 -31.75 38.375 C-36.74438864 33.10314533 -39.29725234 27.26663393 -39.625 20 C-39.28099322 12.9569139 -37.160672 7.12822157 -32.09765625 2.1171875 C-22.42191187 -5.57140784 -10.71057489 -6.36738764 0 0 Z " fill="#F9AA99" transform="translate(497,467)"/>
<path d="M0 0 C4.17743255 1.60821347 5.39881266 3.71864594 7.21484375 7.6640625 C8.59167067 11.76029384 8.57790819 15.71504949 8.5 20 C8.51546875 20.85078125 8.5309375 21.7015625 8.546875 22.578125 C8.51164358 28.32084661 7.62155811 33.3752873 4 38 C0.28926251 40.29802017 -2.6563601 40.53342946 -7 40 C-11.19194175 36.83275513 -12.6917536 34.00143756 -14 29 C-14.29723383 26.03616426 -14.32492461 23.10193676 -14.3125 20.125 C-14.32861328 19.36058594 -14.34472656 18.59617187 -14.36132812 17.80859375 C-14.36654691 11.6608663 -13.4398147 5.78835965 -9.25 1 C-6.02859849 -0.431734 -3.48466433 -0.31113074 0 0 Z " fill="#9B2E80" transform="translate(701,467)"/>
<path d="M0 0 C3.15465696 1.82269069 4.62538465 3.16431961 6.1171875 6.4921875 C7.30293166 11.20368422 7.32937382 15.66058808 7.3125 20.5 C7.32861328 21.42425781 7.34472656 22.34851563 7.36132812 23.30078125 C7.36579377 29.54374903 6.64314577 34.06317137 2.3125 38.875 C-1.1315178 40.55046812 -4.31508675 40.8937563 -8 40 C-13.2336736 35.33520396 -14.7286013 30.3237529 -15.30078125 23.31640625 C-15.34946422 7.72162692 -15.34946422 7.72162692 -9.75 1.5 C-6.17038894 -0.45251513 -4.02548929 -0.5750699 0 0 Z " fill="#9C2E80" transform="translate(937,467)"/>
<path d="M0 0 C6.27 0 12.54 0 19 0 C19 13.86 19 27.72 19 42 C21.31 42 23.62 42 26 42 C26 43.32 26 44.64 26 46 C17.42 46 8.84 46 0 46 C0 45.01 0 44.02 0 43 C2.31 43 4.62 43 7 43 C7 30.13 7 17.26 7 4 C4.69 4 2.38 4 0 4 C0 2.68 0 1.36 0 0 Z " fill="#FBAC9A" transform="translate(875,464)"/>
<path d="M0 0 C2.68798057 0.56260058 3.8038922 1.24237758 5.7265625 3.1796875 C6.24992188 3.67855469 6.77328125 4.17742188 7.3125 4.69140625 C8.3515625 6.4921875 8.3515625 6.4921875 8.34375 8.8359375 C7.01139797 12.40286419 4.7716298 14.69387756 2.1015625 17.3046875 C1.62332031 17.80677734 1.14507813 18.30886719 0.65234375 18.82617188 C-1.58900471 21.05840916 -3.15090146 22.39972505 -6.296875 22.984375 C-8.98485557 22.42177442 -10.1007672 21.74199742 -12.0234375 19.8046875 C-12.54679688 19.30582031 -13.07015625 18.80695312 -13.609375 18.29296875 C-14.6484375 16.4921875 -14.6484375 16.4921875 -14.640625 14.1484375 C-13.30827297 10.58151081 -11.0685048 8.29049744 -8.3984375 5.6796875 C-7.92019531 5.17759766 -7.44195313 4.67550781 -6.94921875 4.15820312 C-4.70787029 1.92596584 -3.14597354 0.58464995 0 0 Z " fill="#9C2E80" transform="translate(609.6484375,776.5078125)"/>
<path d="M0 0 C3.26745439 1.42111886 5.07231839 3.2152449 7.28125 5.9921875 C7.7734375 8.265625 7.7734375 8.265625 7.28125 10.9921875 C5.44436023 13.3534844 3.7157755 15.30237957 1.59375 17.3671875 C1.06330078 17.92535156 0.53285156 18.48351562 -0.01367188 19.05859375 C-3.97370123 22.99432844 -3.97370123 22.99432844 -7.4375 22.984375 C-10.70495439 21.56325614 -12.50981839 19.7691301 -14.71875 16.9921875 C-15.2109375 14.71875 -15.2109375 14.71875 -14.71875 11.9921875 C-12.88186023 9.6308906 -11.1532755 7.68199543 -9.03125 5.6171875 C-8.23557617 4.77994141 -8.23557617 4.77994141 -7.42382812 3.92578125 C-3.46379877 -0.00995344 -3.46379877 -0.00995344 0 0 Z " fill="#9C2E80" transform="translate(594.71875,761.0078125)"/>
<path d="M0 0 C3.26745439 1.42111886 5.07231839 3.2152449 7.28125 5.9921875 C7.7734375 8.265625 7.7734375 8.265625 7.28125 10.9921875 C5.44436023 13.3534844 3.7157755 15.30237957 1.59375 17.3671875 C1.06330078 17.92535156 0.53285156 18.48351562 -0.01367188 19.05859375 C-3.97370123 22.99432844 -3.97370123 22.99432844 -7.4375 22.984375 C-10.70495439 21.56325614 -12.50981839 19.7691301 -14.71875 16.9921875 C-15.2109375 14.71875 -15.2109375 14.71875 -14.71875 11.9921875 C-12.88186023 9.6308906 -11.1532755 7.68199543 -9.03125 5.6171875 C-8.23557617 4.77994141 -8.23557617 4.77994141 -7.42382812 3.92578125 C-3.46379877 -0.00995344 -3.46379877 -0.00995344 0 0 Z " fill="#9C2F80" transform="translate(579.71875,746.0078125)"/>
<path d="M0 0 C2.68583917 0.56661391 3.80468652 1.2470842 5.7265625 3.18359375 C6.24992188 3.68246094 6.77328125 4.18132813 7.3125 4.6953125 C8.3515625 6.49609375 8.3515625 6.49609375 8.34375 8.8359375 C7.00862928 12.4155328 4.76937398 14.7381101 2.1015625 17.37109375 C1.38419922 18.13679687 1.38419922 18.13679687 0.65234375 18.91796875 C-0.7890625 20.36328125 -0.7890625 20.36328125 -3.6484375 22.49609375 C-7.37880573 22.49059173 -9.42944903 21.28416595 -12.0234375 18.68359375 C-12.54679688 18.18214844 -13.07015625 17.68070313 -13.609375 17.1640625 C-14.6484375 15.49609375 -14.6484375 15.49609375 -14.640625 13.65625 C-13.17212922 10.45909186 -10.85925135 8.19405739 -8.3984375 5.74609375 C-7.92019531 5.23949219 -7.44195313 4.73289062 -6.94921875 4.2109375 C-4.70895922 1.95853564 -3.16074887 0.59205768 0 0 Z " fill="#9B2D80" transform="translate(563.6484375,730.50390625)"/>
<path d="M0 0 C2.69990662 1.79993774 4.5418865 3.083773 6 6 C6 8.97 6 11.94 6 15 C-0.6 15 -7.2 15 -14 15 C-11.71428571 4.71428571 -11.71428571 4.71428571 -8 1 C-5.14675563 -0.42662219 -3.16545451 -0.31033868 0 0 Z " fill="#9D3081" transform="translate(428,467)"/>
<path d="M0 0 C3.5625 0.3125 3.5625 0.3125 5.5625 1.375 C7.19628851 4.54046524 6.41517564 6.96270286 5.5625 10.3125 C2.32996204 12.46752531 1.31099077 12.78106135 -2.4375 12.3125 C-4.25 11.25 -4.25 11.25 -5.4375 9.3125 C-5.75 5.75 -5.75 5.75 -5.4375 2.3125 C-3.4375 0.3125 -3.4375 0.3125 0 0 Z " fill="#FAAB99" transform="translate(887.4375,442.6875)"/>
</svg>
