<?xml version="1.0" encoding="UTF-8"?>
<svg version="1.1" xmlns="http://www.w3.org/2000/svg" width="1200" height="1200">
<path d="M0 0 C396 0 792 0 1200 0 C1200 396 1200 792 1200 1200 C804 1200 408 1200 0 1200 C0 804 0 408 0 0 Z " fill="#393E46" transform="translate(0,0)"/>
<path d="M0 0 C7.22528701 0.10629581 14.44559749 0.11783683 21.67144401 0.068332 C22.71211822 0.06128328 23.75279242 0.05423456 24.82500221 0.04697224 C26.94120341 0.03226018 29.05740321 0.01734626 31.17360158 0.00223304 C50.87378822 -0.12797055 70.56402338 0.02027444 90.26257463 0.2690499 C107.05113966 0.47453521 123.82506765 0.43880844 140.61336906 0.2267869 C160.25698411 -0.02119001 179.89194919 -0.11534704 199.53691204 0.02495103 C201.64394956 0.03959939 203.75098838 0.05406055 205.85802849 0.068332 C207.41180038 0.07897701 207.41180038 0.07897701 208.99696161 0.08983707 C216.18760599 0.12903819 223.37254043 0.06267643 230.56231315 -0.04572745 C305.93451123 -1.070905 305.93451123 -1.070905 331.33028635 22.79139188 C354.98546696 46.04057768 356.8400729 76.98438441 357.16635479 108.51049398 C357.20258945 115.41924203 357.12210389 122.32589812 357.02035514 129.23381593 C356.91681967 136.43718457 356.9076419 143.63556875 356.95919998 150.83944444 C356.97020614 152.39585962 356.97020614 152.39585962 356.98143465 153.98371753 C356.99671927 156.09371601 357.01219889 158.20371308 357.02787105 160.31370872 C357.16320807 179.95619191 357.01937163 199.58872728 356.77527008 219.2296605 C356.57389805 235.96638153 356.61660061 252.68800785 356.83724602 269.42429666 C357.0953505 289.00901404 357.19585932 308.58475336 357.05773093 328.17097746 C357.04333422 330.27213502 357.02913592 332.37329395 357.0151387 334.47445421 C357.00818274 335.50739732 357.00122678 336.54034042 356.99406003 337.60458484 C356.95614354 344.77236772 357.02641815 351.93408738 357.14005096 359.10089998 C358.21821476 434.21452471 358.21821476 434.21452471 333.73457323 460.24214508 C310.1603247 484.2280488 279.37490504 486.40523899 247.33968253 486.71749155 C240.43185672 486.7489164 233.52632218 486.66076298 226.61947798 486.55125207 C219.41657122 486.4398399 212.21888244 486.4257501 205.01533325 486.47425966 C203.9775699 486.48117289 202.93980654 486.48808612 201.87059582 486.49520884 C199.7602731 486.50966835 197.64995182 486.52434078 195.53963204 486.53922344 C175.89882749 486.66709339 156.26848004 486.51130406 136.62948062 486.25239033 C119.89262221 486.03832255 103.17067594 486.0678514 86.4339257 486.27585916 C66.84773794 486.5191625 47.27030374 486.60892105 27.68285717 486.46343373 C25.58201391 486.44821544 23.48116934 486.43317704 21.38032348 486.41832094 C19.83114024 486.40723345 19.83114024 486.40723345 18.25066036 486.39592196 C11.08208318 486.35460058 3.91915598 486.41843111 -3.24860184 486.52400713 C-78.38215789 487.51881585 -78.38215789 487.51881585 -103.78653541 463.66931918 C-127.50067827 440.38292794 -129.30116234 409.35827218 -129.61366187 377.77734898 C-129.64700249 370.84675928 -129.56360345 363.91830015 -129.45912072 356.98859343 C-129.35282548 349.76330642 -129.34128413 342.54299595 -129.39078896 335.31714945 C-129.39783768 334.27647524 -129.4048864 333.23580104 -129.41214871 332.16359125 C-129.42686078 330.04739005 -129.4417747 327.93119025 -129.45688792 325.81499188 C-129.58709151 306.11480524 -129.43884652 286.42457008 -129.19007106 266.72601883 C-128.98458575 249.9374538 -129.02031251 233.16352581 -129.23233406 216.3752244 C-129.48031097 196.73160934 -129.574468 177.09664427 -129.43416993 157.45168142 C-129.41952157 155.3446439 -129.40506041 153.23760508 -129.39078896 151.13056497 C-129.38014395 149.57679308 -129.38014395 149.57679308 -129.36928388 147.99163185 C-129.33008277 140.80098745 -129.3964451 133.61605305 -129.50484841 126.4262803 C-130.53003007 51.04977976 -130.53003007 51.04977976 -106.68300198 25.65619551 C-78.56194525 -2.96957324 -37.29482527 -0.56231017 0 0 Z " fill="#DFE1E1" transform="translate(485.2352637499571,231.77614279091358)"/>
<path d="M0 0 C93.72 0 187.44 0 284 0 C284 93.72 284 187.44 284 284 C190.28 284 96.56 284 0 284 C0 190.28 0 96.56 0 0 Z " fill="#393E46" transform="translate(457,333)"/>
<path d="M0 0 C32.54103152 -0.02239813 65.08205506 -0.04071931 97.62309207 -0.05106533 C101.53836022 -0.0523148 105.45362836 -0.05360924 109.36889648 -0.05493164 C110.53720771 -0.05532511 110.53720771 -0.05532511 111.72912119 -0.05572652 C122.53934659 -0.0594595 133.34956819 -0.06557977 144.15979113 -0.07373433 C162.8708498 -0.08784606 181.58190445 -0.09694752 200.29296875 -0.09765625 C201.02900131 -0.09769482 201.76503387 -0.09773339 202.52337044 -0.09777313 C261.3534023 -0.09983485 320.17374384 0.30631938 379 1 C380.01131735 48.53089626 380.78451244 96.06063669 381.2468745 143.60020594 C381.30189308 149.23658059 381.35884447 154.87293415 381.41699219 160.50927734 C381.42853385 161.63117868 381.44007551 162.75308002 381.45196691 163.90897837 C381.64245514 181.97915462 381.98878403 200.04305223 382.39472303 218.1095266 C382.80899946 236.70482932 383.0511564 255.29688996 383.13989377 273.89661622 C383.19441049 284.32321767 383.32437475 294.7367259 383.6521225 305.15862274 C385.85940522 377.36332483 385.85940522 377.36332483 364.6133009 400.08719455 C355.94912598 408.98736517 345.94071907 418.07895658 335 424 C334.01 424 333.02 424 332 424 C332 299.59 332 175.18 332 47 C222.44 47 112.88 47 0 47 C0 31.49 0 15.98 0 0 Z " fill="#F5F6F6" transform="translate(457,285)"/>
<path d="M0 0 C14.85 0 29.7 0 45 0 C45 119.13 45 238.26 45 361 C-48.54632353 362.81491071 -48.54632353 362.81491071 -87.88085938 363.19726562 C-96.88114109 363.28534393 -105.88138734 363.37625818 -114.8815918 363.47192383 C-116.0093184 363.48379252 -117.137045 363.49566122 -118.29894513 363.50788957 C-136.40749733 363.70259201 -154.50949132 364.05674076 -172.61417922 364.47187582 C-191.25353978 364.89564302 -209.88951666 365.14324294 -228.53349477 365.23398226 C-238.98442185 365.28972685 -249.42168224 365.42254971 -259.86769676 365.75785255 C-332.22007705 368.01556532 -332.22007705 368.01556532 -355.4319567 346.23757357 C-364.61120542 337.2784577 -373.53192116 327.0896647 -380 316 C-380 315.34 -380 314.68 -380 314 C-254.93 314 -129.86 314 -1 314 C-1.03962382 211.03625229 -1.03962382 211.03625229 -1.09008789 108.07250977 C-1.09460449 88.2088623 -1.09460449 88.2088623 -1.09544373 78.92515564 C-1.09637958 72.40769595 -1.10006172 65.89024475 -1.10557556 59.37278748 C-1.11191713 51.86592147 -1.11484155 44.35906367 -1.11344495 36.85219496 C-1.11283954 33.00776061 -1.1138346 29.16334461 -1.11921513 25.31891358 C-1.12492623 21.21357821 -1.12300883 17.10828333 -1.12025452 13.00294495 C-1.12316718 11.78833556 -1.12607985 10.57372618 -1.12908077 9.32231045 C-1.1270899 8.22967199 -1.12509903 7.13703354 -1.12304783 6.01128483 C-1.12342755 5.06084484 -1.12380727 4.11040486 -1.1241985 3.13116366 C-1 1 -1 1 0 0 Z " fill="#EFF0F0" transform="translate(743,351)"/>
<path d="M0 0 C0.33 0 0.66 0 1 0 C1 15.51 1 31.02 1 47 C110.56 47 220.12 47 333 47 C333 171.41 333 295.82 333 424 C333.66 424.33 334.32 424.66 335 425 C334.01 425.66 333.02 426.32 332 427 C332 307.87 332 188.74 332 66 C317.15 66.33 302.3 66.66 287 67 C286.67 154.45 286.34 241.9 286 332 C285.67 332 285.34 332 285 332 C285 238.28 285 144.56 285 48 C191.28 48 97.56 48 1 48 C1 141.72 1 235.44 1 332 C0.67 332 0.34 332 0 332 C0 222.44 0 112.88 0 0 Z " fill="#B6B7B9" transform="translate(456,285)"/>
<path d="M0 0 C21 0 21 0 29 4 C31.48386059 7.72579089 31.3804212 9.58711402 31 14 C29.5625 16.8125 29.5625 16.8125 28 19 C27.67 19.66 27.34 20.32 27 21 C27.639375 21.61875 28.27875 22.2375 28.9375 22.875 C31.9725507 26.00202193 31.9725507 26.00202193 32.0546875 28.98828125 C31.72972451 33.19160686 31.38644845 35.48105494 28.8125 38.9375 C19.86936045 45.49580234 11.56663669 43 0 43 C0 28.81 0 14.62 0 0 Z " fill="#F5F5F5" transform="translate(347,818)"/>
<path d="M0 0 C2.64 0 5.28 0 8 0 C8 14.52 8 29.04 8 44 C4.33333333 44 0.66666667 44 -3 44 C-3.33 44.33 -3.66 44.66 -4 45 C-8.63910515 45.47177341 -11.65245517 45.7464188 -15.375 42.75 C-20.41516554 37.46982658 -20.3740601 33.3441701 -20.25390625 26.20703125 C-19.86837806 21.33751359 -18.90666653 17.76543197 -15.20703125 14.33984375 C-12.56933669 12.73855307 -11.00040155 12.62744311 -7.9375 12.6875 C-6.65166016 12.69330078 -6.65166016 12.69330078 -5.33984375 12.69921875 C-3 13 -3 13 0 15 C0 10.05 0 5.1 0 0 Z " fill="#FBFBFC" transform="translate(503,816)"/>
<path d="M0 0 C6.23600963 4.0669628 6.23600963 4.0669628 7.875 7.875 C8.71031776 13.93286965 9.08180437 20.47058252 6.25 26.0625 C3.0936189 29.80031972 0.58783321 31.48536507 -4.30078125 32.1875 C-9.73713043 32.47987508 -12.88353316 31.510543 -17.125 27.875 C-21.45922123 22.94295515 -21.46370946 18.16270441 -21.41015625 11.828125 C-20.93109339 6.86687126 -18.69174272 4.25183451 -15.0625 1.0625 C-10.20094654 -1.9171618 -5.27875312 -1.90035112 0 0 Z " fill="#F8F8F8" transform="translate(727.125,829.125)"/>
<path d="M0 0 C4.61338987 2.18528994 6.73433174 4.49448307 9 9 C9.87030523 15.33957632 9.85992226 21.6759693 6 27 C1.07675067 31.44293232 -1.95185622 32.36182654 -8.45703125 32.27734375 C-12.23091373 31.86575288 -14.24007187 30.55798217 -17 28 C-20.85754896 21.5552968 -21.08061095 15.3345405 -20 8 C-15.51773002 -0.52590804 -8.92331996 -0.83984188 0 0 Z " fill="#F9FAFA" transform="translate(1043,829)"/>
<path d="M0 0 C4.93021397 2.24886953 7.43110786 5.25742989 10 10 C10 11.32 10 12.64 10 14 C7.03 14 4.06 14 1 14 C0.5359375 12.7934375 0.5359375 12.7934375 0.0625 11.5625 C-0.76335345 9.10919595 -0.76335345 9.10919595 -2 8 C-4.03008491 7.68481785 -4.03008491 7.68481785 -6.375 7.625 C-7.16648437 7.57601562 -7.95796875 7.52703125 -8.7734375 7.4765625 C-11.1789408 7.81586591 -11.1789408 7.81586591 -12.76171875 9.9921875 C-14.38418696 13.93319861 -14.47758999 17.27961728 -14.4375 21.5 C-14.45748047 22.24636719 -14.47746094 22.99273438 -14.49804688 23.76171875 C-14.49465728 27.59195948 -14.2020458 29.64470953 -12.26953125 33.04296875 C-10.19649962 35.20177632 -10.19649962 35.20177632 -7.640625 35.26953125 C-6.85171875 35.11871094 -6.0628125 34.96789062 -5.25 34.8125 C-4.45078125 34.67457031 -3.6515625 34.53664063 -2.828125 34.39453125 C-2.22484375 34.26433594 -1.6215625 34.13414062 -1 34 C-0.34 32.02 0.32 30.04 1 28 C3.97 28 6.94 28 10 28 C9.58649697 33.27216362 8.82965008 36.27385398 5 40 C-0.27436172 43.7306461 -5.7740682 43.77031179 -12 43 C-16.84596838 41.72283824 -19.38489804 38.97352525 -21.9375 34.75 C-25.26105115 27.33253817 -25.41901624 18.14770787 -23.265625 10.3359375 C-18.46579876 -0.16860025 -10.35370797 -0.89538766 0 0 Z " fill="#F8F8F8" transform="translate(683,818)"/>
<path d="M0 0 C3.51223473 2.34148982 5.00016463 4.04121364 6.8125 7.875 C7.12862439 11.28608415 6.99841372 14.43559625 6.8125 17.875 C0.5425 17.875 -5.7275 17.875 -12.1875 17.875 C-10.85186384 22.81963635 -10.85186384 22.81963635 -8.1875 23.875 C-6.07074356 23.81382556 -6.07074356 23.81382556 -3.75 23.5 C-2.96753906 23.40976562 -2.18507813 23.31953125 -1.37890625 23.2265625 C0.98196986 22.90848872 0.98196986 22.90848872 3.8125 21.875 C4.8025 23.525 5.7925 25.175 6.8125 26.875 C1.63807876 31.21032591 -1.95998013 32.29645279 -8.61328125 32.21875 C-12.76793527 31.66395553 -15.32847727 29.86109041 -18.1875 26.875 C-21.96574975 21.75608098 -22.10774534 16.00418123 -21.1875 9.875 C-19.46650671 5.38864997 -17.24708292 2.61210116 -13.3125 -0.125 C-8.43381508 -1.68617917 -4.83838873 -1.70766661 0 0 Z " fill="#F8F8F8" transform="translate(546.1875,829.125)"/>
<path d="M0 0 C2.64316965 2.17672795 3.82971532 3.54587474 5.125 6.75 C5.125 10.05 5.125 13.35 5.125 16.75 C-1.475 16.75 -8.075 16.75 -14.875 16.75 C-12.895 19.72 -12.895 19.72 -10.875 22.75 C-6.31462089 23.41332787 -2.99662557 22.74836391 1.125 20.75 C2.6875 22 2.6875 22 4.125 23.75 C4.1875 25.75 4.1875 25.75 3.125 27.75 C-1.80572892 31.2900105 -7.01782446 31.6166715 -12.875 30.75 C-18.00808791 28.13679161 -21.0547908 25.21062759 -22.875 19.75 C-23.36056326 14.23368293 -23.59321919 9.35881099 -21.3125 4.25 C-14.77048015 -2.45976394 -8.74997658 -3.80433764 0 0 Z " fill="#F9F9F9" transform="translate(304.875,830.25)"/>
<path d="M0 0 C9.24 0 18.48 0 28 0 C28 2.31 28 4.62 28 7 C21.73 7 15.46 7 9 7 C9 10.63 9 14.26 9 18 C14.61 18 20.22 18 26 18 C26 20.31 26 22.62 26 25 C20.39 25 14.78 25 9 25 C9 30.94 9 36.88 9 43 C6.03 43 3.06 43 0 43 C0 28.81 0 14.62 0 0 Z " fill="#F7F7F8" transform="translate(100,818)"/>
<path d="M0 0 C2.64 0 5.28 0 8 0 C8.02505615 0.69150146 8.0501123 1.38300293 8.07592773 2.09545898 C8.19152161 5.20967866 8.31441242 8.32356789 8.4375 11.4375 C8.47681641 12.52611328 8.51613281 13.61472656 8.55664062 14.73632812 C8.61948242 16.28803711 8.61948242 16.28803711 8.68359375 17.87109375 C8.72025146 18.82943115 8.75690918 19.78776855 8.79467773 20.77514648 C8.75834424 22.97138925 8.75834424 22.97138925 10 24 C13 24.16666667 13 24.16666667 16 24 C17.68300669 22.31699331 17.22809077 20.17991273 17.31640625 17.87109375 C17.35830078 16.83662109 17.40019531 15.80214844 17.44335938 14.73632812 C17.48267578 13.64771484 17.52199219 12.55910156 17.5625 11.4375 C17.60568359 10.34501953 17.64886719 9.25253906 17.69335938 8.12695312 C17.79982068 5.41810436 17.90183516 2.70916008 18 0 C20.97 0 23.94 0 27 0 C27 10.56 27 21.12 27 32 C24.36 32 21.72 32 19 32 C19 31.01 19 30.02 19 29 C18.34 29.495 17.68 29.99 17 30.5 C13.19708194 32.40145903 10.18001903 32.78533691 6 32 C3.1899654 30.20636089 1.49059532 28.98119065 0 26 C-0.08510205 24.0406396 -0.10717656 22.07837206 -0.09765625 20.1171875 C-0.09443359 18.95058594 -0.09121094 17.78398438 -0.08789062 16.58203125 C-0.07951172 15.35871094 -0.07113281 14.13539063 -0.0625 12.875 C-0.05798828 11.64394531 -0.05347656 10.41289063 -0.04882812 9.14453125 C-0.0370133 6.09630608 -0.02054028 3.04817686 0 0 Z " fill="#F7F7F7" transform="translate(211,829)"/>
<path d="M0 0 C3.78697267 1.72135121 5.51781955 3.13885766 7 7 C7.22705078 9.84082031 7.22705078 9.84082031 7.1953125 13.078125 C7.18886719 14.23828125 7.18242188 15.3984375 7.17578125 16.59375 C7.15902344 17.8003125 7.14226562 19.006875 7.125 20.25 C7.11597656 21.47203125 7.10695313 22.6940625 7.09765625 23.953125 C7.07409513 26.96894782 7.04119706 29.98437492 7 33 C4.03 33 1.06 33 -2 33 C-2.02505615 32.27820557 -2.0501123 31.55641113 -2.07592773 30.81274414 C-2.19151302 27.562465 -2.31440774 24.31250312 -2.4375 21.0625 C-2.47681641 19.92619141 -2.51613281 18.78988281 -2.55664062 17.61914062 C-2.59853516 16.53955078 -2.64042969 15.45996094 -2.68359375 14.34765625 C-2.72025146 13.34742432 -2.75690918 12.34719238 -2.79467773 11.31665039 C-2.74671841 9.03930812 -2.74671841 9.03930812 -4 8 C-6.45809998 7.7499227 -6.45809998 7.7499227 -9 8 C-11.52128356 10.52128356 -11.29353069 11.51239013 -11.4140625 15.0078125 C-11.47207031 16.48701172 -11.47207031 16.48701172 -11.53125 17.99609375 C-11.57765625 19.54490234 -11.57765625 19.54490234 -11.625 21.125 C-11.68300781 22.68541016 -11.68300781 22.68541016 -11.7421875 24.27734375 C-11.83664766 26.85138311 -11.92221214 29.42541155 -12 32 C-14.64 32 -17.28 32 -20 32 C-20 21.77 -20 11.54 -20 1 C-17.36 1 -14.72 1 -12 1 C-11.67 1.66 -11.34 2.32 -11 3 C-10.29875 2.505 -9.5975 2.01 -8.875 1.5 C-5.52269394 -0.24902925 -3.73275441 -0.4665943 0 0 Z " fill="#F6F6F7" transform="translate(1086,828)"/>
<path d="M0 0 C2.64 0 5.28 0 8 0 C8.33 0.66 8.66 1.32 9 2 C9.99 1.34 10.98 0.68 12 0 C14.3046875 -0.37109375 14.3046875 -0.37109375 16.875 -0.4375 C17.71804688 -0.47746094 18.56109375 -0.51742187 19.4296875 -0.55859375 C23.50048008 0.32609217 24.6749358 1.50620903 27 5 C27.61369835 9.45274794 27.46927514 13.8287311 27.3125 18.3125 C27.28994141 19.53001953 27.26738281 20.74753906 27.24414062 22.00195312 C27.1853053 25.00255482 27.1031414 28.00064797 27 31 C24.36 31 21.72 31 19 31 C18.505 19.12 18.505 19.12 18 7 C15.69 7 13.38 7 11 7 C9.28556781 8.71443219 9.76947033 11.00445241 9.68359375 13.34765625 C9.64169922 14.42724609 9.59980469 15.50683594 9.55664062 16.61914062 C9.51732422 17.75544922 9.47800781 18.89175781 9.4375 20.0625 C9.39431641 21.20267578 9.35113281 22.34285156 9.30664062 23.51757812 C9.20017161 26.34492195 9.09815793 29.17235738 9 32 C6.03 32 3.06 32 0 32 C0 21.44 0 10.88 0 0 Z " fill="#F7F7F7" transform="translate(749,829)"/>
<path d="M0 0 C2.97 0 5.94 0 9 0 C9.02505615 0.69150146 9.0501123 1.38300293 9.07592773 2.09545898 C9.19152161 5.20967866 9.31441242 8.32356789 9.4375 11.4375 C9.47681641 12.52611328 9.51613281 13.61472656 9.55664062 14.73632812 C9.61948242 16.28803711 9.61948242 16.28803711 9.68359375 17.87109375 C9.72025146 18.82943115 9.75690918 19.78776855 9.79467773 20.77514648 C9.75834424 22.97138925 9.75834424 22.97138925 11 24 C14.465 23.505 14.465 23.505 18 23 C18.33 15.41 18.66 7.82 19 0 C21.64 0 24.28 0 27 0 C27 10.23 27 20.46 27 31 C24.69 31 22.38 31 20 31 C20 30.34 20 29.68 20 29 C19.360625 29.495 18.72125 29.99 18.0625 30.5 C13.96854009 32.50520485 10.48190771 32.88501438 6 32 C2.71824682 29.47031526 1.30756223 27.92268669 0 24 C-0.08239169 22.15389468 -0.10743359 20.30494836 -0.09765625 18.45703125 C-0.09443359 17.38388672 -0.09121094 16.31074219 -0.08789062 15.20507812 C-0.07951172 14.08552734 -0.07113281 12.96597656 -0.0625 11.8125 C-0.05798828 10.68134766 -0.05347656 9.55019531 -0.04882812 8.38476562 C-0.03703498 5.58979073 -0.0205765 2.7949218 0 0 Z " fill="#F8F8F8" transform="translate(393,829)"/>
<path d="M0 0 C2.64 0 5.28 0 8 0 C8.02505615 0.65597168 8.0501123 1.31194336 8.07592773 1.98779297 C8.1917326 4.95040183 8.31452886 7.91268031 8.4375 10.875 C8.47681641 11.90753906 8.51613281 12.94007813 8.55664062 14.00390625 C8.61948242 15.48310547 8.61948242 15.48310547 8.68359375 16.9921875 C8.72025146 17.90339355 8.75690918 18.81459961 8.79467773 19.75341797 C8.86577065 22.03483481 8.86577065 22.03483481 10 24 C14.14093698 24.20970559 14.14093698 24.20970559 18 23 C18.33 15.41 18.66 7.82 19 0 C21.64 0 24.28 0 27 0 C27 10.23 27 20.46 27 31 C23.33333333 31 19.66666667 31 16 31 C15.67 31.33 15.34 31.66 15 32 C11.94585527 32.44171515 9.05045134 32.47209366 6 32 C2.71824682 29.47031526 1.30756223 27.92268669 0 24 C-0.08239169 22.15389468 -0.10743359 20.30494836 -0.09765625 18.45703125 C-0.09443359 17.38388672 -0.09121094 16.31074219 -0.08789062 15.20507812 C-0.07951172 14.08552734 -0.07113281 12.96597656 -0.0625 11.8125 C-0.05798828 10.68134766 -0.05347656 9.55019531 -0.04882812 8.38476562 C-0.03703498 5.58979073 -0.0205765 2.7949218 0 0 Z " fill="#FCFDFD" transform="translate(889,829)"/>
<path d="M0 0 C2.64 0 5.28 0 8 0 C8.02505615 0.65597168 8.0501123 1.31194336 8.07592773 1.98779297 C8.1917326 4.95040183 8.31452886 7.91268031 8.4375 10.875 C8.47681641 11.90753906 8.51613281 12.94007813 8.55664062 14.00390625 C8.61948242 15.48310547 8.61948242 15.48310547 8.68359375 16.9921875 C8.72025146 17.90339355 8.75690918 18.81459961 8.79467773 19.75341797 C8.86577065 22.03483481 8.86577065 22.03483481 10 24 C14.14093698 24.20970559 14.14093698 24.20970559 18 23 C18.33 15.41 18.66 7.82 19 0 C21.64 0 24.28 0 27 0 C27 10.23 27 20.46 27 31 C23.33333333 31 19.66666667 31 16 31 C15.67 31.33 15.34 31.66 15 32 C11.94585527 32.44171515 9.05045134 32.47209366 6 32 C2.71824682 29.47031526 1.30756223 27.92268669 0 24 C-0.08239169 22.15389468 -0.10743359 20.30494836 -0.09765625 18.45703125 C-0.09443359 17.38388672 -0.09121094 16.31074219 -0.08789062 15.20507812 C-0.07951172 14.08552734 -0.07113281 12.96597656 -0.0625 11.8125 C-0.05798828 10.68134766 -0.05347656 9.55019531 -0.04882812 8.38476562 C-0.03703498 5.58979073 -0.0205765 2.7949218 0 0 Z " fill="#FCFCFC" transform="translate(140,829)"/>
<path d="M0 0 C4.46254971 1.48751657 7.7828397 2.69610059 10 7 C10 8.32 10 9.64 10 11 C7.36 11 4.72 11 2 11 C1.67 9.68 1.34 8.36 1 7 C-0.98 7 -2.96 7 -5 7 C-5.66 8.65 -6.32 10.3 -7 12 C-6.19175781 12.17015625 -5.38351562 12.3403125 -4.55078125 12.515625 C7.0907946 15.15569286 7.0907946 15.15569286 10 19 C10.5179685 22.26320156 10.77340121 23.93075427 10 27 C7.46546343 30.21954645 5.88702695 31.70432435 2 33 C-3.02513073 33.52759548 -6.88050512 33.56992466 -11.4375 31.25 C-13.70957951 29.25500336 -15.48529828 27.60865297 -17 25 C-17 24.01 -17 23.02 -17 22 C-14.03 22 -11.06 22 -8 22 C-7.34 23.32 -6.68 24.64 -6 26 C-4.02 26 -2.04 26 0 26 C0.33 24.68 0.66 23.36 1 22 C0.18015625 21.75765625 -0.6396875 21.5153125 -1.484375 21.265625 C-3.10085938 20.76289062 -3.10085938 20.76289062 -4.75 20.25 C-6.35101562 19.76273438 -6.35101562 19.76273438 -7.984375 19.265625 C-11.19824624 17.91679821 -12.86068975 16.73243655 -15 14 C-15.79952969 8.96296296 -15.79952969 8.96296296 -15 6 C-10.82646632 0.80853127 -6.42275884 -0.42116451 0 0 Z " fill="#F4F5F5" transform="translate(612,828)"/>
<path d="M0 0 C3.47405263 1.69996316 4.82700343 2.74050515 7 6 C7 7.32 7 8.64 7 10 C4.36 10 1.72 10 -1 10 C-1.33 8.68 -1.66 7.36 -2 6 C-3.98 6 -5.96 6 -8 6 C-8.66 7.65 -9.32 9.3 -10 11 C-9.19175781 11.17015625 -8.38351562 11.3403125 -7.55078125 11.515625 C4.0907946 14.15569286 4.0907946 14.15569286 7 18 C7.5179685 21.26320156 7.77340121 22.93075427 7 26 C4.46546343 29.21954645 2.88702695 30.70432435 -1 32 C-6.08217995 32.53358516 -9.90501673 32.56704491 -14.5 30.1875 C-17 28 -17 28 -19 25 C-19 23.68 -19 22.36 -19 21 C-16.36 21 -13.72 21 -11 21 C-10.34 22.32 -9.68 23.64 -9 25 C-7.02 25 -5.04 25 -3 25 C-2.67 23.68 -2.34 22.36 -2 21 C-2.81984375 20.75765625 -3.6396875 20.5153125 -4.484375 20.265625 C-6.10085938 19.76289062 -6.10085938 19.76289062 -7.75 19.25 C-9.35101562 18.76273438 -9.35101562 18.76273438 -10.984375 18.265625 C-14.19824624 16.91679821 -15.86068975 15.73243655 -18 13 C-18.51845929 9.73370649 -18.76658634 8.07242936 -18 5 C-13.4041513 -1.12779826 -7.26301626 -1.17303089 0 0 Z " fill="#F6F7F7" transform="translate(809,829)"/>
<path d="M0 0 C3.06139354 1.29233311 3.84970683 2.26854652 6 5 C6.875 8.8125 6.875 8.8125 7 12 C4.36 12 1.72 12 -1 12 C-1.33 10.68 -1.66 9.36 -2 8 C-5.97754128 7.26665571 -5.97754128 7.26665571 -10 7 C-10.89109922 10.07251011 -11.16339724 12.86647393 -11.1875 16.0625 C-11.20876953 17.34833984 -11.20876953 17.34833984 -11.23046875 18.66015625 C-11.15846085 21.27198309 -11.15846085 21.27198309 -9 24 C-5.91634129 24.2502157 -5.91634129 24.2502157 -3 24 C-2.34 22.68 -1.68 21.36 -1 20 C1.64 20 4.28 20 7 20 C6.63166144 26.38453501 6.63166144 26.38453501 3.5625 29.375 C-1.33845725 32.48292411 -5.26892321 32.47079936 -11 32 C-14.71898763 30.70643909 -16.33669146 28.85095643 -18.3125 25.5625 C-20.73457285 20.2141677 -20.80904693 14.75232369 -20 9 C-15.56499511 -0.02840282 -9.48100745 -1.32911319 0 0 Z " fill="#F7F7F7" transform="translate(950,829)"/>
<path d="M0 0 C2.97 0 5.94 0 9 0 C9 2.64 9 5.28 9 8 C10.65 8 12.3 8 14 8 C14 9.98 14 11.96 14 14 C12.35 14 10.7 14 9 14 C9.33 19.94 9.66 25.88 10 32 C11.32 32.33 12.64 32.66 14 33 C14.04254356 34.99954746 14.04080783 37.00041636 14 39 C13 40 13 40 9.1875 40.3125 C6.00845399 40.27831671 5.21330856 40.15861406 2.5625 38.1875 C0.25477882 34.95669035 -0.12356616 32.41135801 -0.09765625 28.55078125 C-0.09282227 27.27944336 -0.09282227 27.27944336 -0.08789062 25.98242188 C-0.07951172 25.10134766 -0.07113281 24.22027344 -0.0625 23.3125 C-0.05798828 22.41982422 -0.05347656 21.52714844 -0.04882812 20.60742188 C-0.03704983 18.40488013 -0.02060164 16.20247401 0 14 C-1.32 14 -2.64 14 -4 14 C-4 12.02 -4 10.04 -4 8 C-2.68 8 -1.36 8 0 8 C0 5.36 0 2.72 0 0 Z " fill="#F6F6F7" transform="translate(972,821)"/>
<path d="M0 0 C2.64 0 5.28 0 8 0 C8 2.64 8 5.28 8 8 C9.98 8 11.96 8 14 8 C14 9.98 14 11.96 14 14 C12.02 14 10.04 14 8 14 C8.33 19.94 8.66 25.88 9 32 C10.65 32.33 12.3 32.66 14 33 C14.04254356 34.99954746 14.04080783 37.00041636 14 39 C13 40 13 40 9.1875 40.25 C6.3432248 40.21431913 5.12167703 40.0655184 2.5625 38.6875 C-0.10062055 35.81132981 -0.12144069 33.0661876 -0.09765625 29.33203125 C-0.09443359 28.43935547 -0.09121094 27.54667969 -0.08789062 26.62695312 C-0.07951172 25.69818359 -0.07113281 24.76941406 -0.0625 23.8125 C-0.05798828 22.87212891 -0.05347656 21.93175781 -0.04882812 20.96289062 C-0.03704626 18.64186288 -0.02059558 16.32096356 0 14 C-1.65 14 -3.3 14 -5 14 C-5 12.02 -5 10.04 -5 8 C-3.35 8 -1.7 8 0 8 C0 5.36 0 2.72 0 0 Z " fill="#FBFBFB" transform="translate(832,821)"/>
<path d="M0 0 C2.64 0 5.28 0 8 0 C8 2.64 8 5.28 8 8 C9.65 8 11.3 8 13 8 C13 9.98 13 11.96 13 14 C11.35 14 9.7 14 8 14 C8.33 19.94 8.66 25.88 9 32 C10.65 32.33 12.3 32.66 14 33 C14.04254356 34.99954746 14.04080783 37.00041636 14 39 C12.17206911 40.82793089 9.64719905 40.34619549 7.203125 40.5234375 C3.48972079 39.6411748 2.20715443 38.08695602 0 35 C-0.60332595 31.37409288 -0.47239037 27.85021932 -0.3125 24.1875 C-0.27866211 22.71893555 -0.27866211 22.71893555 -0.24414062 21.22070312 C-0.18539727 18.81222545 -0.10332129 16.40690922 0 14 C-1.65 14 -3.3 14 -5 14 C-5 12.02 -5 10.04 -5 8 C-3.35 8 -1.7 8 0 8 C0 5.36 0 2.72 0 0 Z " fill="#FCFCFC" transform="translate(184,821)"/>
<path d="M0 0 C2.97 0 5.94 0 9 0 C9 14.85 9 29.7 9 45 C6.03 45 3.06 45 0 45 C0 30.15 0 15.3 0 0 Z " fill="#F0F1F1" transform="translate(460,816)"/>
<path d="M0 0 C0 2.97 0 5.94 0 9 C-2.97 9.66 -5.94 10.32 -9 11 C-9.33 17.93 -9.66 24.86 -10 32 C-12.64 32 -15.28 32 -18 32 C-18 21.77 -18 11.54 -18 1 C-15.36 1 -12.72 1 -10 1 C-9.67 1.66 -9.34 2.32 -9 3 C-8.443125 2.505 -7.88625 2.01 -7.3125 1.5 C-4.61837017 -0.24754367 -3.14624993 -0.26218749 0 0 Z " fill="#FAFAFA" transform="translate(877,828)"/>
<path d="M0 0 C1.11375 0.3403125 1.11375 0.3403125 2.25 0.6875 C2.25 3.3275 2.25 5.9675 2.25 8.6875 C0.19921875 8.91536458 -1.8515625 9.14322917 -3.90234375 9.37109375 C-5.76140229 9.50636614 -5.76140229 9.50636614 -6.75 10.6875 C-6.90686249 12.24698542 -7.00076639 13.81292668 -7.06640625 15.37890625 C-7.10830078 16.32314453 -7.15019531 17.26738281 -7.19335938 18.24023438 C-7.23267578 19.23345703 -7.27199219 20.22667969 -7.3125 21.25 C-7.35568359 22.24708984 -7.39886719 23.24417969 -7.44335938 24.27148438 C-7.54980298 26.7433415 -7.65181928 29.2153031 -7.75 31.6875 C-10.39 31.6875 -13.03 31.6875 -15.75 31.6875 C-15.75 21.4575 -15.75 11.2275 -15.75 0.6875 C-13.11 0.6875 -10.47 0.6875 -7.75 0.6875 C-7.42 1.3475 -7.09 2.0075 -6.75 2.6875 C-6.193125 2.171875 -5.63625 1.65625 -5.0625 1.125 C-2.75 -0.3125 -2.75 -0.3125 0 0 Z " fill="#FAFAFA" transform="translate(582.75,828.3125)"/>
<path d="M0 0 C2.64 0 5.28 0 8 0 C8 0.66 8 1.32 8 2 C8.99 1.34 9.98 0.68 11 0 C14.1875 -0.125 14.1875 -0.125 17 0 C17 2.64 17 5.28 17 8 C15.2984375 8.2165625 15.2984375 8.2165625 13.5625 8.4375 C10.19222799 8.61171478 10.19222799 8.61171478 9 10 C8.84313751 11.55948542 8.74923361 13.12542668 8.68359375 14.69140625 C8.64169922 15.63564453 8.59980469 16.57988281 8.55664062 17.55273438 C8.51732422 18.54595703 8.47800781 19.53917969 8.4375 20.5625 C8.39431641 21.55958984 8.35113281 22.55667969 8.30664062 23.58398438 C8.20019702 26.0558415 8.09818072 28.5278031 8 31 C5.36 31 2.72 31 0 31 C0 20.77 0 10.54 0 0 Z " fill="#FCFCFC" transform="translate(253,829)"/>
<path d="M0 0 C2.64 0 5.28 0 8 0 C8 10.23 8 20.46 8 31 C5.36 31 2.72 31 0 31 C0 20.77 0 10.54 0 0 Z " fill="#FFFFFF" transform="translate(1000,829)"/>
<path d="M0 0 C2.64 0 5.28 0 8 0 C8 10.23 8 20.46 8 31 C5.36 31 2.72 31 0 31 C0 20.77 0 10.54 0 0 Z " fill="#FFFFFF" transform="translate(436,829)"/>
<path d="M0 0 C2.42644949 2.09855091 3.76952914 3.7298495 4.3515625 6.9375 C4.5392615 11.44227605 3.78331715 14.32602136 1 18 C0 19 0 19 -2.875 19.3125 C-6 19 -6 19 -7.66796875 17.32421875 C-10.06171991 13.14743887 -9.63702272 8.66442191 -9 4 C-6.64308529 0.2463951 -4.39488111 -0.98884825 0 0 Z " fill="#41464E" transform="translate(1040,835)"/>
<path d="M0 0 C2.83025663 0.58056546 3.73392017 1.20016723 5.4375 3.5 C7.03907386 8.30472158 7.37415484 13.36650841 5.3125 18.0625 C3.4375 19.5 3.4375 19.5 0.4375 19.9375 C-2.5625 19.5 -2.5625 19.5 -4.375 18.1875 C-7.05511472 14.37891592 -7.19098776 9.9867043 -6.5625 5.5 C-4.69198329 2.17463697 -3.78977137 0.73946758 0 0 Z " fill="#40454D" transform="translate(720.5625,834.5)"/>
<path d="M0 0 C2.93134348 0.60130123 3.68130768 1.09836947 5.4375 3.5 C5.8359375 6.53125 5.8359375 6.53125 5.8125 10 C5.82023437 11.1446875 5.82796875 12.289375 5.8359375 13.46875 C5.4375 16.5 5.4375 16.5 4.11328125 18.39453125 C1.59704029 20.05442913 -0.6309071 19.69543953 -3.5625 19.5 C-6.57746811 14.47505315 -7.19783325 11.21799925 -6.5625 5.5 C-4.69198329 2.17463697 -3.78977137 0.73946758 0 0 Z " fill="#444951" transform="translate(497.5625,834.5)"/>
<path d="M0 0 C10.46238351 -0.36926059 10.46238351 -0.36926059 12.87109375 1.28515625 C14 3 14 3 13.75 6.625 C13 10 13 10 12 11 C9.98035801 11.07244053 7.95832876 11.08377188 5.9375 11.0625 C4.83277344 11.05347656 3.72804688 11.04445313 2.58984375 11.03515625 C1.30787109 11.01775391 1.30787109 11.01775391 0 11 C0 7.37 0 3.74 0 0 Z " fill="#3F444B" transform="translate(356,842)"/>
<path d="M0 0 C2.1346875 -0.0309375 2.1346875 -0.0309375 4.3125 -0.0625 C5.51326172 -0.07990234 5.51326172 -0.07990234 6.73828125 -0.09765625 C9 0 9 0 12 1 C12.33 3.31 12.66 5.62 13 8 C11.0373772 10.04795423 9.5722693 10.94976638 6.73046875 11.19921875 C4.48602163 11.18861506 2.24229107 11.09892461 0 11 C0 7.37 0 3.74 0 0 Z " fill="#454951" transform="translate(356,825)"/>
<path d="M0 0 C3.0625 0.1875 3.0625 0.1875 5.0625 2.1875 C4.50694444 6.74305556 4.50694444 6.74305556 3.0625 8.1875 C0.125 8.375 0.125 8.375 -2.9375 8.1875 C-3.5975 7.5275 -4.2575 6.8675 -4.9375 6.1875 C-4.21574268 0.26908996 -4.21574268 0.26908996 0 0 Z " fill="#F0F0F1" transform="translate(1003.9375,816.8125)"/>
<path d="M0 0 C3.0625 0.1875 3.0625 0.1875 5.0625 2.1875 C4.50694444 6.74305556 4.50694444 6.74305556 3.0625 8.1875 C0.125 8.375 0.125 8.375 -2.9375 8.1875 C-3.5975 7.5275 -4.2575 6.8675 -4.9375 6.1875 C-4.21574268 0.26908996 -4.21574268 0.26908996 0 0 Z " fill="#F0F0F1" transform="translate(439.9375,816.8125)"/>
<path d="M0 0 C2.5625 0.3125 2.5625 0.3125 4.375 1.5625 C5.5625 3.3125 5.5625 3.3125 5.5625 7.3125 C1.9325 7.3125 -1.6975 7.3125 -5.4375 7.3125 C-4.07960526 0.52302632 -4.07960526 0.52302632 0 0 Z " fill="#4D5259" transform="translate(296.4375,834.6875)"/>
<path d="M0 0 C2.5625 0.3125 2.5625 0.3125 4.375 1.5625 C5.5625 3.3125 5.5625 3.3125 5.5625 7.3125 C1.9325 7.3125 -1.6975 7.3125 -5.4375 7.3125 C-4.07960526 0.52302632 -4.07960526 0.52302632 0 0 Z " fill="#4C5057" transform="translate(539.4375,834.6875)"/>
</svg>
