<?xml version="1.0" encoding="UTF-8"?>
<svg version="1.1" xmlns="http://www.w3.org/2000/svg" width="1200" height="1200">
<path d="M0 0 C396 0 792 0 1200 0 C1200 396 1200 792 1200 1200 C804 1200 408 1200 0 1200 C0 804 0 408 0 0 Z " fill="#FBD905" transform="translate(0,0)"/>
<path d="M0 0 C12.62735205 4.64206694 24.94685453 10.02365819 37.3125 15.3125 C39.70891597 16.33544673 42.10540177 17.35822986 44.50195312 18.38085938 C63.65994564 26.5581466 82.80364761 34.76886954 101.94726562 42.97973633 C118.72630006 50.17525582 135.51575659 57.34593964 152.3125 64.5 C153.42858643 64.97550293 154.54467285 65.45100586 155.69458008 65.94091797 C158.89642878 67.30487552 162.09853675 68.66822199 165.30078125 70.03125 C166.29900909 70.45631836 167.29723694 70.88138672 168.32571411 71.31933594 C173.11831014 73.35791575 177.9147852 75.3863724 182.72021484 77.39453125 C184.05574654 77.95327942 184.05574654 77.95327942 185.41825867 78.52331543 C187.0826954 79.2186802 188.74802286 79.91191812 190.41438293 80.60266113 C195.88986208 82.88986208 195.88986208 82.88986208 197 84 C197.09656057 85.41264241 197.12371857 86.83009509 197.12304783 88.24603367 C197.12503888 89.16764115 197.12702993 90.08924863 197.12908131 91.03878361 C197.12616847 92.06308112 197.12325563 93.08737863 197.12025452 94.14271545 C197.12153615 95.76108383 197.12153615 95.76108383 197.12284368 97.41214651 C197.12450168 101.05741426 197.11897191 104.70263682 197.11352539 108.34790039 C197.11324356 110.94900003 197.11340117 113.55009975 197.1139679 116.15119934 C197.11449332 121.76662229 197.11134465 127.38203366 197.10573006 132.99745369 C197.09761748 141.11649808 197.09500009 149.23553686 197.09374207 157.35458487 C197.09155116 170.52586249 197.08489005 183.69713394 197.07543945 196.8684082 C197.06626632 209.66625945 197.05918501 222.46410902 197.05493164 235.26196289 C197.05453756 236.44441905 197.05453756 236.44441905 197.05413551 237.65076322 C197.05283051 241.60528739 197.05156679 245.55981157 197.05032361 249.51433575 C197.0399498 282.34289598 197.02151086 315.17144472 197 348 C166.97 348 136.94 348 106 348 C105.34 355.59 104.68 363.18 104 371 C103.67 372.32 103.34 373.64 103 375 C93.59337993 374.3972149 84.32655869 373.32867987 75 372 C74.91363281 372.57363281 74.82726562 373.14726563 74.73828125 373.73828125 C73.1527789 383.32402479 70.54290641 392.63395158 68 402 C61.63688241 401.13230215 55.343977 400.0573295 49 399 C44.05 409.89 39.1 420.78 34 432 C23.87640833 428.62546944 23.87640833 428.62546944 20.15356445 427.00488281 C19.30529083 426.63795822 18.45701721 426.27103363 17.58303833 425.89299011 C16.68551849 425.50033463 15.78799866 425.10767914 14.86328125 424.703125 C13.40606155 424.07142143 13.40606155 424.07142143 11.91940308 423.42695618 C9.81801426 422.51570818 7.71732878 421.60283688 5.61727905 420.68850708 C-0.11345725 418.19402723 -5.84998555 415.71292619 -11.5859375 413.23046875 C-12.77707657 412.7146373 -13.96821564 412.19880585 -15.19544983 411.66734314 C-27.71366335 406.2501369 -40.26038743 400.90058853 -52.8125 395.5625 C-55.05151397 394.60994535 -57.29052764 393.65739001 -59.52954102 392.70483398 C-64.04862363 390.78255913 -68.56794855 388.86085512 -73.08740234 386.93945312 C-91.47872782 379.11992636 -109.8639877 371.28613037 -128.24853516 363.45068359 C-132.62326327 361.58630215 -136.99876394 359.72374503 -141.37463379 357.86204529 C-144.68809228 356.45165557 -148.00024302 355.03820907 -151.3125 353.625 C-152.99303467 352.91114136 -152.99303467 352.91114136 -154.70751953 352.18286133 C-156.17680908 351.55480591 -156.17680908 351.55480591 -157.67578125 350.9140625 C-158.49989502 350.5629541 -159.32400879 350.2118457 -160.1730957 349.85009766 C-162 349 -162 349 -163 348 C-163.09656057 346.58735759 -163.12371857 345.16990491 -163.12304783 343.75396633 C-163.12503888 342.83235885 -163.12702993 341.91075137 -163.12908131 340.96121639 C-163.12616847 339.93691888 -163.12325563 338.91262137 -163.12025452 337.85728455 C-163.12110894 336.7783723 -163.12196337 335.69946005 -163.12284368 334.58785349 C-163.12450168 330.94258574 -163.11897191 327.29736318 -163.11352539 323.65209961 C-163.11324356 321.05099997 -163.11340117 318.44990025 -163.1139679 315.84880066 C-163.11449332 310.23337771 -163.11134465 304.61796634 -163.10573006 299.00254631 C-163.09761748 290.88350192 -163.09500009 282.76446314 -163.09374207 274.64541513 C-163.09155116 261.47413751 -163.08489005 248.30286606 -163.07543945 235.1315918 C-163.06626632 222.33374055 -163.05918501 209.53589098 -163.05493164 196.73803711 C-163.05466892 195.949733 -163.05440619 195.16142889 -163.05413551 194.34923678 C-163.05283051 190.39471261 -163.05156679 186.44018843 -163.05032361 182.48566425 C-163.0399498 149.65710402 -163.02151086 116.82855528 -163 84 C-132.97 84 -102.94 84 -72 84 C-71.67 79.38 -71.34 74.76 -71 70 C-70.44640982 65.64401305 -69.72173803 61.33042818 -69 57 C-65.08288672 57.30705806 -61.16640839 57.62158834 -57.25 57.9375 C-56.13882813 58.02451172 -55.02765625 58.11152344 -53.8828125 58.20117188 C-52.81289063 58.28818359 -51.74296875 58.37519531 -50.640625 58.46484375 C-49.16384277 58.58267212 -49.16384277 58.58267212 -47.65722656 58.70288086 C-45.3466506 58.96123909 -43.23262117 59.3677328 -41 60 C-40.82984375 59.00742187 -40.6596875 58.01484375 -40.484375 56.9921875 C-38.85942744 47.7913632 -36.75191065 38.94021734 -34 30 C-27.42465139 30.62031591 -21.33307408 32.14897283 -15 34 C-14.72744385 33.14317627 -14.4548877 32.28635254 -14.17407227 31.40356445 C-13.0086297 28.02501696 -11.66594603 24.80824964 -10.21484375 21.54296875 C-9.68439453 20.34865234 -9.15394531 19.15433594 -8.60742188 17.92382812 C-8.33341553 17.31095947 -8.05940918 16.69809082 -7.77709961 16.06665039 C-6.93280604 14.17699422 -6.09405766 12.28494467 -5.25585938 10.39257812 C-1.12939549 1.12939549 -1.12939549 1.12939549 0 0 Z " fill="#FAD805" transform="translate(319,348)"/>
<path d="M0 0 C12.62735205 4.64206694 24.94685453 10.02365819 37.3125 15.3125 C39.70891597 16.33544673 42.10540177 17.35822986 44.50195312 18.38085938 C63.65994564 26.5581466 82.80364761 34.76886954 101.94726562 42.97973633 C118.72630006 50.17525582 135.51575659 57.34593964 152.3125 64.5 C153.42858643 64.97550293 154.54467285 65.45100586 155.69458008 65.94091797 C158.89642878 67.30487552 162.09853675 68.66822199 165.30078125 70.03125 C166.29900909 70.45631836 167.29723694 70.88138672 168.32571411 71.31933594 C173.11831014 73.35791575 177.9147852 75.3863724 182.72021484 77.39453125 C184.05574654 77.95327942 184.05574654 77.95327942 185.41825867 78.52331543 C187.0826954 79.2186802 188.74802286 79.91191812 190.41438293 80.60266113 C195.88986208 82.88986208 195.88986208 82.88986208 197 84 C197.09656057 85.41264241 197.12371857 86.83009509 197.12304783 88.24603367 C197.12503888 89.16764115 197.12702993 90.08924863 197.12908131 91.03878361 C197.12616847 92.06308112 197.12325563 93.08737863 197.12025452 94.14271545 C197.12153615 95.76108383 197.12153615 95.76108383 197.12284368 97.41214651 C197.12450168 101.05741426 197.11897191 104.70263682 197.11352539 108.34790039 C197.11324356 110.94900003 197.11340117 113.55009975 197.1139679 116.15119934 C197.11449332 121.76662229 197.11134465 127.38203366 197.10573006 132.99745369 C197.09761748 141.11649808 197.09500009 149.23553686 197.09374207 157.35458487 C197.09155116 170.52586249 197.08489005 183.69713394 197.07543945 196.8684082 C197.06626632 209.66625945 197.05918501 222.46410902 197.05493164 235.26196289 C197.05453756 236.44441905 197.05453756 236.44441905 197.05413551 237.65076322 C197.05283051 241.60528739 197.05156679 245.55981157 197.05032361 249.51433575 C197.0399498 282.34289598 197.02151086 315.17144472 197 348 C166.97 348 136.94 348 106 348 C105.34 355.59 104.68 363.18 104 371 C103.67 372.32 103.34 373.64 103 375 C93.59337993 374.3972149 84.32655869 373.32867987 75 372 C74.91363281 372.57363281 74.82726562 373.14726563 74.73828125 373.73828125 C73.1527789 383.32402479 70.54290641 392.63395158 68 402 C61.63688241 401.13230215 55.343977 400.0573295 49 399 C44.05 409.89 39.1 420.78 34 432 C23.87640833 428.62546944 23.87640833 428.62546944 20.15356445 427.00488281 C19.30529083 426.63795822 18.45701721 426.27103363 17.58303833 425.89299011 C16.68551849 425.50033463 15.78799866 425.10767914 14.86328125 424.703125 C13.40606155 424.07142143 13.40606155 424.07142143 11.91940308 423.42695618 C9.81801426 422.51570818 7.71732878 421.60283688 5.61727905 420.68850708 C-0.11345725 418.19402723 -5.84998555 415.71292619 -11.5859375 413.23046875 C-12.77707657 412.7146373 -13.96821564 412.19880585 -15.19544983 411.66734314 C-27.71366335 406.2501369 -40.26038743 400.90058853 -52.8125 395.5625 C-55.05151397 394.60994535 -57.29052764 393.65739001 -59.52954102 392.70483398 C-64.04862363 390.78255913 -68.56794855 388.86085512 -73.08740234 386.93945312 C-91.47872782 379.11992636 -109.8639877 371.28613037 -128.24853516 363.45068359 C-132.62326327 361.58630215 -136.99876394 359.72374503 -141.37463379 357.86204529 C-144.68809228 356.45165557 -148.00024302 355.03820907 -151.3125 353.625 C-152.99303467 352.91114136 -152.99303467 352.91114136 -154.70751953 352.18286133 C-156.17680908 351.55480591 -156.17680908 351.55480591 -157.67578125 350.9140625 C-158.49989502 350.5629541 -159.32400879 350.2118457 -160.1730957 349.85009766 C-162 349 -162 349 -163 348 C-163.09656057 346.58735759 -163.12371857 345.16990491 -163.12304783 343.75396633 C-163.12503888 342.83235885 -163.12702993 341.91075137 -163.12908131 340.96121639 C-163.12616847 339.93691888 -163.12325563 338.91262137 -163.12025452 337.85728455 C-163.12110894 336.7783723 -163.12196337 335.69946005 -163.12284368 334.58785349 C-163.12450168 330.94258574 -163.11897191 327.29736318 -163.11352539 323.65209961 C-163.11324356 321.05099997 -163.11340117 318.44990025 -163.1139679 315.84880066 C-163.11449332 310.23337771 -163.11134465 304.61796634 -163.10573006 299.00254631 C-163.09761748 290.88350192 -163.09500009 282.76446314 -163.09374207 274.64541513 C-163.09155116 261.47413751 -163.08489005 248.30286606 -163.07543945 235.1315918 C-163.06626632 222.33374055 -163.05918501 209.53589098 -163.05493164 196.73803711 C-163.05466892 195.949733 -163.05440619 195.16142889 -163.05413551 194.34923678 C-163.05283051 190.39471261 -163.05156679 186.44018843 -163.05032361 182.48566425 C-163.0399498 149.65710402 -163.02151086 116.82855528 -163 84 C-132.97 84 -102.94 84 -72 84 C-71.67 79.38 -71.34 74.76 -71 70 C-70.44640982 65.64401305 -69.72173803 61.33042818 -69 57 C-65.08288672 57.30705806 -61.16640839 57.62158834 -57.25 57.9375 C-56.13882813 58.02451172 -55.02765625 58.11152344 -53.8828125 58.20117188 C-52.81289063 58.28818359 -51.74296875 58.37519531 -50.640625 58.46484375 C-49.16384277 58.58267212 -49.16384277 58.58267212 -47.65722656 58.70288086 C-45.3466506 58.96123909 -43.23262117 59.3677328 -41 60 C-40.82984375 59.00742187 -40.6596875 58.01484375 -40.484375 56.9921875 C-38.85942744 47.7913632 -36.75191065 38.94021734 -34 30 C-27.42465139 30.62031591 -21.33307408 32.14897283 -15 34 C-14.72744385 33.14317627 -14.4548877 32.28635254 -14.17407227 31.40356445 C-13.0086297 28.02501696 -11.66594603 24.80824964 -10.21484375 21.54296875 C-9.68439453 20.34865234 -9.15394531 19.15433594 -8.60742188 17.92382812 C-8.33341553 17.31095947 -8.05940918 16.69809082 -7.77709961 16.06665039 C-6.93280604 14.17699422 -6.09405766 12.28494467 -5.25585938 10.39257812 C-1.12939549 1.12939549 -1.12939549 1.12939549 0 0 Z M-157 90 C-157 173.16 -157 256.32 -157 342 C-42.16 342 72.68 342 191 342 C191 258.84 191 175.68 191 90 C76.16 90 -38.68 90 -157 90 Z " fill="#5E374F" transform="translate(319,348)"/>
<path d="M0 0 C2.04502037 1.55610805 3.84724378 3.20524795 5.51953125 5.15625 C5.84953125 2.84625 6.17953125 0.53625 6.51953125 -1.84375 C10.80953125 -1.84375 15.09953125 -1.84375 19.51953125 -1.84375 C19.51953125 8.71625 19.51953125 19.27625 19.51953125 30.15625 C15.22953125 30.15625 10.93953125 30.15625 6.51953125 30.15625 C6.29265625 28.815625 6.06578125 27.475 5.83203125 26.09375 C4.46112979 20.00618056 1.93294516 15.98102637 -3.04296875 12.21875 C-9.37115203 10.26276608 -15.76387004 10.02021781 -21.91796875 12.59375 C-31.07437991 21.75016116 -31.62599596 33.05303231 -31.73046875 45.34375 C-31.73989502 46.18719971 -31.74932129 47.03064941 -31.7590332 47.8996582 C-31.72040397 55.32448802 -30.4661007 61.75818874 -27.10546875 68.46875 C-26.70585937 69.28988281 -26.30625 70.11101562 -25.89453125 70.95703125 C-23.95769903 73.96928688 -21.95198625 75.64779883 -18.55859375 76.8203125 C-12.46419504 77.80549725 -6.54566696 78.24257355 -1.04296875 75.09375 C5.75955493 70.1237429 7.39286505 62.91858163 9.51953125 55.15625 C3.24953125 55.15625 -3.02046875 55.15625 -9.48046875 55.15625 C-9.48046875 50.86625 -9.48046875 46.57625 -9.48046875 42.15625 C1.40953125 42.15625 12.29953125 42.15625 23.51953125 42.15625 C23.51953125 57.25308055 21.80152655 71.37997466 11.33203125 82.90625 C2.69307223 90.77485599 -5.58044222 92.15131898 -16.96484375 91.63671875 C-25.24953583 90.95884926 -31.35430587 87.21395976 -36.94921875 81.18359375 C-39.74387207 77.48352979 -41.6579374 73.40199718 -43.48046875 69.15625 C-43.83238281 68.34929687 -44.18429688 67.54234375 -44.546875 66.7109375 C-50.37588235 50.76043203 -48.92789661 30.62407121 -42.1953125 15.21484375 C-38.2680519 8.04950756 -31.59287472 0.39119874 -23.6875 -2.44140625 C-15.78647215 -3.88177062 -7.03814998 -4.29342483 0 0 Z " fill="#5E374F" transform="translate(265.48046875,520.84375)"/>
<path d="M0 0 C7.95137629 1.0190634 15.52631818 2.6044035 23.24609375 4.7421875 C41.10778073 9.5722343 59.32623994 13.31039054 77.37524414 17.37207031 C96.67198816 21.72042706 115.95309151 26.13376991 135.11499023 31.04711914 C141.04473366 32.55770167 146.98782479 33.86034725 153 35 C152.385789 38.61450437 151.39633734 41.72390161 149.93359375 45.08203125 C149.53076172 46.01337891 149.12792969 46.94472656 148.71289062 47.90429688 C148.29201172 48.86400391 147.87113281 49.82371094 147.4375 50.8125 C146.80038086 52.28106445 146.80038086 52.28106445 146.15039062 53.77929688 C145.10460494 56.18812907 144.05435216 58.59490803 143 61 C139.61088999 60.40823583 136.64559461 59.55990861 133.48974609 58.19677734 C132.18608849 57.63793854 132.18608849 57.63793854 130.85609436 57.06781006 C129.9213176 56.66129211 128.98654083 56.25477417 128.0234375 55.8359375 C127.03883041 55.41233948 126.05422333 54.98874146 125.03977966 54.55230713 C121.81625315 53.16430897 118.59566626 51.76962048 115.375 50.375 C113.1248079 49.40493779 110.87439911 48.43537808 108.6237793 47.46630859 C104.13117543 45.53124766 99.63957614 43.59388688 95.14892578 41.65429688 C88.03419072 38.58187947 80.91352654 35.52343422 73.7897644 32.47201538 C71.80439129 31.62152641 69.81929937 30.77038362 67.83422852 29.91918945 C45.24156924 20.23571243 22.61737685 10.62556089 0 1 C0 0.67 0 0.34 0 0 Z " fill="#F8D606" transform="translate(208,713)"/>
<path d="M0 0 C6.77683819 2.12133637 13.2733818 4.70965176 19.79296875 7.515625 C20.83244156 7.9595459 21.87191437 8.4034668 22.94288635 8.86083984 C26.35915863 10.32064115 29.77330399 11.78535011 33.1875 13.25 C35.58675255 14.27609388 37.98616935 15.30180378 40.38574219 16.32714844 C44.75651572 18.19499742 49.1268052 20.06397013 53.49646568 21.93442154 C65.10055354 26.90140739 76.7134729 31.84761991 88.32705688 36.7923584 C91.63521432 38.20111915 94.94302417 39.61069278 98.25073242 41.02050781 C113.15650521 47.37226234 128.07498662 53.69359818 143 60 C139.63775664 60.94211634 137.7040455 60.90866138 134.30859375 59.99609375 C133.37789062 59.75310547 132.4471875 59.51011719 131.48828125 59.25976562 C130.48152344 58.98841797 129.47476563 58.71707031 128.4375 58.4375 C119.49263589 56.10856282 110.53256769 53.96139108 101.5 52 C91.97142965 49.92001509 82.5086842 47.65958482 73.05859375 45.25 C65.56878313 43.35534435 58.04747877 41.64864551 50.5 40 C40.87365875 37.89674847 31.30887324 35.62155507 21.75976562 33.19287109 C11.54935267 30.6059356 1.28215815 28.28254107 -9 26 C-9.97875855 23.40058704 -10.06735909 22.20712664 -9.19555664 19.52636719 C-8.77137451 18.62563477 -8.34719238 17.72490234 -7.91015625 16.796875 C-7.45576172 15.8171875 -7.00136719 14.8375 -6.53320312 13.828125 C-6.04787109 12.81234375 -5.56253906 11.7965625 -5.0625 10.75 C-4.34030273 9.203125 -4.34030273 9.203125 -3.60351562 7.625 C-2.41267647 5.07825488 -1.21123116 2.53709387 0 0 Z " fill="#F9D706" transform="translate(321,354)"/>
<path d="M0 0 C4.62 0 9.24 0 14 0 C14 26.07 14 52.14 14 79 C28.52 79 43.04 79 58 79 C58 83.29 58 87.58 58 92 C38.86 92 19.72 92 0 92 C0 61.64 0 31.28 0 0 Z " fill="#5D3650" transform="translate(361,519)"/>
<path d="M0 0 C3.3 0 6.6 0 10 0 C10 6.6 10 13.2 10 20 C12.31 18.68 14.62 17.36 17 16 C22.38228089 14.79408534 27.37793066 15.93226031 32.140625 18.58984375 C36.34023319 21.77484072 39.34223515 26.02670544 41 31 C41.61695407 39.43507696 42.08582069 47.80808792 37 55 C33.63012193 58.64919952 29.61853169 61.62839319 24.6328125 62.3359375 C18.72278345 62.42799403 15.55287955 61.83400383 11 58 C10.67 58.99 10.34 59.98 10 61 C6.7 61 3.4 61 0 61 C0 40.87 0 20.74 0 0 Z " fill="#60394E" transform="translate(745,478)"/>
<path d="M0 0 C10.07780921 0.92010073 20.11381859 1.9482174 30.125 3.4375 C37.57103807 4.54255115 45.01819403 5.48483753 52.5 6.3125 C64.3791177 7.6373221 76.21812508 9.21101671 88.0625 10.8125 C112.34836332 14.09473978 136.66936501 17.07071651 161 20 C161 20.33 161 20.66 161 21 C107.21 21 53.42 21 -2 21 C-1 4 -1 4 0 0 Z " fill="#F7D507" transform="translate(255,411)"/>
<path d="M0 0 C53.46 0 106.92 0 162 0 C162 5.42360499 161.86972402 9.78165589 161 15 C160.814375 16.134375 160.62875 17.26875 160.4375 18.4375 C160.293125 19.283125 160.14875 20.12875 160 21 C136.02752717 18.08661055 112.05689204 15.16506808 88.10769653 12.06536865 C76.3602441 10.54545908 64.60598195 9.09770828 52.84396362 7.69534302 C41.71270204 6.36497737 30.60749569 4.88717198 19.50927734 3.30639648 C13.01596113 2.38669147 6.53231037 1.58596088 0 1 C0 0.67 0 0.34 0 0 Z " fill="#F9D706" transform="translate(257,696)"/>
<path d="M0 0 C4.72820187 3.64483057 8.13633084 8.78657003 9.19921875 14.6953125 C9.90239439 22.64660627 8.67387511 28.66253917 4.51171875 35.4453125 C-0.50376811 40.32524566 -7.04199149 42.82166369 -13.98828125 43.0078125 C-20.61958962 42.91170658 -24.91265537 41.37795907 -29.77734375 36.859375 C-35.44910057 30.76748805 -37.26661765 25.50227796 -37.04296875 17.21484375 C-36.38361023 10.35538817 -33.74833906 5.79451794 -28.671875 1.171875 C-20.23866832 -5.48313988 -9.10695353 -5.13274353 0 0 Z " fill="#603A4E" transform="translate(718.80078125,497.3046875)"/>
<path d="M0 0 C13.67098476 0.61453472 27.24028253 1.81872086 40.8515625 3.21484375 C43.00708015 3.4331266 45.16262892 3.65110231 47.31820679 3.86878967 C51.80451895 4.32270033 56.29054755 4.77928499 60.77636719 5.23803711 C66.48200979 5.82146343 72.18816652 6.39966254 77.89452553 6.97603512 C82.33545567 7.42491666 86.77617967 7.87581026 91.21683884 8.32736397 C93.31921431 8.5410586 95.4216327 8.75433144 97.52409744 8.96714592 C108.27048949 10.05660165 119.00190453 11.19506685 129.71420288 12.58323669 C134.46780701 13.18617342 139.23054496 13.66755227 144 14.125 C145.32257813 14.25455078 145.32257813 14.25455078 146.671875 14.38671875 C148.78106435 14.59305249 150.89050343 14.79683127 153 15 C151.90109517 21.91663627 150.43430815 28.42736799 148 35 C138.78937831 33.95660926 129.98925584 31.81635686 121.02807617 29.51831055 C112.82034843 27.42524373 104.58114598 25.52392026 96.3125 23.6875 C83.99938885 20.94923618 71.74447613 18.00815996 59.49667358 14.99224854 C45.88594224 11.64631963 32.22971177 8.54272794 18.53442383 5.56274414 C17.81135544 5.40475342 17.08828705 5.2467627 16.3433075 5.08398438 C14.40009415 4.65995368 12.45617722 4.23915084 10.51220703 3.81860352 C6.96287471 2.99134707 3.49467968 2.03036757 0 1 C0 0.67 0 0.34 0 0 Z " fill="#F7D407" transform="translate(235,709)"/>
<path d="M0 0 C7.93662993 0.489321 15.32489335 2.17248249 23 4.1875 C25.50863476 4.83000139 28.01776093 5.47058674 30.52734375 6.109375 C31.78401855 6.42970703 33.04069336 6.75003906 34.33544922 7.08007812 C39.72913455 8.43406922 45.14170371 9.69716642 50.5625 10.9375 C51.61074951 11.17774902 52.65899902 11.41799805 53.73901367 11.66552734 C58.47381965 12.74718408 63.21029621 13.82141888 67.94726562 14.89355469 C72.23617243 15.86436044 76.52456367 16.83741668 80.8125 17.8125 C81.53915863 17.97768127 82.26581726 18.14286255 83.01449585 18.31304932 C96.53517901 21.39165306 110.01324389 24.63564812 123.47973633 27.94262695 C124.94220348 28.30166254 126.40468678 28.6606324 127.8671875 29.01953125 C128.56126205 29.18987381 129.25533661 29.36021637 129.97044373 29.53572083 C136.30003198 31.08379444 142.64557398 32.55707055 149 34 C149 34.33 149 34.66 149 35 C139.04723031 34.62270546 129.18667828 33.86098261 119.29296875 32.7109375 C107.88156867 31.41508737 96.46364443 30.20031819 85.0390625 29.02734375 C84.21251726 28.94246138 83.38597202 28.857579 82.53437996 28.77012444 C77.42715692 28.24603825 72.3197405 27.7238562 67.21228027 27.2020874 C63.75259969 26.84828426 60.29306635 26.49305273 56.83353043 26.13783836 C34.06931494 23.79139456 34.06931494 23.79139456 11.28994751 21.59837341 C6.18580345 21.12521052 1.09345749 20.57756002 -4 20 C-3.28786282 15.50593041 -2.40228575 11.07140387 -1.4375 6.625 C-1.16808594 5.37976563 -0.89867187 4.13453125 -0.62109375 2.8515625 C-0.41613281 1.91054688 -0.21117187 0.96953125 0 0 Z " fill="#F8D606" transform="translate(288,384)"/>
<path d="M0 0 C3.625 1.5 3.625 1.5 6 3 C6 2.34 6 1.68 6 1 C8.97 1 11.94 1 15 1 C15.12417084 6.83488314 15.21460824 12.66898684 15.2746582 18.50488281 C15.29970683 20.48744109 15.33375584 22.46990789 15.37719727 24.45214844 C15.43827619 27.31207926 15.46630629 30.17078292 15.48828125 33.03125 C15.51408768 33.90865845 15.5398941 34.78606689 15.56648254 35.69006348 C15.56931011 41.98129236 14.03287352 46.138256 10 51 C4.57234576 55.6192802 -0.60262371 55.59954855 -7.6015625 55.390625 C-12.34700103 54.8451723 -15.09953693 53.75326805 -19 51 C-19.7890625 49 -19.7890625 49 -20 47 C-18.5625 44.75 -18.5625 44.75 -17 43 C-12.26315789 44.84210526 -12.26315789 44.84210526 -10.125 46.125 C-6.09304578 47.78521644 -2.22378707 47.37245693 1.875 46.125 C4.1501532 45.18405876 4.1501532 45.18405876 5 43 C5.04022391 40.6670134 5.04320247 38.33293334 5 36 C4.175 36.495 3.35 36.99 2.5 37.5 C-2.14624308 39.49124704 -6.16919935 40.01633208 -10.92578125 38.30859375 C-16.23494233 35.59148562 -19.10916127 31.67251619 -21 26 C-21.66056379 18.57337571 -22.19847964 11.68904321 -17.47265625 5.5546875 C-12.18934978 -0.02291455 -7.4261252 -1.04542539 0 0 Z " fill="#613A4E" transform="translate(690,609)"/>
<path d="M0 0 C2.79915086 1.43750971 4.77687503 2.77687503 7 5 C7.33 3.68 7.66 2.36 8 1 C10.97 1 13.94 1 17 1 C17 7.93 17 14.86 17 22 C14.03 22 11.06 22 8 22 C7.67128906 20.96939453 7.67128906 20.96939453 7.3359375 19.91796875 C5.35679111 14.11679769 5.35679111 14.11679769 1.125 9.875 C-2.28808325 8.91933669 -4.49004044 8.41500674 -8 9 C-12.9005796 12.17096327 -15.34132865 15.31672142 -17 21 C-17.40592385 24.13782269 -17.4204347 27.21476396 -17.375 30.375 C-17.38660156 31.17421875 -17.39820313 31.9734375 -17.41015625 32.796875 C-17.37700485 39.62606256 -16.3451874 46.25278048 -11.8125 51.5625 C-6.897292 54.07471742 -2.82114509 53.56035234 2.25 52 C6.75521185 48.72348229 8.27915191 44.16254427 10 39 C5.71 39 1.42 39 -3 39 C-3 36.03 -3 33.06 -3 30 C4.26 30 11.52 30 19 30 C19 39.35912562 18.31737888 48.59964188 12 56 C7.15538097 60.7777044 2.54405002 63.27577352 -4.3125 63.375 C-10.64841437 63.23022776 -14.95832252 61.66838069 -19.71875 57.4921875 C-27.82593918 48.94784596 -28.36226471 37.04971086 -28.28515625 25.8359375 C-27.67559489 17.63608463 -24.56703203 9.16797098 -18.390625 3.53125 C-12.77961011 -0.64223215 -6.81117 -1.12736607 0 0 Z " fill="#603A4E" transform="translate(591,477)"/>
<path d="M0 0 C2.93423615 2.29860817 4.89673492 4.90675109 6.55078125 8.21484375 C6.63736694 10.76846979 6.66640641 13.29438795 6.6484375 15.84765625 C6.64702255 16.59949188 6.6456076 17.35132751 6.64414978 18.12594604 C6.6385459 20.53061885 6.62599282 22.93519902 6.61328125 25.33984375 C6.60826675 26.96874866 6.60370375 28.59765502 6.59960938 30.2265625 C6.58857522 34.22269202 6.57130804 38.21875217 6.55078125 42.21484375 C3.25078125 42.21484375 -0.04921875 42.21484375 -3.44921875 42.21484375 C-3.94421875 39.73984375 -3.94421875 39.73984375 -4.44921875 37.21484375 C-5.53203125 38.14296875 -5.53203125 38.14296875 -6.63671875 39.08984375 C-12.33485299 43.39510073 -17.4477459 43.93409618 -24.44921875 43.21484375 C-29.81709773 41.32614559 -32.90913459 38.29501206 -35.44921875 33.21484375 C-35.83560144 29.19646374 -35.70796239 26.75389299 -33.94921875 23.08984375 C-29.99234783 18.53944219 -25.38426059 15.4612299 -19.44921875 14.21484375 C-16.68951467 14.14557407 -13.95725833 14.12067015 -11.19921875 14.15234375 C-10.45414063 14.15685547 -9.7090625 14.16136719 -8.94140625 14.16601562 C-7.11064235 14.17775129 -5.27992002 14.19568525 -3.44921875 14.21484375 C-4.22401611 11.22331793 -4.22401611 11.22331793 -5.44921875 8.21484375 C-13.4421792 5.5505236 -21.85210936 6.99182765 -29.44921875 10.21484375 C-31.01171875 7.40234375 -31.01171875 7.40234375 -32.44921875 4.21484375 C-31.44921875 1.21484375 -31.44921875 1.21484375 -29.4375 0.046875 C-20.07366328 -3.52095184 -9.03010648 -5.43353302 0 0 Z " fill="#623B4E" transform="translate(837.44921875,496.78515625)"/>
<path d="M0 0 C4.92565077 2.94982476 8.66511384 6.51487278 10.51171875 12.0546875 C11.1545865 19.75856169 11.33419947 26.69278297 6.51171875 33.0546875 C1.87882047 37.68758578 -2.93261443 39.13425105 -9.36328125 39.4296875 C-15.73398731 39.28577095 -20.2566218 37.22603183 -24.80078125 32.8046875 C-29.26186114 25.53477953 -30.39266919 19.51431555 -28.48828125 11.0546875 C-22.98106405 0.23693942 -11.5295134 -4.38012911 0 0 Z " fill="#613A4E" transform="translate(644.48828125,609.9453125)"/>
<path d="M0 0 C6.6 0 13.2 0 20 0 C20 17.49 20 34.98 20 53 C23.3 53 26.6 53 30 53 C30 55.97 30 58.94 30 62 C20.1 62 10.2 62 0 62 C0 59.03 0 56.06 0 53 C3.3 53 6.6 53 10 53 C10 38.81 10 24.62 10 10 C6.7 10 3.4 10 0 10 C0 6.7 0 3.4 0 0 Z " fill="#653E4C" transform="translate(869,477)"/>
<path d="M0 0 C-0.60183749 2.02045442 -1.27306096 4.02111039 -2 6 C-2.66 6.33 -3.32 6.66 -4 7 C-4.69480469 6.69320312 -5.38960937 6.38640625 -6.10546875 6.0703125 C-9.86359093 4.68066948 -13.36817506 4.78335349 -17.3125 4.875 C-18.42334961 4.88853516 -18.42334961 4.88853516 -19.55664062 4.90234375 C-21.37123467 4.92575787 -23.18566071 4.96162385 -25 5 C-24.67 6.32 -24.34 7.64 -24 9 C-22.84242188 9.25394531 -21.68484375 9.50789062 -20.4921875 9.76953125 C-18.9530329 10.11677954 -17.41397547 10.46445867 -15.875 10.8125 C-15.11445312 10.97814453 -14.35390625 11.14378906 -13.5703125 11.31445312 C-7.90817003 12.60795981 -1.59268634 14.0554893 2 19 C2.90079899 23.33357354 2.54448197 26.99815317 0.4375 30.875 C-5.73253025 36.25400073 -11.40703715 36.5303976 -19.40234375 36.359375 C-24.57492747 35.84267826 -29.47663462 34.62618689 -34 32 C-34.495 30.515 -34.495 30.515 -35 29 C-33.5625 26.3125 -33.5625 26.3125 -32 24 C-31.33355469 24.2165625 -30.66710937 24.433125 -29.98046875 24.65625 C-22.01268955 27.06329938 -14.14675588 28.34384624 -6 26 C-6.33 25.01 -6.66 24.02 -7 23 C-11.21104609 21.22659815 -15.51912246 20.4883586 -20 19.6875 C-25.76095403 18.49515893 -29.07305411 17.37573971 -33 13 C-34.55024464 9.89951072 -34.28992015 7.42105782 -34 4 C-31.88926935 0.28511405 -29.3539487 -1.97664424 -25.3125 -3.4921875 C-16.36860086 -5.45621941 -7.88291148 -4.67135495 0 0 Z " fill="#623C4D" transform="translate(1017,613)"/>
<path d="M0 0 C0.495 1.485 0.495 1.485 1 3 C-0.9375 5.6875 -0.9375 5.6875 -3 8 C-3.67417969 7.67257812 -4.34835937 7.34515625 -5.04296875 7.0078125 C-8.61501454 5.79039135 -11.54711647 5.804619 -15.3125 5.875 C-16.56675781 5.89304687 -17.82101562 5.91109375 -19.11328125 5.9296875 C-20.54220703 5.96449219 -20.54220703 5.96449219 -22 6 C-22.33 7.32 -22.66 8.64 -23 10 C-21.84242188 10.25394531 -20.68484375 10.50789062 -19.4921875 10.76953125 C-17.9530329 11.11677954 -16.41397547 11.46445867 -14.875 11.8125 C-14.11445312 11.97814453 -13.35390625 12.14378906 -12.5703125 12.31445312 C-6.90817003 13.60795981 -0.59268634 15.0554893 3 20 C3.90079899 24.33357354 3.54448197 27.99815317 1.4375 31.875 C-4.73253025 37.25400073 -10.40703715 37.5303976 -18.40234375 37.359375 C-23.57492747 36.84267826 -28.47663462 35.62618689 -33 33 C-33.495 31.515 -33.495 31.515 -34 30 C-32.5625 27.3125 -32.5625 27.3125 -31 25 C-29.783125 25.495 -28.56625 25.99 -27.3125 26.5 C-20.31885763 28.85341616 -12.10711046 29.13385399 -5 27 C-5.33 26.01 -5.66 25.02 -6 24 C-10.19754055 22.22867531 -14.46642011 21.52070548 -18.9375 20.75 C-24.13662917 19.64415348 -28.13914015 18.58798268 -31.91796875 14.7421875 C-34.05710851 11.29794081 -33.69392546 8.97430035 -33 5 C-30.87763262 1.17973872 -28.29876806 -0.95107728 -24.17578125 -2.49609375 C-16.39209421 -4.2987789 -7.18053062 -3.65800617 0 0 Z " fill="#623B4D" transform="translate(807,612)"/>
<path d="M0 0 C6.27 0 12.54 0 19 0 C19 17.16 19 34.32 19 52 C22.3 52 25.6 52 29 52 C29 54.97 29 57.94 29 61 C19.43 61 9.86 61 0 61 C0 58.03 0 55.06 0 52 C3.3 52 6.6 52 10 52 C10 37.48 10 22.96 10 8 C6.7 8 3.4 8 0 8 C0 5.36 0 2.72 0 0 Z " fill="#5D3650" transform="translate(631,478)"/>
<path d="M0 0 C2.64 0 5.28 0 8 0 C8 4.95 8 9.9 8 15 C13.28 15 18.56 15 24 15 C24 17.31 24 19.62 24 22 C18.72 22 13.44 22 8 22 C8.14098286 25.08362514 8.28759148 28.16680684 8.4375 31.25 C8.47681641 32.12269531 8.51613281 32.99539063 8.55664062 33.89453125 C8.59853516 34.73886719 8.64042969 35.58320312 8.68359375 36.453125 C8.72025146 37.22817383 8.75690918 38.00322266 8.79467773 38.80175781 C8.97466143 41.32722445 8.97466143 41.32722445 10 45 C12.97 45 15.94 45 19 45 C19.99 43.02 20.98 41.04 22 39 C24.31 39.33 26.62 39.66 29 40 C29.75 41.625 29.75 41.625 30 44 C27.52643988 48.74923543 24.83005429 51.67441831 20 54 C15.00552411 54.7971639 11.20270239 54.57907893 6.625 52.375 C2.94029739 49.04122145 0.30898745 46.46199312 -0.31982422 41.45166016 C-0.39315475 38.49972703 -0.3490044 35.57609277 -0.25 32.625 C-0.23195313 31.60277344 -0.21390625 30.58054687 -0.1953125 29.52734375 C-0.14839491 27.01725251 -0.08276729 24.50912236 0 22 C-2.97 22 -5.94 22 -9 22 C-9 19.69 -9 17.38 -9 15 C-6.03 15 -3.06 15 0 15 C0 10.05 0 5.1 0 0 Z " fill="#5F384F" transform="translate(834,595)"/>
<path d="M0 0 C5.6 2.2 5.6 2.2 7 5 C7.33 3.68 7.66 2.36 8 1 C10.31 1 12.62 1 15 1 C15 6.94 15 12.88 15 19 C12.36 19 9.72 19 7 19 C6.731875 17.906875 6.46375 16.81375 6.1875 15.6875 C4.91134745 11.66546088 4.91134745 11.66546088 2 9 C-2.54040601 7.97968404 -6.07785507 8.45424076 -10.0625 10.8125 C-12.86211385 15.41831633 -12.74600061 19.73087988 -12 25 C-11.0986054 27.56829517 -10.46020182 28.68279305 -8.21484375 30.23046875 C-3.93474194 31.7175588 0.5371719 31.46418717 5 31 C7.90630368 29.5769016 7.90630368 29.5769016 10 28 C13 29 13 29 15 32 C15 32.99 15 33.98 15 35 C7.52229004 39.45786555 1.81816527 40.8671603 -7 40 C-12.94136739 38.24959715 -16.52074814 35.01421592 -20 30 C-22.76335249 24.12301091 -23.02290946 18.00925586 -21.41796875 11.71875 C-17.73835288 2.98176256 -9.30178154 -1.79753002 0 0 Z " fill="#613A4E" transform="translate(951,609)"/>
<path d="M0 0 C2.97 0 5.94 0 9 0 C9 15.18 9 30.36 9 46 C17.25 46 25.5 46 34 46 C34 48.64 34 51.28 34 54 C22.78 54 11.56 54 0 54 C0 36.18 0 18.36 0 0 Z " fill="#643D4D" transform="translate(566,594)"/>
<path d="M0 0 C4.13787177 1.74710141 6.79711191 4.0837545 9 8 C9.67159059 12.95484616 9.70563672 17.38711606 7.6875 22 C4.63937389 25.61259391 2.86751229 27.61766503 -2.05078125 28.2734375 C-6.22372499 28.46082357 -9.09495374 28.43391645 -12.4375 25.75 C-16.77039681 21.10006196 -17.44897546 17.71280974 -17.3203125 11.47265625 C-16.73439806 6.94968258 -14.2513901 4.39043344 -11.3125 1.125 C-7.61416024 -0.67419232 -4.03003258 -0.52722648 0 0 Z " fill="#F9D706" transform="translate(709,503)"/>
<path d="M0 0 C5.61 0 11.22 0 17 0 C17 9.9 17 19.8 17 30 C19.97 30 22.94 30 26 30 C26 32.64 26 35.28 26 38 C17.42 38 8.84 38 0 38 C0 35.36 0 32.72 0 30 C2.64 30 5.28 30 8 30 C8 22.74 8 15.48 8 8 C5.36 8 2.72 8 0 8 C0 5.36 0 2.72 0 0 Z " fill="#633C4D" transform="translate(884,610)"/>
<path d="M0 0 C3.2509946 2.60079568 4.87107282 4.80071845 6.1875 8.75 C6.61074134 15.20443051 5.9587836 19.40136565 1.6875 24.5625 C-1.45048276 27.04673635 -4.82536758 26.9269752 -8.6796875 27.078125 C-11.95749344 26.57384716 -13.36405846 26.08105051 -15.8125 23.75 C-16.5869964 20.07966394 -16.50901165 16.4876754 -16.4375 12.75 C-16.45683594 11.739375 -16.47617187 10.72875 -16.49609375 9.6875 C-16.4778335 6.94115907 -16.38025814 4.43727244 -15.8125 1.75 C-11.31876727 -2.49834118 -5.44688738 -2.42083884 0 0 Z " fill="#F8D606" transform="translate(770.8125,504.25)"/>
<path d="M0 0 C5.61 0 11.22 0 17 0 C17 9.9 17 19.8 17 30 C19.97 30 22.94 30 26 30 C26 32.64 26 35.28 26 38 C17.42 38 8.84 38 0 38 C0 35.69 0 33.38 0 31 C2.97 31 5.94 31 9 31 C9 23.08 9 15.16 9 7 C6.03 7 3.06 7 0 7 C0 4.69 0 2.38 0 0 Z " fill="#5D3750" transform="translate(727,610)"/>
<path d="M0 0 C3.90209164 0.92334746 5.69749115 2.64898086 8.41015625 5.5703125 C10.01121229 8.77242458 9.76684033 12.08777885 9.41015625 15.5703125 C8.14747948 19.09251614 7.05803221 21.01499025 4.22265625 23.4453125 C0.50607948 24.93194321 -2.64157777 25.3056171 -6.58984375 24.5703125 C-9.86966126 22.50260146 -11.43730382 20.79912239 -13.58984375 17.5703125 C-14.36007663 13.33403167 -14.37799971 9.32659705 -12.59765625 5.359375 C-9.15931719 0.60009213 -5.76601565 -0.40005538 0 0 Z " fill="#F9D706" transform="translate(637.58984375,616.4296875)"/>
<path d="M0 0 C0.87527344 -0.01417969 1.75054688 -0.02835938 2.65234375 -0.04296875 C5.0625 0.1875 5.0625 0.1875 8.0625 2.1875 C8.40307617 4.15869141 8.40307617 4.15869141 8.35546875 6.5390625 C8.34580078 7.38984375 8.33613281 8.240625 8.32617188 9.1171875 C8.30103516 10.00664063 8.27589844 10.89609375 8.25 11.8125 C8.22969727 13.15828125 8.22969727 13.15828125 8.20898438 14.53125 C8.17356925 16.75059789 8.12418461 18.96875188 8.0625 21.1875 C3.66417371 23.49297668 -0.00374056 24.07575259 -4.9375 23.1875 C-8.13728722 20.65433511 -10.66642848 18.40939767 -11.17578125 14.234375 C-11.35524475 8.68045197 -10.67414814 5.58355663 -6.9375 1.1875 C-4.47380468 -0.04434766 -2.7480499 0.02017658 0 0 Z " fill="#F9D706" transform="translate(687.9375,616.8125)"/>
<path d="M0 0 C-0.6953125 6.703125 -0.6953125 6.703125 -3.4375 9.375 C-7.10523123 11.70087834 -9.09940955 12.18086708 -13.4375 12.25 C-14.88962891 12.28867187 -14.88962891 12.28867187 -16.37109375 12.328125 C-19 12 -19 12 -20.8359375 10.65234375 C-22.43002116 8.38960083 -22.21897316 6.70066902 -22 4 C-15.28528949 -1.24074967 -8.0913137 -0.37488712 0 0 Z " fill="#F4D208" transform="translate(834,519)"/>
<path d="M0 0 C3.63 0 7.26 0 11 0 C11 3.63 11 7.26 11 11 C7.37 11 3.74 11 0 11 C0 7.37 0 3.74 0 0 Z " fill="#6E4848" transform="translate(891,594)"/>
<path d="M0 0 C3.3 0 6.6 0 10 0 C10 3.3 10 6.6 10 10 C6.7 10 3.4 10 0 10 C0 6.7 0 3.4 0 0 Z " fill="#60394E" transform="translate(735,595)"/>
<path d="M0 0 C-5.94 -0.33 -11.88 -0.66 -18 -1 C-18 -1.33 -18 -1.66 -18 -2 C-11.6245062 -3.19540509 -5.63210553 -3.75473702 0 0 Z " fill="#CFAC1A" transform="translate(437,419)"/>
<path d="M0 0 C4.29 0.66 8.58 1.32 13 2 C12.01 2.495 12.01 2.495 11 3 C11 3.66 11 4.32 11 5 C9.53932801 4.54917531 8.08151968 4.08906463 6.625 3.625 C5.81289062 3.36976563 5.00078125 3.11453125 4.1640625 2.8515625 C2 2 2 2 0 0 Z " fill="#DFBC12" transform="translate(208,713)"/>
<path d="M0 0 C3.55780196 0.60990891 6.6828589 1.5783681 10 3 C5.99799622 4.60080151 2.95443764 3.29279692 -1 2 C-0.67 1.34 -0.34 0.68 0 0 Z " fill="#DDBA13" transform="translate(454,411)"/>
</svg>
