<?xml version="1.0" encoding="UTF-8"?>
<svg version="1.1" xmlns="http://www.w3.org/2000/svg" width="1200" height="1200">
<path d="M0 0 C396 0 792 0 1200 0 C1200 396 1200 792 1200 1200 C804 1200 408 1200 0 1200 C0 804 0 408 0 0 Z " fill="#CFDC96" transform="translate(0,0)"/>
<path d="M0 0 C316.8 0 633.6 0 960 0 C960 79.2 960 158.4 960 240 C643.2 240 326.4 240 0 240 C0 160.8 0 81.6 0 0 Z " fill="#CFDC96" transform="translate(120,540)"/>
<path d="M0 0 C316.8 0 633.6 0 960 0 C960 79.2 960 158.4 960 240 C643.2 240 326.4 240 0 240 C0 160.8 0 81.6 0 0 Z M15 15 C15 84.3 15 153.6 15 225 C321.9 225 628.8 225 945 225 C945 155.7 945 86.4 945 15 C638.1 15 331.2 15 15 15 Z " fill="#658361" transform="translate(120,540)"/>
<path d="M0 0 C237.6 0 475.2 0 720 0 C720 4.62 720 9.24 720 14 C482.4 14 244.8 14 0 14 C0 9.38 0 4.76 0 0 Z " fill="#658361" transform="translate(240,818)"/>
<path d="M0 0 C1.19718582 0.60355525 2.38434438 1.22727957 3.5625 1.8671875 C4.54609497 2.38104004 4.54609497 2.38104004 5.54956055 2.90527344 C7.90398287 4.15561742 10.23433074 5.44358938 12.5625 6.7421875 C14.06224365 7.5779834 14.06224365 7.5779834 15.59228516 8.43066406 C18.86320255 10.26750479 22.12145839 12.12475574 25.375 13.9921875 C26.43138672 14.59434082 27.48777344 15.19649414 28.57617188 15.81689453 C29.56810547 16.39552246 30.56003906 16.97415039 31.58203125 17.5703125 C32.46995361 18.0849707 33.35787598 18.59962891 34.27270508 19.12988281 C36.66095283 20.81151072 38.06646049 22.24201525 39.5625 24.7421875 C39.8125 28.1171875 39.8125 28.1171875 38.5625 31.7421875 C34.15603485 35.6978869 28.82317253 38.12337293 23.5625 40.7421875 C25.79269468 52.01820316 28.64791573 62.68242458 32.79388428 73.40411377 C33.65256859 75.62602327 34.49408235 77.85387338 35.33251953 80.08349609 C37.85811887 86.77865165 40.43549182 93.45185715 43.08403015 100.09934998 C44.1313479 102.73200831 45.16595244 105.36958662 46.20016479 108.00741577 C46.91755851 109.81688933 47.65781501 111.61724607 48.39868164 113.41723633 C51.03871952 120.12219579 52.18711901 124.65424794 50.5625 131.7421875 C48.85758253 134.58371661 47.6368719 135.43694539 44.47265625 136.3359375 C40.49121399 137.02490588 38.53016629 137.3353203 34.96875 135.15234375 C32.14841148 132.32742676 30.98310136 129.87711288 29.5 126.1796875 C29.2510498 125.56706055 29.00209961 124.95443359 28.74560547 124.32324219 C27.99981575 122.47006773 27.28092006 120.60614311 26.5625 118.7421875 C26.14355469 117.65550781 25.72460938 116.56882812 25.29296875 115.44921875 C22.5625 108.14545605 22.5625 108.14545605 22.5625 105.7421875 C21.9025 105.7421875 21.2425 105.7421875 20.5625 105.7421875 C20.33175781 106.52335937 20.10101562 107.30453125 19.86328125 108.109375 C18.15735819 112.87366464 15.99004805 117.33430676 13.75 121.8671875 C13.32396484 122.76050781 12.89792969 123.65382813 12.45898438 124.57421875 C9.70992511 130.13888032 7.2743843 133.88624535 1.5625 136.7421875 C-2.51805043 137.29862619 -4.17801119 136.89885999 -7.75 134.7421875 C-10.53822536 132.13926713 -11.17017101 129.75918955 -11.52856445 125.93603516 C-11.36478452 121.99038785 -9.67702643 118.87904295 -7.875 115.4296875 C-7.51092041 114.68912109 -7.14684082 113.94855469 -6.77172852 113.18554688 C-4.24452972 108.10128088 -1.46792349 103.19156595 1.62890625 98.4296875 C4.12712127 91.23817314 0.66809985 82.66694216 -1.25 75.6171875 C-1.65049561 74.10692993 -1.65049561 74.10692993 -2.05908203 72.56616211 C-3.24686795 68.09821572 -4.45962916 63.63867055 -5.72265625 59.19140625 C-9.35396023 46.34277777 -9.35396023 46.34277777 -8.4375 40.7421875 C-4.87253821 35.61925577 -1.16744262 33.09332674 4.375 30.3671875 C5.06787109 30.01269531 5.76074219 29.65820312 6.47460938 29.29296875 C8.16443534 28.43057481 9.86264112 27.58463328 11.5625 26.7421875 C10.5725 25.7521875 9.5825 24.7621875 8.5625 23.7421875 C7.87414062 24.35707031 7.87414062 24.35707031 7.171875 24.984375 C6.55828125 25.52320313 5.9446875 26.06203125 5.3125 26.6171875 C4.70921875 27.15085937 4.1059375 27.68453125 3.484375 28.234375 C-0.62466042 31.45813043 -3.91606122 32.21159551 -9.0625 32.15234375 C-12.53441043 31.55275396 -14.81026498 29.82572348 -17.515625 27.640625 C-19.43143692 26.50912252 -19.43143692 26.50912252 -21.63671875 27.21484375 C-25.67394136 29.41645329 -29.3038667 32.07712392 -33 34.8046875 C-33.79341797 35.38307373 -34.58683594 35.96145996 -35.40429688 36.55737305 C-39.03125215 39.20820746 -42.63832113 41.88305628 -46.21484375 44.6015625 C-46.76648193 45.02042725 -47.31812012 45.43929199 -47.88647461 45.87084961 C-49.34567555 46.98460144 -50.79807733 48.10724524 -52.25 49.23046875 C-54.4375 50.7421875 -54.4375 50.7421875 -56.4375 50.7421875 C-56.4375 51.4021875 -56.4375 52.0621875 -56.4375 52.7421875 C-55.6021875 53.020625 -55.6021875 53.020625 -54.75 53.3046875 C-51.34585307 55.42077883 -49.34202843 58.24299438 -47.4375 61.7421875 C-46.9375 64.4921875 -46.9375 64.4921875 -47.4375 66.7421875 C-49.31610833 69.2469986 -50.39851874 69.72919375 -53.4375 70.7421875 C-56.91227862 71.20994616 -59.37225476 71.40743947 -62.4140625 69.5078125 C-66.53784913 66.0798088 -68.13672081 63.97654719 -68.875 58.4921875 C-68.21491219 52.83429202 -64.84662359 49.74538387 -60.54663086 46.16992188 C-58.45705541 44.60458981 -56.33454516 43.10266499 -54.1875 41.6171875 C-52.59872822 40.49511743 -51.01019397 39.37271095 -49.421875 38.25 C-48.60654297 37.67797852 -47.79121094 37.10595703 -46.95117188 36.51660156 C-41.96272431 32.99523046 -37.03860014 29.38404491 -32.10058594 25.79248047 C-31.38676758 25.27572754 -30.67294922 24.75897461 -29.9375 24.2265625 C-29.3084375 23.76991211 -28.679375 23.31326172 -28.03125 22.84277344 C-26.4375 21.7421875 -26.4375 21.7421875 -24.4375 20.7421875 C-24.15859816 18.65084976 -24.15859816 18.65084976 -24.125 16.1796875 C-23.60196401 9.98304076 -21.59173242 5.45897163 -16.83203125 1.359375 C-11.36536499 -2.21835166 -5.89812869 -2.15817891 0 0 Z " fill="#698663" transform="translate(608.4375,382.2578125)"/>
<path d="M0 0 C89.1 0 178.2 0 270 0 C270 4.95 270 9.9 270 15 C180.9 15 91.8 15 0 15 C0 10.05 0 5.1 0 0 Z " fill="#658361" transform="translate(690,495)"/>
<path d="M0 0 C89.1 0 178.2 0 270 0 C270 4.95 270 9.9 270 15 C180.9 15 91.8 15 0 15 C0 10.05 0 5.1 0 0 Z " fill="#658361" transform="translate(240,495)"/>
<path d="M0 0 C6.33812099 3.06792027 12.60409388 6.2487192 18.75 9.6875 C19.75546875 10.24824219 20.7609375 10.80898438 21.796875 11.38671875 C22.52390625 11.91910156 23.2509375 12.45148438 24 13 C24 13.99 24 14.98 24 16 C16.08 20.455 16.08 20.455 8 25 C8.62507517 30.62567651 9.0806569 34.70644579 10.5625 39.875 C12.62216507 48.6006747 12.4859219 57.10211135 12 66 C11.9676123 66.75522949 11.93522461 67.51045898 11.90185547 68.28857422 C11.06287685 83.37373885 4.34133604 95.53105054 -2.85424805 108.57421875 C-4.21354036 111.0049813 -4.21354036 111.0049813 -4 114 C-6.1875 116.25 -6.1875 116.25 -9 118 C-13.29268293 117.70731707 -13.29268293 117.70731707 -15 116 C-14.71365938 109.60786675 -12.18863199 104.96158432 -9.125 99.4375 C-7.80484517 97.00453454 -6.48581384 94.57097629 -5.16894531 92.13623047 C-4.19689338 90.35981977 -3.19230219 88.60126152 -2.1796875 86.84765625 C0.72966114 79.82475838 -1.82945339 72.9230232 -3.75 65.9375 C-4.02223389 64.91760986 -4.29446777 63.89771973 -4.57495117 62.84692383 C-6.07305088 57.26783961 -7.66050423 51.72260022 -9.3125 46.1875 C-12.76520122 34.07378555 -12.76520122 34.07378555 -12 30 C-8.47390526 25.58053769 -4.55991018 23.53923881 0.5 21.375 C6.99235182 18.62859469 6.99235182 18.62859469 13 15 C13 14.01 13 13.02 13 12 C10.00277155 10.09226183 6.88380144 8.53345618 3.72265625 6.9140625 C1 5 1 5 0.12109375 2.2734375 C0.08113281 1.52320313 0.04117188 0.77296875 0 0 Z " fill="#CDDA95" transform="translate(618,395)"/>
<path d="M0 0 C4.31633181 3.18586395 7.91120739 6.79612218 9.625 11.9375 C10.44364047 17.86679594 9.74103518 22.30518437 6.21875 27.20703125 C2.50088481 31.24383095 -1.15269777 32.67669191 -6.5703125 33.3125 C-11.62072103 33.49656956 -15.33149276 33.4317929 -19.9375 31.25 C-24.01843184 27.37834671 -27.05974011 24.22964011 -27.61328125 18.44921875 C-27.73107901 13.96670415 -27.71615283 10.70509386 -25.875 6.5625 C-18.43483772 -1.2496704 -10.50334625 -3.30660901 0 0 Z " fill="#688562" transform="translate(720.375,657.0625)"/>
<path d="M0 0 C4.36240783 2.56322268 7.49184314 5.40840487 9.57421875 10.09375 C10.37868457 16.2890615 10.30562971 21.86977466 6.57421875 27.09375 C1.82945963 31.85147294 -2.01309519 33.25905112 -8.67578125 33.40625 C-14.61877192 33.34014332 -17.83741297 32.90111942 -22.42578125 29.09375 C-26.36639528 23.75876485 -27.97648983 18.70225292 -27.42578125 12.09375 C-24.98089899 6.63978187 -22.24737107 3.58170859 -17.42578125 0.09375 C-11.91953052 -1.74166691 -5.48828945 -2.05037545 0 0 Z " fill="#688562" transform="translate(883.42578125,656.90625)"/>
<path d="M0 0 C1.66782719 0.95205135 3.2771061 2.0050499 4.875 3.0703125 C4.52620368 6.32574479 3.85366739 7.08904357 1.3125 9.3203125 C0.508125 9.8978125 -0.29625 10.4753125 -1.125 11.0703125 C-1.90875 10.4103125 -2.6925 9.7503125 -3.5 9.0703125 C-7.77456296 6.23410959 -12.16921012 6.25775604 -17.125 7.0703125 C-20.98044798 9.06688377 -22.72305092 10.46738888 -25.125 14.0703125 C-25.84108932 19.37436943 -25.74742963 23.80322362 -23.375 28.6328125 C-20.61338167 31.62456569 -18.70102198 32.92547559 -14.6171875 33.30078125 C-13.75351563 33.28660156 -12.88984375 33.27242187 -12 33.2578125 C-10.69675781 33.24814453 -10.69675781 33.24814453 -9.3671875 33.23828125 C-7.0885455 33.2100632 -7.0885455 33.2100632 -5.125 32.0703125 C-4.65545739 29.02449981 -4.65545739 29.02449981 -4.5 25.5078125 C-4.42523438 24.31027344 -4.35046875 23.11273437 -4.2734375 21.87890625 C-4.22445312 20.95207031 -4.17546875 20.02523437 -4.125 19.0703125 C-1.155 19.0703125 1.815 19.0703125 4.875 19.0703125 C4.875 25.3403125 4.875 31.6103125 4.875 38.0703125 C-12.68775033 45.14103016 -12.68775033 45.14103016 -22.3125 41.9453125 C-28.27070243 39.34536962 -32.62201477 35.66001299 -35.5625 29.8203125 C-37.85429971 23.87159761 -38.30010635 18.41743919 -36.171875 12.35546875 C-32.68176755 4.83406629 -28.24356982 1.01529521 -20.6484375 -2.1640625 C-13.29508049 -4.395112 -6.77991458 -3.36503113 0 0 Z " fill="#688662" transform="translate(240.125,647.9296875)"/>
<path d="M0 0 C10.89 0 21.78 0 33 0 C33 2.64 33 5.28 33 8 C25.41 8 17.82 8 10 8 C10 11.3 10 14.6 10 18 C16.6 18 23.2 18 30 18 C30 20.64 30 23.28 30 26 C23.4 26 16.8 26 10 26 C10 29.3 10 32.6 10 36 C17.92 36 25.84 36 34 36 C34 38.64 34 41.28 34 44 C22.78 44 11.56 44 0 44 C0 29.48 0 14.96 0 0 Z " fill="#678462" transform="translate(439,646)"/>
<path d="M0 0 C0.495 1.485 0.495 1.485 1 3 C-0.4375 5.6875 -0.4375 5.6875 -2 8 C-2.7425 7.835 -3.485 7.67 -4.25 7.5 C-9.48511631 6.80198449 -14.72510733 6.72107877 -20 7 C-21.29633621 8.06645115 -21.29633621 8.06645115 -21.0625 10.5625 C-21.041875 11.366875 -21.02125 12.17125 -21 13 C-18.06075185 14.28592107 -15.32828987 15.15416298 -12.1875 15.875 C-6.90619001 17.15531757 -2.05739509 19.1354857 2 22.8125 C3.50481676 26.10428667 3.42554493 28.41326419 3 32 C1.15725183 36.72704966 -0.47364287 39.1044956 -5 41.4375 C-13.57673178 44.69074309 -21.79471888 43.6183905 -30.13671875 40.265625 C-32 39 -32 39 -32.828125 37 C-33.04653953 34.45844907 -32.30478884 33.14906397 -31 31 C-28.23723823 31.52268466 -25.6739124 32.10869587 -23 33 C-20.81415251 33.09467365 -18.62539133 33.12988914 -16.4375 33.125 C-14.70306641 33.12886719 -14.70306641 33.12886719 -12.93359375 33.1328125 C-10.06546562 33.20202616 -10.06546562 33.20202616 -8 32 C-8 30.68 -8 29.36 -8 28 C-11.66886558 26.58889785 -15.29411422 25.2106853 -19.0625 24.0859375 C-29.22446018 21.02240539 -29.22446018 21.02240539 -32 16 C-33.43304064 13.13391871 -33.30644155 11.18699217 -33 8 C-26.44764769 -4.60067752 -11.91015148 -5.84680163 0 0 Z " fill="#698663" transform="translate(683,648)"/>
<path d="M0 0 C3.3 0 6.6 0 10 0 C10 5.28 10 10.56 10 16 C11.65 15.01 13.3 14.02 15 13 C19.64800236 12.24865889 23.90027483 12.65379023 28.375 14.0625 C31.74300517 16.54840858 33.59990214 19.10260012 35 23 C35.47187545 27.16078883 35.37901091 31.25705017 35.25 35.4375 C35.23195313 36.55060547 35.21390625 37.66371094 35.1953125 38.81054688 C35.14843319 41.54126646 35.08282819 44.27017386 35 47 C31.7 47 28.4 47 25 47 C24.96261719 45.44667969 24.92523437 43.89335938 24.88671875 42.29296875 C24.82106776 40.257788 24.75462012 38.22263283 24.6875 36.1875 C24.66494141 35.16333984 24.64238281 34.13917969 24.61914062 33.08398438 C24.5659668 31.60961914 24.5659668 31.60961914 24.51171875 30.10546875 C24.48553467 29.19949951 24.45935059 28.29353027 24.43237305 27.36010742 C23.92212808 24.57493626 23.26583898 23.65759603 21 22 C17.61079594 21.49522493 15.7759397 21.50956088 12.85546875 23.35546875 C9.93791426 27.51375168 10.32271194 31.78575734 10.25 36.75 C10.22035156 37.73355469 10.19070313 38.71710937 10.16015625 39.73046875 C10.08959108 42.1532064 10.04251565 44.57660783 10 47 C6.7 47 3.4 47 0 47 C0 31.49 0 15.98 0 0 Z " fill="#688662" transform="translate(585,643)"/>
<path d="M0 0 C4.6209371 2.66082649 6.89459424 6.37128273 8.5625 11.375 C8.5625 13.685 8.5625 15.995 8.5625 18.375 C-0.0175 18.375 -8.5975 18.375 -17.4375 18.375 C-14.15921131 23.18875192 -14.15921131 23.18875192 -11.4375 24.375 C-6.61137057 24.65343054 -2.93842174 24.13145727 1.5625 22.375 C2.8825 23.695 4.2025 25.015 5.5625 26.375 C4.5625 29.375 4.5625 29.375 1.9296875 31.03125 C-4.29460407 33.51519002 -11.61233183 33.69503503 -17.984375 31.49609375 C-22.5768812 28.88043702 -25.84977916 25.46359599 -27.4375 20.375 C-28.34563013 15.08189868 -28.03052185 10.72190475 -25.375 6 C-19.24665438 -2.43287671 -9.5263327 -4.22997609 0 0 Z " fill="#688662" transform="translate(353.4375,657.625)"/>
<path d="M0 0 C3.69170871 3.50712327 6.21840455 5.96984862 6.8203125 11.11083984 C6.89338672 14.3327026 6.84864407 17.52889161 6.75 20.75 C6.73195313 21.86761719 6.71390625 22.98523438 6.6953125 24.13671875 C6.64835555 26.8837003 6.58269468 29.62890047 6.5 32.375 C3.2 32.375 -0.1 32.375 -3.5 32.375 C-3.83 31.715 -4.16 31.055 -4.5 30.375 C-5.49 31.035 -6.48 31.695 -7.5 32.375 C-12.78716706 33.09979202 -18.68985956 33.60882069 -23.25 30.4375 C-25.87550472 26.86389636 -26.32109541 24.87893121 -26.03125 20.53125 C-25.17731226 17.06526742 -23.29750603 15.45686495 -20.5 13.375 C-16.93954823 12.18818274 -14.06191663 12.27810168 -10.3125 12.3125 C-9.04019531 12.32152344 -7.76789063 12.33054687 -6.45703125 12.33984375 C-4.99330078 12.35724609 -4.99330078 12.35724609 -3.5 12.375 C-4.61242301 9.79540734 -4.61242301 9.79540734 -6.5 7.375 C-9.09461241 6.7328528 -9.09461241 6.7328528 -11.9375 7 C-13.35869141 7.05027344 -13.35869141 7.05027344 -14.80859375 7.1015625 C-17.14301361 7.33873143 -19.25057863 7.72623072 -21.5 8.375 C-24.5 4.75 -24.5 4.75 -24.5 1.375 C-16.62305751 -1.96673318 -8.01035445 -3.71909314 0 0 Z " fill="#698663" transform="translate(506.5,657.625)"/>
<path d="M0 0 C4.27353599 2.47917098 6.385141 5.04862816 8.6875 9.4375 C8.6875 12.4075 8.6875 15.3775 8.6875 18.4375 C0.4375 18.4375 -7.8125 18.4375 -16.3125 18.4375 C-14.75872625 22.32486036 -14.75872625 22.32486036 -12.5625 23.6875 C-8.8872537 24.9125821 -5.67937889 25.06235892 -2.125 23.4375 C-1.526875 23.1075 -0.92875 22.7775 -0.3125 22.4375 C0.6775 22.4375 1.6675 22.4375 2.6875 22.4375 C4.375 24.4375 4.375 24.4375 5.6875 26.4375 C4.70868487 29.10699582 4.10549419 30.221663 1.5390625 31.546875 C-5.02071238 33.5956814 -12.7085471 33.64968497 -18.9375 30.75 C-23.94644302 25.87287127 -26.45937712 22.69596304 -26.625 15.6875 C-26.57446419 10.40650791 -26.00658863 7.43110933 -22.3125 3.4375 C-15.925985 -2.32594037 -7.97349434 -3.54714387 0 0 Z " fill="#688562" transform="translate(310.3125,657.5625)"/>
<path d="M0 0 C2.97 0 5.94 0 9 0 C9.33 0.99 9.66 1.98 10 3 C10.61875 2.505 11.2375 2.01 11.875 1.5 C17.30622509 -1.10698804 22.67798035 -0.68800582 28.375 1 C32.01180663 3.77090029 33.56903656 6.67713738 35 11 C35.45757562 15.01828236 35.38137774 18.9626609 35.25 23 C35.23195313 24.06089844 35.21390625 25.12179687 35.1953125 26.21484375 C35.14854768 28.81029109 35.07681772 31.40526824 35 34 C31.7 34 28.4 34 25 34 C24.96261719 32.53046875 24.92523438 31.0609375 24.88671875 29.546875 C24.82105749 27.61455787 24.7546102 25.68226735 24.6875 23.75 C24.66494141 22.78191406 24.64238281 21.81382812 24.61914062 20.81640625 C24.5659668 19.41455078 24.5659668 19.41455078 24.51171875 17.984375 C24.48553467 17.12553711 24.45935059 16.26669922 24.43237305 15.38183594 C23.91103561 12.50991725 23.01247766 11.09547563 21 9 C17.58532519 8.41877876 15.79895629 8.49355776 12.85546875 10.359375 C9.93601926 14.51421259 10.32268215 18.78779122 10.25 23.75 C10.22035156 24.73355469 10.19070313 25.71710937 10.16015625 26.73046875 C10.08959108 29.1532064 10.04251565 31.57660783 10 34 C6.7 34 3.4 34 0 34 C0 22.78 0 11.56 0 0 Z " fill="#688562" transform="translate(371,656)"/>
<path d="M0 0 C2.97 0 5.94 0 9 0 C9.03738281 1.38574219 9.07476563 2.77148438 9.11328125 4.19921875 C9.17895394 6.02867231 9.24540083 7.8580982 9.3125 9.6875 C9.33505859 10.59951172 9.35761719 11.51152344 9.38085938 12.45117188 C9.61879199 19.23588922 9.61879199 19.23588922 13 25 C16.44106841 25.65892799 18.17669291 25.52337737 21.14453125 23.63671875 C24.06587706 19.4853326 23.67734768 15.21017191 23.75 10.25 C23.77964844 9.26644531 23.80929687 8.28289063 23.83984375 7.26953125 C23.91040892 4.8467936 23.95748435 2.42339217 24 0 C27.3 0 30.6 0 34 0 C34 11.22 34 22.44 34 34 C31.03 34 28.06 34 25 34 C24.67 33.01 24.34 32.02 24 31 C23.401875 31.495 22.80375 31.99 22.1875 32.5 C17.48858945 34.71125202 13.11036088 34.56183184 8 34 C3.6781805 32.28927978 2.05832492 30.09609184 0 26 C-0.34057617 23.0456543 -0.34057617 23.0456543 -0.29296875 19.82421875 C-0.28330078 18.66728516 -0.27363281 17.51035156 -0.26367188 16.31835938 C-0.23853516 15.12017578 -0.21339844 13.92199219 -0.1875 12.6875 C-0.17396484 11.46998047 -0.16042969 10.25246094 -0.14648438 8.99804688 C-0.11119261 5.99824655 -0.06188481 2.99935025 0 0 Z " fill="#678462" transform="translate(761,656)"/>
<path d="M0 0 C2.97 0 5.94 0 9 0 C9.33 0.99 9.66 1.98 10 3 C10.61875 2.505 11.2375 2.01 11.875 1.5 C16.28336236 -0.61601393 20.18834352 -0.57962198 25 0 C29.19633066 1.73326701 31.45987387 4.27668915 34 8 C34.45410156 10.9543457 34.45410156 10.9543457 34.390625 14.17578125 C34.37773438 15.33271484 34.36484375 16.48964844 34.3515625 17.68164062 C34.31804688 18.87982422 34.28453125 20.07800781 34.25 21.3125 C34.23195313 22.53001953 34.21390625 23.74753906 34.1953125 25.00195312 C34.14825131 28.00210422 34.0825131 31.00064889 34 34 C31.03 34 28.06 34 25 34 C24.97421875 32.53046875 24.9484375 31.0609375 24.921875 29.546875 C24.8655938 27.61455364 24.80824646 25.68226312 24.75 23.75 C24.73582031 22.78191406 24.72164062 21.81382812 24.70703125 20.81640625 C24.57137452 15.23305247 24.57137452 15.23305247 22.1796875 10.3203125 C19.90741465 8.6721593 19.90741465 8.6721593 16.375 9.125 C12.95457945 9.70740714 12.95457945 9.70740714 11 12 C10.62948007 14.3245339 10.62948007 14.3245339 10.5859375 17.0078125 C10.52792969 18.48701172 10.52792969 18.48701172 10.46875 19.99609375 C10.42234375 21.54490234 10.42234375 21.54490234 10.375 23.125 C10.31699219 24.68541016 10.31699219 24.68541016 10.2578125 26.27734375 C10.16335671 28.85126402 10.08058229 31.42560805 10 34 C6.7 34 3.4 34 0 34 C0 22.78 0 11.56 0 0 Z " fill="#678462" transform="translate(903,656)"/>
<path d="M0 0 C-0.75 2.9375 -0.75 2.9375 -2 6 C-4 6.9375 -4 6.9375 -6 7 C-6.66 6.67 -7.32 6.34 -8 6 C-9.54023996 5.93049459 -11.08334988 5.91547643 -12.625 5.9375 C-13.44226563 5.94652344 -14.25953125 5.95554687 -15.1015625 5.96484375 C-15.72804688 5.97644531 -16.35453125 5.98804688 -17 6 C-17.33 7.32 -17.66 8.64 -18 10 C-17.04738281 10.17015625 -16.09476563 10.3403125 -15.11328125 10.515625 C-13.23189453 10.87914062 -13.23189453 10.87914062 -11.3125 11.25 C-9.45044922 11.59804688 -9.45044922 11.59804688 -7.55078125 11.953125 C-3.76872642 13.06818627 -1.72927571 14.17379675 1 17 C2.07194266 20.13600246 1.81004328 22.80942139 1 26 C-0.68180983 29.28991485 -2.56967996 30.67213418 -6 32 C-14.02890431 33.23584982 -21.90130741 33.2053866 -29 29 C-28.39816251 26.97954558 -27.72693904 24.97888961 -27 23 C-26.34 22.67 -25.68 22.34 -25 22 C-24.26394531 22.30679688 -23.52789063 22.61359375 -22.76953125 22.9296875 C-19.55261967 24.17289451 -17.12208601 24.20048541 -13.6875 24.125 C-12.61886719 24.10695313 -11.55023437 24.08890625 -10.44921875 24.0703125 C-9.23685547 24.03550781 -9.23685547 24.03550781 -8 24 C-8.33 23.01 -8.66 22.02 -9 21 C-12.10920618 20.01360528 -15.17952053 19.30289431 -18.36523438 18.62695312 C-22.67625596 17.61978386 -25.34919779 16.61897934 -28 13 C-28.58880855 8.3631327 -28.66959068 6.18466044 -26.375 2.125 C-19.62661524 -3.91302847 -7.99322518 -3.55254453 0 0 Z " fill="#678562" transform="translate(975,658)"/>
<path d="M0 0 C2.97 0 5.94 0 9 0 C9 2.31 9 4.62 9 7 C11.97 7 14.94 7 18 7 C18 9.64 18 12.28 18 15 C15.03 15 12.06 15 9 15 C9.14053872 17.62538284 9.28718947 20.25017427 9.4375 22.875 C9.47681641 23.62136719 9.51613281 24.36773438 9.55664062 25.13671875 C9.71573624 29.19986864 9.71573624 29.19986864 11 33 C13.31 33 15.62 33 18 33 C18.66 35.31 19.32 37.62 20 40 C15.37939044 41.54020319 10.82536624 41.51574193 6 41 C2.30065859 38.88609062 0.61962382 36.8711228 -1 33 C-1.22705078 30.89355469 -1.22705078 30.89355469 -1.1953125 28.671875 C-1.18564453 27.47304688 -1.18564453 27.47304688 -1.17578125 26.25 C-1.15902344 25.425 -1.14226563 24.6 -1.125 23.75 C-1.11597656 22.90953125 -1.10695313 22.0690625 -1.09765625 21.203125 C-1.07415817 19.13529396 -1.03828908 17.06761005 -1 15 C-2.65 15 -4.3 15 -6 15 C-6 12.36 -6 9.72 -6 7 C-4.02 7 -2.04 7 0 7 C0 4.69 0 2.38 0 0 Z " fill="#698663" transform="translate(557,649)"/>
<path d="M0 0 C3.3 0 6.6 0 10 0 C10 2.31 10 4.62 10 7 C12.64 7 15.28 7 18 7 C18 9.64 18 12.28 18 15 C15.36 15 12.72 15 10 15 C10.33 20.61 10.66 26.22 11 32 C12.65 32.33 14.3 32.66 16 33 C17.485 33.495 17.485 33.495 19 34 C19.33 35.98 19.66 37.96 20 40 C16.03476986 41.98261507 11.31072279 41.55250109 7 41 C3.32469086 39.16234543 1.3163107 36.94893209 0 33 C-0.08021999 31.59175107 -0.10765977 30.18002769 -0.09765625 28.76953125 C-0.09282227 27.56586914 -0.09282227 27.56586914 -0.08789062 26.33789062 C-0.07951172 25.50451172 -0.07113281 24.67113281 -0.0625 23.8125 C-0.05798828 22.96751953 -0.05347656 22.12253906 -0.04882812 21.25195312 C-0.03705403 19.16793845 -0.0191189 17.08396023 0 15 C-1.65 15 -3.3 15 -5 15 C-5 12.36 -5 9.72 -5 7 C-3.35 7 -1.7 7 0 7 C0 4.69 0 2.38 0 0 Z " fill="#678562" transform="translate(808,649)"/>
<path d="M0 0 C3.3 0 6.6 0 10 0 C10 15.51 10 31.02 10 47 C6.7 47 3.4 47 0 47 C0 31.49 0 15.98 0 0 Z " fill="#688662" transform="translate(739,643)"/>
<path d="M0 0 C3.3 0 6.6 0 10 0 C10 0.99 10 1.98 10 3 C11.0725 2.505 12.145 2.01 13.25 1.5 C16.25416808 0.11346089 17.45934895 0 21 0 C21 2.97 21 5.94 21 9 C18.98177083 9.42317708 16.96354167 9.84635417 14.9453125 10.26953125 C12.62953451 10.92308838 12.62953451 10.92308838 11 14 C10.6349209 16.22131423 10.6349209 16.22131423 10.5859375 18.66796875 C10.52792969 20.00698242 10.52792969 20.00698242 10.46875 21.37304688 C10.42234375 22.76620117 10.42234375 22.76620117 10.375 24.1875 C10.31699219 25.59805664 10.31699219 25.59805664 10.2578125 27.03710938 C10.16357326 29.35775066 10.08069877 31.67884841 10 34 C6.7 34 3.4 34 0 34 C0 22.78 0 11.56 0 0 Z " fill="#698763" transform="translate(524,656)"/>
<path d="M0 0 C2.64653684 1.32326842 2.74607764 2.42748441 3.78759766 5.16503906 C4.12779938 6.04975891 4.4680011 6.93447876 4.81851196 7.8460083 C5.18004364 8.80948181 5.54157532 9.77295532 5.9140625 10.765625 C6.28856537 11.75117371 6.66306824 12.73672241 7.04891968 13.75213623 C7.84084073 15.8423715 8.62911784 17.93399037 9.4140625 20.02685547 C10.61626599 23.22675273 11.83464068 26.42015143 13.0546875 29.61328125 C13.82130209 31.64285565 14.58695856 33.67279227 15.3515625 35.703125 C15.71714264 36.65850159 16.08272278 37.61387817 16.4593811 38.59820557 C16.7932785 39.49553406 17.1271759 40.39286255 17.47119141 41.31738281 C17.76716217 42.10268372 18.06313293 42.88798462 18.36807251 43.69708252 C19.07461508 46.27191788 19.25129801 48.34250705 19 51 C17 53 17 53 14.375 53.125 C13.59125 53.08375 12.8075 53.0425 12 53 C8.48071881 46.24166141 5.51877138 39.3220678 2.6875 32.25 C2.22021484 31.1465625 1.75292969 30.043125 1.27148438 28.90625 C-1.82029691 21.12427762 -2.40226125 15.23242905 -1 7 C-0.8111748 5.58350936 -0.62344669 4.16687138 -0.4375 2.75 C-0.293125 1.8425 -0.14875 0.935 0 0 Z " fill="#CBD894" transform="translate(635,460)"/>
<path d="M0 0 C2.97 0 5.94 0 9 0 C9.33 0.99 9.66 1.98 10 3 C10.70125 2.505 11.4025 2.01 12.125 1.5 C15.37119719 -0.1936681 17.39340156 -0.25162315 21 0 C21 2.97 21 5.94 21 9 C17.58203125 9.5859375 17.58203125 9.5859375 14.1640625 10.171875 C11.88045347 10.79721053 11.88045347 10.79721053 10.890625 12.76757812 C9.93692505 15.15810234 9.68988064 16.98294427 9.5859375 19.546875 C9.52792969 20.81337891 9.52792969 20.81337891 9.46875 22.10546875 C9.42234375 23.41451172 9.42234375 23.41451172 9.375 24.75 C9.31699219 26.08224609 9.31699219 26.08224609 9.2578125 27.44140625 C9.16379678 29.62727167 9.08081998 31.81360692 9 34 C6.03 34 3.06 34 0 34 C0 22.78 0 11.56 0 0 Z " fill="#678562" transform="translate(257,656)"/>
<path d="M0 0 C2.80907699 1.76119659 3.33896525 2.89940179 5 6 C5.41316482 10.34198668 4.74196883 13.76338528 2.5 17.5 C-1.23661472 19.74196883 -4.65801332 20.41316482 -9 20 C-12.77082851 17.9799133 -14.33622284 16.85517207 -15.76171875 12.87109375 C-16.36863047 9.58040725 -16.60190276 7.13091886 -15 4.12109375 C-10.50234688 -1.43404329 -6.63184214 -1.81491033 0 0 Z " fill="#CDDB95" transform="translate(607,388)"/>
<path d="M0 0 C3.3 0 6.6 0 10 0 C10 11.22 10 22.44 10 34 C6.7 34 3.4 34 0 34 C0 22.78 0 11.56 0 0 Z " fill="#688662" transform="translate(837,656)"/>
<path d="M0 0 C1.65 0.33 3.3 0.66 5 1 C4.43804185 4.84568949 3.35485622 7.29560498 1.1875 10.5 C-4.6478157 19.9543336 -6.60398273 30.01052085 -7 41 C-8.65614657 41.38218767 -10.32457024 41.71395102 -12 42 C-13.69681906 40.30318094 -13.29344234 38.26816687 -13.375 35.9375 C-13.2658121 22.86614813 -7.86273524 10.27155009 0 0 Z " fill="#698763" transform="translate(553,384)"/>
<path d="M0 0 C2.43119623 1.87015094 3.64069173 3.28138345 5 6 C5.41314256 10.6478538 4.78987316 13.24440152 2 17 C-1.2136411 18.60682055 -4.51460341 18.46150508 -8 18 C-10.5 16.625 -10.5 16.625 -12 14 C-12.73430028 9.3953253 -12.8440582 5.47710185 -10.5 1.375 C-6.96975659 -0.56663387 -3.93997716 -0.82521082 0 0 Z " fill="#CDDA95" transform="translate(715,664)"/>
<path d="M0 0 C4.19517357 0.74913814 5.8498733 1.25211148 8.5 4.625 C9.37046411 9.22166133 9.34235437 13.15087986 7 17.25 C3.46975659 19.19163387 0.43997716 19.45021082 -3.5 18.625 C-6.81327526 16.07632672 -8.3095103 14.02192449 -8.875 9.875 C-8.22425679 4.23522555 -5.62697213 1.00481645 0 0 Z " fill="#CDDA95" transform="translate(874.5,663.375)"/>
<path d="M0 0 C0.721875 0.268125 1.44375 0.53625 2.1875 0.8125 C1.694939 5.24554896 0.32349102 6.76874401 -2.8125 9.8125 C-5.39335924 14.11393207 -6.31489235 17.83642353 -6.8125 22.8125 C-8.46864657 23.19468767 -10.13707024 23.52645102 -11.8125 23.8125 C-12.8125 22.8125 -12.8125 22.8125 -13.1875 19.375 C-13.10384536 12.73043172 -9.62744184 6.5563621 -5.3125 1.625 C-2.8125 -0.1875 -2.8125 -0.1875 0 0 Z " fill="#6B8864" transform="translate(573.8125,387.1875)"/>
<path d="M0 0 C1.91015625 0.23046875 1.91015625 0.23046875 3.91015625 2.23046875 C3.33323317 8.80739183 3.33323317 8.80739183 1.91015625 10.23046875 C-3.93090335 10.60132968 -3.93090335 10.60132968 -6.08984375 10.23046875 C-8.08984375 7.23046875 -8.08984375 7.23046875 -7.77734375 4.10546875 C-6.59353467 -0.84500557 -4.80346603 0.09589497 0 0 Z " fill="#688662" transform="translate(844.08984375,640.76953125)"/>
<path d="M0 0 C2.875 1.8125 2.875 1.8125 5 4 C5 4.99 5 5.98 5 7 C-0.28 7 -5.56 7 -11 7 C-10 3 -10 3 -8.3125 1.25 C-5.24885205 -0.40602592 -3.44265183 -0.4918074 0 0 Z " fill="#CBD994" transform="translate(347,663)"/>
<path d="M0 0 C1.51400391 0.01740234 1.51400391 0.01740234 3.05859375 0.03515625 C4.07050781 0.04417969 5.08242188 0.05320312 6.125 0.0625 C7.29869141 0.07990234 7.29869141 0.07990234 8.49609375 0.09765625 C7.70703125 4.87109375 7.70703125 4.87109375 5.80859375 6.91015625 C2.83940484 8.43487488 0.79130934 8.45583186 -2.50390625 8.09765625 C-3.16390625 7.43765625 -3.82390625 6.77765625 -4.50390625 6.09765625 C-3.77826013 0.14735804 -3.77826013 0.14735804 0 0 Z " fill="#CAD894" transform="translate(494.50390625,675.90234375)"/>
<path d="M0 0 C2.3125 0.6875 2.3125 0.6875 4 2 C4.33 3.65 4.66 5.3 5 7 C0.05 7 -4.9 7 -10 7 C-9.67 5.35 -9.34 3.7 -9 2 C-5.51195905 -0.32536063 -4.09859246 -0.33457898 0 0 Z " fill="#CCDA95" transform="translate(304,663)"/>
<path d="M0 0 C1.98 0.99 3.96 1.98 6 3 C2.17058011 6.32993034 -2.37522222 8.05324525 -7 10 C-7.33 9.01 -7.66 8.02 -8 7 C-7.05125 6.401875 -6.1025 5.80375 -5.125 5.1875 C-1.86035803 3.18437474 -1.86035803 3.18437474 0 0 Z " fill="#CAD894" transform="translate(616,405)"/>
<path d="M0 0 C1.17539996 0.92652701 2.34010577 1.86663387 3.5 2.8125 C4.1496875 3.33457031 4.799375 3.85664063 5.46875 4.39453125 C7 6 7 6 7 9 C2.55063291 9.36075949 2.55063291 9.36075949 0.1875 7.8125 C-1.38243085 5.41628976 -1.29573841 3.80951486 -1 1 C-0.67 0.67 -0.34 0.34 0 0 Z " fill="#C2D190" transform="translate(547,438)"/>
<path d="M0 0 C0 3 0 3 0 3 Z M-6 6 C-5.34 6.33 -4.68 6.66 -4 7 C-4 7.66 -4 8.32 -4 9 C-4.99 9.33 -5.98 9.66 -7 10 C-7.33 9.01 -7.66 8.02 -8 7 C-7.34 6.67 -6.68 6.34 -6 6 Z " fill="#C2D190" transform="translate(616,405)"/>
</svg>
