<?xml version="1.0" encoding="UTF-8"?>
<svg version="1.1" xmlns="http://www.w3.org/2000/svg" width="1200" height="1200">
<path d="M0 0 C396 0 792 0 1200 0 C1200 396 1200 792 1200 1200 C804 1200 408 1200 0 1200 C0 804 0 408 0 0 Z " fill="#668461" transform="translate(0,0)"/>
<path d="M0 0 C396 0 792 0 1200 0 C1200 396 1200 792 1200 1200 C804 1200 408 1200 0 1200 C0 804 0 408 0 0 Z M542 70 C540.81484299 70.13385605 540.81484299 70.13385605 539.60574341 70.27041626 C534.47674841 70.85929962 529.36212016 71.53004977 524.25 72.25 C523.48929199 72.35604553 522.72858398 72.46209106 521.94482422 72.5713501 C508.54629862 74.45729745 495.38468129 76.99032154 482.23779297 80.21289062 C478.95777212 81.01026562 475.66998069 81.76530825 472.37890625 82.515625 C397.35571018 99.99597017 325.42810963 136.11392026 266 185 C265.12472656 185.70253906 264.24945313 186.40507812 263.34765625 187.12890625 C257.56863264 191.78940916 252.01618641 196.6357703 246.5546875 201.6640625 C244.38057901 203.65200879 242.17577224 205.58533338 239.9375 207.5 C235.85665647 211.03617243 232.10672093 214.87635466 228.31640625 218.71875 C226.53189588 220.47617674 224.77304356 222.07747761 222.8125 223.625 C219.82399193 226.14862903 217.43749385 228.8681391 214.91015625 231.83984375 C212.90580785 234.10651996 210.7942285 236.20363264 208.625 238.3125 C204.49159337 242.38986044 200.85871812 246.73910235 197.234375 251.26953125 C195.15302294 253.81300169 192.98798685 256.21957253 190.75 258.625 C139.70616426 314.80866642 102.02510695 391.16167924 84.55957031 464.69726562 C83.9240491 467.31255189 83.2413371 469.91330316 82.5546875 472.515625 C77.13589418 493.22315661 73.32398446 514.07336684 70.75 535.3125 C70.66691589 535.99633759 70.58383179 536.68017517 70.49822998 537.38473511 C68.78277946 551.6759167 67.83636706 565.88327243 67.7265625 580.28125 C67.72030413 580.9875782 67.71404575 581.6939064 67.70759773 582.42163849 C67.66164862 587.78106416 67.63808972 593.14040074 67.625 598.5 C67.62176916 599.68264183 67.62176916 599.68264183 67.61847305 600.88917542 C67.55837435 628.20618232 68.84463283 654.95947576 73 682 C73.19223145 683.29373535 73.38446289 684.5874707 73.58251953 685.92041016 C74.77134302 693.68335319 76.28567616 701.33734626 78 709 C78.30172955 710.37594708 78.60331705 711.75192531 78.90478516 713.12792969 C83.76929042 735.15705817 90.06015358 756.50642129 97.47363281 777.80664062 C97.69900758 778.46111836 97.92438234 779.1155961 98.15658665 779.7899065 C98.9950045 782.08147223 98.9950045 782.08147223 100.21962643 784.52365398 C104.90781556 794.85639757 104.71223231 804.59129559 104.65942383 815.75317383 C104.66788986 817.82404033 104.67853982 819.89489887 104.69119263 821.96574402 C104.71920146 827.55168519 104.71689169 833.13724054 104.70889878 838.7232306 C104.70576229 844.57422623 104.73084151 850.42510143 104.75285339 856.27604675 C104.79022658 867.339584 104.80243742 878.40299834 104.8054778 889.46659249 C104.81017592 902.06888973 104.84312345 914.67106441 104.87837565 927.27330744 C104.95022112 953.18219014 104.98681271 979.09102571 105 1005 C105.76107654 1004.99501401 106.52215307 1004.99002802 107.30629253 1004.98489094 C125.87069421 1004.8670783 144.43437156 1004.8105338 162.999156 1004.82121754 C171.97727247 1004.82492451 180.95447189 1004.80830147 189.93237305 1004.74291992 C197.76250052 1004.6859496 205.59160498 1004.66803947 213.42190629 1004.6959936 C217.56408433 1004.7094445 221.70420752 1004.70404377 225.84612083 1004.65177345 C229.75499595 1004.60306356 233.66046822 1004.60707373 237.56938362 1004.64941406 C238.99430292 1004.65594104 240.41945958 1004.64413175 241.84401703 1004.61136436 C251.45261847 1004.40462716 256.85079061 1006.39391509 263.71093673 1012.8094967 C265.1439787 1014.20288976 266.57209183 1015.60134644 268 1017 C269.66076487 1018.33835917 271.33881838 1019.65614011 273.046875 1020.93359375 C273.8195874 1021.51318848 274.5922998 1022.0927832 275.38842773 1022.68994141 C276.16774658 1023.26663574 276.94706543 1023.84333008 277.75 1024.4375 C278.60215088 1025.07091309 279.45430176 1025.70432617 280.33227539 1026.35693359 C282.88261499 1028.24566989 285.43959474 1030.12493782 288 1032 C288.7326709 1032.53802246 289.4653418 1033.07604492 290.22021484 1033.63037109 C366.78367189 1089.58263989 459.68733509 1123.129018 554 1131 C555.22517334 1131.103125 556.45034668 1131.20625 557.71264648 1131.3125 C571.25612471 1132.27248327 584.83460783 1132.22242309 598.40551758 1132.24023438 C601.23703123 1132.24458584 604.06823446 1132.2583748 606.8996582 1132.28125 C634.01369131 1132.49529734 660.53856867 1130.28686091 687.3125 1125.8125 C688.20880127 1125.66515411 689.10510254 1125.51780823 690.02856445 1125.36599731 C713.1253547 1121.54571026 736.10294902 1116.53733737 758.27441406 1108.92822266 C760.95155532 1108.01649827 763.63641726 1107.13014191 766.32327271 1106.24752808 C784.98110264 1100.10474786 803.12242233 1093.18194062 821 1085 C821.59725891 1084.72694031 822.19451782 1084.45388062 822.80987549 1084.17254639 C839.5048291 1076.52164122 855.63607986 1068.14570432 871.34716797 1058.60791016 C873.81689247 1057.11098345 876.29826822 1055.63614411 878.78515625 1054.16796875 C894.20346625 1045.00158527 908.71973433 1034.58796598 923 1023.75 C923.82346924 1023.12520752 924.64693848 1022.50041504 925.49536133 1021.85668945 C926.30126709 1021.23882568 927.10717285 1020.62096191 927.9375 1019.984375 C928.71241161 1019.395016 929.48732323 1018.80565701 930.28571701 1018.19843864 C933.05303755 1016.02742166 933.05303755 1016.02742166 935.58740616 1013.46653938 C943.39551287 1006.06349663 949.24945438 1004.55281761 960.13183594 1004.77294922 C961.6114462 1004.76589025 963.09104091 1004.75443518 964.57058716 1004.7389679 C968.55003272 1004.70961553 972.52685965 1004.74102268 976.50609112 1004.78413153 C980.67815113 1004.81873642 984.84991661 1004.79637767 989.02203369 1004.78030396 C996.9056243 1004.75846216 1004.78817156 1004.78715268 1012.67161775 1004.834427 C1021.65365481 1004.88579688 1030.63538125 1004.88018303 1039.61752653 1004.87000632 C1058.07871086 1004.85035494 1076.53908649 1004.90153679 1095 1005 C1094.99528639 1003.41114156 1094.99528639 1003.41114156 1094.99047756 1001.79018497 C1094.91578208 975.91120666 1094.89348447 950.03257703 1094.92484188 924.15350437 C1094.93881735 911.63806559 1094.93631243 899.12305096 1094.89379883 886.60766602 C1094.85674885 875.68799009 1094.85185447 864.76883163 1094.88417059 853.84913296 C1094.90016644 848.07720368 1094.90101454 842.30624376 1094.86323357 836.53439522 C1094.58523807 791.06539981 1094.58523807 791.06539981 1103.96174812 772.11913872 C1109.97048114 759.85492898 1112.74773747 746.04045539 1116.02587891 732.87451172 C1116.73646514 730.04819503 1117.4630288 727.2287803 1118.20458984 724.41064453 C1121.10757739 713.27019914 1123.39615083 702.13645731 1125.203125 690.76757812 C1125.61975879 688.15783035 1126.05500816 685.55168728 1126.4921875 682.9453125 C1130.72773911 657.1586427 1132.49492801 631.58435305 1132.3225708 605.49890137 C1132.30913578 602.74887509 1132.31442152 599.99901061 1132.31942558 597.24896622 C1132.35328574 572.69459828 1131.29882682 548.19558926 1127.75 523.875 C1127.64461914 523.1316037 1127.53923828 522.3882074 1127.43066406 521.62228394 C1125.52349801 508.23551329 1122.90127686 495.07908544 1119.70556641 481.93701172 C1119.04670575 479.19441873 1118.4273471 476.44671231 1117.82421875 473.69140625 C1110.57731364 441.03339736 1098.9873819 409.33213432 1085 379 C1084.53223145 377.97938477 1084.06446289 376.95876953 1083.58251953 375.90722656 C1063.58161369 332.49983667 1037.76545811 291.61638552 1006.33300781 255.54345703 C1004.9101903 253.89601155 1003.5122478 252.22959493 1002.1171875 250.55859375 C996.50466472 243.86553608 990.68333486 237.53140379 984.44506836 231.41552734 C981.7239687 228.7445042 979.11175763 226.07484194 976.6875 223.125 C974.11988791 220.00718531 971.19987278 217.48398297 968.125 214.875 C965.86860697 212.88406497 963.78488457 210.78230984 961.6875 208.625 C957.61478317 204.4963008 953.27073263 200.86705996 948.74609375 197.24609375 C946.11914983 195.09745541 943.61931675 192.86276942 941.125 190.5625 C935.36413786 185.33438216 929.24259096 180.62992163 923 176 C922.34 175.51015625 921.68 175.0203125 921 174.515625 C904.25705682 162.14583862 887.0455787 150.39330849 869 140 C868.40010254 139.65195313 867.80020508 139.30390625 867.18212891 138.9453125 C862.4903222 136.23102369 857.7558412 133.60021335 853 131 C851.79537109 130.33726074 851.79537109 130.33726074 850.56640625 129.66113281 C825.80333031 116.12059243 799.96172607 105.15598959 773.24609375 96.10400391 C770.12490803 95.04248151 767.01508338 93.95255543 763.90625 92.85546875 C741.3458644 84.98811453 718.22711304 79.74307333 694.73632812 75.51293945 C693.05818415 75.19836232 691.3835594 74.86309376 689.71679688 74.49291992 C681.68426455 72.70994116 673.52774878 72.00369623 665.35205078 71.19506836 C662.76928921 70.93940938 660.18736031 70.67639555 657.60546875 70.41210938 C655.91931475 70.24175222 654.23311806 70.07181702 652.546875 69.90234375 C651.79742615 69.82628403 651.04797729 69.7502243 650.27581787 69.67185974 C638.32554046 68.49594356 626.45090286 67.84267587 614.44140625 67.83203125 C613.08161895 67.82879981 611.72183195 67.82543451 610.36204529 67.82194519 C607.52919717 67.81601318 604.69637926 67.8140989 601.86352539 67.81469727 C599.01222333 67.81477813 596.1610833 67.80788919 593.30981445 67.79418945 C576.11524155 67.71298446 559.10499756 68.02579078 542 70 Z " fill="#CFDC96" transform="translate(0,0)"/>
<path d="M0 0 C316.8 0 633.6 0 960 0 C960 59.4 960 118.8 960 180 C643.2 180 326.4 180 0 180 C0 120.6 0 61.2 0 0 Z " fill="#CFDC96" transform="translate(120,810)"/>
<path d="M0 0 C3.52950245 -0.00217915 7.05868747 -0.02039319 10.58813477 -0.03930664 C36.87925019 -0.10333761 62.86400899 1.82680989 88.62133789 7.18530273 C92.90176656 8.07482932 97.19175675 8.85908673 101.49633789 9.62280273 C173.31251027 23.03705053 245.59744658 58.87261374 300.58227539 106.67358398 C303.37746784 109.08284504 306.23414338 111.38774654 309.12133789 113.68530273 C314.06664912 117.7020184 318.51038454 122.09913776 322.95727539 126.64624023 C325.01186862 128.70083346 327.0767099 130.58311142 329.30883789 132.43530273 C335.30929294 137.56094812 340.5043402 143.55619485 345.82592773 149.36645508 C347.28647964 150.95679587 348.75719044 152.53644876 350.23461914 154.11108398 C356.25718506 160.59470758 361.72085126 167.41237011 367.1184082 174.41333008 C368.44411817 176.11814988 369.7894576 177.80474646 371.14477539 179.48608398 C383.99673995 195.47296257 395.28985964 212.40280798 405.49633789 230.18530273 C406.16922852 231.35754395 406.16922852 231.35754395 406.85571289 232.5534668 C412.39160687 242.25349278 417.62023243 252.08386862 422.49438477 262.13256836 C423.51611982 264.22583063 424.56019844 266.30695564 425.60571289 268.38842773 C441.43868062 300.34822195 460.49633789 344.1089354 460.49633789 380.18530273 C455.2015826 380.20648176 450.11138533 379.94485228 445.49633789 377.18530273 C441.42277015 372.40227153 439.232581 366.25798477 436.67456055 360.58227539 C427.42874121 341.77260813 408.19751825 328.18609207 389.03149414 320.86108398 C385.85810321 319.84605169 382.74192273 318.94061165 379.49633789 318.18530273 C378.34630374 317.90230127 378.34630374 317.90230127 377.17303658 317.61358261 C372.0948113 316.50466247 368.00246989 316.0778047 362.87130737 317.03741455 C353.47619117 318.47835357 345.07890521 317.96375757 337.21219635 312.35697937 C325.70999873 303.34455204 315.69474937 292.45212751 305.60505915 281.93026638 C301.11585809 277.27726769 296.55167538 272.69897362 291.99533081 268.11187744 C284.36687731 260.41204347 276.78538259 252.66871111 269.23852539 244.88891602 C261.48509266 236.89642714 253.70453478 228.93199834 245.88598633 221.00317383 C245.16158575 220.26852703 245.16158575 220.26852703 244.42255081 219.51903889 C241.9983989 217.06094222 239.57370001 214.60338593 237.14872384 212.14610243 C220.46995164 195.24402874 203.84957531 178.28592985 187.28962708 161.26741028 C186.59244564 160.5509994 185.8952642 159.83458851 185.17695606 159.09646821 C183.89571989 157.77956645 182.6148462 156.46231186 181.33443177 155.14461112 C178.08043912 151.79877141 174.80410588 148.47821095 171.49633789 145.18530273 C170.11679101 143.79531326 168.73786744 142.40470483 167.35961914 141.01342773 C165.84274749 139.48733097 164.32581909 137.96129061 162.80883789 136.43530273 C162.03733398 135.65541992 161.26583008 134.87553711 160.47094727 134.07202148 C159.73295898 133.33081055 158.9949707 132.58959961 158.23461914 131.82592773 C157.56470947 131.15078125 156.8947998 130.47563477 156.20458984 129.7800293 C154.57228826 128.10517227 154.57228826 128.10517227 152.49633789 127.18530273 C152.26290995 127.74377018 152.029482 128.30223763 151.78898048 128.87762833 C150.16645996 131.77421328 148.1659229 133.76126287 145.8140564 136.10809326 C145.33457192 136.58928659 144.85508744 137.07047991 144.36107314 137.56625485 C142.75511324 139.17550586 141.1421155 140.77750979 139.52905273 142.37963867 C138.37563345 143.53249376 137.22265449 144.68578952 136.07008362 145.8394928 C132.94046717 148.96968343 129.80471935 152.09366616 126.6678462 155.2165823 C123.3904411 158.48149112 120.11869292 161.75205859 116.84634399 165.02203369 C110.64907375 171.21308593 104.44672255 177.39902194 98.24253619 183.58314252 C91.17943357 190.62389613 84.12200417 197.67032462 77.06504893 204.7172389 C62.54845531 219.21292326 48.02474108 233.70145526 33.49633789 248.18530273 C30.49633789 247.18530273 30.49633789 247.18530273 28.80493164 243.89624023 C28.17570812 242.45332476 27.55240946 241.00781665 26.93383789 239.56030273 C20.85184265 226.0533119 12.83243947 214.76331307 2.49633789 204.18530273 C-10.97443705 214.84966623 -19.22439433 229.8822966 -26.50366211 245.18530273 C-29.78774495 243.74817929 -31.9572813 241.97908084 -34.48167419 239.44779968 C-35.26246338 238.66975983 -36.04325256 237.89171997 -36.84770203 237.09010315 C-37.69508438 236.23553024 -38.54246674 235.38095734 -39.41552734 234.50048828 C-40.31516205 233.60114563 -41.21479675 232.70180298 -42.14169312 231.77520752 C-44.60695549 229.31051893 -47.06600118 226.83971101 -49.52398562 224.3677671 C-52.10054236 221.77868933 -54.68278151 219.19529164 -57.26441956 216.61128235 C-62.15683489 211.71264942 -67.04413249 206.80894339 -71.92961031 201.90339261 C-77.47158856 196.33913072 -83.01917922 190.78047925 -88.56728446 185.22232759 C-98.05728077 175.71495649 -107.54304216 166.20337935 -117.02409363 156.68708801 C-120.84727839 152.84980154 -124.67250107 149.0146245 -128.50366211 145.18530273 C-129.88320899 143.79531326 -131.26213256 142.40470483 -132.64038086 141.01342773 C-134.15725251 139.48733097 -135.67418091 137.96129061 -137.19116211 136.43530273 C-137.96266602 135.65541992 -138.73416992 134.87553711 -139.52905273 134.07202148 C-140.26704102 133.33081055 -141.0050293 132.58959961 -141.76538086 131.82592773 C-142.77024536 130.81320801 -142.77024536 130.81320801 -143.79541016 129.7800293 C-145.42771174 128.10517227 -145.42771174 128.10517227 -147.50366211 127.18530273 C-147.7697558 127.77626309 -148.03584949 128.36722344 -148.31000662 128.97609168 C-149.53354195 131.24060417 -150.78773546 132.71897687 -152.60214996 134.53267956 C-153.24236005 135.17748844 -153.88257014 135.82229733 -154.54218054 136.48664588 C-155.24703415 137.18635593 -155.95188777 137.88606598 -156.67810059 138.60697937 C-157.42568839 139.35698159 -158.17327619 140.1069838 -158.94351816 140.87971336 C-161.45687165 143.39871534 -163.97732799 145.91048819 -166.49780273 148.42236328 C-168.29820809 150.22384121 -170.09818048 152.02575193 -171.89775085 153.82806396 C-176.28324887 158.21791229 -180.67337322 162.60308718 -185.06566942 166.98613223 C-190.17773587 172.08781777 -195.28457429 177.19472319 -200.39120919 182.30184457 C-209.50026671 191.41140274 -218.61414724 200.51612035 -227.73071289 209.61816406 C-236.58297621 218.45633369 -245.43172336 227.29800402 -254.27661133 236.14355469 C-254.82157527 236.68855858 -255.3665392 237.23356247 -255.9280172 237.79508164 C-256.47202673 238.33913152 -257.01603626 238.88318141 -257.57653093 239.44371766 C-267.63920576 249.50708177 -277.70516467 259.56715522 -287.7726616 269.62569511 C-291.33668865 273.18670219 -294.89973512 276.74868865 -298.46247864 280.31097984 C-303.2533611 285.10111021 -308.0470233 289.88844226 -312.84256935 294.67390442 C-314.6067382 296.43514235 -316.37005166 298.19723754 -318.13246727 299.96022987 C-320.52908285 302.35733307 -322.92873013 304.75135819 -325.32922363 307.14457703 C-326.03407725 307.85097924 -326.73893086 308.55738146 -327.46514368 309.28518981 C-328.10535377 309.92217545 -328.74556386 310.55916109 -329.40517426 311.21544933 C-329.95924123 311.76881189 -330.51330821 312.32217444 -331.0841651 312.89230555 C-334.16683544 315.70026079 -336.90689946 315.3230974 -340.95288086 315.36108398 C-361.09095093 315.38549512 -361.09095093 315.38549512 -380.50366211 320.18530273 C-381.68186523 320.6197168 -382.86006836 321.05413086 -384.07397461 321.50170898 C-396.675076 326.495882 -406.75584025 333.88056368 -416.50366211 343.18530273 C-417.11725586 343.72413086 -417.73084961 344.26295898 -418.36303711 344.81811523 C-426.21523421 351.98594653 -431.59846115 361.46832041 -435.12866211 371.37280273 C-436.48803711 374.58374023 -436.48803711 374.58374023 -438.50366211 377.18530273 C-443.4927322 379.17461549 -448.17090906 379.83928441 -453.50366211 380.18530273 C-449.948629 343.00873314 -435.55363589 306.02801532 -420.50366211 272.18530273 C-420.12242187 271.32356445 -419.74118164 270.46182617 -419.34838867 269.57397461 C-413.2711613 255.95618031 -406.01010229 243.05889217 -398.50366211 230.18530273 C-397.98868164 229.29601074 -397.47370117 228.40671875 -396.94311523 227.49047852 C-390.04529278 215.6101556 -382.64149349 204.25240676 -374.50366211 193.18530273 C-374.08455566 192.61312012 -373.66544922 192.0409375 -373.23364258 191.45141602 C-362.3424697 176.62474015 -350.61742863 162.48296633 -338.10131836 149.00561523 C-335.7919061 146.49825335 -333.55279782 143.9447216 -331.31616211 141.37280273 C-324.85431616 134.16848256 -317.62061283 127.72916224 -310.50366211 121.18530273 C-309.47343092 120.22987893 -308.44345389 119.27418093 -307.41381836 118.31811523 C-301.81951658 113.16525764 -296.09329669 108.22541796 -290.13989258 103.49145508 C-288.98883312 102.5725998 -287.8424251 101.64790226 -286.69946289 100.71899414 C-268.48233288 85.9281687 -248.78321443 72.9665048 -228.50366211 61.18530273 C-226.85710116 60.16564343 -225.21121513 59.14489305 -223.56616211 58.12280273 C-217.45951224 54.46684788 -211.07682411 51.35709737 -204.6809082 48.24731445 C-202.54974832 47.20778255 -200.42714525 46.15213004 -198.30444336 45.09545898 C-152.83967568 22.73582088 -103.6025666 9.26233124 -53.50366211 2.43530273 C-52.66947754 2.31952881 -51.83529297 2.20375488 -50.97583008 2.08447266 C-34.08395424 -0.05507817 -16.99657403 -0.00116807 0 0 Z " fill="#CFDC96" transform="translate(596.503662109375,142.814697265625)"/>
<path d="M0 0 C306.24 0 612.48 0 928 0 C928 14.625 928 14.625 927.34375 21.05078125 C927.2438678 22.05530586 927.2438678 22.05530586 927.14196777 23.0801239 C926.93398062 25.15824398 926.71721755 27.23532683 926.5 29.3125 C926.35487703 30.74668504 926.21034261 32.18092976 926.06640625 33.61523438 C925.71769161 37.07753458 925.36111768 40.53896874 925 44 C921.09928489 42.54731989 917.5925133 40.72731915 913.984375 38.65625 C913.13247589 38.16771545 913.13247589 38.16771545 912.2633667 37.66931152 C911.05190271 36.97413553 909.84116601 36.27769079 908.63110352 35.58007812 C906.72722899 34.48692551 904.81664441 33.40637637 902.90429688 32.328125 C892.2273023 26.28108574 892.2273023 26.28108574 887.359375 22.71875 C874.88235475 13.77911655 861.88640618 14.97313339 847 16 C859.31364636 23.20114934 871.63910826 30.38023114 884 37.5 C896.36089174 44.61976886 908.68635364 51.79885066 921 59 C920.5385351 67.04346822 919.69150845 74.72707137 917.8125 82.5625 C917.5961792 83.48998047 917.3798584 84.41746094 917.15698242 85.37304688 C914.35980296 97.08170867 910.85519196 108.59886359 907 120 C900.8515537 121.04267057 894.47380182 121.88912542 888.79931641 118.80322266 C884.20833482 115.53554236 880.11853095 111.69884289 876.01660156 107.84667969 C873.06797338 105.14650735 869.92831032 102.73341247 866.75 100.3125 C861.67843022 96.3769676 856.76140905 92.29112727 851.88476562 88.11767578 C847.52304939 84.40179871 843.0431116 80.85961347 838.52050781 77.3425293 C832.94277049 72.99001751 827.49005972 68.49210343 822.03833008 63.98339844 C817.60346698 60.31671969 813.14213487 56.68923025 808.63671875 53.109375 C805.15592977 50.32474382 801.70475954 47.50431373 798.25 44.6875 C794.2950739 41.46384986 790.33580967 38.24858351 786.31640625 35.10546875 C785.73415283 34.64994629 785.15189941 34.19442383 784.55200195 33.72509766 C783.39325237 32.82574535 782.22899199 31.93344833 781.05932617 31.04833984 C778.14982971 28.82036554 775.5272593 26.57371383 773.046875 23.87109375 C768.08882784 18.67192824 764.4651119 15.82200701 757.0703125 15.3125 C751.35859644 15.20155457 745.68725512 15.47886872 740 16 C752.11850295 26.02295884 752.11850295 26.02295884 764.36328125 35.890625 C767.84407023 38.67525618 771.29524046 41.49568627 774.75 44.3125 C779.85375003 48.47255358 784.99237856 52.57972626 790.1875 56.625 C795.27363229 60.5886014 800.21634116 64.68990285 805.11499023 68.88208008 C809.47953203 72.60046176 813.96238696 76.14505256 818.48828125 79.6640625 C823.22736117 83.3615864 827.87171232 87.16501424 832.5 91 C837.71706759 95.32204284 842.96829142 99.58608909 848.3125 103.75 C852.88380617 107.31538243 857.40940525 110.92777277 861.875 114.625 C862.86242187 115.44226563 863.84984375 116.25953125 864.8671875 117.1015625 C865.57101562 117.72804688 866.27484375 118.35453125 867 119 C867 119.33 867 119.66 867 120 C856.25568366 120.27913069 845.51224154 120.49179921 834.76502609 120.62174606 C829.77335514 120.68414553 824.78417986 120.76863899 819.79394531 120.90527344 C814.96965644 121.03652408 810.14775304 121.10758264 805.32181549 121.13852692 C803.48923451 121.16055011 801.65677138 121.20356096 799.8252182 121.26876068 C783.99898682 121.80927758 783.99898682 121.80927758 777.57075882 115.83525467 C775.20144596 113.33665148 773.10009817 110.73175337 771 108 C769.73754205 106.55513893 768.46890803 105.11558161 767.1875 103.6875 C766.65511719 103.06230469 766.12273438 102.43710937 765.57421875 101.79296875 C763.41541177 99.33417866 761.08333895 97.07292218 758.75 94.78125 C756.29365151 92.28103815 754.03690632 89.62319484 751.75 86.96875 C750.06201714 85.06976929 748.31230266 83.27994012 746.5 81.5 C743.40643357 78.46167583 740.57894493 75.2523468 737.75 71.96875 C735.55005105 69.49380743 733.20618555 67.19286326 730.84350586 64.87475586 C729.06663359 63.06776312 727.40563127 61.20655066 725.75390625 59.28515625 C722.08596017 55.06706668 718.28328695 50.99317858 714.4375 46.9375 C713.03233353 45.44942509 711.62739016 43.96113949 710.22265625 42.47265625 C709.16908936 41.35721436 709.16908936 41.35721436 708.09423828 40.21923828 C704.84698589 36.77816527 701.6082908 33.3291907 698.375 29.875 C697.54246704 28.98929321 697.54246704 28.98929321 696.69311523 28.08569336 C696.16274658 27.51858643 695.63237793 26.95147949 695.0859375 26.3671875 C694.56563965 25.81973877 694.0453418 25.27229004 693.50927734 24.70825195 C692 23 692 23 690.63525391 21.03198242 C688.56995777 18.14806608 687.19892935 16.28157242 683.65478516 15.44921875 C680.94392691 15.31157577 678.33320935 15.38671751 675.625 15.5625 C674.69816406 15.59408203 673.77132812 15.62566406 672.81640625 15.65820312 C670.54095763 15.74030694 668.27216254 15.85500225 666 16 C666.64066406 16.6290625 667.28132812 17.258125 667.94140625 17.90625 C669.23884766 19.19015625 669.23884766 19.19015625 670.5625 20.5 C671.83287109 21.75296875 671.83287109 21.75296875 673.12890625 23.03125 C675.94081521 25.8778433 678.54314055 28.88933914 681.16333008 31.91162109 C684.21037134 35.37624836 687.38804069 38.71495989 690.5625 42.0625 C691.97812478 43.56095214 693.39348445 45.05965478 694.80859375 46.55859375 C695.51226074 47.30351074 696.21592773 48.04842773 696.94091797 48.81591797 C700.01356964 52.07510007 703.07071291 55.34861448 706.125 58.625 C706.69420166 59.23545166 707.26340332 59.84590332 707.84985352 60.47485352 C708.99408109 61.70221498 710.13820594 62.9296722 711.28222656 64.15722656 C714.18659237 67.27293906 717.09343299 70.38634111 720 73.5 C721.16667826 74.74998918 722.33334493 75.99998917 723.5 77.25 C724.0775 77.86875 724.655 78.4875 725.25 79.125 C727 81 728.75 82.875 730.5 84.75 C731.07806396 85.36931396 731.65612793 85.98862793 732.25170898 86.62670898 C733.41284158 87.87086069 734.57381289 89.11516295 735.73461914 90.35961914 C738.73462037 93.5753811 741.73777781 96.78810738 744.74609375 99.99609375 C762 118.40779817 762 118.40779817 762 120 C754.06433658 120.56110751 746.13715753 120.98470205 738.18645477 121.24349213 C734.49161048 121.36786996 730.81047041 121.53549029 727.12353516 121.81054688 C703.60805075 123.51718822 703.60805075 123.51718822 696.24899292 117.90023804 C691.23521251 112.33083293 687.91584856 105.90779965 684.64056396 99.21307373 C682.16435805 94.36338037 679.09494547 90.00044686 675.97265625 85.55078125 C674.82917541 83.86062783 673.68888293 82.168313 672.55175781 80.47387695 C670.14781292 76.91251336 667.73262708 73.35904439 665.31152344 69.80932617 C659.67173416 61.523815 654.08422382 53.23349179 648.83006287 44.69636536 C646.67870853 41.20628785 644.48570052 37.74333514 642.28952026 34.28134155 C641.27402585 32.65285061 640.27997724 31.01076207 639.30935669 29.35513306 C634.63718816 20.65801795 634.63718816 20.65801795 626.83325195 15.34417725 C621.78191626 14.67380988 617.00169761 15.15887257 612 16 C612.66604248 16.98653564 613.33208496 17.97307129 614.01831055 18.98950195 C616.63988949 22.87262425 619.26133894 26.75583396 621.88275146 30.6390686 C623.08719277 32.42324581 624.2916606 34.20740512 625.49615479 35.99154663 C632.59895351 46.51259822 639.69911774 57.03541292 646.79296875 67.5625 C648.07396645 69.46314027 649.35497223 71.36377508 650.63598633 73.2644043 C652.47894373 75.99880692 654.32169375 78.7333478 656.16366577 81.46841431 C657.88715169 84.02752795 659.61145209 86.58609105 661.3359375 89.14453125 C661.883069 89.95718948 662.4302005 90.76984772 662.99391174 91.60713196 C665.88419262 95.89284068 668.79652029 100.16173051 671.73925781 104.41162109 C672.34468414 105.28799728 672.95011047 106.16437347 673.57388306 107.06730652 C674.73564677 108.74648996 675.90131964 110.42297731 677.07138062 112.09638977 C677.5874588 112.84277206 678.10353699 113.58915436 678.63525391 114.3581543 C679.32211777 115.34370552 679.32211777 115.34370552 680.02285767 116.34916687 C681 118 681 118 681 120 C664.83 120 648.66 120 632 120 C629.421875 114.864375 626.84375 109.72875 624.1875 104.4375 C623.40012451 102.87185303 622.61274902 101.30620605 621.80151367 99.69311523 C617.19521226 90.51065909 612.71924227 81.2714466 608.30172729 71.99679565 C602.88919694 60.64433252 597.35021268 49.35427675 591.8125 38.0625 C590.75445871 35.90304309 589.69651562 33.74353806 588.63867188 31.58398438 C586.09357234 26.3887711 583.54717035 21.19419826 581 16 C575.72 15.67 570.44 15.34 565 15 C565.59200195 16.20906006 566.18400391 17.41812012 566.79394531 18.66381836 C573.34285262 32.03956164 579.88878659 45.41675788 586.43237305 58.79510498 C587.45263796 60.88095961 588.47297902 62.966777 589.4934082 65.05255127 C592.24068051 70.66803986 594.98661268 76.28417938 597.73034668 81.90139771 C598.56492482 83.60953066 599.39995383 85.31744342 600.23547363 87.02511597 C604.22153436 95.17287891 608.18989259 103.32882473 612.0625 111.53125 C612.36188477 112.15898315 612.66126953 112.78671631 612.96972656 113.43347168 C615 117.76664659 615 117.76664659 615 120 C601.47 120 587.94 120 574 120 C572.4840625 115.0190625 572.4840625 115.0190625 570.9375 109.9375 C570.4261853 108.25901978 570.4261853 108.25901978 569.90454102 106.54663086 C568.31431083 101.32589956 566.72824116 96.10398318 565.15234375 90.87890625 C561.43869681 78.58108613 561.43869681 78.58108613 557.4375 66.375 C555.12858932 59.57696133 553.17398567 52.69922739 551.24121094 45.78588867 C549.71207523 40.3580519 548.03914806 35.01328994 546.1875 29.6875 C544.48508542 24.72212415 543.32058431 20.23621033 543 15 C537.72 15 532.44 15 527 15 C527.49628906 16.53785156 527.99257813 18.07570313 528.50390625 19.66015625 C532.58264433 32.33305323 536.56165302 45.03000268 540.4140625 57.7734375 C541.76930907 62.25368513 543.1561481 66.72307111 544.5625 71.1875 C546.66603276 77.88305854 548.68430652 84.60181892 550.6862793 91.32836914 C552.76203412 98.27506756 554.93815185 105.18763596 557.17163086 112.08520508 C559 117.78649857 559 117.78649857 559 120 C546.46 120 533.92 120 521 120 C519.63834335 113.87254508 518.48684124 107.93752703 517.66015625 101.74609375 C516.46941322 93.13944496 515.16984123 84.55395862 513.80859375 75.97265625 C513.61609039 74.75847015 513.42358704 73.54428406 513.22525024 72.29330444 C512.63053048 68.54951139 512.03421566 64.80597542 511.4375 61.0625 C510.83549664 57.28197709 510.23400493 53.50137535 509.63380432 49.7205658 C509.26423813 47.39288798 508.89366696 45.06536937 508.52183533 42.73805237 C507.60613781 36.97387577 506.72043377 31.20577981 505.87133789 25.43139648 C505.70428848 24.29661362 505.53723907 23.16183075 505.36512756 21.99266052 C505 19 505 19 505 15 C500.05 15 495.1 15 490 15 C490.25394531 16.58425781 490.50789063 18.16851563 490.76953125 19.80078125 C492.47704259 30.4593872 494.18080537 41.11849556 495.85913086 51.78173828 C496.6904475 57.05687048 497.53296071 62.33013481 498.37988281 67.6027832 C499.25707199 73.06791398 500.12876528 78.5339173 501 84 C501.10759644 84.67373657 501.21519287 85.34747314 501.3260498 86.04162598 C502.02367105 90.41043843 502.71780059 94.77978407 503.40777588 99.14981079 C503.63467764 100.58371905 503.86265243 102.01745795 504.09173584 103.45101929 C504.41302595 105.46297734 504.7300357 107.47561749 505.046875 109.48828125 C505.23088867 110.64884033 505.41490234 111.80939941 505.60449219 113.00512695 C506 116 506 116 506 120 C494.45 120 482.9 120 471 120 C471 85.35 471 50.7 471 15 C466.38 15 461.76 15 457 15 C457 49.65 457 84.3 457 120 C445.45 120 433.9 120 422 120 C424.31118298 100.35494471 424.31118298 100.35494471 425.875 90.875 C426.12999268 89.30129639 426.12999268 89.30129639 426.39013672 87.69580078 C427.7378363 79.43758289 429.18499664 71.19782473 430.64013672 62.95800781 C431.73131084 56.71809236 432.64301568 50.47762924 433.4296875 44.19140625 C434.70540809 34.42839161 436.41764253 24.71690388 438 15 C433.05 15 428.1 15 423 15 C422.76023437 17.39121094 422.52046875 19.78242187 422.2734375 22.24609375 C420.87573706 35.2539625 418.70029315 48.14947082 416.625 61.0625 C416.23399093 63.51491275 415.84336412 65.96738649 415.453125 68.41992188 C414.49580647 74.43063415 413.53283622 80.44042542 412.56848145 86.45001221 C411.99458481 90.03381616 411.4240492 93.61814071 410.85449219 97.20263672 C410.67236176 98.3470372 410.49023132 99.49143768 410.30258179 100.67051697 C409.95925766 102.82824743 409.6166258 104.98608819 409.27481079 107.14405823 C409.12144257 108.10641891 408.96807434 109.0687796 408.81005859 110.06030273 C408.67715424 110.89730209 408.54424988 111.73430145 408.40731812 112.59666443 C407.98757426 115.07331669 407.49263777 117.53681114 407 120 C394.46 120 381.92 120 369 120 C370.485 115.05 370.485 115.05 372 110 C372.4826858 108.32075844 372.9609514 106.64021997 373.4296875 104.95703125 C375.98277403 95.86384635 378.66139197 86.8743927 381.71875 77.9375 C383.30726982 73.17194054 384.64302848 68.33550257 386 63.5 C388.03598661 56.24485989 390.26073341 49.11720995 392.703125 41.98828125 C394.69386618 36.01761785 396.34302557 29.93994198 398.03320312 23.87890625 C398.27490234 23.01523437 398.51660156 22.1515625 398.765625 21.26171875 C398.97993164 20.48787842 399.19423828 19.71403809 399.41503906 18.91674805 C400 17 400 17 401 15 C395.72 15 390.44 15 385 15 C384.75894531 16.35996094 384.51789063 17.71992187 384.26953125 19.12109375 C382.90719084 25.92322711 380.79185676 32.45970881 378.6875 39.0625 C377.86487975 41.6711509 377.04584056 44.28092284 376.2265625 46.890625 C375.64116699 48.75170898 375.64116699 48.75170898 375.04394531 50.65039062 C373.83615393 54.52571752 372.68724218 58.4123149 371.5625 62.3125 C368.78904372 71.92337502 365.74977888 81.45436328 362.74047852 90.9934082 C359.70844667 100.63372988 356.85289063 110.30017185 354 120 C340.47 120 326.94 120 313 120 C314.96204953 114.1138514 316.65956561 109.31933639 319.40625 103.9296875 C319.72688416 103.29544357 320.04751831 102.66119965 320.37786865 102.00773621 C321.0602478 100.65905238 321.74525618 99.31169598 322.43273926 97.96560669 C324.26537593 94.37574121 326.07675407 90.77515453 327.890625 87.17578125 C328.25105896 86.4617363 328.61149292 85.74769135 328.98284912 85.01200867 C331.81295835 79.39688232 334.56029864 73.74630507 337.25 68.0625 C342.64014822 56.68569526 348.16352246 45.37478274 353.6875 34.0625 C354.14781616 33.11972198 354.60813232 32.17694397 355.08239746 31.20559692 C357.72040641 25.8031484 360.35967514 20.40131703 363 15 C357.64519237 14.68805389 352.17869631 14.37467983 347 16 C343.39069965 19.28470956 341.92806606 23.12575244 340.1875 27.625 C339.24405987 29.78410345 338.3000224 31.94294596 337.35546875 34.1015625 C336.84798096 35.31706787 336.34049316 36.53257324 335.81762695 37.78491211 C328.04833181 56.10297625 318.7061274 73.83454884 309.9375 91.6875 C308.80002903 94.00580974 307.66265882 96.32416891 306.52539062 98.64257812 C304.46665482 102.83842478 302.4077323 107.03417913 300.34741211 111.22924805 C299.73765785 112.47087959 299.73765785 112.47087959 299.11558533 113.7375946 C298.08445422 115.82872697 297.04269515 117.91460969 296 120 C279.83 120 263.66 120 247 120 C248.82219176 115.4445206 250.98458668 111.88953779 253.78125 107.9375 C254.78341136 106.50059892 255.78467323 105.06307018 256.78515625 103.625 C257.575271 102.49191406 257.575271 102.49191406 258.38134766 101.3359375 C261.11290082 97.39393136 263.79036566 93.41574177 266.46875 89.4375 C267.03052444 88.60402542 267.59229889 87.77055084 268.1710968 86.91181946 C269.94802218 84.27496633 271.72400672 81.63748099 273.5 79 C275.39722581 76.1843122 277.29471948 73.36880502 279.19221497 70.55329895 C280.49144547 68.62545029 281.79058856 66.69754272 283.08964539 64.76957703 C290.157879 54.27979979 297.23489863 43.79595792 304.3125 33.3125 C305.49870511 31.5553434 306.68490323 29.79818207 307.87109375 28.04101562 C310.58063097 24.02727745 313.29027821 20.01361357 316 16 C306.28652486 14.25080729 306.28652486 14.25080729 297.25512695 17.21051025 C293.08988101 21.45975698 290.23992032 26.71246496 287.25 31.8125 C286.21166199 33.47762393 285.1666575 35.13860684 284.11547852 36.7956543 C281.88039537 40.32851955 279.67406482 43.87724278 277.48291016 47.4375 C272.1760709 55.99172934 266.46330637 64.27483278 260.79211426 72.58969116 C258.42937738 76.05848842 256.07835792 79.53493823 253.73959351 83.01994324 C252.59866273 84.70632746 251.44333896 86.38306354 250.27383423 88.04975891 C247.00798396 92.75186372 244.23116827 97.43124128 241.71337891 102.57763672 C233.54239535 118.37134295 233.54239535 118.37134295 225.60519409 121.2171936 C216.64483914 122.83610225 207.73283082 122.32205263 198.69696045 121.64794922 C195.00576191 121.39937399 191.31048757 121.2922166 187.61328125 121.171875 C180.39790021 120.91674926 173.20239442 120.50926021 166 120 C166.94526603 118.72111551 167.8931162 117.4441408 168.84204102 116.16796875 C169.36959488 115.45664795 169.89714874 114.74532715 170.44068909 114.01245117 C172.41906721 111.45915065 174.60827124 109.23485158 176.9375 107 C180.59984301 103.41989523 184.02755171 99.7523459 187.35546875 95.86328125 C189.54273742 93.38506948 191.89279879 91.09635833 194.25 88.78125 C196.08242487 86.91610326 197.79353135 84.98072254 199.5 83 C202.28239332 79.77043633 205.21019429 76.76677347 208.25 73.78125 C210.08242487 71.91610326 211.79353135 69.98072254 213.5 68 C216.28239332 64.77043633 219.21019429 61.76677347 222.25 58.78125 C224.08242487 56.91610326 225.79353135 54.98072254 227.5 53 C230.25445246 49.80286768 233.14911803 46.82564484 236.15966797 43.87133789 C237.9184132 42.08296137 239.56151629 40.24232073 241.1953125 38.33984375 C245.1397048 33.80285197 249.24213764 29.42750288 253.375 25.0625 C254.09816406 24.29615234 254.82132813 23.52980469 255.56640625 22.74023438 C260.75496032 17.24503968 260.75496032 17.24503968 262 16 C249.86649224 14.39989586 249.86649224 14.39989586 238.71484375 18.14453125 C236.4108088 20.74048013 234.35706516 23.34859198 232.35888672 26.17773438 C229.90660741 29.46623828 227.02101573 32.3538851 224.1875 35.3125 C222.99449668 36.58574505 221.80310153 37.86049872 220.61328125 39.13671875 C219.40886541 40.42448968 218.20443832 41.71225009 217 43 C214.62434375 45.54105413 212.24933429 48.08271059 209.875 50.625 C209.29186035 51.24938965 208.7087207 51.8737793 208.10791016 52.51708984 C204.4120659 56.47773571 200.73205338 60.45249811 197.0625 64.4375 C191.34390545 70.64636923 185.5703165 76.80286796 179.79296875 82.95703125 C176.16771183 86.81922097 172.55093738 90.68925306 168.9375 94.5625 C168.08925659 95.47153076 168.08925659 95.47153076 167.22387695 96.39892578 C164.18696853 99.65402153 161.15160131 102.91054745 158.1171875 106.16796875 C157.48047119 106.85109131 156.84375488 107.53421387 156.18774414 108.23803711 C154.96771701 109.54701297 153.74812957 110.85639883 152.52905273 112.16625977 C151.97934814 112.75592529 151.42964355 113.34559082 150.86328125 113.953125 C150.38157471 114.47036133 149.89986816 114.98759766 149.40356445 115.52050781 C148.94038818 116.00874023 148.47721191 116.49697266 148 117 C147.64211395 117.51849014 147.28422791 118.03698029 146.91549683 118.57118225 C143.88232662 120.83370097 140.58429609 120.3911976 136.94848633 120.34057617 C136.12874832 120.34101425 135.30901031 120.34145233 134.46443176 120.34190369 C131.75338977 120.33981271 129.04296528 120.31646736 126.33203125 120.29296875 C124.45302163 120.28737389 122.57400763 120.28310327 120.69499207 120.28010559 C115.74813771 120.26864817 110.80154737 120.23917326 105.85479736 120.20599365 C100.80753145 120.17531211 95.7602229 120.16160435 90.71289062 120.14648438 C80.80847772 120.11430444 70.90426081 120.06309722 61 120 C64.58968596 116.37470884 68.27744618 112.9619293 72.1875 109.6875 C73.04831177 108.96312744 73.04831177 108.96312744 73.92651367 108.22412109 C77.97763714 104.82684139 82.07904753 101.49883834 86.22265625 98.21484375 C89.75363216 95.3990022 93.25024119 92.54197784 96.75 89.6875 C101.85367271 85.52735335 106.99238065 81.42027211 112.1875 77.375 C117.27363229 73.4113986 122.21634116 69.31009715 127.11499023 65.11791992 C131.47953203 61.39953824 135.96238696 57.85494744 140.48828125 54.3359375 C145.22736293 50.63841223 149.87166753 46.83493376 154.5 43 C160.29636598 38.19904866 166.14707339 33.4838803 172.08251953 28.85620117 C177.46093765 24.65820015 182.74092375 20.34678751 188 16 C173.47361965 14.25987606 173.47361965 14.25987606 160.30810547 19.22412109 C158.05397629 21.17262866 155.89566764 23.19381902 153.78076172 25.29248047 C150.45925254 28.47737698 146.82553348 31.29552439 143.25 34.1875 C141.79681003 35.3863657 140.34494171 36.58683559 138.89453125 37.7890625 C135.17356924 40.86340203 131.41572416 43.88795177 127.63671875 46.890625 C124.15592977 49.67525618 120.70475954 52.49568627 117.25 55.3125 C112.14624997 59.47255358 107.00762144 63.57972626 101.8125 67.625 C96.72636771 71.5886014 91.78365884 75.68990285 86.88500977 79.88208008 C82.52046797 83.60046176 78.03761304 87.14505256 73.51171875 90.6640625 C69.51449183 93.78277801 65.57936337 96.96770276 61.67456055 100.20141602 C60.22720156 101.39852994 58.77553641 102.59045689 57.31958008 103.77709961 C53.91997292 106.55097918 50.58777194 109.35098799 47.37109375 112.3359375 C41.13729451 117.94916562 36.74270515 120.90310958 28.125 120.6875 C25.72379247 120.54726359 23.38826862 120.30706311 21 120 C13.86730205 100.67268943 9.16348331 80.3332286 6 60 C14.66589533 54.59439064 23.4237684 49.40819525 32.3125 44.375 C34.76526035 42.98081074 37.21677057 41.58443366 39.66796875 40.1875 C40.58642578 39.66426651 40.58642578 39.66426651 41.5234375 39.13046265 C47.74536023 35.58206093 53.93915216 31.9858964 60.125 28.375 C61.07673096 27.81989746 62.02846191 27.26479492 63.0090332 26.69287109 C69.03220789 23.17172927 75.02508979 19.60240056 81 16 C61.00566517 13.97113685 48.52064707 16.58737289 32.03222656 27.96289062 C26.72081278 31.53120275 21.16446363 34.67749757 15.625 37.875 C14.07184082 38.79369873 14.07184082 38.79369873 12.48730469 39.73095703 C11.53500977 40.29153809 10.58271484 40.85211914 9.6015625 41.4296875 C8.75932129 41.92710449 7.91708008 42.42452148 7.04931641 42.93701172 C5 44 5 44 3 44 C2.48146563 40.04387695 1.9889287 36.08488196 1.5 32.125 C1.35691406 31.03574219 1.21382812 29.94648437 1.06640625 28.82421875 C-0.12497061 19.00954269 0 10.10580506 0 0 Z " fill="#CFDC96" transform="translate(136,630)"/>
<path d="M0 0 C3.69209537 -0.00217481 7.38388533 -0.020363 11.07592773 -0.03930664 C33.12626874 -0.09274161 54.95168524 1.343823 76.79272461 4.37280273 C77.55700775 4.47723694 78.32129089 4.58167114 79.10873413 4.68927002 C103.50716547 8.05459245 127.55886911 12.91722403 151.06884766 20.3293457 C154.08769102 21.27799362 157.11598995 22.19308816 160.14428711 23.11108398 C198.93242215 35.05752158 237.33682036 51.5982662 271.79272461 73.18530273 C273.33809827 74.13614749 274.88368174 75.0866513 276.42944336 76.03686523 C291.4272468 85.3224434 305.80413993 95.44340548 319.79272461 106.18530273 C320.32929687 106.59570801 320.86586914 107.00611328 321.41870117 107.42895508 C328.22146254 112.64571242 334.86919321 118.01627618 341.35522461 123.62280273 C341.90734619 124.09943359 342.45946777 124.57606445 343.02832031 125.06713867 C353.54936144 134.2525331 363.64273996 143.86730095 373.49731445 153.75952148 C375.18448419 155.4521162 376.87702656 157.1392087 378.57006836 158.82592773 C384.19085619 164.44296967 389.66904979 170.10432352 394.79272461 176.18530273 C395.66943975 177.1951898 396.546996 178.2043475 397.42553711 179.21264648 C404.31888183 187.26208506 410.8001562 195.57812199 417.17407227 204.04321289 C418.73824372 206.11320389 420.3161281 208.17193833 421.89819336 210.22827148 C429.05248928 219.5700734 435.59338628 229.18630634 441.79272461 239.18530273 C442.64157227 240.54824463 442.64157227 240.54824463 443.50756836 241.9387207 C453.43111825 257.94711395 462.37856309 274.33851601 470.79272461 291.18530273 C471.25517578 292.10230957 471.71762695 293.01931641 472.1940918 293.96411133 C496.6392576 342.64480878 511.62790145 396.4688869 518.54272461 450.37280273 C518.703228 451.61913986 518.703228 451.61913986 518.86697388 452.89065552 C519.17622941 455.31500173 519.47832258 457.74011323 519.77709961 460.16577148 C519.8654155 460.86723297 519.95373138 461.56869446 520.04472351 462.29141235 C521.45043597 473.99213156 521.95001413 485.67641907 521.96069336 497.45483398 C521.96402176 498.77408371 521.96735016 500.09333344 521.97077942 501.45256042 C521.97671143 504.22993792 521.97862581 507.0072846 521.97802734 509.78466797 C521.97794663 512.57379722 521.98481156 515.3627603 521.99853516 518.15185547 C522.11478665 542.19676735 520.80532451 565.86068976 517.48022461 589.68530273 C517.37290009 590.46658539 517.26557556 591.24786804 517.15499878 592.05282593 C515.24613248 605.88410853 512.89211472 619.56613582 509.79272461 633.18530273 C509.47464844 634.60963623 509.47464844 634.60963623 509.15014648 636.06274414 C503.25317899 662.1282206 494.38321353 687.2809686 484.79272461 712.18530273 C472.25272461 712.18530273 459.71272461 712.18530273 446.79272461 712.18530273 C452.79272461 696.18530273 452.79272461 696.18530273 455.79272461 689.18530273 C456.31926669 687.74329889 456.82585144 686.29363583 457.30053711 684.83374023 C457.54835938 684.07158203 457.79618164 683.30942383 458.05151367 682.52416992 C464.56248508 661.97900982 469.98021254 641.1889513 474.79272461 620.18530273 C475.06987305 618.99549805 475.34702148 617.80569336 475.63256836 616.57983398 C485.1474086 572.70870573 498.6863417 488.97253691 477.79272461 447.18530273 C477.54043164 445.33414103 477.31703969 443.47903164 477.10522461 441.62280273 C475.6907636 431.37581854 473.10982547 421.40728333 470.59399414 411.3840332 C469.8451861 408.39473308 469.11284328 405.40182813 468.38256836 402.40795898 C455.32032701 349.7139506 431.90049886 298.68376708 400.79272461 254.18530273 C400.13796143 253.24340088 400.13796143 253.24340088 399.4699707 252.2824707 C390.78811353 239.82960632 381.52846369 227.8331346 371.79272461 216.18530273 C371.3629834 215.66919434 370.93324219 215.15308594 370.49047852 214.62133789 C357.69246248 199.29757825 344.11558857 184.04912325 328.93334961 171.04858398 C326.46085975 168.89643496 324.07001104 166.66549554 321.66772461 164.43530273 C315.90420974 159.1863874 309.85796664 154.38454878 303.67602539 149.64038086 C301.79446945 148.18665083 299.93127766 146.7118367 298.07006836 145.23217773 C274.04352436 126.28718597 247.56879205 109.34725552 219.92944336 96.21313477 C217.53687013 95.06222831 215.16544425 93.8726771 212.79272461 92.68139648 C196.86601624 84.76800061 180.47293026 78.29826947 163.79272461 72.18530273 C162.20524414 71.60304932 162.20524414 71.60304932 160.58569336 71.0090332 C111.04203407 53.09572127 58.27252071 45.74326324 5.79272461 45.81030273 C4.32392375 45.81019039 2.85512288 45.81006825 1.38632202 45.80993652 C-21.35196311 45.82509976 -43.69767905 46.7607866 -66.20727539 50.18530273 C-67.29089355 50.34015137 -68.37451172 50.495 -69.4909668 50.65454102 C-118.96937691 57.81119716 -167.8333889 74.05444711 -212.15063477 97.12231445 C-214.42613421 98.29842136 -216.71473654 99.44668641 -219.00415039 100.59545898 C-256.00244744 119.3428119 -293.72005596 144.61713841 -322.65649414 174.63061523 C-324.33124497 176.30958458 -326.08920266 177.83567564 -327.89477539 179.37280273 C-335.63483326 186.05876712 -342.89130785 193.42670716 -349.51586914 201.21655273 C-351.44595381 203.4631178 -353.45145678 205.63114178 -355.45727539 207.81030273 C-360.54202141 213.44661442 -365.17248914 219.39644899 -369.81323242 225.3972168 C-371.14677028 227.10769513 -372.49853893 228.80138275 -373.85961914 230.48999023 C-387.95653626 248.02663832 -399.91796993 266.7439024 -411.20727539 286.18530273 C-411.90264404 287.3710791 -411.90264404 287.3710791 -412.61206055 288.58081055 C-426.12907198 311.7098036 -436.89335029 336.10683335 -446.20727539 361.18530273 C-446.52132324 362.01980957 -446.83537109 362.85431641 -447.15893555 363.71411133 C-458.98571412 395.24992055 -467.28204532 429.74706461 -471.20727539 463.18530273 C-471.35390625 464.43021484 -471.50053711 465.67512695 -471.65161133 466.95776367 C-475.70791567 502.62271552 -476.12666434 539.49543221 -472.20727539 575.18530273 C-472.07836914 576.37607422 -471.94946289 577.5668457 -471.81665039 578.79370117 C-469.87281726 596.11271445 -466.86136086 613.06539628 -462.93334961 630.0402832 C-462.26860118 632.91966762 -461.62693428 635.80304087 -460.99243164 638.68920898 C-456.57896949 658.40849837 -450.48238582 677.64201277 -443.06665039 696.43139648 C-441.0258182 701.64923845 -439.12197827 706.91986982 -437.20727539 712.18530273 C-449.74727539 712.18530273 -462.28727539 712.18530273 -475.20727539 712.18530273 C-476.93977539 707.46217773 -478.67227539 702.73905273 -480.45727539 697.87280273 C-480.99513672 696.40673584 -481.53299805 694.94066895 -482.0871582 693.43017578 C-482.7697782 691.5688398 -483.45229354 689.70746489 -484.13320923 687.84550476 C-485.19388312 684.94527266 -486.25897505 682.04704345 -487.34057617 679.15454102 C-505.85946279 629.33437129 -512.42484831 574.10277369 -512.33764648 521.24169922 C-512.33230132 517.39147986 -512.33761108 513.54137787 -512.34399414 509.69116211 C-512.35176617 489.60337883 -511.5882823 469.97575612 -508.95727539 450.06030273 C-508.79304077 448.79636688 -508.79304077 448.79636688 -508.62548828 447.50689697 C-506.7644311 433.25905974 -504.38953276 419.20286908 -501.20727539 405.18530273 C-500.91385254 403.85523193 -500.91385254 403.85523193 -500.61450195 402.49829102 C-492.86410126 367.46673782 -480.91740531 333.85705539 -466.20727539 301.18530273 C-465.60834473 299.84870605 -465.60834473 299.84870605 -464.99731445 298.48510742 C-452.7453559 271.33527733 -437.48624559 245.42842062 -420.20727539 221.18530273 C-419.45196533 220.1133667 -419.45196533 220.1133667 -418.68139648 219.01977539 C-410.94634941 208.04414569 -402.83567354 197.47280337 -394.20727539 187.18530273 C-393.6980957 186.57702637 -393.18891602 185.96875 -392.66430664 185.34204102 C-391.16371959 183.55551305 -389.65633889 181.77505017 -388.14477539 179.99780273 C-387.51236938 179.25191895 -387.51236938 179.25191895 -386.8671875 178.4909668 C-377.90824513 168.06565416 -368.36739587 158.17800692 -358.63305664 148.48071289 C-356.94046192 146.79354315 -355.25336942 145.10100078 -353.56665039 143.40795898 C-347.94960845 137.78717116 -342.2882546 132.30897755 -336.20727539 127.18530273 C-335.19738833 126.30858759 -334.18823063 125.43103134 -333.17993164 124.55249023 C-325.13049306 117.65914552 -316.81445614 111.17787114 -308.34936523 104.80395508 C-306.27937423 103.23978362 -304.22063979 101.66189924 -302.16430664 100.07983398 C-292.82327359 92.92864439 -283.17248516 86.4321131 -273.20727539 80.18530273 C-272.14379883 79.51112305 -271.08032227 78.83694336 -269.98461914 78.14233398 C-266.74843366 76.11710823 -263.48727568 74.13835868 -260.20727539 72.18530273 C-259.50812012 71.76732422 -258.80896484 71.3493457 -258.08862305 70.91870117 C-179.85751877 24.43523764 -90.91763908 -0.00596533 0 0 Z " fill="#CFDC96" transform="translate(595.207275390625,82.814697265625)"/>
<path d="M0 0 C3.5348189 1.66878326 5.87183522 3.60029492 8.67050171 6.35597229 C9.60444763 7.27127213 10.53839355 8.18657196 11.50064087 9.12960815 C12.52839427 10.14689733 13.556008 11.16432762 14.58349609 12.18188477 C15.67071626 13.25165785 16.7582903 14.32107138 17.84619141 15.39015198 C21.41298985 18.89945831 24.96889088 22.4196967 28.5234375 25.94140625 C29.12852662 26.54054927 29.73361573 27.13969228 30.35704088 27.75699115 C36.06320327 33.40725512 41.76575634 39.06113323 47.45880699 44.72461033 C54.73981037 51.96742884 62.03872245 59.19107619 69.36358202 66.38954693 C74.51402176 71.45411144 79.64327567 76.53952193 84.75723326 81.64091915 C87.81217564 84.68724572 90.87569304 87.72360795 93.96216965 90.7380085 C96.86416538 93.57314803 99.73905342 96.43318825 102.5952301 99.31445885 C103.64752865 100.36692448 104.70929178 101.41002425 105.78094864 102.44277191 C113.8779413 110.26135766 113.8779413 110.26135766 114.18027115 114.56783867 C113.68251448 116.89556687 112.97732818 118.83656925 112 121 C111.59587891 122.66869141 111.59587891 122.66869141 111.18359375 124.37109375 C110.68665002 126.41350647 110.18665445 128.45517908 109.68359375 130.49609375 C105.82081985 150.29556909 105.13942132 173.09152269 116.25 190.625 C123.06133462 199.41620195 132.26683991 203.21113999 143 205 C143 232.72 143 260.44 143 289 C135.125 282.25 135.125 282.25 131.71704102 278.83056641 C130.95678116 278.07023102 130.1965213 277.30989563 129.41322327 276.52651978 C128.61814865 275.72628387 127.82307404 274.92604797 127.00390625 274.1015625 C126.17036118 273.26660248 125.3368161 272.43164246 124.47801208 271.57138062 C121.83713476 268.92494152 119.19977104 266.27503241 116.5625 263.625 C114.76390351 261.82138357 112.96507773 260.01799575 111.16601562 258.21484375 C106.77468752 253.81253739 102.38623271 249.40738286 98 245 C98.21153214 244.45540131 98.42306427 243.91080261 98.64100647 243.34970093 C98.91553146 242.63279083 99.19005646 241.91588074 99.47290039 241.17724609 C99.74630753 240.4676474 100.01971466 239.75804871 100.30140686 239.02694702 C102.68393221 232.11412124 101.25833271 224.8986583 98.3203125 218.40625 C89.16318485 201.71752031 71.05179459 190.26598072 53.19140625 184.84375 C47.50717085 183.25995866 41.83683755 181.89384955 36 181 C36.59718926 205.12644628 43.04570052 229.97372273 59.9453125 248.08984375 C64.96759065 252.75884378 70.32267434 256.14914448 77.3125 256.125 C78.42044922 256.12886719 78.42044922 256.12886719 79.55078125 256.1328125 C82.09112221 256.0867506 82.09112221 256.0867506 84.79495239 255.19613647 C88 255 88 255 90.80953979 256.88027954 C91.8005636 257.81153023 92.77299609 258.76280676 93.72998047 259.72900391 C94.26730301 260.24442245 94.80462555 260.759841 95.35823059 261.2908783 C97.13002241 263.00125657 98.87431255 264.73675833 100.6171875 266.4765625 C101.84114216 267.68055563 103.06568934 268.88394668 104.290802 270.08676147 C106.85672814 272.61527145 109.40800567 275.1575934 111.95117188 277.70898438 C115.19976484 280.9638599 118.49156718 284.17071618 121.79754448 287.36715126 C124.34241182 289.84137506 126.8567287 292.34500715 129.36362076 294.85764694 C130.56447231 296.05211677 131.77572775 297.23622657 132.99761581 298.40916824 C134.71341305 300.06299008 136.38227833 301.75384944 138.04638672 303.45947266 C138.80368324 304.16315727 138.80368324 304.16315727 139.57627869 304.88105774 C144.99780429 310.63671327 143 313.92391857 143 323 C107.36 323 71.72 323 35 323 C33.35 319.04 31.7 315.08 30 311 C15.61831688 280.97692428 -6.47316595 258.56935498 -38.1105957 247.27050781 C-38.85784912 247.01624023 -39.60510254 246.76197266 -40.375 246.5 C-41.05071045 246.26893555 -41.7264209 246.03787109 -42.42260742 245.79980469 C-53.15360255 242.41174586 -64.18523977 241.63594542 -75.375 241.6875 C-76.55022217 241.68878906 -77.72544434 241.69007813 -78.9362793 241.69140625 C-86.59647677 241.7760201 -93.67102706 242.43123279 -101.08203125 244.34375 C-104.14316063 245.03219677 -106.87298634 245.11217986 -110 245 C-110.20568604 244.34104736 -110.41137207 243.68209473 -110.62329102 243.00317383 C-119.24868884 215.61568249 -130.77826613 192.38869509 -157 178 C-161.28814204 175.89100102 -165.6166008 173.90249282 -170 172 C-168.70475033 169.15067949 -167.34161197 167.0922206 -165.13018608 164.88409042 C-164.54099353 164.29091577 -163.95180097 163.69774112 -163.3447541 163.08659148 C-162.37297365 162.12354956 -162.37297365 162.12354956 -161.38156128 161.14105225 C-160.69381563 160.45159775 -160.00606999 159.76214325 -159.29748356 159.0517962 C-156.98674357 156.73775626 -154.66891713 154.43094714 -152.35107422 152.12402344 C-150.69519836 150.46871158 -149.0397625 148.81295949 -147.38473511 147.15679932 C-142.88533282 142.65682209 -138.37978102 138.16304746 -133.8731246 133.67033672 C-129.6430181 129.45144979 -125.41750848 125.22796594 -121.19197954 121.00449541 C-112.82248618 112.63937902 -104.44853647 104.27873848 -96.07177734 95.92089844 C-87.93466878 87.80214862 -79.79966397 79.68130034 -71.66748047 71.55761719 C-71.16619066 71.05685282 -70.66490085 70.55608846 -70.14842044 70.04014942 C-67.63360335 67.52794241 -65.11882757 65.01569405 -62.60407233 62.50342512 C-41.74245019 41.66253554 -20.87351671 20.82897636 0 0 Z " fill="#CFDC96" transform="translate(449,292)"/>
<path d="M0 0 C2.84932051 1.29524967 4.9077794 2.65838803 7.11590958 4.86981392 C7.70908423 5.45900647 8.30225888 6.04819903 8.91340852 6.6552459 C9.87645044 7.62702635 9.87645044 7.62702635 10.85894775 8.61843872 C11.54840225 9.30618437 12.23785675 9.99393001 12.9482038 10.70251644 C15.26224374 13.01325643 17.56905286 15.33108287 19.87597656 17.64892578 C21.53128842 19.30480164 23.18704051 20.9602375 24.84320068 22.61526489 C29.34317791 27.11466718 33.83695254 31.62021898 38.32966328 36.1268754 C42.54855021 40.3569819 46.77203406 44.58249152 50.99550459 48.80802046 C59.36062098 57.17751382 67.72126152 65.55146353 76.07910156 73.92822266 C84.19785138 82.06533122 92.31869966 90.20033603 100.44238281 98.33251953 C100.94314718 98.83380934 101.44391154 99.33509915 101.95985058 99.85157956 C104.47205759 102.36639665 106.98430595 104.88117243 109.49657488 107.39592767 C130.33746446 128.25754981 151.17102364 149.12648329 172 170 C169.17301696 173.01831417 166.33079301 174.38578784 162.5625 176.125 C138.75120609 187.61317622 123.96717389 207.84785778 115.22167969 232.1640625 C113.73676042 236.41867073 112.34136403 240.69774485 111 245 C106.26024317 244.53379441 101.66214259 243.95278964 97 242.98046875 C90.58961933 241.80214133 84.31735385 241.65603535 77.8125 241.6875 C76.03238525 241.69378418 76.03238525 241.69378418 74.21630859 241.70019531 C65.11839093 241.81685119 56.80068666 242.67396039 48 245 C46.91460938 245.26683594 45.82921875 245.53367187 44.7109375 245.80859375 C27.17144683 250.60954923 11.1102382 260.55189504 -2 273 C-5.22745524 271.58098338 -7.37258107 269.87144235 -9.85058594 267.37646484 C-10.59105164 266.63584808 -11.33151733 265.89523132 -12.09442139 265.13217163 C-12.88310608 264.33316437 -13.67179077 263.5341571 -14.484375 262.7109375 C-15.29996887 261.89251373 -16.11556274 261.07408997 -16.95587158 260.23086548 C-19.55864562 257.61690027 -22.15437762 254.99606495 -24.75 252.375 C-26.5138634 250.60110546 -28.2781809 248.82766234 -30.04296875 247.0546875 C-34.36726136 242.70834858 -38.6857933 238.35634919 -43 234 C-42.73783691 233.37806763 -42.47567383 232.75613525 -42.20556641 232.11535645 C-41.00518304 229.25681414 -39.81504484 226.39411093 -38.625 223.53125 C-38.2125 222.55317383 -37.8 221.57509766 -37.375 220.56738281 C-32.18401796 208.02948667 -30.61127173 195.49013481 -30 182 C-47.80082789 184.18021667 -61.56371892 189.25672106 -76 200 C-76.66 200 -77.32 200 -78 200 C-79.29150391 198.62792969 -79.29150391 198.62792969 -80.8515625 196.671875 C-83.91690313 193.04558816 -87.2644819 189.98842185 -90.8984375 186.953125 C-109.16219571 171.30428419 -109.16219571 171.30428419 -110.68359375 160.6953125 C-110.99646829 154.75937619 -110.64721414 148.89424339 -110.15527344 142.97607422 C-109.8997452 138.07844968 -110.91799404 133.87680758 -112.18359375 129.15234375 C-112.45300781 128.11207031 -112.72242188 127.07179688 -113 126 C-113.29052435 125.24130961 -113.5810487 124.48261923 -113.88037682 123.70093822 C-114.83513976 120.58940212 -115.22557737 118.2595165 -115 115 C-112.29450497 110.36067076 -108.51935401 106.87332068 -104.67041016 103.19458008 C-103.53492225 102.06276159 -102.40229414 100.92806786 -101.27232361 99.79074097 C-98.20362217 96.71831493 -95.09655007 93.68757186 -91.98094225 90.66282105 C-88.72925424 87.49249716 -85.51443531 84.28522502 -82.29550171 81.08171082 C-76.19771698 75.02430417 -70.06756295 69.00078997 -63.92503965 62.98879212 C-56.9322839 56.1414312 -49.97648367 49.25704134 -43.02352071 42.36931384 C-28.72304654 28.20466025 -14.37686605 14.08708335 0 0 Z " fill="#CFDC96" transform="translate(749,292)"/>
<path d="M0 0 C1.19117432 0.00684814 2.38234863 0.01369629 3.60961914 0.02075195 C12.31590292 0.17971918 19.57383256 1.13757888 27.6875 4.4375 C28.67878906 4.77652344 29.67007813 5.11554688 30.69140625 5.46484375 C51.0092523 12.90853963 64.84653812 29.00902908 74.14453125 47.98046875 C75.6875 51.4375 75.6875 51.4375 76.17651367 53.54638672 C76.76088618 55.85809172 77.30068618 57.48964058 78.6875 59.4375 C82.1163896 61.07841069 85.63852137 61.60740743 89.375 62.1875 C105.36402822 64.97467591 105.36402822 64.97467591 108.6875 68.4375 C110.10536655 72.46205664 110.35871429 76.4489949 110.625 80.6875 C110.72723877 81.87263184 110.82947754 83.05776367 110.93481445 84.27880859 C111.21860491 87.66347812 111.45513316 91.04899462 111.6875 94.4375 C111.81254976 95.82078854 111.94169879 97.2037246 112.078125 98.5859375 C113.31840055 113.11021697 112.6875 127.98979199 112.6875 142.4375 C2.7975 142.4375 -107.0925 142.4375 -220.3125 142.4375 C-216.14616188 121.60580938 -198.1730416 102.37598691 -181.19140625 90.86328125 C-159.30741419 76.73279601 -132.17443542 71.40157626 -106.44921875 76.19140625 C-102.66656725 77.05753361 -98.99491217 78.21417614 -95.3125 79.4375 C-93.44078125 79.99244141 -93.44078125 79.99244141 -91.53125 80.55859375 C-83.0177139 83.08489305 -83.0177139 83.08489305 -80.3125 84.4375 C-80.16554688 82.85775391 -80.16554688 82.85775391 -80.015625 81.24609375 C-77.95900292 60.72541587 -72.54073052 41.88066481 -58.3125 26.4375 C-57.60222656 25.65890625 -56.89195312 24.8803125 -56.16015625 24.078125 C-41.18200144 8.38923173 -21.65386975 -0.19124805 0 0 Z " fill="#CFDC96" transform="translate(952.3125,472.5625)"/>
<path d="M0 0 C0.93779297 -0.01224609 1.87558594 -0.02449219 2.84179688 -0.03710938 C23.18741422 -0.07952553 41.90372578 9.19774175 56.27734375 23.28125 C72.74903628 40.12074054 79.24624255 61.08741423 80.0625 84.1875 C81.17625 83.78917969 82.29 83.39085937 83.4375 82.98046875 C112.30115879 72.85298113 141.31874823 71.0724751 169.59301758 84.01416016 C177.45877271 87.8303225 184.29774742 92.6508102 191.0625 98.1875 C191.71476562 98.68765625 192.36703125 99.1878125 193.0390625 99.703125 C206.60055052 110.47800589 215.00390275 126.43514716 221.0625 142.1875 C111.1725 142.1875 1.2825 142.1875 -111.9375 142.1875 C-111.9375 83.93490484 -111.9375 83.93490484 -106.9375 67.1875 C-99.83386998 61.66857128 -86.69407143 59.85327972 -77.9375 60.1875 C-77.73447266 59.34832031 -77.73447266 59.34832031 -77.52734375 58.4921875 C-74.24088938 46.25162091 -68.42537376 35.56883415 -59.9375 26.1875 C-59.27234375 25.42953125 -58.6071875 24.6715625 -57.921875 23.890625 C-42.59857891 7.43226994 -22.12180595 0.01514155 0 0 Z " fill="#CFDC96" transform="translate(246.9375,472.8125)"/>
<path d="M0 0 C288.42 0 576.84 0 874 0 C871.91116112 10.4441944 866.95569331 20.11076672 863 30 C581.84 30 300.68 30 11 30 C0 3 0 3 0 0 Z " fill="#CFDC96" transform="translate(163,765)"/>
<path d="M0 0 C159.06 0 318.12 0 482 0 C478.42453613 2.8603711 475.56107209 4.94277075 471.6328125 7.06640625 C470.59463379 7.6286792 469.55645508 8.19095215 468.48681641 8.77026367 C467.37741699 9.36170166 466.26801758 9.95313965 465.125 10.5625 C463.38549072 11.49122925 463.38549072 11.49122925 461.61083984 12.4387207 C429.97026497 29.24904408 396.69746872 42.87664901 362 52 C361.16629883 52.22397461 360.33259766 52.44794922 359.47363281 52.67871094 C345.43491596 56.43115211 331.41316196 59.36876638 317.04458618 61.53782654 C315.03992409 61.84213772 313.03595732 62.15107103 311.03277588 62.46498108 C288.34524053 66.01449689 266.10150941 67.47039399 243.18029785 67.3225708 C240.34229282 67.30907519 237.50444281 67.31442183 234.66641998 67.3194418 C220.0052156 67.33895666 205.48101919 67.09025098 190.91659546 65.23953247 C188.27975307 64.9099849 185.63668975 64.65436074 182.9921875 64.39453125 C121.08984556 57.60592945 60.78249741 36.0229403 7 5 C5.66958418 4.23903524 4.33886968 3.47859236 3.0078125 2.71875 C2.01523437 2.1515625 1.02265625 1.584375 0 1 C0 0.67 0 0.34 0 0 Z " fill="#CFDC96" transform="translate(359,1005)"/>
<path d="M0 0 C7.27258011 -0.25606654 14.54397689 -0.42969894 21.82006836 -0.54931641 C24.28860908 -0.59923797 26.75685977 -0.66720353 29.22436523 -0.75439453 C45.40041307 -1.31117285 55.60106965 -0.67637452 68 10 C69.65784369 11.06751043 71.341502 12.0970662 73.05859375 13.06640625 C73.7846582 13.4840625 74.51072266 13.90171875 75.25878906 14.33203125 C75.97776367 14.73808594 76.69673828 15.14414062 77.4375 15.5625 C78.23768555 16.01882813 79.03787109 16.47515625 79.86230469 16.9453125 C81.48034249 17.86697148 83.09961219 18.78647173 84.72021484 19.70361328 C86.80800441 20.89082281 88.88415283 22.0955994 90.95703125 23.30859375 C139.3176485 51.40801594 194.82340785 68.73533382 250 77 C250.68658691 77.10548157 251.37317383 77.21096313 252.08056641 77.31964111 C294.37310965 83.77796767 339.62094564 83.67304829 382 78 C383.38803129 77.82544474 384.77622125 77.65214756 386.16455078 77.47998047 C410.77019249 74.40381824 435.05013454 69.77067625 458.59472656 61.80322266 C461.61487158 60.79466834 464.64744553 59.8270409 467.6796875 58.85546875 C505.48930868 46.64233156 550.05733029 31.02714221 581.09866333 5.25776672 C587.98885267 -0.20522669 593.13672921 -0.96033604 601.7890625 -0.68359375 C603.56571793 -0.6687368 603.56571793 -0.6687368 605.37826538 -0.65357971 C609.1284839 -0.61467138 612.8756795 -0.52688426 616.625 -0.4375 C619.18094705 -0.40235613 621.73694039 -0.37042256 624.29296875 -0.34179688 C630.52966178 -0.2649865 636.76461488 -0.1481325 643 0 C617.05092555 26.23453358 579.62045076 44.62237699 547 61 C545.71512695 61.6494458 545.71512695 61.6494458 544.40429688 62.31201172 C519.66363172 74.73871284 493.3541577 83.68544884 467 92 C465.90655273 92.34546875 464.81310547 92.6909375 463.68652344 93.046875 C437.98331573 101.02852652 411.41205738 105.54979797 384.75 108.875 C383.50970535 109.03032196 383.50970535 109.03032196 382.24435425 109.18878174 C362.48903173 111.62961093 342.91927047 112.18815267 323.0300293 112.18530273 C320.22722908 112.18522162 317.42459282 112.19215407 314.62182617 112.20581055 C298.31739361 112.28386624 282.19884756 112.05803213 266 110 C264.82475266 109.8555394 264.82475266 109.8555394 263.62576294 109.7081604 C259.03063518 109.13975876 254.44333766 108.52637181 249.85888672 107.87768555 C247.60342675 107.55945617 245.34676533 107.2510331 243.08984375 106.94335938 C233.64189667 105.63544673 224.33498453 103.97211399 215 102 C213.52152588 101.69823853 213.52152588 101.69823853 212.01318359 101.39038086 C168.33119297 92.46539969 126.79896851 76.98054782 87 57 C86.00210449 56.49968262 85.00420898 55.99936523 83.97607422 55.48388672 C54.5450448 40.63713262 24.84070908 22.85982399 0 1 C0 0.67 0 0.34 0 0 Z " fill="#CFDC96" transform="translate(279,1005)"/>
<path d="M0 0 C3.13738154 1.39080525 5.25475281 3.01022204 7.66699219 5.43994141 C8.71762848 6.49080429 8.71762848 6.49080429 9.78948975 7.56289673 C10.53442688 8.31815643 11.27936401 9.07341614 12.046875 9.8515625 C12.81807678 10.62559418 13.58927856 11.39962585 14.3838501 12.19711304 C16.84396856 14.66841923 19.29703848 17.14659183 21.75 19.625 C23.41750894 21.30254052 25.08547232 22.97962945 26.75390625 24.65625 C30.8412237 28.76560919 34.92277696 32.88062647 39 37 C37.47837219 40.96138614 35.63715858 44.25472193 33.3125 47.8125 C27.67799551 56.67005515 23.88824325 66.27939188 20 76 C-15.97 76 -51.94 76 -89 76 C-89 64.85947839 -89 64.85947839 -85.25578308 61.01158142 C-84.70408951 60.49584061 -84.15239594 59.98009979 -83.58398438 59.44873047 C-83.00852371 58.87180954 -82.43306305 58.29488861 -81.84016418 57.70048523 C-79.94743237 55.81467607 -78.02190323 53.96670452 -76.09375 52.1171875 C-74.76878167 50.81088644 -73.44601599 49.5023478 -72.12536621 48.19168091 C-68.65517629 44.75954603 -65.156017 41.35850822 -61.64984131 37.9631958 C-58.07270045 34.48862747 -54.52394509 30.98532744 -50.97265625 27.484375 C-44.00917351 20.62791603 -37.01473115 13.80399103 -30 7 C-29.05616455 7.32307129 -28.1123291 7.64614258 -27.13989258 7.97900391 C-20.23960393 10.22276467 -14.54626745 9.38481775 -8.0859375 6.22265625 C-5.05380058 4.44539247 -2.58070935 2.38219325 0 0 Z " fill="#CFDC96" transform="translate(696,539)"/>
<path d="M0 0 C3.90851199 1.58431453 6.52367356 4.26635095 9.421875 7.2265625 C9.92672424 7.73424164 10.43157349 8.24192078 10.95172119 8.76498413 C12.55592096 10.38033842 14.15300856 12.00252209 15.75 13.625 C16.83938107 14.72441698 17.9292199 15.82338059 19.01953125 16.921875 C21.68501885 19.6093602 24.34415143 22.30299021 27 25 C25.99930085 27.00610011 24.9953395 29.00900445 23.96484375 31 C23.62582031 31.66 23.28679688 32.32 22.9375 33 C22.59589844 33.66 22.25429688 34.32 21.90234375 35 C20.19304804 38.78856884 19.84178577 42.17149206 19.8125 46.3125 C19.79832031 47.21613281 19.78414062 48.11976563 19.76953125 49.05078125 C20.04302777 52.55060958 21.0018867 55.64221532 22 59 C15.89215875 65.13096292 9.78165665 71.25925753 3.66769505 77.38411713 C0.82913814 80.22790325 -2.00847677 83.0726165 -4.84399414 85.91943359 C-7.5780122 88.66427916 -10.31443204 91.40670858 -13.05256844 94.14744568 C-14.09928219 95.19601392 -15.14511223 96.24546505 -16.19006157 97.29579163 C-17.64841858 98.76135726 -19.10982366 100.22381468 -20.57202148 101.68554688 C-21.40475082 102.52049683 -22.23748016 103.35544678 -23.09544373 104.21569824 C-25 106 -25 106 -26 106 C-26 77.62 -26 49.24 -26 20 C-22.04 18.35 -18.08 16.7 -14 15 C-7.68700587 11.49278104 -3.04360985 6.54663251 0 0 Z " fill="#CFDC96" transform="translate(634,477)"/>
<path d="M0 0 C4.29 0 8.58 0 13 0 C13 17.82 13 35.64 13 54 C9.37 54 5.74 54 2 54 C1.34 53.01 0.68 52.02 0 51 C-0.61875 51.495 -1.2375 51.99 -1.875 52.5 C-6.31641153 54.63187753 -10.16205128 54.92079523 -15 54 C-19.42849774 51.67442018 -22.87335025 47.94924456 -24.55859375 43.1796875 C-25.90017868 36.55486989 -26.39506583 29.48411191 -22.875 23.5 C-21.47265625 21.65625 -21.47265625 21.65625 -20 20 C-19.56558594 19.4740625 -19.13117187 18.948125 -18.68359375 18.40625 C-15.63120985 15.27559985 -12.99643227 14.66588205 -8.8125 14.5625 C-5.18010339 14.65735521 -4.13806701 14.90795533 -1 17 C-0.67 11.39 -0.34 5.78 0 0 Z " fill="#688562" transform="translate(834,869)"/>
<path d="M0 0 C4.29 0 8.58 0 13 0 C13 6.27 13 12.54 13 19 C16.63 19 20.26 19 24 19 C24 12.73 24 6.46 24 0 C28.29 0 32.58 0 37 0 C37 16.5 37 33 37 50 C32.71 50 28.42 50 24 50 C24 43.4 24 36.8 24 30 C20.37 30 16.74 30 13 30 C13 36.6 13 43.2 13 50 C8.71 50 4.42 50 0 50 C0 33.5 0 17 0 0 Z " fill="#668461" transform="translate(171,873)"/>
<path d="M0 0 C28.56097561 0 28.56097561 0 34.9375 5.5625 C39.30402357 10.72293695 38.53134888 16.49692415 38 23 C35.84638218 28.48193627 31.98137602 30.68836335 26.81640625 33.09765625 C22.1117584 34.60497061 17.90453699 34.3143934 13 34 C13 39.28 13 44.56 13 50 C8.71 50 4.42 50 0 50 C0 33.5 0 17 0 0 Z " fill="#678562" transform="translate(491,873)"/>
<path d="M0 0 C4.29 0 8.58 0 13 0 C13.65003625 2.20709983 14.29484745 4.41573892 14.9375 6.625 C15.29714844 7.85476563 15.65679688 9.08453125 16.02734375 10.3515625 C16.88485972 13.56810836 17.51903985 16.70921999 18 20 C19.76975514 15.98549051 20.70411751 12.0464066 21.5625 7.75 C22.8923476 1.1076524 22.8923476 1.1076524 24 0 C28.29 0 32.58 0 37 0 C37 16.17 37 32.34 37 49 C33.7 49 30.4 49 27 49 C27 38.44 27 27.88 27 17 C25.35 23.27 23.7 29.54 22 36 C19.69 36 17.38 36 15 36 C13.35 30.72 11.7 25.44 10 20 C10 29.57 10 39.14 10 49 C6.7 49 3.4 49 0 49 C0 32.83 0 16.66 0 0 Z " fill="#668461" transform="translate(719,873)"/>
<path d="M0 0 C4.29 0 8.58 0 13 0 C13 5.94 13 11.88 13 18 C14.98 17.01 16.96 16.02 19 15 C21.6328125 14.63671875 21.6328125 14.63671875 24.125 14.6875 C25.36636719 14.69330078 25.36636719 14.69330078 26.6328125 14.69921875 C29.19542143 15.02483078 30.81789633 15.63204347 33 17 C36.6638999 22.15659986 37.12597946 26.28451987 37.09765625 32.515625 C37.09443359 33.76601563 37.09121094 35.01640625 37.08789062 36.3046875 C37.07532227 38.25761719 37.07532227 38.25761719 37.0625 40.25 C37.05798828 41.56742188 37.05347656 42.88484375 37.04882812 44.2421875 C37.03704326 47.49481104 37.0191079 50.74741124 37 54 C32.38 54 27.76 54 23 54 C22.67 45.09 22.34 36.18 22 27 C16.52174919 26.5527864 16.52174919 26.5527864 14 28 C13.67 36.58 13.34 45.16 13 54 C8.71 54 4.42 54 0 54 C0 36.18 0 18.36 0 0 Z " fill="#698663" transform="translate(400,869)"/>
<path d="M0 0 C0.68070557 -0.02223633 1.36141113 -0.04447266 2.06274414 -0.06738281 C8.5063579 -0.0391729 11.80688167 2.37622974 16.234375 6.7890625 C19.40374555 12.00244739 18.27745837 18.96630798 18.125 24.8125 C18.10695313 26.12089844 18.08890625 27.42929687 18.0703125 28.77734375 C18.02329348 31.99814689 17.95758181 35.21744474 17.875 38.4375 C14.575 38.4375 11.275 38.4375 7.875 38.4375 C7.545 37.4475 7.215 36.4575 6.875 35.4375 C5.781875 36.0975 4.68875 36.7575 3.5625 37.4375 C-1.58091444 40.00005524 -6.47844258 40.32254035 -12.125 39.4375 C-15.66036291 37.41729262 -17.89437948 35.35311075 -19.125 31.4375 C-19.70398577 26.97103838 -19.49872612 25.02640176 -17.0625 21.1875 C-14.2107094 18.1493708 -11.05627923 16.79557828 -7.125 15.4375 C-6.485625 15.210625 -5.84625 14.98375 -5.1875 14.75 C-1.83366428 14.24184307 1.48636165 14.38102269 4.875 14.4375 C4.545 13.7775 4.215 13.1175 3.875 12.4375 C-0.53696253 10.96684582 -5.13526063 10.57707216 -9.4375 12.4375 C-9.994375 12.7675 -10.55125 13.0975 -11.125 13.4375 C-12.115 13.4375 -13.105 13.4375 -14.125 13.4375 C-17.18854009 8.04566944 -17.18854009 8.04566944 -16.90625 5.34375 C-16.125 3.4375 -16.125 3.4375 -13.0625 1.6875 C-8.77975033 0.28064394 -4.47472666 0.08391712 0 0 Z " fill="#678462" transform="translate(281.125,883.5625)"/>
<path d="M0 0 C4.36888063 4.59882171 5.12683181 7.98482459 5.09765625 14.19921875 C5.09443359 15.40771484 5.09121094 16.61621094 5.08789062 17.86132812 C5.07532227 19.7552832 5.07532227 19.7552832 5.0625 21.6875 C5.05798828 22.96173828 5.05347656 24.23597656 5.04882812 25.54882812 C5.03702873 28.69926564 5.02056597 31.84960949 5 35 C1.37 35 -2.26 35 -6 35 C-6 34.01 -6 33.02 -6 32 C-6.53367187 32.28875 -7.06734375 32.5775 -7.6171875 32.875 C-13.41087533 35.76182023 -18.53033381 37.22814002 -25 36 C-28.05732421 34.7127056 -28.8102461 33.75122926 -31 31 C-32.44591004 26.53082351 -32.35572532 23.06717596 -30.875 18.625 C-27.3311875 13.6636625 -23.03787934 12.50422261 -17.29296875 11.33984375 C-14.14188968 10.8728184 -11.18000119 10.8646808 -8 11 C-8.33 10.34 -8.66 9.68 -9 9 C-15.298682 6.90043933 -20.88795094 7.96265031 -27 10 C-30.0526658 4.62730819 -30.0526658 4.62730819 -29.82421875 1.90625 C-29 0 -29 0 -27.390625 -1.046875 C-18.52995349 -3.95731455 -8.20757818 -5.06425037 0 0 Z " fill="#668461" transform="translate(979,887)"/>
<path d="M0 0 C4.1618545 3.01734451 6.21434447 6.24118895 8.5 10.8125 C8.5 14.4425 8.5 18.0725 8.5 21.8125 C0.25 21.8125 -8 21.8125 -16.5 21.8125 C-15.18 23.4625 -13.86 25.1125 -12.5 26.8125 C-9.6180878 27.05042877 -7.27311964 27.06773129 -4.4375 26.8125 C-1.64456109 26.56246071 0.66608852 26.57002629 3.5 26.8125 C5.51953125 29.17578125 5.51953125 29.17578125 6.5 31.8125 C6.125 34 6.125 34 4.5 35.8125 C-2.24908588 38.81209373 -10.84575017 39.05611555 -17.94140625 37.16015625 C-22.92414723 34.95716071 -25.92995331 31.56653487 -28.5 26.8125 C-30.35755407 21.23983779 -30.22152545 15.15745773 -28.5 9.5625 C-21.31872259 -0.31175644 -11.89271416 -4.03502802 0 0 Z " fill="#678462" transform="translate(793.5,885.1875)"/>
<path d="M0 0 C4.01684726 2.93915653 6.95784056 6.06102168 8.5625 10.875 C8.5625 14.505 8.5625 18.135 8.5625 21.875 C0.3125 21.875 -7.9375 21.875 -16.4375 21.875 C-15.1175 23.525 -13.7975 25.175 -12.4375 26.875 C-9.5555878 27.11292877 -7.21061964 27.13023129 -4.375 26.875 C-1.58206109 26.62496071 0.72858852 26.63252629 3.5625 26.875 C5.58984375 29.23828125 5.58984375 29.23828125 6.5625 31.875 C6.0625 34.0625 6.0625 34.0625 4.5625 35.875 C-1.82609594 39.13950232 -10.9288563 39.18877697 -17.796875 37.1875 C-23.07176863 34.38667153 -27.17520091 29.34637534 -29.4375 23.875 C-30.3728256 16.77305097 -29.78320248 11.59302958 -25.4375 5.875 C-18.13063839 -1.45139867 -9.93026792 -3.24990587 0 0 Z " fill="#678462" transform="translate(245.4375,885.125)"/>
<path d="M0 0 C4.29 0 8.58 0 13 0 C13.33 9.24 13.66 18.48 14 28 C16.64 27.34 19.28 26.68 22 26 C22.33 17.42 22.66 8.84 23 0 C27.29 0 31.58 0 36 0 C36 12.87 36 25.74 36 39 C32.37 39 28.74 39 25 39 C25 37.35 25 35.7 25 34 C24.32517578 34.54140625 24.32517578 34.54140625 23.63671875 35.09375 C18.66408517 38.68122112 14.63636962 39.83041256 8.49609375 39.56640625 C5.70643022 38.93338401 4.70402812 38.28272303 2.875 36.125 C0.13939674 31.56566124 -0.11943259 29.38041626 -0.09765625 24.0234375 C-0.09553383 22.99556625 -0.09553383 22.99556625 -0.09336853 21.94692993 C-0.08776675 19.75624239 -0.07521406 17.5656567 -0.0625 15.375 C-0.05748522 13.89062648 -0.05292228 12.40625135 -0.04882812 10.921875 C-0.03779677 7.28121685 -0.02053099 3.64061836 0 0 Z " fill="#678462" transform="translate(582,884)"/>
<path d="M0 0 C3.63 0 7.26 0 11 0 C11 3.63 11 7.26 11 11 C15.95 11 20.9 11 26 11 C26 14.63 26 18.26 26 22 C21.05 22 16.1 22 11 22 C11.495 30.415 11.495 30.415 12 39 C16.29 39 20.58 39 25 39 C26.683989 43.2099725 27.24059853 44.78952566 27 49 C23.1051323 50.24111069 19.17373612 50.25678345 15.125 50.3125 C14.43019531 50.34150391 13.73539062 50.37050781 13.01953125 50.40039062 C7.81968815 50.46404219 4.85641684 49.47976972 1 46 C-2.23061708 40.52081925 -2.3840712 35.81749624 -2.1875 29.5625 C-2.17396484 28.73556641 -2.16042969 27.90863281 -2.14648438 27.05664062 C-2.11146992 25.0374736 -2.05767562 23.01864682 -2 21 C-4.97 21 -7.94 21 -11 21 C-11 18.03 -11 15.06 -11 12 C-6.545 11.505 -6.545 11.505 -2 11 C-1.34 7.37 -0.68 3.74 0 0 Z " fill="#688562" transform="translate(364,873)"/>
<path d="M0 0 C0.70125 0.00322266 1.4025 0.00644531 2.125 0.00976562 C7.86081748 0.16349826 12.33861791 1.42041781 17.1875 4.4375 C15.76958437 7.37196886 14.20417393 9.87082409 12.1875 12.4375 C6.4375 11.5625 6.4375 11.5625 4.1875 10.4375 C2.81407169 10.3685528 1.43747898 10.35282292 0.0625 10.375 C-1.855625 10.4059375 -1.855625 10.4059375 -3.8125 10.4375 C-3.8125 11.0975 -3.8125 11.7575 -3.8125 12.4375 C-2.71550781 12.75203125 -1.61851562 13.0665625 -0.48828125 13.390625 C0.96632468 13.8223145 2.42074199 14.25463991 3.875 14.6875 C4.59623047 14.89246094 5.31746094 15.09742188 6.06054688 15.30859375 C10.52693192 16.6546276 13.74338127 18.14484347 17.1875 21.4375 C18.96748987 24.99747975 18.32518415 28.71189696 17.1875 32.4375 C14.39563239 35.90227929 11.39436194 38.03521269 7.1875 39.4375 C-2.85065533 40.18741555 -11.20179253 40.36132824 -19.8125 34.4375 C-18.44095496 31.48340299 -16.82386276 28.99741624 -14.8125 26.4375 C-14.1834375 26.6540625 -13.554375 26.870625 -12.90625 27.09375 C-7.29804072 28.91810724 -2.70281404 29.76473967 3.1875 29.4375 C3.5175 28.7775 3.8475 28.1175 4.1875 27.4375 C2.66769531 26.98310547 2.66769531 26.98310547 1.1171875 26.51953125 C-0.23460689 26.0970955 -1.58615666 25.67387642 -2.9375 25.25 C-3.60265625 25.05341797 -4.2678125 24.85683594 -4.953125 24.65429688 C-9.88273001 23.0835894 -13.05899925 21.01416408 -16.8125 17.4375 C-18.24554064 14.57141871 -18.11894155 12.62449217 -17.8125 9.4375 C-13.89381008 1.750839 -8.28959965 -0.11842285 0 0 Z " fill="#678562" transform="translate(646.8125,883.5625)"/>
<path d="M0 0 C8.25 0 16.5 0 25 0 C25.33 13.86 25.66 27.72 26 42 C32.31646344 43.07071068 32.31646344 43.07071068 36 43 C36.66 46.3 37.32 49.6 38 53 C32.15431697 54.94856101 23.63903877 55.43122689 17.78515625 53.12890625 C14.16046171 50.31584815 12.35617957 46.27291411 11 42 C10.65942383 38.35961914 10.65942383 38.35961914 10.70703125 34.53515625 C10.71127609 33.85698349 10.71552094 33.17881073 10.71989441 32.48008728 C10.73652059 30.34046598 10.77413826 28.20183053 10.8125 26.0625 C10.82756778 24.60092518 10.8412525 23.13933542 10.85351562 21.67773438 C10.88637023 18.11817603 10.93803759 14.55918444 11 11 C7.37 11 3.74 11 0 11 C0 7.37 0 3.74 0 0 Z " fill="#6B8864" transform="translate(535,869)"/>
<path d="M0 0 C8.25 0 16.5 0 25 0 C25.04898438 2.86429688 25.09796875 5.72859375 25.1484375 8.6796875 C25.20241059 11.44650609 25.25973247 14.21323635 25.31738281 16.97998047 C25.35572168 18.90634614 25.39056582 20.8327846 25.421875 22.75927734 C25.46741945 25.52467918 25.52543037 28.28957769 25.5859375 31.0546875 C25.59748871 31.9193161 25.60903992 32.7839447 25.62094116 33.67477417 C25.52662158 38.31782848 25.52662158 38.31782848 28 42 C30.68839385 42.26991906 33.29141936 42.08737357 36 42 C39 48.625 39 48.625 39 52 C35.13050773 52.89518105 31.46946297 53.19435332 27.5 53.25 C26.3965625 53.27578125 25.293125 53.3015625 24.15625 53.328125 C20.63173412 52.96171493 18.82424246 52.09815176 16 50 C12.16344199 44.65622277 11.87577806 40.31015316 11.90234375 33.828125 C11.9037587 33.1457074 11.90517365 32.46328979 11.90663147 31.76019287 C11.91220916 29.59008316 11.92475746 27.4200783 11.9375 25.25 C11.94251789 23.77474108 11.94708029 22.29948053 11.95117188 20.82421875 C11.96217125 17.21611202 11.97942047 13.60806625 12 10 C8.04 10 4.08 10 0 10 C0 6.7 0 3.4 0 0 Z " fill="#668461" transform="translate(991,870)"/>
<path d="M0 0 C7.92 0 15.84 0 24 0 C24.04898437 2.86429688 24.09796875 5.72859375 24.1484375 8.6796875 C24.20241059 11.44650609 24.25973247 14.21323635 24.31738281 16.97998047 C24.35572168 18.90634614 24.39056582 20.8327846 24.421875 22.75927734 C24.46741945 25.52467918 24.52543037 28.28957769 24.5859375 31.0546875 C24.59748871 31.9193161 24.60903992 32.7839447 24.62094116 33.67477417 C24.52662158 38.31782848 24.52662158 38.31782848 27 42 C30.01826653 42.27240673 32.96370622 42.08675125 36 42 C36.66 45.3 37.32 48.6 38 52 C31.97636611 54.00787796 23.42388672 54.56319631 17.52734375 51.87109375 C13.65818312 48.72483362 12.34867318 45.80871022 11 41 C10.77294922 37.47314453 10.77294922 37.47314453 10.8046875 33.6328125 C10.8075174 32.95322479 10.81034729 32.27363708 10.81326294 31.57345581 C10.82437036 29.42378392 10.84945609 27.27454386 10.875 25.125 C10.88504205 23.65886023 10.89416575 22.19271386 10.90234375 20.7265625 C10.92427841 17.15090369 10.95874186 13.57549406 11 10 C7.37 10 3.74 10 0 10 C0 6.7 0 3.4 0 0 Z " fill="#668461" transform="translate(307,870)"/>
<path d="M0 0 C0.886875 0.495 1.77375 0.99 2.6875 1.5 C2.6875 6.18091299 1.69104129 7.12101604 -1.3125 10.5 C-1.993125 10.335 -2.67375 10.17 -3.375 10 C-10.1500011 8.8430196 -10.1500011 8.8430196 -16.3125 11.4375 C-18.76740835 15.19657841 -18.7321772 17.15561009 -17.94921875 21.47265625 C-17.40055406 23.63932468 -17.40055406 23.63932468 -15.6875 25.5625 C-10.31514396 27.68316686 -5.52947411 26.53589233 -0.3125 24.5 C2.1625 28.46 2.1625 28.46 4.6875 32.5 C-2.67995979 37.6907103 -8.38962508 38.14403953 -17.3125 37.5 C-23.6081098 36.05678259 -27.48704624 32.08081394 -31.125 26.9375 C-33.29704217 20.65000952 -33.55310718 14.12436134 -30.6875 8.0625 C-22.50359036 -0.76750777 -11.84722643 -5.11199341 0 0 Z " fill="#668461" transform="translate(934.3125,885.5)"/>
<path d="M0 0 C9.24 0 18.48 0 28 0 C28 12.87 28 25.74 28 39 C23.38 39 18.76 39 14 39 C14 29.76 14 20.52 14 11 C9.38 11 4.76 11 0 11 C0 7.37 0 3.74 0 0 Z " fill="#6D8964" transform="translate(857,884)"/>
<path d="M0 0 C4.11594555 0.66149125 5.80471529 1.37716352 8.5 4.5625 C9.13210717 8.49561127 9.10020266 10.58717068 7 14 C3.5307387 16.16828832 0.41794196 16.46246291 -3.5 15.5625 C-6.6317635 13.27892245 -8.17913747 11.84595012 -9.125 8.0625 C-7.86684767 3.02989066 -5.01397101 0.80581677 0 0 Z " fill="#688662" transform="translate(877.5,863.4375)"/>
<path d="M0 0 C1.93154485 1.93154485 1.21854009 5.3110177 1.25 7.875 C1.28867187 9.75832031 1.28867187 9.75832031 1.328125 11.6796875 C1 15 1 15 -0.359375 16.921875 C-2.71646551 18.47082019 -4.24032197 18.41395171 -7 18 C-8.6328125 16.8828125 -8.6328125 16.8828125 -10 15 C-10.3984375 11.96875 -10.3984375 11.96875 -10.375 8.5 C-10.38660156 6.78296875 -10.38660156 6.78296875 -10.3984375 5.03125 C-10 2 -10 2 -8.703125 0.078125 C-5.81322852 -1.75125901 -3.1868005 -0.70817789 0 0 Z " fill="#C8D793" transform="translate(833,895)"/>
<path d="M0 0 C9.48251748 -0.31608392 9.48251748 -0.31608392 12 2 C13.0625 5.3125 13.0625 5.3125 13 9 C11.0625 11.9375 11.0625 11.9375 8 14 C5.19190709 14.40411669 2.86001837 14.24237444 0 14 C0 9.38 0 4.76 0 0 Z " fill="#C6D592" transform="translate(504,883)"/>
<path d="M0 0 C0.1875 2.375 0.1875 2.375 0 5 C-3.08888522 7.05925681 -3.70935927 7.2390374 -7.1875 7.125 C-9.0746875 7.063125 -9.0746875 7.063125 -11 7 C-11.33 5.68 -11.66 4.36 -12 3 C-8.2391768 -0.7608232 -5.0273023 -0.25136512 0 0 Z " fill="#C9D793" transform="translate(971,906)"/>
<path d="M0 0 C1.8871875 0.061875 1.8871875 0.061875 3.8125 0.125 C4 2.5 4 2.5 3.8125 5.125 C0.72361478 7.18425681 0.10314073 7.3640374 -3.375 7.25 C-5.2621875 7.188125 -5.2621875 7.188125 -7.1875 7.125 C-7.375 4.75 -7.375 4.75 -7.1875 2.125 C-4.09861478 0.06574319 -3.47814073 -0.1140374 0 0 Z " fill="#CAD894" transform="translate(282.1875,905.875)"/>
<path d="M0 0 C5.80512153 0.33637153 5.80512153 0.33637153 8.02734375 2.55859375 C8.02734375 3.54859375 8.02734375 4.53859375 8.02734375 5.55859375 C3.73734375 5.55859375 -0.55265625 5.55859375 -4.97265625 5.55859375 C-1.97265625 0.55859375 -1.97265625 0.55859375 0 0 Z " fill="#CBD994" transform="translate(781.97265625,893.44140625)"/>
<path d="M0 0 C1.91015625 0.23046875 1.91015625 0.23046875 3.91015625 2.23046875 C3.91015625 3.22046875 3.91015625 4.21046875 3.91015625 5.23046875 C-0.04984375 5.23046875 -4.00984375 5.23046875 -8.08984375 5.23046875 C-6.61379594 -0.67372249 -5.84549858 0.11669779 0 0 Z " fill="#CBD994" transform="translate(238.08984375,893.76953125)"/>
</svg>
