<?xml version="1.0" encoding="UTF-8"?>
<svg version="1.1" xmlns="http://www.w3.org/2000/svg" width="1200" height="1200">
<path d="M0 0 C396 0 792 0 1200 0 C1200 396 1200 792 1200 1200 C804 1200 408 1200 0 1200 C0 804 0 408 0 0 Z " fill="#24527A" transform="translate(0,0)"/>
<path d="M0 0 C0.94222412 0.52029785 1.88444824 1.0405957 2.85522461 1.57666016 C3.89614258 2.14642578 4.93706055 2.71619141 6.00952148 3.30322266 C7.08137695 3.90134766 8.15323242 4.49947266 9.25756836 5.11572266 C10.33329102 5.70611328 11.40901367 6.29650391 12.51733398 6.90478516 C17.12866582 9.44344769 21.68008928 12.03173521 26.19506836 14.74072266 C25.86506836 19.69072266 25.53506836 24.64072266 25.19506836 29.74072266 C27.17506836 30.40072266 29.15506836 31.06072266 31.19506836 31.74072266 C33.34859426 32.82872037 35.47668731 33.96800377 37.58178711 35.14697266 C38.16547562 35.47234009 38.74916412 35.79770752 39.35054016 36.13293457 C41.19726227 37.1641003 43.03984744 38.20242726 44.88256836 39.24072266 C46.13036825 39.93777955 47.37841305 40.63439822 48.62670898 41.33056641 C57.64979143 46.3772047 57.64979143 46.3772047 61.19506836 48.74072266 C61.46204723 51.36534509 61.5433982 53.75138198 61.48803711 56.37353516 C61.48379227 57.12537079 61.47954742 57.87720642 61.47517395 58.65182495 C61.45836006 61.05681951 61.4207046 63.46098075 61.38256836 65.86572266 C61.36752495 67.49461682 61.35383594 69.12352409 61.34155273 70.75244141 C61.3084479 74.748857 61.25664845 78.74464848 61.19506836 82.74072266 C61.91049805 83.01658203 62.62592773 83.29244141 63.36303711 83.57666016 C66.15245691 84.72320788 68.81797194 86.0029938 71.50756836 87.36572266 C72.39057617 87.81173828 73.27358398 88.25775391 74.18334961 88.71728516 C74.8472168 89.05501953 75.51108398 89.39275391 76.19506836 89.74072266 C76.4430677 94.89987192 76.62405228 100.05553054 76.74438477 105.21923828 C76.79455087 106.97343375 76.86270846 108.7272135 76.94946289 110.47998047 C77.64916568 124.98440774 77.64916568 124.98440774 74.28271484 129.05053711 C71.65023927 130.63508143 69.07543874 131.68000227 66.19506836 132.74072266 C64.47484365 133.71813783 62.77237411 134.72749759 61.08959961 135.76806641 C59.39671258 136.74007764 57.70270138 137.71013362 56.00756836 138.67822266 C54.73236328 139.4371582 54.73236328 139.4371582 53.43139648 140.21142578 C48.2181808 143.16222663 45.22161115 144.36464137 39.19506836 142.74072266 C34.24658945 141.48391907 31.98693307 141.88556034 27.59741211 144.45947266 C26.55431885 145.05945068 25.51122559 145.65942871 24.43652344 146.27758789 C23.34621826 146.92542236 22.25591309 147.57325684 21.13256836 148.24072266 C18.88526374 149.53384994 16.63786882 150.82682031 14.39038086 152.11962891 C11.54407555 153.77975979 8.70043657 155.44432304 5.8581543 157.11132812 C4.08235411 158.14699298 2.29563326 159.16387957 0.50756836 160.17822266 C-0.40379883 160.71318359 -1.31516602 161.24814453 -2.25415039 161.79931641 C-6.31902919 163.29952435 -9.61299061 162.26982608 -13.4987793 160.54492188 C-14.3964502 160.05008301 -15.29412109 159.55524414 -16.21899414 159.04541016 C-17.2220459 158.4970752 -18.22509766 157.94874023 -19.25854492 157.38378906 C-20.30510254 156.80032715 -21.35166016 156.21686523 -22.42993164 155.61572266 C-23.50355957 155.02839355 -24.5771875 154.44106445 -25.68334961 153.8359375 C-32.06741094 150.32736985 -38.34853738 146.71984785 -44.43774414 142.71728516 C-48.44471507 141.06424435 -51.90772434 142.46785485 -55.92602539 143.68994141 C-62.12477165 143.77109317 -66.59659531 140.59125188 -71.86743164 137.55322266 C-73.46167969 136.66666992 -73.46167969 136.66666992 -75.08813477 135.76220703 C-78.01645596 134.12154238 -80.92638327 132.46724348 -83.80493164 130.74072266 C-85.43603882 129.89985107 -85.43603882 129.89985107 -87.10009766 129.04199219 C-89.80493164 126.74072266 -89.80493164 126.74072266 -90.61303711 123.0612793 C-90.66596014 121.59196673 -90.68361132 120.12109936 -90.67211914 118.65087891 C-90.68260284 117.86933945 -90.69308655 117.08779999 -90.70388794 116.28257751 C-90.71671153 114.63268781 -90.71407504 112.98261507 -90.69702148 111.33276367 C-90.67999385 108.8124306 -90.73747916 106.30117388 -90.80102539 103.78173828 C-90.90152755 92.1126204 -90.90152755 92.1126204 -88.06323242 88.56176758 C-85.98899229 87.2621035 -84.12887862 86.47943822 -81.80493164 85.74072266 C-80.85618164 85.14259766 -79.90743164 84.54447266 -78.92993164 83.92822266 C-76.80493164 82.74072266 -76.80493164 82.74072266 -74.80493164 82.74072266 C-74.80493164 71.52072266 -74.80493164 60.30072266 -74.80493164 48.74072266 C-61.74243164 41.49072266 -61.74243164 41.49072266 -57.6640625 39.22802734 C-56.58519775 38.62893555 -55.50633301 38.02984375 -54.39477539 37.41259766 C-53.24348145 36.77386719 -52.0921875 36.13513672 -50.90600586 35.47705078 C-48.43977053 34.09617646 -45.99507941 32.68891073 -43.55883789 31.25634766 C-40.80493164 29.74072266 -40.80493164 29.74072266 -38.80493164 29.74072266 C-38.94415039 28.20351563 -38.94415039 28.20351563 -39.08618164 26.63525391 C-39.16124703 25.27469367 -39.23404427 23.91400697 -39.30493164 22.55322266 C-39.40547852 21.54291992 -39.40547852 21.54291992 -39.50805664 20.51220703 C-39.58618164 18.51025391 -39.58618164 18.51025391 -38.80493164 14.74072266 C-36.46550859 12.47583416 -33.69405486 11.19704033 -30.80493164 9.74072266 C-29.00720331 8.69717716 -27.21309566 7.64737637 -25.42211914 6.59228516 C-23.50959514 5.51403089 -21.59550632 4.43854788 -19.67993164 3.36572266 C-18.71700195 2.80755859 -17.75407227 2.24939453 -16.76196289 1.67431641 C-15.82481445 1.15224609 -14.88766602 0.63017578 -13.92211914 0.09228516 C-13.08277832 -0.3838623 -12.2434375 -0.86000977 -11.37866211 -1.35058594 C-7.11838178 -2.85473728 -4.0227783 -1.80603103 0 0 Z " fill="#5BA9BB" transform="translate(606.804931640625,407.25927734375)"/>
<path d="M0 0 C2.51033138 1.30143908 4.85691491 2.63650749 7.25 4.125 C8.76603157 5.04184698 10.28302258 5.95710868 11.80078125 6.87109375 C12.62916504 7.37237793 13.45754883 7.87366211 14.31103516 8.39013672 C19.31598263 11.3865616 24.38025828 14.28052812 29.4375 17.1875 C31.68626842 18.48295053 33.93496541 19.77852508 36.18359375 21.07421875 C37.31265137 21.72438965 38.44170898 22.37456055 39.60498047 23.04443359 C45.0716998 26.19332054 50.53574887 29.34683264 56 32.5 C58.16665311 33.7500235 60.33331979 35.00002347 62.5 36.25 C75.5 43.75 88.5 51.25 101.5 58.75 C102.5732251 59.36915283 103.6464502 59.98830566 104.75219727 60.6262207 C106.91159395 61.8720577 109.07093669 63.11798818 111.23022461 64.36401367 C116.75767597 67.55348953 122.28615121 70.74116885 127.81640625 73.92578125 C137.58011894 79.54975836 147.34303524 85.17477593 157.0625 90.875 C157.76511963 91.28596924 158.46773926 91.69693848 159.19165039 92.12036133 C163.87952283 94.87952283 163.87952283 94.87952283 165 96 C165.12653592 98.49806105 165.18789565 100.96961352 165.20773315 103.46937561 C165.21775993 104.26087822 165.22778672 105.05238083 165.23811734 105.86786836 C165.27040395 108.54086797 165.2952136 111.2138823 165.31982422 113.88696289 C165.34080809 115.79529092 165.36205442 117.70361608 165.38354492 119.61193848 C165.5715118 137.05476514 165.67413886 154.49854951 165.75568962 171.94216251 C165.81727475 184.84113131 165.9207942 197.73835696 166.07838428 210.63651663 C166.18540421 219.69981578 166.24272878 228.76263469 166.26382077 237.82653612 C166.27790133 243.24252259 166.31440158 248.65622854 166.405056 254.07151985 C166.489529 259.17031983 166.51248931 264.26574186 166.48869324 269.36515045 C166.49066997 271.23413367 166.51485111 273.10324851 166.56312943 274.97160912 C166.844911 286.46479057 166.844911 286.46479057 165 291 C161.07704279 294.97383155 157.14485796 296.81170309 152 299 C149.77861051 300.20631896 147.62188836 301.49474061 145.44921875 302.7890625 C143.19637346 304.06957672 140.94243321 305.34816611 138.6875 306.625 C136.21390363 308.0309032 133.74154681 309.43897565 131.26953125 310.84765625 C130.65392334 311.19833664 130.03831543 311.54901703 129.40405273 311.9103241 C123.53835699 315.25562191 117.70300524 318.65199438 111.875 322.0625 C100.36856475 328.79394144 88.82492696 335.45951357 77.2734375 342.11328125 C74.0352484 343.9796838 70.79860562 345.84873763 67.5625 347.71875 C58.68987187 352.84472333 49.81718942 357.9701062 40.9140625 363.04296875 C40.32203537 363.38048157 39.73000824 363.71799438 39.12004089 364.06573486 C36.1583685 365.75388737 33.19547474 367.43983779 30.23071289 369.12255859 C24.61366059 372.32066916 19.03484707 375.56260706 13.51953125 378.93359375 C12.00697754 379.85277588 12.00697754 379.85277588 10.46386719 380.79052734 C8.5803634 381.94085304 6.7041842 383.10329123 4.83691406 384.27978516 C4.00514648 384.78687012 3.17337891 385.29395508 2.31640625 385.81640625 C1.59912354 386.26443604 0.88184082 386.71246582 0.14282227 387.17407227 C-3.19483238 388.46053525 -5.65360743 387.59249852 -8.83911133 386.19067383 C-9.4142749 385.86607178 -9.98943848 385.54146973 -10.58203125 385.20703125 C-11.25347168 384.83175293 -11.92491211 384.45647461 -12.61669922 384.06982422 C-13.34131348 383.65490723 -14.06592773 383.23999023 -14.8125 382.8125 C-15.59383301 382.37180176 -16.37516602 381.93110352 -17.18017578 381.47705078 C-24.63111697 377.25528676 -32.02075732 372.92644818 -39.40942383 368.59692383 C-47.24230937 364.01018748 -55.1130427 359.49275372 -63 355 C-72.72143706 349.46048161 -82.40895317 343.86624806 -92.06689453 338.21655273 C-102.5806503 332.068295 -113.13329606 325.98802071 -123.68701172 319.90869141 C-132.45122255 314.85942094 -141.21164701 309.80358493 -149.97167969 304.74707031 C-152.92032698 303.04596421 -155.87022045 301.34703651 -158.8203125 299.6484375 C-160.56774414 298.64068708 -162.31514212 297.6328783 -164.0625 296.625 C-164.86034912 296.16641602 -165.65819824 295.70783203 -166.48022461 295.23535156 C-171.88643197 292.11356803 -171.88643197 292.11356803 -173 291 C-173.12653592 288.50193895 -173.18789565 286.03038648 -173.20773315 283.53062439 C-173.21775993 282.73912178 -173.22778672 281.94761917 -173.23811734 281.13213164 C-173.27040395 278.45913203 -173.2952136 275.7861177 -173.31982422 273.11303711 C-173.34080809 271.20470908 -173.36205442 269.29638392 -173.38354492 267.38806152 C-173.5715118 249.94523486 -173.67413886 232.50145049 -173.75568962 215.05783749 C-173.81727475 202.15886869 -173.9207942 189.26164304 -174.07838428 176.36348337 C-174.18540421 167.30018422 -174.24272878 158.23736531 -174.26382077 149.17346388 C-174.27790133 143.75747741 -174.31440158 138.34377146 -174.405056 132.92848015 C-174.489529 127.82968017 -174.51248931 122.73425814 -174.48869324 117.63484955 C-174.49066997 115.76586633 -174.51485111 113.89675149 -174.56312943 112.02839088 C-174.84494604 100.53378018 -174.84494604 100.53378018 -173 96 C-169.07632618 92.02724096 -165.14494305 90.1875628 -160 88 C-157.82547233 86.77384285 -155.66310948 85.52558752 -153.51953125 84.24609375 C-151.28500298 82.97454154 -149.04928614 81.70507618 -146.8125 80.4375 C-144.34182403 79.03234523 -141.87211894 77.62548727 -139.40234375 76.21875 C-138.78224426 75.86582382 -138.16214478 75.51289764 -137.52325439 75.14927673 C-131.29361915 71.60215944 -125.0824978 68.02320336 -118.875 64.4375 C-117.81128174 63.82318115 -116.74756348 63.2088623 -115.65161133 62.57592773 C-113.50690413 61.33707777 -111.3622912 60.09806459 -109.21777344 58.85888672 C-103.81329355 55.73675395 -98.40652588 52.61858796 -93 49.5 C-90.8333225 48.25001878 -88.66665583 47.00001879 -86.5 45.75 C-73.5 38.25 -73.5 38.25 -70.24902344 36.37451172 C-68.08552524 35.12628966 -65.92211357 33.87791761 -63.75878906 32.62939453 C-58.29434983 29.47594744 -52.82836355 26.32523904 -47.359375 23.1796875 C-46.26463867 22.54933594 -45.16990234 21.91898437 -44.04199219 21.26953125 C-41.86665283 20.01763022 -39.69023842 18.76759517 -37.51269531 17.51953125 C-32.19199219 14.46057346 -26.91252843 11.35285028 -21.6875 8.1328125 C-20.18558105 7.21556396 -20.18558105 7.21556396 -18.65332031 6.27978516 C-16.76879641 5.12453968 -14.89253357 3.95566715 -13.02636719 2.77099609 C-5.19381097 -2.01188831 -5.19381097 -2.01188831 0 0 Z M-10.40625 18.97265625 C-11.52918457 19.61726807 -12.65211914 20.26187988 -13.80908203 20.92602539 C-15.03944103 21.638092 -16.26974558 22.35025272 -17.5 23.0625 C-18.77045729 23.793909 -20.04113079 24.52494258 -21.31201172 25.25561523 C-24.58193185 27.13695711 -27.84891687 29.02333366 -31.1151123 30.91113281 C-33.98403727 32.5684614 -36.85536991 34.22160385 -39.7265625 35.875 C-45.07797028 38.95800864 -50.42607614 42.0466985 -55.7734375 45.13671875 C-59.03524007 47.0203505 -62.29861844 48.90122321 -65.5625 50.78125 C-76.01713069 56.80439807 -86.46039158 62.845382 -96.875 68.9375 C-107.76475338 75.30455491 -118.70912023 81.57329116 -129.66796875 87.8203125 C-139.11610788 93.2063055 -148.55743155 98.6042466 -158 104 C-158 163.07 -158 222.14 -158 283 C-145.625 289.93 -145.625 289.93 -133 297 C-120.32225318 304.3785828 -120.32225318 304.3785828 -115.23046875 307.3671875 C-108.51538726 311.29477549 -101.75941278 315.14949706 -95 319 C-85.27857016 324.53953103 -75.59104696 330.13375187 -65.93310547 335.78344727 C-57.60693433 340.65244435 -49.26517472 345.49404091 -40.89501953 350.28710938 C-35.76709685 353.2270464 -30.65839848 356.19017129 -25.60336304 359.25358582 C-23.23075724 360.68943715 -20.84938746 362.11038049 -18.46722412 363.53030396 C-16.78597683 364.5408749 -15.11765197 365.57284591 -13.44970703 366.60522461 C-12.42989746 367.21116455 -11.41008789 367.81710449 -10.359375 368.44140625 C-9.46702148 368.98482666 -8.57466797 369.52824707 -7.65527344 370.08813477 C-4.05802755 371.32348907 -2.42361417 370.532416 1 369 C2.66763046 368.14032365 4.30906879 367.22811924 5.921875 366.26953125 C6.85112793 365.72176025 7.78038086 365.17398926 8.73779297 364.60961914 C9.73182129 364.01656982 10.72584961 363.42352051 11.75 362.8125 C13.91367549 361.53580222 16.07775166 360.25978329 18.2421875 358.984375 C19.35819336 358.32501953 20.47419922 357.66566406 21.62402344 356.98632812 C27.0212633 353.81074644 32.44764 350.6862344 37.875 347.5625 C40.05991376 346.30341652 42.24480949 345.04430177 44.4296875 343.78515625 C45.51475586 343.16012207 46.59982422 342.53508789 47.71777344 341.89111328 C53.14659942 338.76319852 58.57319281 335.63141552 64 332.5 C66.16665583 331.24998121 68.3333225 329.99998122 70.5 328.75 C71.5725 328.13125 72.645 327.5125 73.75 326.875 C77 325 80.25 323.125 83.5 321.25 C84.57290283 320.6310083 85.64580566 320.0120166 86.7512207 319.37426758 C88.91378583 318.1266526 91.07638339 316.87909384 93.23901367 315.6315918 C98.71870371 312.47056551 104.19779358 309.30850691 109.67578125 306.14453125 C111.34350586 305.18160156 111.34350586 305.18160156 113.04492188 304.19921875 C115.10764131 303.00819246 117.17016747 301.81683131 119.23242188 300.625 C129.46885408 294.71544723 139.73715239 288.86448435 150 283 C150 223.93 150 164.86 150 104 C144.06 100.7 138.12 97.4 132 94 C128.15668654 91.78516743 124.32215286 89.56271064 120.5 87.3125 C118.44562799 86.10883637 116.39092877 84.90573107 114.3359375 83.703125 C113.2953418 83.09404297 112.25474609 82.48496094 111.18261719 81.85742188 C105.8410891 78.74002807 100.48351626 75.65057458 95.125 72.5625 C94.04541016 71.94028564 92.96582031 71.31807129 91.85351562 70.67700195 C89.6631748 69.41488483 87.47274498 68.15292215 85.28222656 66.89111328 C79.85340058 63.76319852 74.42680719 60.63141552 69 57.5 C66.83334417 56.24998121 64.6666775 54.99998122 62.5 53.75 C49.5 46.25 49.5 46.25 46.24536133 44.37231445 C44.09416776 43.13124746 41.94296345 41.89019907 39.79174805 40.64916992 C34.74037001 37.73501656 29.6890969 34.82068182 24.63821411 31.90567017 C22.84933082 30.87326522 21.06041283 29.84092044 19.27148438 28.80859375 C17.02662364 27.51314052 14.7818281 26.2175743 12.53710938 24.921875 C10.55498363 23.7780992 8.57213093 22.63558177 6.58837891 21.49462891 C4.98204251 20.56706888 3.37939541 19.63304926 1.78271484 18.68896484 C-3.73635805 15.44403994 -4.92515672 15.81270146 -10.40625 18.97265625 Z " fill="#5CAABC" transform="translate(604,294)"/>
<path d="M0 0 C0.66 0 1.32 0 2 0 C1.86899902 1.37128052 1.86899902 1.37128052 1.73535156 2.77026367 C1.63098878 6.85789581 1.83469901 10.06947979 3 14 C7.02516077 17.90021618 11.71584739 20.02498006 16.75 22.3125 C18.05447038 22.95808965 19.35659151 23.60844918 20.65625 24.26367188 C28.01194825 28.19660508 28.01194825 28.19660508 36 30 C39.13069181 28.77996629 39.13069181 28.77996629 42.32421875 26.8515625 C42.91169388 26.51957855 43.49916901 26.1875946 44.10444641 25.84555054 C45.97346593 24.78539456 47.83033383 23.70576052 49.6875 22.625 C50.94780705 21.90491705 52.20886796 21.18615181 53.47070312 20.46875 C55.77666987 19.15605393 58.07659429 17.83451663 60.3737793 16.50634766 C61.89512977 15.63373146 63.43131487 14.78434256 65 14 C65.47001033 10.72444392 65.47001033 10.72444392 65.625 6.9375 C65.69976563 5.64714844 65.77453125 4.35679687 65.8515625 3.02734375 C65.92503906 1.52880859 65.92503906 1.52880859 66 0 C69.75140439 1.41912664 73.21835569 3.1191031 76.73828125 5.0390625 C77.80498047 5.61914062 78.87167969 6.19921875 79.97070312 6.796875 C81.07349609 7.40015625 82.17628906 8.0034375 83.3125 8.625 C84.99569336 9.54152344 84.99569336 9.54152344 86.71289062 10.4765625 C89.47660679 11.98190577 92.23848316 13.4906259 95 15 C95 23.25 95 31.5 95 40 C89 38 89 38 86 36 C81.66009148 36.31462023 78.38765277 38.23996263 74.640625 40.34375 C73.7558548 40.83748108 73.7558548 40.83748108 72.85321045 41.34118652 C71.61439655 42.03402884 70.37738016 42.73009394 69.14208984 43.42919922 C67.24556627 44.50250921 65.34407295 45.5665309 63.44140625 46.62890625 C57.89336188 49.38066587 57.89336188 49.38066587 53 53 C52.91144839 55.6662603 52.88475327 58.30647114 52.90234375 60.97265625 C52.9037587 61.77029892 52.90517365 62.56794159 52.90663147 63.38975525 C52.91224684 65.94737435 52.92480188 68.50490718 52.9375 71.0625 C52.94251302 72.79231645 52.94707627 74.52213426 52.95117188 76.25195312 C52.96137209 80.50136239 52.98094432 84.75058416 53 89 C57.62 91.64 62.24 94.28 67 97 C67 97.99 67 98.98 67 100 C66.23856689 100.40839111 65.47713379 100.81678223 64.69262695 101.23754883 C61.8499795 102.76294052 59.00792513 104.28943005 56.16625977 105.81665039 C54.93960601 106.47561531 53.71272137 107.13415063 52.4855957 107.79223633 C50.71504063 108.74185194 48.94540184 109.69317534 47.17578125 110.64453125 C46.11270752 111.21534424 45.04963379 111.78615723 43.9543457 112.37426758 C41.01039936 113.92287602 41.01039936 113.92287602 38.48901367 115.7722168 C35.17298027 117.40795313 33.51901782 117.00401276 30 116 C27.31860352 114.7565918 27.31860352 114.7565918 24.62890625 113.19921875 C23.64212891 112.63396484 22.65535156 112.06871094 21.63867188 111.48632812 C20.1159668 110.5959082 20.1159668 110.5959082 18.5625 109.6875 C17.55123047 109.10548828 16.53996094 108.52347656 15.49804688 107.92382812 C13.54222406 106.79728439 11.58850992 105.6670696 9.63720703 104.53271484 C6.43443935 102.67130256 3.21880684 100.83349756 0 99 C2.99474606 95.59863684 5.45903539 94.40635682 9.67578125 92.8984375 C12.71039338 91.47385138 12.71039338 91.47385138 15 89 C16.56645743 82.87537644 16.35949984 76.90752046 16.1875 70.625 C16.18053721 68.91798183 16.17853218 67.21093579 16.18164062 65.50390625 C16.17846084 61.33342871 16.10750833 57.16903995 16 53 C15.38068604 52.66266846 14.76137207 52.32533691 14.12329102 51.9777832 C11.26948503 50.42307205 8.41599093 48.86778931 5.5625 47.3125 C4.58861328 46.78205078 3.61472656 46.25160156 2.61132812 45.70507812 C1.1659668 44.91713867 1.1659668 44.91713867 -0.30859375 44.11328125 C-1.26749512 43.59459473 -2.22639648 43.0759082 -3.21435547 42.54150391 C-5.01350313 41.54590195 -6.79570677 40.51874414 -8.55517578 39.45458984 C-9.72089111 38.7558374 -9.72089111 38.7558374 -10.91015625 38.04296875 C-11.58312744 37.62426514 -12.25609863 37.20556152 -12.94946289 36.77416992 C-15.66755448 35.74796818 -17.25006158 36.17315383 -20 37 C-21.68029994 37.97691857 -23.34928604 38.97388051 -25 40 C-25.66 40 -26.32 40 -27 40 C-27 31.75 -27 23.5 -27 15 C-25.13472656 14.00097656 -23.26945313 13.00195312 -21.34765625 11.97265625 C-19.54705073 11.00669612 -17.74677632 10.04012166 -15.9465332 9.07348633 C-14.69264693 8.40064156 -13.438416 7.72843866 -12.18383789 7.05688477 C-10.38337233 6.09298479 -8.58414805 5.12680337 -6.78515625 4.16015625 C-5.70113525 3.57886963 -4.61711426 2.99758301 -3.50024414 2.39868164 C-1.13192656 1.22255544 -1.13192656 1.22255544 0 0 Z " fill="#24527A" transform="translate(566,445)"/>
<path d="M0 0 C6.23545384 3.25816507 10.10693786 6.62546793 13.1015625 13.08203125 C15.79864313 21.97362633 15.38005245 31.55149869 11.5 40 C8.0327351 45.95553737 4.50909656 48.60503346 -1.6875 51.5625 C-9.0717301 53.12454868 -16.04944259 53.11890029 -22.8671875 49.63671875 C-28.60528625 45.79327525 -32.67435519 40.54002932 -34.4921875 33.85546875 C-36.12189638 24.32024223 -35.64250841 16.35414 -30.859375 7.82421875 C-23.64676431 -1.83657484 -11.02309691 -4.72418439 0 0 Z " fill="#5BA9BB" transform="translate(570.9375,807.75)"/>
<path d="M0 0 C6.08426948 4.15738951 10.66103091 10.09058414 12.03515625 17.390625 C13.08155403 27.5799234 11.61217817 36.02926192 5.34765625 44.265625 C0.38170778 49.5171155 -5.38095549 51.59057193 -12.52734375 51.828125 C-19.38713503 51.54070358 -25.44967831 49.7974718 -30.578125 44.9921875 C-37.15130445 37.40062814 -37.904596 29.37020585 -37.44921875 19.69140625 C-36.84821226 12.71760622 -34.2556428 7.20232735 -29.08984375 2.453125 C-20.05301686 -3.51118075 -9.99737505 -5.152912 0 0 Z " fill="#5BA9BB" transform="translate(778.96484375,808.609375)"/>
<path d="M0 0 C4.62 0 9.24 0 14 0 C14.33 8.58 14.66 17.16 15 26 C16.65 24.68 18.3 23.36 20 22 C25.42326443 20.19224519 30.38427602 20.49674171 35.8125 22.1875 C40.10925472 24.63075269 42.18341278 27.05937446 44.09326172 31.59814453 C45.22955748 35.86124232 45.25041976 39.72833778 45.1953125 44.1171875 C45.1924826 44.97434357 45.18965271 45.83149963 45.18673706 46.71463013 C45.17559999 49.43489932 45.1505076 52.15483141 45.125 54.875 C45.11496182 56.72655772 45.10583744 58.57812064 45.09765625 60.4296875 C45.07568188 64.9532536 45.041197 69.47656977 45 74 C40.38 74 35.76 74 31 74 C30.9906543 72.90010742 30.98130859 71.80021484 30.97167969 70.66699219 C30.93177063 66.58145834 30.86600996 62.49667681 30.79248047 58.41162109 C30.76427603 56.64446689 30.74305882 54.87718666 30.72900391 53.10986328 C30.70756642 50.56737778 30.66091497 48.02640662 30.609375 45.484375 C30.60814636 44.69569031 30.60691772 43.90700562 30.60565186 43.09442139 C30.50959149 39.48720274 30.30899785 37.40485153 28.08911133 34.49633789 C24.6191179 32.01093533 22.19008544 32.66745354 18 33 C16.515 33.495 16.515 33.495 15 34 C14.67 47.2 14.34 60.4 14 74 C9.38 74 4.76 74 0 74 C0 49.58 0 25.16 0 0 Z " fill="#5BA9BB" transform="translate(298,785)"/>
<path d="M0 0 C3.89227844 2.82539683 5.54650197 5.94028716 7.06640625 10.5 C7.20784103 13.0250482 7.2995133 15.52779 7.34765625 18.0546875 C7.37527039 19.16253098 7.37527039 19.16253098 7.40344238 20.29275513 C7.46212967 22.65342328 7.51494781 25.01416388 7.56640625 27.375 C7.63431756 30.47670643 7.7080482 33.57819766 7.78515625 36.6796875 C7.79873169 37.38817841 7.81230713 38.09666931 7.82629395 38.82662964 C7.91958433 42.56909151 8.32463032 45.79112035 9.06640625 49.5 C4.44640625 49.5 -0.17359375 49.5 -4.93359375 49.5 C-5.42859375 47.025 -5.42859375 47.025 -5.93359375 44.5 C-6.59359375 44.5 -7.25359375 44.5 -7.93359375 44.5 C-7.93359375 45.16 -7.93359375 45.82 -7.93359375 46.5 C-13.20323256 50.1594714 -18.51174861 51.55675933 -24.93359375 50.5 C-29.12910389 48.56303542 -32.87845785 45.98518435 -35.93359375 42.5 C-37.85957302 36.72206218 -37.87078066 30.64772001 -35.43359375 25.0625 C-30.52093233 20.02702205 -24.46889677 17.59998029 -17.48046875 17.40234375 C-15.60101562 17.41974609 -15.60101562 17.41974609 -13.68359375 17.4375 C-11.78867187 17.45103516 -11.78867187 17.45103516 -9.85546875 17.46484375 C-8.89125 17.47644531 -7.92703125 17.48804688 -6.93359375 17.5 C-7.20171875 16.22125 -7.46984375 14.9425 -7.74609375 13.625 C-7.89691406 12.90570312 -8.04773438 12.18640625 -8.203125 11.4453125 C-8.85668213 9.12953451 -8.85668213 9.12953451 -11.93359375 7.5 C-15.43359375 6.91666667 -15.43359375 6.91666667 -18.93359375 7.5 C-19.35253906 8.32757812 -19.77148438 9.15515625 -20.203125 10.0078125 C-20.77417969 10.83023438 -21.34523438 11.65265625 -21.93359375 12.5 C-25.2890625 12.98828125 -25.2890625 12.98828125 -29.12109375 12.8125 C-30.39339844 12.76738281 -31.66570313 12.72226562 -32.9765625 12.67578125 C-33.95238281 12.61777344 -34.92820312 12.55976562 -35.93359375 12.5 C-36.13218742 9.74805912 -36.22753651 8.0107516 -34.83203125 5.5859375 C-25.69535 -4.67525836 -12.07798146 -6.82415646 0 0 Z " fill="#5BA9BA" transform="translate(685.93359375,809.5)"/>
<path d="M0 0 C6.40489768 3.27800571 9.50043227 7.87608066 12.125 14.4375 C12.125 19.3875 12.125 24.3375 12.125 29.4375 C1.565 29.4375 -8.995 29.4375 -19.875 29.4375 C-17.75249989 36.93917117 -17.75249989 36.93917117 -14.6875 39.4375 C-9.52385738 41.27346182 -5.51705755 41.11910879 -0.5625 39.0625 C1.36132814 37.89925508 3.25441224 36.6845585 5.125 35.4375 C6.16031726 36.33777588 7.17794165 37.25843035 8.1875 38.1875 C8.75597656 38.69796875 9.32445312 39.2084375 9.91015625 39.734375 C11.125 41.4375 11.125 41.4375 11.04296875 43.4765625 C9.88198837 45.95661421 8.72745634 46.69170777 6.375 48.0625 C5.69953125 48.46726562 5.0240625 48.87203125 4.328125 49.2890625 C-2.13453439 52.65789559 -7.63306526 53.39789995 -14.875 52.4375 C-22.66558919 49.96593793 -27.79175219 46.49339885 -31.88671875 39.390625 C-35.7047063 31.84519507 -35.26539281 20.40675143 -33.00390625 12.32421875 C-26.45728924 -0.10362142 -13.2027073 -5.21395051 0 0 Z " fill="#5BAABB" transform="translate(217.875,807.5625)"/>
<path d="M0 0 C5.07524461 2.16971424 7.64302384 5.17934493 9.7265625 10.3359375 C10.24137745 13.64019618 10.19525788 16.86956039 10.1171875 20.20703125 C10.11152771 21.1293605 10.10586792 22.05168976 10.10003662 23.00196838 C10.07777887 25.92633608 10.02760297 28.84944481 9.9765625 31.7734375 C9.95648377 33.76495617 9.93823541 35.75649419 9.921875 37.74804688 C9.8779489 42.61115667 9.80899563 47.47333418 9.7265625 52.3359375 C5.1065625 52.3359375 0.4865625 52.3359375 -4.2734375 52.3359375 C-4.28802002 51.20051514 -4.30260254 50.06509277 -4.31762695 48.89526367 C-4.37557426 44.68498141 -4.45280691 40.475236 -4.53588867 36.26538086 C-4.5691549 34.44287831 -4.59718156 32.62027231 -4.61987305 30.79760742 C-4.65338831 28.178425 -4.70570102 25.56019202 -4.76171875 22.94140625 C-4.76810867 22.12568649 -4.7744986 21.30996674 -4.78108215 20.4695282 C-4.78924881 16.28177139 -4.78924881 16.28177139 -6.55436707 12.62007141 C-8.97280536 10.81351447 -11.2994864 10.97147451 -14.23828125 10.9375 C-17.11072711 11.49985984 -18.23514585 12.18879113 -20.2734375 14.3359375 C-20.69895453 17.32045607 -20.87830956 19.9518045 -20.8828125 22.94140625 C-20.89934875 23.78061111 -20.91588501 24.61981598 -20.93292236 25.48445129 C-20.98149773 28.16418708 -21.00279378 30.84335507 -21.0234375 33.5234375 C-21.05158931 35.34052351 -21.08151563 37.15758295 -21.11328125 38.97460938 C-21.1872589 43.42833868 -21.23677493 47.88175101 -21.2734375 52.3359375 C-25.8934375 52.3359375 -30.5134375 52.3359375 -35.2734375 52.3359375 C-35.2734375 35.1759375 -35.2734375 18.0159375 -35.2734375 0.3359375 C-30.6534375 0.3359375 -26.0334375 0.3359375 -21.2734375 0.3359375 C-20.9434375 1.6559375 -20.6134375 2.9759375 -20.2734375 4.3359375 C-19.81195312 3.975 -19.35046875 3.6140625 -18.875 3.2421875 C-12.71097266 -1.1432865 -7.32226188 -2.13880502 0 0 Z " fill="#5BA9BA" transform="translate(995.2734375,806.6640625)"/>
<path d="M0 0 C4.12593192 2.87855716 7.06537651 6.00862953 8.6875 10.875 C8.77317246 12.24092183 8.80523647 13.61064858 8.80102539 14.97924805 C8.80094986 15.79987228 8.80087433 16.62049652 8.80079651 17.46598816 C8.79563522 18.34732925 8.79047394 19.22867035 8.78515625 20.13671875 C8.7837413 21.04251175 8.78232635 21.94830475 8.78086853 22.88154602 C8.77527001 25.77523091 8.76271781 28.66883849 8.75 31.5625 C8.74498481 33.52408742 8.74042193 35.48567606 8.73632812 37.44726562 C8.72530107 42.25654021 8.70803747 47.065757 8.6875 51.875 C4.0675 51.875 -0.5525 51.875 -5.3125 51.875 C-5.33755615 50.73434082 -5.3626123 49.59368164 -5.38842773 48.41845703 C-5.48244293 44.19535659 -5.58267787 39.97242291 -5.68481445 35.74951172 C-5.72818565 33.92012425 -5.76985911 32.09069573 -5.80981445 30.26123047 C-5.86746418 27.63496514 -5.93117365 25.0089069 -5.99609375 22.3828125 C-6.01280624 21.56193146 -6.02951874 20.74105042 -6.04673767 19.89529419 C-6.0556387 15.7516304 -6.0556387 15.7516304 -7.3125 11.875 C-11.4847158 10.4842614 -15.39354378 10.01610196 -19.49707031 11.8527832 C-22.31893713 14.99607568 -21.91581663 18.45818289 -21.921875 22.48046875 C-21.93841125 23.31967361 -21.95494751 24.15887848 -21.97198486 25.02351379 C-22.02056023 27.70324958 -22.04185628 30.38241757 -22.0625 33.0625 C-22.09065181 34.87958601 -22.12057813 36.69664545 -22.15234375 38.51367188 C-22.2263214 42.96740118 -22.27583743 47.42081351 -22.3125 51.875 C-26.9325 51.875 -31.5525 51.875 -36.3125 51.875 C-36.3125 34.715 -36.3125 17.555 -36.3125 -0.125 C-32.0225 -0.125 -27.7325 -0.125 -23.3125 -0.125 C-23.3125 1.525 -23.3125 3.175 -23.3125 4.875 C-22.70664062 4.441875 -22.10078125 4.00875 -21.4765625 3.5625 C-14.13000727 -1.32013363 -8.4846586 -2.88158217 0 0 Z " fill="#5BAABB" transform="translate(455.3125,807.125)"/>
<path d="M0 0 C4.38460756 4.17072427 6.74913453 8.05500883 7.01660156 14.08764648 C7.01597583 15.82809075 6.99382648 17.56862536 6.953125 19.30859375 C6.94746521 20.230923 6.94180542 21.15325226 6.93597412 22.10353088 C6.91371637 25.02789858 6.86354047 27.95100731 6.8125 30.875 C6.79242127 32.86651867 6.77417291 34.85805669 6.7578125 36.84960938 C6.7138864 41.71271917 6.64493313 46.57489668 6.5625 51.4375 C2.2725 51.4375 -2.0175 51.4375 -6.4375 51.4375 C-6.4468457 50.33760742 -6.45619141 49.23771484 -6.46582031 48.10449219 C-6.50572937 44.01895834 -6.57149004 39.93417681 -6.64501953 35.84912109 C-6.67322397 34.08196689 -6.69444118 32.31468666 -6.70849609 30.54736328 C-6.72993358 28.00487778 -6.77658503 25.46390662 -6.828125 22.921875 C-6.82935364 22.13319031 -6.83058228 21.34450562 -6.83184814 20.53192139 C-6.92790106 16.92498232 -7.12527336 14.84503625 -9.35058594 11.94042969 C-11.61472872 10.30986546 -12.67894481 9.89439758 -15.4375 9.9375 C-16.4275 9.92203125 -16.4275 9.92203125 -17.4375 9.90625 C-20.46769621 10.71114587 -21.52862252 11.94592281 -23.4375 14.4375 C-23.85530431 17.3845526 -24.04228118 19.97301763 -24.046875 22.921875 C-24.06341125 23.73746887 -24.07994751 24.55306274 -24.09698486 25.39337158 C-24.14546583 27.99149097 -24.16683523 30.58902509 -24.1875 33.1875 C-24.21565972 34.95185236 -24.24558716 36.71617746 -24.27734375 38.48046875 C-24.35122442 42.79943097 -24.40079812 47.11806829 -24.4375 51.4375 C-28.7275 51.4375 -33.0175 51.4375 -37.4375 51.4375 C-37.4375 34.2775 -37.4375 17.1175 -37.4375 -0.5625 C-33.1475 -0.5625 -28.8575 -0.5625 -24.4375 -0.5625 C-24.1075 0.7575 -23.7775 2.0775 -23.4375 3.4375 C-22.509375 2.798125 -21.58125 2.15875 -20.625 1.5 C-14.33543132 -2.56972091 -6.84340734 -3.1106397 0 0 Z " fill="#5CAABC" transform="translate(516.4375,807.5625)"/>
<path d="M0 0 C18.81 0 37.62 0 57 0 C57 3.63 57 7.26 57 11 C50.07 11 43.14 11 36 11 C36 30.47 36 49.94 36 70 C31.05 70 26.1 70 21 70 C21 50.53 21 31.06 21 11 C14.07 11 7.14 11 0 11 C0 7.37 0 3.74 0 0 Z " fill="#5BA9BA" transform="translate(121,789)"/>
<path d="M0 0 C3.27323797 2.24131355 6.14472624 4.75910323 7.9453125 8.33203125 C7.9453125 10.31203125 7.9453125 12.29203125 7.9453125 14.33203125 C3.3253125 14.33203125 -1.2946875 14.33203125 -6.0546875 14.33203125 C-6.7146875 12.68203125 -7.3746875 11.03203125 -8.0546875 9.33203125 C-9.64362822 7.74309053 -11.30270174 8.16204714 -13.4921875 8.14453125 C-14.29527344 8.13035156 -15.09835937 8.11617187 -15.92578125 8.1015625 C-18.27099383 8.13040769 -18.27099383 8.13040769 -20.0546875 10.33203125 C-20.22149859 13.41550951 -20.22149859 13.41550951 -20.0546875 16.33203125 C-19.25546875 16.47898437 -18.45625 16.6259375 -17.6328125 16.77734375 C-9.15416201 18.50889913 0.51383072 20.75635809 6.74609375 27.19140625 C9.07386973 31.34652428 8.71908081 35.74143941 7.9453125 40.33203125 C5.69836591 45.14314042 1.98221691 47.59946989 -2.7421875 49.76953125 C-10.28588241 52.40131654 -17.98466616 52.48228556 -25.34375 49.23828125 C-30.85816442 46.3174042 -33.40587251 42.82586976 -36.0546875 37.33203125 C-36.0546875 36.01203125 -36.0546875 34.69203125 -36.0546875 33.33203125 C-31.4346875 33.33203125 -26.8146875 33.33203125 -22.0546875 33.33203125 C-21.7246875 35.31203125 -21.3946875 37.29203125 -21.0546875 39.33203125 C-16.52727578 40.84116849 -11.99041952 41.10632406 -7.5546875 39.33203125 C-7.0596875 39.00203125 -6.5646875 38.67203125 -6.0546875 38.33203125 C-6.0546875 36.68203125 -6.0546875 35.03203125 -6.0546875 33.33203125 C-10.32957388 31.38890108 -14.5656536 29.84434575 -19.0546875 28.45703125 C-24.95063488 26.51388067 -30.07953804 24.5094456 -33.4921875 19.01953125 C-35.2979694 10.39190659 -35.2979694 10.39190659 -32.734375 6.14453125 C-24.5316148 -3.86062917 -11.61830219 -6.06638288 0 0 Z " fill="#5BA9BA" transform="translate(877.0546875,808.66796875)"/>
<path d="M0 0 C4.7472408 2.84433837 7.65376124 6.3601458 9.8125 11.5 C10.5 14.375 10.5 14.375 10.5 18.375 C6.21 18.375 1.92 18.375 -2.5 18.375 C-2.768125 17.240625 -3.03625 16.10625 -3.3125 14.9375 C-3.704375 13.761875 -4.09625 12.58625 -4.5 11.375 C-7.17643957 10.48285348 -8.75384378 10.23959789 -11.5 10.25 C-12.180625 10.24742187 -12.86125 10.24484375 -13.5625 10.2421875 C-15.71874781 10.30868874 -15.71874781 10.30868874 -18.5 11.375 C-20.10322236 15.62609142 -19.72282567 20.33213311 -19.75 24.8125 C-19.770625 25.65876953 -19.79125 26.50503906 -19.8125 27.37695312 C-19.84290319 32.23006284 -19.621903 35.4095525 -16.5 39.375 C-15.3448749 40.75677162 -15.3448749 40.75677162 -12.1875 40.5 C-8.17306727 40.54388074 -8.17306727 40.54388074 -4.5 39.375 C-3.84 37.395 -3.18 35.415 -2.5 33.375 C1.79 33.375 6.08 33.375 10.5 33.375 C10.14199655 39.22238969 8.72909348 43.19773364 4.5 47.375 C-2.01271245 51.65219806 -8.76954593 53.24219837 -16.5 52.375 C-23.11478377 50.56898996 -27.87290911 47.21131898 -31.5 41.375 C-34.42353285 35.76516609 -34.99237758 31.21848857 -34.9375 24.9375 C-34.95748047 24.12990234 -34.97746094 23.32230469 -34.99804688 22.49023438 C-34.992441 15.53333755 -33.13679665 10.38398863 -28.53515625 5.1328125 C-27.88417969 4.59398437 -27.23320312 4.05515625 -26.5625 3.5 C-25.91410156 2.94570313 -25.26570312 2.39140625 -24.59765625 1.8203125 C-17.63739062 -2.97540125 -7.6910386 -3.51590336 0 0 Z " fill="#5BA9BB" transform="translate(275.5,807.625)"/>
<path d="M0 0 C3.98258302 2.4131753 7.28516321 5.34305477 9.5625 9.4375 C10.30735831 12.53532132 10.46363675 15.22444447 10.5625 18.4375 C6.2725 18.4375 1.9825 18.4375 -2.4375 18.4375 C-2.89125 17.303125 -3.345 16.16875 -3.8125 15 C-5.00845806 11.39028308 -5.00845806 11.39028308 -7.4375 10.4375 C-12.70827153 9.88985133 -12.70827153 9.88985133 -17.375 11.75 C-20.06024556 16.01480177 -19.65666022 20.46294386 -19.6875 25.3125 C-19.708125 26.11558594 -19.72875 26.91867187 -19.75 27.74609375 C-19.78112543 32.46937731 -19.52836599 35.61142803 -16.4375 39.4375 C-13.34576248 40.98336876 -10.84320448 40.73109521 -7.4375 40.4375 C-4.53032927 38.21886971 -3.59768357 36.91805071 -2.4375 33.4375 C1.8525 33.4375 6.1425 33.4375 10.5625 33.4375 C10.5625 39.76934354 10.23339662 41.00371864 6.51953125 45.53515625 C1.58562171 50.33119207 -4.08859757 52.6943836 -10.9375 53.0625 C-17.72726582 52.69756209 -23.50344048 50.39585815 -28.32421875 45.53515625 C-34.80410799 37.36076813 -35.30266134 28.524685 -34.67578125 18.45654297 C-33.82576742 11.25406924 -29.76069287 6.03933573 -24.28125 1.59375 C-17.26321895 -2.80738811 -7.59803568 -3.41764926 0 0 Z " fill="#5BA9BB" transform="translate(1052.4375,807.5625)"/>
<path d="M0 0 C4.62 0 9.24 0 14 0 C16.5211519 6.35571827 18.38332194 12.76712594 20.125 19.375 C20.64655551 21.3416459 21.16990263 23.30781782 21.6953125 25.2734375 C22.0358667 26.56386963 22.0358667 26.56386963 22.38330078 27.88037109 C22.93957358 30.02876239 22.93957358 30.02876239 24 32 C25.12759871 28.16742629 26.25160515 24.33380784 27.375 20.5 C27.69210937 19.42234375 28.00921875 18.3446875 28.3359375 17.234375 C30.01032755 11.51354233 31.60726096 5.7960453 33 0 C37.95 0 42.9 0 48 0 C47.66266846 1.00675781 47.32533691 2.01351562 46.9777832 3.05078125 C45.69947388 6.86729873 44.42330355 10.68452883 43.14770508 14.50195312 C42.60041629 16.13886014 42.05258457 17.77558576 41.50415039 19.41210938 C37.87690994 30.23731095 34.35905469 41.08848098 31 52 C26.38 52 21.76 52 17 52 C14.5750695 44.91716951 12.15409047 37.83300579 9.73681641 30.74755859 C8.91336695 28.33572619 8.08882543 25.92426636 7.26318359 23.51318359 C6.07885248 20.05402681 4.89841336 16.59356344 3.71875 13.1328125 C3.34689575 12.04944611 2.9750415 10.96607971 2.59191895 9.84988403 C2.25156616 8.8489975 1.91121338 7.84811096 1.56054688 6.81689453 C1.2585437 5.93309113 0.95654053 5.04928772 0.64538574 4.13870239 C0 2 0 2 0 0 Z " fill="#5BAABB" transform="translate(593,807)"/>
<path d="M0 0 C4.62 0 9.24 0 14 0 C14 4.29 14 8.58 14 13 C16.97 13 19.94 13 23 13 C23 16.3 23 19.6 23 23 C20.03 23 17.06 23 14 23 C14.11798252 27.11193736 14.24221059 31.22363288 14.37231445 35.33520508 C14.41571434 36.73489199 14.45738564 38.13463359 14.49731445 39.53442383 C14.55489445 41.54261495 14.61914 43.55061149 14.68359375 45.55859375 C14.72025146 46.76829834 14.75690918 47.97800293 14.79467773 49.22436523 C14.68938266 51.90705456 14.68938266 51.90705456 16 53 C17.34747084 53.23075082 18.70377565 53.41153063 20.0625 53.5625 C21.361875 53.706875 22.66125 53.85125 24 54 C24 57.63 24 61.26 24 65 C17.8495947 66.53760133 12.32466739 67.18346703 6.5625 64.25 C3.24185456 61.33431132 1.39854018 59.19562054 0 55 C-0.0845387 52.5589224 -0.11605786 50.14740787 -0.09765625 47.70703125 C-0.0962413 47.00100266 -0.09482635 46.29497406 -0.09336853 45.56755066 C-0.08777764 43.31582374 -0.07522688 41.06419679 -0.0625 38.8125 C-0.05748382 37.28450665 -0.05292112 35.75651173 -0.04882812 34.22851562 C-0.0378112 30.48563865 -0.02055287 26.74283627 0 23 C-2.31 23 -4.62 23 -7 23 C-7 19.7 -7 16.4 -7 13 C-4.69 13 -2.38 13 0 13 C0 8.71 0 4.42 0 0 Z " fill="#5BA8BA" transform="translate(710,794)"/>
<path d="M0 0 C4.95 0 9.9 0 15 0 C15 23.1 15 46.2 15 70 C10.05 70 5.1 70 0 70 C0 46.9 0 23.8 0 0 Z " fill="#5AA8BA" transform="translate(929,789)"/>
<path d="M0 0 C4.95 0 9.9 0 15 0 C15 23.1 15 46.2 15 70 C10.05 70 5.1 70 0 70 C0 46.9 0 23.8 0 0 Z " fill="#5AA8BA" transform="translate(388,789)"/>
<path d="M0 0 C0 4.29 0 8.58 0 13 C-2.44140625 13.13020833 -4.8828125 13.26041667 -7.32421875 13.390625 C-10.8927118 14.20330371 -12.45326775 15.35909935 -15 18 C-15.51654351 20.87244855 -15.72219818 23.17389691 -15.70703125 26.046875 C-15.72215256 26.81807678 -15.73727386 27.58927856 -15.75285339 28.3838501 C-15.79573495 30.83953069 -15.80456806 33.2939823 -15.8125 35.75 C-15.83564421 37.41800143 -15.8610094 39.08597363 -15.88867188 40.75390625 C-15.95152782 44.83604614 -15.98385956 48.9174189 -16 53 C-20.29 53 -24.58 53 -29 53 C-29 35.84 -29 18.68 -29 1 C-24.71 1 -20.42 1 -16 1 C-15.67 2.32 -15.34 3.64 -15 5 C-14.21625 4.360625 -13.4325 3.72125 -12.625 3.0625 C-8.1481296 -0.45504103 -5.56678145 -0.0897868 0 0 Z " fill="#5CABBC" transform="translate(833,806)"/>
<path d="M0 0 C4.0873952 2.39912327 5.57334534 4.56428768 7 9 C7.818117 16.20804135 8.23974398 23.60333063 3.69140625 29.62890625 C1.00455126 31.8069342 -1.43909252 32.22175621 -4.84765625 32.3125 C-8.14426571 31.83386342 -9.78639308 30.41484392 -12 28 C-14.69799198 23.95301203 -14.33137116 20.87298435 -14.3125 16.125 C-14.32861328 15.32191406 -14.34472656 14.51882813 -14.36132812 13.69140625 C-14.36521157 8.97690583 -14.08756244 5.80341416 -11 2 C-7.30390328 -0.46406448 -4.28972609 -0.67864807 0 0 Z " fill="#25537B" transform="translate(770,817)"/>
<path d="M0 0 C3.20087838 0.08132903 4.20654538 0.38659284 7.0625 2.125 C11.17233907 6.47659431 11.48213548 9.78325014 11.5 15.75 C11.51675781 17.03648437 11.53351562 18.32296875 11.55078125 19.6484375 C11.08771897 24.39856027 9.69922363 27.75529611 6.4375 31.25 C3.14716302 32.89516849 0.81641507 32.82065624 -2.8125 32.375 C-6.86131552 29.94571069 -8.4167833 27.81423989 -9.8125 23.375 C-10.1484375 19.81640625 -10.1484375 19.81640625 -10.1875 15.9375 C-10.21585938 14.66003906 -10.24421875 13.38257813 -10.2734375 12.06640625 C-9.49746728 5.8520685 -6.43064255 0.63252222 0 0 Z " fill="#24537B" transform="translate(559.8125,816.625)"/>
<path d="M0 0 C3.25501507 1.30200603 6.15491274 2.53315948 9.20703125 4.1640625 C9.88483643 4.5245166 10.5626416 4.8849707 11.26098633 5.25634766 C12.10298584 5.70800293 12.94498535 6.1596582 13.8125 6.625 C16.514375 8.06875 19.21625 9.5125 22 11 C22 18.92 22 26.84 22 35 C15.25 32.75 15.25 32.75 11.9140625 30.8359375 C10.96200928 30.29525635 10.96200928 30.29525635 9.99072266 29.74365234 C9.21003418 29.29199707 8.4293457 28.8403418 7.625 28.375 C5.10875 26.93125 2.5925 25.4875 0 24 C0 16.08 0 8.16 0 0 Z " fill="#25547C" transform="translate(625,506)"/>
<path d="M0 0 C3.25501507 1.30200603 6.15491274 2.53315948 9.20703125 4.1640625 C9.88483643 4.5245166 10.5626416 4.8849707 11.26098633 5.25634766 C12.10298584 5.70800293 12.94498535 6.1596582 13.8125 6.625 C16.514375 8.06875 19.21625 9.5125 22 11 C22 18.92 22 26.84 22 35 C15.25 32.75 15.25 32.75 11.9140625 30.8359375 C10.96200928 30.29525635 10.96200928 30.29525635 9.99072266 29.74365234 C9.21003418 29.29199707 8.4293457 28.8403418 7.625 28.375 C5.10875 26.93125 2.5925 25.4875 0 24 C0 16.08 0 8.16 0 0 Z " fill="#25547C" transform="translate(524,506)"/>
<path d="M0 0 C0.66 0 1.32 0 2 0 C2 7.92 2 15.84 2 24 C-1.25875 25.815 -4.5175 27.63 -7.875 29.5 C-8.90093262 30.07427734 -9.92686523 30.64855469 -10.98388672 31.24023438 C-11.79100098 31.68689453 -12.59811523 32.13355469 -13.4296875 32.59375 C-14.25710449 33.05458984 -15.08452148 33.51542969 -15.93701172 33.99023438 C-18 35 -18 35 -20 35 C-20 27.08 -20 19.16 -20 11 C-10.5625 6.0625 -10.5625 6.0625 -7.58422852 4.50805664 C-6.81522217 4.10449951 -6.04621582 3.70094238 -5.25390625 3.28515625 C-4.06776733 2.66459351 -4.06776733 2.66459351 -2.85766602 2.03149414 C-1.04434725 1.13599249 -1.04434725 1.13599249 0 0 Z " fill="#25547B" transform="translate(674,506)"/>
<path d="M0 0 C0 7.92 0 15.84 0 24 C-3.25875 25.815 -6.5175 27.63 -9.875 29.5 C-10.90093262 30.07427734 -11.92686523 30.64855469 -12.98388672 31.24023438 C-13.79100098 31.68689453 -14.59811523 32.13355469 -15.4296875 32.59375 C-16.25710449 33.05458984 -17.08452148 33.51542969 -17.93701172 33.99023438 C-20 35 -20 35 -22 35 C-22 27.08 -22 19.16 -22 11 C-18.555625 9.185 -15.11125 7.37 -11.5625 5.5 C-10.47525635 4.92572266 -9.3880127 4.35144531 -8.26782227 3.75976562 C-7.41760498 3.31310547 -6.5673877 2.86644531 -5.69140625 2.40625 C-4.81685791 1.94541016 -3.94230957 1.48457031 -3.04125977 1.00976562 C-1 0 -1 0 0 0 Z " fill="#25547B" transform="translate(575,506)"/>
<path d="M0 0 C6.75327251 2.25109084 6.75327251 2.25109084 9.61328125 3.91015625 C10.22107422 4.26013672 10.82886719 4.61011719 11.45507812 4.97070312 C12.06802734 5.33099609 12.68097656 5.69128906 13.3125 6.0625 C14.26092773 6.60874023 14.26092773 6.60874023 15.22851562 7.16601562 C19.83996333 9.83996333 19.83996333 9.83996333 21 11 C21.08713831 12.70772358 21.10700007 14.41898649 21.09765625 16.12890625 C21.09443359 17.16337891 21.09121094 18.19785156 21.08789062 19.26367188 C21.07951172 20.35228516 21.07113281 21.44089844 21.0625 22.5625 C21.05798828 23.65498047 21.05347656 24.74746094 21.04882812 25.87304688 C21.03699826 28.58208495 21.02051543 31.29101599 21 34 C15.99918799 32.52000891 11.6696963 30.36699339 7.125 27.875 C4.77375 26.59625 2.4225 25.3175 0 24 C0 16.08 0 8.16 0 0 Z " fill="#24537A" transform="translate(575,431)"/>
<path d="M0 0 C0 7.92 0 15.84 0 24 C-4.3621875 26.475 -4.3621875 26.475 -8.8125 29 C-9.72491455 29.52207031 -10.6373291 30.04414063 -11.57739258 30.58203125 C-12.66250122 31.19111328 -12.66250122 31.19111328 -13.76953125 31.8125 C-14.87711792 32.44091797 -14.87711792 32.44091797 -16.00708008 33.08203125 C-18 34 -18 34 -21 34 C-22.62986845 13.29314825 -22.62986845 13.29314825 -19.08984375 8.3125 C-16.43075692 6.80006731 -13.92200739 5.89159726 -11 5 C-9.31356463 4.07689854 -7.64501825 3.12003543 -6 2.125 C-2.25786164 0 -2.25786164 0 0 0 Z " fill="#24527A" transform="translate(625,431)"/>
<path d="M0 0 C1.46520701 0.71748952 2.90728024 1.48339385 4.328125 2.28515625 C5.12734375 2.73310547 5.9265625 3.18105469 6.75 3.64257812 C7.575 4.11115234 8.4 4.57972656 9.25 5.0625 C10.09046875 5.53494141 10.9309375 6.00738281 11.796875 6.49414062 C13.86698876 7.65857961 15.93455014 8.8273145 18 10 C14.64915856 13.77715715 10.95415557 15.96427361 6.5625 18.3125 C5.90701172 18.68439453 5.25152344 19.05628906 4.57617188 19.43945312 C1.88548971 20.88869718 -0.33145381 21.9956868 -3.421875 22.015625 C-7.38380963 20.45486287 -11.08050753 18.4802419 -14.8125 16.4375 C-15.60076172 16.01275391 -16.38902344 15.58800781 -17.20117188 15.15039062 C-19.1373378 14.10603446 -21.07005367 13.0557923 -23 12 C-23 11.34 -23 10.68 -23 10 C-20.09526305 7.83494984 -16.88557965 6.12148826 -13.75 4.3125 C-12.87730469 3.78849609 -12.00460937 3.26449219 -11.10546875 2.72460938 C-10.26113281 2.23412109 -9.41679688 1.74363281 -8.546875 1.23828125 C-7.77182617 0.78493408 -6.99677734 0.33158691 -6.19824219 -0.13549805 C-3.55362305 -1.17554651 -2.61358952 -1.02988791 0 0 Z " fill="#25547B" transform="translate(653,489)"/>
<path d="M0 0 C3.05493169 1.53961305 5.96349337 3.26871583 8.875 5.0625 C9.65875 5.53494141 10.4425 6.00738281 11.25 6.49414062 C13.17198433 7.65436287 15.08822535 8.82305776 17 10 C13.24888582 12.99114819 9.19577126 15.39734332 5.0625 17.8125 C4.00772461 18.4612207 4.00772461 18.4612207 2.93164062 19.12304688 C-2.26082532 22.13535842 -2.26082532 22.13535842 -5.453125 21.55078125 C-6.71382812 20.78314453 -6.71382812 20.78314453 -8 20 C-9.39965357 19.27343981 -10.80231507 18.55266079 -12.20703125 17.8359375 C-13.74356636 17.01821066 -15.27869204 16.19783076 -16.8125 15.375 C-17.60076172 14.95476562 -18.38902344 14.53453125 -19.20117188 14.1015625 C-21.13535326 13.0699991 -23.06823983 12.03608828 -25 11 C-21.81592783 7.61551464 -18.18842423 5.54971529 -14.1875 3.25 C-13.48818359 2.82589844 -12.78886719 2.40179688 -12.06835938 1.96484375 C-7.67000875 -0.5614306 -5.01790939 -1.7842887 0 0 Z " fill="#25537B" transform="translate(604,414)"/>
<path d="M0 0 C1.88700273 1.16967672 3.69195383 2.38169443 5.47216797 3.70800781 C7.23215072 5.04595556 7.23215072 5.04595556 10.00390625 6.5546875 C11.02291016 7.20824219 11.02291016 7.20824219 12.0625 7.875 C12.0625 8.535 12.0625 9.195 12.0625 9.875 C9.01249316 11.58584854 5.94581982 13.26433996 2.875 14.9375 C2.01068359 15.42283203 1.14636719 15.90816406 0.25585938 16.40820312 C-1.00581055 17.08979492 -1.00581055 17.08979492 -2.29296875 17.78515625 C-3.06278076 18.20933838 -3.83259277 18.63352051 -4.62573242 19.07055664 C-8.20415995 20.3157693 -10.68574576 19.42771333 -14.06567383 17.93530273 C-15.09470825 17.37758179 -15.09470825 17.37758179 -16.14453125 16.80859375 C-17.27084961 16.2043457 -17.27084961 16.2043457 -18.41992188 15.58789062 C-19.57331055 14.95657227 -19.57331055 14.95657227 -20.75 14.3125 C-21.53826172 13.88775391 -22.32652344 13.46300781 -23.13867188 13.02539062 C-25.0748378 11.98103446 -27.00755367 10.9307923 -28.9375 9.875 C-28.9375 9.215 -28.9375 8.555 -28.9375 7.875 C-9.97375304 -5.75080337 -9.97375304 -5.75080337 0 0 Z " fill="#25537B" transform="translate(557.9375,491.125)"/>
<path d="M0 0 C0.76927319 8.95775891 0.76927319 8.95775891 -1.9375 12.625 C-6.04990954 14.47138796 -9.56343158 14.83612251 -14 14 C-16.125 12.375 -16.125 12.375 -17 10 C-17 6.2868031 -16.42820539 4.5423935 -14.125 1.625 C-9.49478795 -0.78271027 -5.11864142 -0.32271645 0 0 Z " fill="#26557C" transform="translate(679,835)"/>
<path d="M0 0 C4.12507614 0.66295867 5.75668103 1.41575177 8.5 4.5625 C8.83 6.8725 9.16 9.1825 9.5 11.5625 C3.23 11.5625 -3.04 11.5625 -9.5 11.5625 C-8.37252097 4.79762581 -7.13853212 1.14726409 0 0 Z " fill="#25547B" transform="translate(207.5,816.4375)"/>
</svg>
